<?xml version="1.0"?>
<svg width="1920" height="1080" xmlns="http://www.w3.org/2000/svg" xmlns:xlink="http://www.w3.org/1999/xlink">
 <metadata id="metadata21">image/svg+xml</metadata>
 <g>
  <title>Layer 1</title>
  <g id="svg_1">
   <path fill="#ffffff" d="m1372.91394,482.59964c-22.59619,0 -41.00781,18.38489 -41.00781,40.98093l0,314.72412c0,22.6731 18.41162,41.11169 41.00781,41.11169l314.74915,0c22.6228,0 41.03503,-18.43842 41.03503,-41.11169l0,-314.72412c0,-22.59604 -18.41223,-40.98093 -41.03503,-40.98093l-314.74915,0z" id="path7"/>
   <path d="m1553.4718,775.03894l-3.29358,24.68829l-88.9989,21.65552l0.83691,15.29822l217.07056,0c7.6626,0 13.8855,-6.22296 13.8855,-13.91229l-0.26123,-292.54681l-29.73633,-6.95618l-17.07581,76.9165l-28.53174,12.00409l-25.34082,70.92804l24.0354,54.26758l-6.77209,20.8454l-55.81787,16.81165l0,0z" id="path11" fill="black"/>
   <path d="m1493.0083,572.79938c15.27124,0 27.67114,-12.42273 27.67114,-27.72095c0,-15.27148 -12.39612,-27.69421 -27.67114,-27.69421c-15.29871,0 -27.72131,12.42273 -27.72131,27.69421c0,15.29822 12.42261,27.72095 27.72131,27.72095z" id="path13"/>
   <path d="m1437.87708,577.11432c2.1189,-3.7392 0.8905,-8.65692 -2.95618,-10.77588l-13.39026,-7.84662c-3.84277,-2.11896 -8.65698,-0.91388 -10.87964,2.92914l-41.34583,71.34607c-2.11914,3.76593 -0.89063,8.60303 2.95569,10.80243l13.46765,7.7663c3.76611,2.19592 8.57617,0.8905 10.80237,-2.87555l41.34619,-71.34589z" id="path15"/>
   <path stroke="#000000" fill="#000000" stroke-width="0.4" stroke-miterlimit="4" id="path3769" d="m1463.24475,586.43378c-19.73035,16.78845 16.98511,42.21362 38.91553,55.65277c21.93091,13.43903 82.01563,17.15625 82.01563,17.15625c0,0 -46.2843,-18.70807 -66.5332,-33.89398c-20.24841,-15.18597 -34.66736,-55.70349 -54.39795,-38.91504z"/>
   <path stroke="#000000" fill="#000000" stroke-width="0.4" stroke-miterlimit="4" id="path3769-3" d="m1416.37854,678.2821c-23.73254,2.65698 -9.79358,37.29907 -9.20581,44.7738c0.58789,7.47498 3.01831,10.15894 -1.96521,36.04822c-3.52905,18.33466 -41.13489,89.9043 -41.13489,89.9043c0,0 61.2489,-56.18268 69.46216,-82.01544c8.21375,-25.83295 6.57666,-91.36798 -17.15625,-88.71088z"/>
   <path stroke="#000000" fill="#000000" stroke-width="0.42696" stroke-miterlimit="4" id="path3769-1" d="m1445.37585,691.07507c-6.61975,15.72937 29.1239,28.11115 41.7428,33.12061c16.42688,3.98199 6.81934,48.87811 32.46655,79.5755c0,0 11.24902,-89.7937 -10.17188,-100.54279c-21.42053,-10.74908 -57.41724,-27.883 -64.03748,-12.15332z"/>
  </g>
  <g id="svg_15">
   <path d="m281.00854,520.16986c16.56699,-6.61389 34.883,-2.07898 50.55298,4.86395c17.48599,8.21686 35.35001,20.17169 42.52301,38.93945c3.21899,7.65784 1.10599,16.59375 -4.423,22.59668c-4.35101,3.71588 -10.53799,2.67896 -15.75101,2.15295c-11.83398,-2.53998 -19.078,-13.06586 -28.27399,-19.96075c-7.97202,-7.01685 -16.457,-14.61279 -27.24701,-16.55377c-9.62601,-1.59003 -17.987,4.77893 -24.15604,11.38586c-9.28497,11.45386 -15.14999,25.21765 -19.72298,39.11444c-2.97102,12.11981 -9.293,23.68365 -8.53201,36.47546c-0.90401,-11.79877 -4.269,-23.28265 -4.59201,-35.13947c-0.603,-15.2868 1.33601,-30.65961 5.17601,-45.44037c7.041,-15.84076 17.92203,-31.51953 34.44601,-38.43445l0.00003,0z" id="svg_1"/>
   <path d="m432.05554,530.3017c11.99399,-1.39294 24.60199,3.31299 32.65198,12.34381c5.46002,6.72095 9.12701,15.18878 9.069,23.93671c-1.05899,10.6358 -6.41098,21.14569 -15.34198,27.25763c-10.52802,7.46185 -24.92001,9.01587 -36.76602,3.84393c-17.60001,-6.68695 -27.85001,-29.34259 -18.802,-46.45636c5.08902,-11.64185 16.82404,-19.21674 29.18903,-20.92572z" id="svg_2" fill="black"/>
   <path fill="black" d="m556.91852,592.12683c0.71106,-0.039 1.42706,-0.05798 2.15106,-0.04401c-0.3031,6.30792 1.34094,12.61285 0.30096,18.89673c-1.66608,10.80286 -6.01599,20.94873 -10.72797,30.73163c-10.35107,23.08984 -29.92505,42.15784 -53.65704,51.13086c-10.89401,3.84308 -23.82001,3.54803 -33.63699,-3.01196c-15.87701,-10.367 -28.36401,-26.177 -33.82501,-44.42694c-3.457,-9.85693 -3.577,-21.69275 2.367,-30.62561c2.97101,-3.91394 6.987,-8.28589 12.35699,-7.99286c5.54901,0.513 10.509,3.84589 13.85999,8.18988c7.88901,10.35577 9.54001,23.82465 16.04401,34.88153c5.44101,7.13098 14.23901,15.60205 23.966,11.42999c11.72202,-4.95599 21.58798,-13.38605 31.11899,-21.65192c12.05103,-10.36383 20.43805,-24.19861 27.13403,-38.44348c1.34399,-2.85791 2.28302,-5.90491 2.54797,-9.06384l0,0z" id="svg_3"/>
   <path d="m264.07153,658.34302c6.97299,-5.90393 17.26999,-5.33093 25.379,-2.37793c8.146,3.46399 16.728,6.14001 24.16599,11.06696c11.548,7.40009 22.58401,15.69708 32.457,25.22906c11.155,9.01801 21.51401,19.07697 30.39102,30.36499c6.55099,7.70593 13.39099,16.70898 12.875,27.38092c-4.84,15.55005 -18.16501,26.9201 -32.026,34.52704c-18.383,9.34705 -38.88702,13.05701 -58.534,18.79297c-8.49701,2.74304 -17.41699,3.74207 -26.25302,4.69202c-10.00601,0.54102 -20.06499,2.60608 -30.064,0.83508c6.407,-4.65808 14.164,-6.72803 21.207,-10.17706c20.22202,-8.73004 39.255,-19.92303 58.95801,-29.73102c8.34601,-4.04095 16.521,-9.18994 21.293,-17.41699c-0.255,-1.80798 -0.504,-3.61194 -0.745,-5.41095c-5.60901,-5.67902 -12.534,-9.73602 -19.672,-13.17706c-8.328,6.88403 -17.92902,12.12 -25.60101,19.80603c-21.052,15.66901 -44.32401,27.95496 -66.744,41.51306c-30.18199,16.961 -58.73599,36.73792 -89.491,52.69995c-1.79199,0.64398 -3.62799,1.14203 -5.506,1.5c11.81,-12.86804 25.563,-23.82001 37.19099,-36.86505c16.78101,-17.578 33.56299,-35.16492 51.071,-52.02399c18.491,-17.80493 36.46301,-36.13593 53.60001,-55.24902c-7.228,-6.68298 -16.561,-12.83899 -18.75699,-23.08698c-2.086,-7.75201 -0.85803,-16.90692 4.80499,-22.89203z" id="svg_4" fill="black"/>
  </g>
  <g id="svg_16">
   <path fill="black" id="svg_6" d="m1023.19727,616.94171c14.81482,17.65216 37.00317,27.02771 58.90369,32.37921c19.19263,5.63 39.46387,6.79297 59.33887,5.85229c-10.19128,-4.58606 -22.14624,-3.11633 -32.14014,-8.39886c-22.39355,-10.43835 -45.6261,-22.35095 -60.4408,-42.86444c-8.10461,-10.56659 -11.30859,-23.79718 -18.27698,-35.01495c-2.94885,-4.52496 -7.30945,-8.24695 -12.60938,-9.63055c-9.14709,-1.90173 -21.34167,4.50934 -19.65588,15.16351c3.00671,16.51593 13.96631,30.28339 24.88062,42.51379z"/>
   <path id="svg_7" d="m932.37256,661.32611c-1.91272,-15.83063 -1.51038,-32.38403 -8.15942,-47.22052c-3.20703,-7.72266 -9.99548,-13.75177 -18.30676,-15.28882c-7.18896,2.89093 -13.48584,8.41449 -15.33594,16.19977c-4.00684,16.43762 2.52625,32.78448 5.505,48.81696c6.52222,33.53473 17.30481,66.01923 24.42505,99.41296c4.8302,16.50214 9.8562,32.95874 14.7616,49.44519c1.7561,5.12915 2.97229,10.64343 6.37976,15.00732c1.02673,-12.35278 -0.13452,-24.73822 -0.67627,-37.08154c-2.01135,-43.15295 -4.547,-86.28082 -8.59302,-129.29132z"/>
   <path id="svg_8" d="m1015.4447,640.37415c-5.8053,-12.59662 -18.48987,-19.63062 -29.68115,-26.77881c-13.14148,-8.68213 -29.35864,-13.26813 -45.05603,-11.14728c-5.45349,4.57971 -9.46338,11.77338 -8.28162,19.05933c1.74353,6.91504 8.02332,11.10504 13.61096,14.81451c12.72522,7.5849 27.04065,11.79224 40.80981,17.00745c-11.7876,24.30469 -23.51563,48.64685 -35.84802,72.68701c-1.77014,3.33234 -2.54492,7.05908 -3.10229,10.7608c2.57007,-1.02197 5.01343,-2.33057 6.89807,-4.40289c11.85156,-11.54968 22.70801,-24.07776 34.59729,-35.59137c8.57275,-9.23175 18.09399,-18.09235 23.53784,-29.66241c3.62488,-8.28772 6.67566,-18.05945 2.51514,-26.74634z"/>
   <path id="svg_9" d="m858.44128,665.84326c-8.45215,-3.14136 -17.45825,-5.02905 -26.46936,-5.02905c-4.24316,0 -8.48962,0.41791 -12.67664,1.32263c-26.13123,5.70679 -48.9552,23.21838 -62.34094,46.20667c-17.89343,27.89685 -22.4248,65.19116 -8.22668,95.60803c8.13269,17.94196 24.36096,32.33881 43.5614,37.23474c5.5863,1.31799 11.31335,1.96765 17.04358,1.96765c14.30457,0 28.61072,-4.0509 40.64075,-11.86597c19.13953,-10.76245 33.08081,-28.89233 42.47534,-48.41681c8.73535,-21.22583 12.45129,-45.35675 6.12317,-67.75958c-4.98987,-21.33386 -19.82202,-40.56256 -40.13062,-49.26831zm25.42847,113.20093c-6.82288,14.1026 -19.0127,33.09814 -38.49792,44.0545l-0.26147,0.15033l-0.25195,0.16272c-10.27405,6.67255 -22.89124,10.34924 -35.52576,10.34924c-5.02112,0 -10.00171,-0.56976 -14.80225,-1.69672c-15.88062,-4.07733 -30.14905,-16.3299 -37.2489,-31.99139l-0.02197,-0.047l-0.02173,-0.04541c-12.25732,-26.25793 -9.26624,-60.23724 7.62097,-86.56714l0.1095,-0.16754l0.10181,-0.17377c12.31348,-21.146 33.33435,-36.75745 56.2052,-41.75208c3.41687,-0.73724 7.01697,-1.11133 10.69666,-1.11133c7.39734,0 15.12781,1.46661 22.98206,4.35602c16.81995,7.3017 30.01929,23.63312 34.47534,42.68652l0.04858,0.20978l0.05786,0.20654c6.55676,23.20428 0.56824,46.1394 -5.66602,61.37671z"/>
   <path id="svg_10" d="m1159.17212,715.30872c-3.61877,-13.65961 -11.61072,-25.89648 -21.97412,-35.40039c-11.85486,-10.46344 -27.64307,-15.93701 -43.39551,-15.93701c-4.39209,0 -8.7793,0.42566 -13.07581,1.28967c-12.14136,2.89099 -23.91333,7.74316 -33.9823,15.20605c-15.9231,10.80164 -27.15637,27.03748 -35.68542,44.01379c-8.35352,19.41797 -11.39783,41.11047 -7.79321,62.00598c3.85059,17.17975 11.7345,34.21082 25.91687,45.25354c11.55298,9.96094 26.56177,14.56897 41.6394,14.56897c8.94836,0 17.92175,-1.62317 26.21118,-4.71613c48.22266,-18.63843 76.96301,-76.6922 62.13892,-126.28448zm-15.85413,70.59576c-10.72168,21.75348 -28.80457,38.84552 -49.62195,46.90643c-7.21558,2.68585 -15.1261,4.10547 -22.87708,4.10547c-13.7019,0 -26.31445,-4.36682 -35.50696,-12.29156l-0.17676,-0.15497l-0.18481,-0.14404c-13.51086,-10.51971 -19.6748,-27.33008 -22.46863,-39.6687c-3.15234,-18.5415 -0.69958,-37.96899 7.09509,-56.21619c9.38818,-18.6167 20.00195,-31.76758 32.43896,-40.20728l0.16284,-0.10791l0.1582,-0.11597c8.32056,-6.16528 18.54932,-10.73254 30.39807,-13.57501c3.6062,-0.71216 7.32983,-1.0722 11.07227,-1.0722c13.81299,0 27.33643,4.93201 37.11121,13.52966c9.52271,8.75116 16.15137,19.40558 19.17688,30.81915l0.0376,0.14398l0.03918,0.1424c6.38599,21.36835 3.88806,46.11908 -6.85413,67.90674z"/>
   <circle id="svg_14" r="34.23905" cy="549.94534" cx="1075.06683"/>
  </g>
  <text xml:space="preserve" text-anchor="middle" font-family="Sans-serif" font-size="122" id="svg_5" y="296.09073" x="348.28791" stroke-linecap="null" stroke-linejoin="null" stroke-dasharray="null" stroke-width="0" fill="#000000">running</text>
  <text xml:space="preserve" text-anchor="middle" font-family="Sans-serif" font-size="122" id="svg_11" y="296.08529" x="954.26349" stroke-linecap="null" stroke-linejoin="null" stroke-dasharray="null" stroke-width="0" fill="#000000">cycling</text>
  <text xml:space="preserve" text-anchor="middle" font-family="Sans-serif" font-size="122" id="svg_12" y="296.08869" x="1530.30459" stroke-linecap="null" stroke-linejoin="null" stroke-dasharray="null" stroke-width="0" fill="#000000">trekking</text>
 </g>
</svg>