<?xml version="1.0"?>
<svg width="1920" height="1080" xmlns="http://www.w3.org/2000/svg" xmlns:xlink="http://www.w3.org/1999/xlink">
 <!-- Created with SVG-edit - http://svg-edit.googlecode.com/ -->
 <defs>
  <filter id="svg_1_blur" x="-50%" y="-50%" width="200%" height="200%">
   <feGaussianBlur stdDeviation="10"/>
  </filter>
  <filter id="svg_14_blur" x="-50%" y="-50%" width="200%" height="200%">
   <feGaussianBlur stdDeviation="10"/>
  </filter>
 </defs>
 <g display="inline">
  <title>research</title>
  <g id="svg_15">
   <path stroke="#454a4b" d="m693.44092,459.58044c0,0 -2.25214,1.69269 -3.39246,2.00464c-1.02643,0.28036 -2.55646,0.3891 -3.54688,0c-0.82257,-0.32294 -2.15894,-2.00464 -2.15894,-2.00464c-8.88379,2.18854 -13.1842,-5.35159 -13.72467,-9.86969c0,0 -3.10968,-0.78162 -4.47223,-0.92514c-3.8537,-0.40604 -5.83545,-10.21115 -5.86005,-10.79459c-0.72687,-17.29623 1.66736,-25.83551 13.41656,-37.16461c5.11267,-4.92996 12.81403,-7.48798 24.36505,-7.86462c7.28577,-0.23761 13.38599,0.08405 18.35077,2.62152c0,0 10.16882,4.24719 13.87848,7.09363c3.56006,2.73169 7.40588,7.19769 10.02362,11.103c3.54102,7.72659 2.14642,19.49875 -6.16809,20.81848l-9.71509,1.54211c-2.75586,0.47049 3.6748,5.63184 -3.85565,10.1778c-6.24078,6.29349 -13.58612,0.66367 -14.18677,1.23367c0,0 -2.6756,3.77753 -3.54681,5.55142c-0.84528,1.72073 -1.685,4.15662 -2.15906,6.01416c-0.37036,1.45209 0.53027,4.19205 -0.771,4.9346c-3.15082,1.79944 -6.47681,0.61243 -6.47681,-0.15393l0,-4.31781l0,0l0,0z" stroke-miterlimit="4" stroke-width="6" fill-rule="evenodd" fill="#000000" fill-opacity="0" id="svg_14" opacity="0.7" filter="url(#svg_14_blur)"/>
   <g id="svg_1" filter="url(#svg_1_blur)" opacity="0.55">
    <path stroke="#000000" d="m816.40472,762.10663c0,0 -22.53217,-19.43982 -29.51208,-28.87018c-12.96289,-17.5141 -28.14032,-41.87988 -34.64484,-62.2334c-7.42767,-23.24249 -10.96838,-56.51825 -8.98199,-80.83813c1.85541,-22.7146 8.27234,-53.92725 20.53033,-73.13947c13.36249,-20.94318 40.90869,-42.28586 62.87366,-53.89185c22.20923,-11.73486 55.7926,-19.89481 80.83801,-21.81335c24.32922,-1.86368 57.21503,2.86826 80.83685,8.98199c27.05963,7.00366 63.13617,20.76025 84.6839,38.49414c51.98608,45.42462 51.43982,104.65082 55.177,168.09222c3.71411,15.06641 16.49023,32.39227 25.6615,44.9093c4.02417,5.4953 12.35938,10.58618 15.39783,16.68097c1.92053,3.85132 4.21204,10.13904 2.56592,14.11487c-2.32959,5.62201 -11.37366,8.56653 -16.68103,11.54913c-3.30505,1.85706 -9.69189,1.8266 -11.54626,5.13153c-4.37219,7.78687 7.24023,20.41559 1.9231,27.5874c-2.78931,3.76245 -13.47192,4.49146 -13.47192,4.49146c0,0 13.21021,16.74701 7.69727,16.68103c-3.07373,-0.03821 -12.40002,15.5451 -10.26343,20.52948c0,0 6.31567,14.99402 6.41479,21.81268c0.10913,7.56293 -1.1991,18.90375 -6.41479,24.38098c-5.29199,5.55347 -16.97559,5.69836 -24.3811,7.69769c-11.80811,3.19336 -134.927,5.08612 -159.10565,-31.43591c-24.17883,-36.52185 -49.13348,-41.50134 -129.59705,-78.9126l0,0l0,0l0,0z" stroke-miterlimit="4" stroke-width="15" fill-rule="evenodd" fill="#000000" id="svg_5"/>
    <path stroke="#000000" d="m899.16711,737.08545c0,0 -9.37,7.04218 -14.11444,8.34027c-4.27002,1.16608 -10.63538,1.61829 -14.7561,0c-3.42255,-1.34393 -8.98199,-8.34027 -8.98199,-8.34027c-36.95984,9.10498 -54.85052,-22.26489 -57.09967,-41.06195c0,0 -12.93677,-3.25189 -18.60547,-3.84882c-16.03296,-1.68921 -24.27771,-42.4826 -24.37964,-44.90985c-3.02411,-71.95892 6.93622,-107.48578 55.81665,-154.61914c21.271,-20.51068 53.31128,-31.15295 101.36792,-32.71991c30.31183,-0.9884 55.69116,0.34964 76.34656,10.90649c0,0 42.30573,17.66989 57.73871,29.51233c14.81067,11.36487 30.81055,29.94519 41.70166,46.19287c14.73218,32.14557 8.92981,81.12219 -25.6615,86.61292l-40.41797,6.41577c-11.46497,1.95746 15.28821,23.43079 -16.0401,42.34363c-25.96423,26.18353 -56.5235,2.76105 -59.0224,5.13245c0,0 -11.13116,15.716 -14.75623,23.09607c-3.51636,7.15918 -7.01013,17.29321 -8.98224,25.0213c-1.54108,6.04132 2.20569,17.44055 -3.20776,20.52972c-13.10895,7.48688 -26.94598,2.54816 -26.94598,-0.64008l0,-17.96381l0,0z" stroke-miterlimit="4" stroke-width="15" fill-rule="evenodd" fill="#000000" id="svg_13"/>
   </g>
   <path stroke="#454a4b" d="m1145.50464,451.63232c0,0 -2.25208,1.69269 -3.39246,2.00467c-1.02637,0.28036 -2.5564,0.38907 -3.54688,0c-0.82263,-0.32297 -2.15894,-2.00467 -2.15894,-2.00467c-8.88379,2.18854 -13.1842,-5.35159 -13.72473,-9.86966c0,0 -3.10962,-0.78165 -4.47217,-0.92511c-3.85352,-0.40604 -5.83545,-10.21121 -5.85999,-10.79462c-0.72693,-17.29623 1.66736,-25.83551 13.4165,-37.16458c5.11267,-4.92999 12.81396,-7.48801 24.36499,-7.86469c7.28589,-0.23755 13.38611,0.08405 18.35095,2.62152c0,0 10.1687,4.24719 13.87842,7.09366c3.55994,2.73166 7.40588,7.19769 10.02368,11.103c3.54089,7.72659 2.14624,19.49872 -6.16821,20.81848l-9.71509,1.54211c-2.75586,0.47046 3.67493,5.63184 -3.85571,10.17776c-6.24072,6.29355 -13.58594,0.66367 -14.18652,1.2337c0,0 -2.67566,3.77753 -3.54688,5.55142c-0.84546,1.7207 -1.68518,4.15659 -2.15906,6.01413c-0.37048,1.45212 0.53015,4.19205 -0.77112,4.9346c-3.15076,1.79947 -6.47681,0.61246 -6.47681,-0.15393l0,-4.31781l0,0l0,0z" stroke-miterlimit="4" stroke-width="6" fill-rule="evenodd" fill="#000000" fill-opacity="0" opacity="0.7" filter="url(#svg_14_blur)" id="svg_16"/>
   <path stroke="#454a4b" d="m872.58215,1025.43176c0,0 -2.2522,1.69275 -3.39252,2.00464c-1.02643,0.2804 -2.55646,0.38916 -3.54688,0c-0.82263,-0.323 -2.15887,-2.00464 -2.15887,-2.00464c-8.88385,2.18848 -13.18427,-5.35162 -13.72479,-9.86969c0,0 -3.10962,-0.78162 -4.47217,-0.92499c-3.8537,-0.40613 -5.83545,-10.2113 -5.86011,-10.79468c-0.72681,-17.29633 1.66742,-25.83551 13.41663,-37.16467c5.11273,-4.92993 12.81403,-7.48798 24.36505,-7.86462c7.28577,-0.23755 13.38599,0.08411 18.35083,2.62158c0,0 10.16876,4.24719 13.87842,7.09363c3.56006,2.73169 7.40588,7.19763 10.02368,11.10297c3.54102,7.72656 2.14636,19.49878 -6.16815,20.81842l-9.71503,1.54211c-2.75592,0.47046 3.67474,5.6319 -3.85565,10.17786c-6.24084,6.29352 -13.58618,0.6637 -14.18677,1.23364c0,0 -2.6756,3.77765 -3.54681,5.55145c-0.84528,1.72076 -1.685,4.15662 -2.15906,6.01422c-0.37042,1.4519 0.53027,4.19189 -0.77112,4.93457c-3.1507,1.79944 -6.47668,0.61243 -6.47668,-0.15393l0,-4.31787l0,0z" stroke-miterlimit="4" stroke-width="6" fill-rule="evenodd" fill="#000000" fill-opacity="0" opacity="0.7" filter="url(#svg_14_blur)" id="svg_17"/>
   <ellipse stroke="#000000" opacity="0.7" transform="matrix(-0.522144 -0.904378 0.904378 -0.522144 517.234 1481.83)" id="svg_3" ry="371.73914" rx="152.17392" cy="759.59793" cx="479.4431" fill-opacity="0" stroke-linecap="null" stroke-linejoin="null" stroke-dasharray="null" stroke-width="16" fill="#000000"/>
   <ellipse stroke="#000000" opacity="0.7" ry="388.20288" rx="158.91346" id="svg_2" cy="651.62222" cx="953.85924" fill-opacity="0" stroke-linecap="null" stroke-linejoin="null" stroke-dasharray="null" stroke-width="20" fill="#000000"/>
   <ellipse stroke="#000000" opacity="0.7" id="svg_4" transform="matrix(0.522144 -0.904378 0.904378 0.522144 -327.24 767.98)" ry="371.73914" rx="152.17392" cy="1006.7013" cx="709.87976" fill-opacity="0" stroke-linecap="null" stroke-linejoin="null" stroke-dasharray="null" stroke-width="16" fill="#000000"/>
   <g id="svg_9">
    <path stroke="#6a3900" d="m812.88568,755.22998c0,0 -22.5321,-19.43982 -29.51208,-28.87012c-12.96283,-17.51404 -28.14026,-41.87988 -34.64478,-62.2334c-7.42767,-23.24249 -10.96844,-56.51825 -8.98206,-80.83813c1.85541,-22.7146 8.27234,-53.92725 20.53033,-73.13947c13.36249,-20.94318 40.90875,-42.28589 62.87372,-53.89182c22.20923,-11.7348 55.7926,-19.89484 80.83801,-21.81339c24.32916,-1.86368 57.21503,2.86826 80.83685,8.98199c27.06006,7.00366 63.13745,20.76028 84.68591,38.49414c51.98596,45.42456 51.43982,104.65082 55.17688,168.09216c3.71411,15.06647 16.49023,32.39215 25.66138,44.9093c4.02417,5.49536 12.35938,10.58624 15.39783,16.68091c1.92053,3.85138 4.21216,10.1391 2.5658,14.11499c-2.32935,5.62201 -11.37354,8.56653 -16.68079,11.54907c-3.30518,1.85718 -9.69202,1.8266 -11.54639,5.13165c-4.37219,7.78674 7.24036,20.41559 1.9231,27.58728c-2.78943,3.76251 -13.47205,4.49146 -13.47205,4.49146c0,0 13.21033,16.74701 7.69751,16.68103c-3.07385,-0.03815 -12.40015,15.54517 -10.26343,20.52954c0,0 6.31555,14.99396 6.41479,21.81262c0.10913,7.56305 -1.19934,18.90375 -6.41479,24.38104c-5.29187,5.55353 -16.97571,5.6983 -24.3811,7.69763c-11.80835,3.19336 -134.92896,5.08612 -159.10754,-31.43597c-24.17883,-36.52179 -49.13354,-41.50134 -129.59711,-78.91254l0,0l0,0z" id="path2396" stroke-miterlimit="4" stroke-width="10" fill-rule="evenodd" fill="#ffd199"/>
    <path stroke="#454a4b" d="m895.64819,730.20886c0,0 -9.37006,7.04211 -14.11456,8.34021c-4.26996,1.16608 -10.63538,1.61835 -14.75604,0c-3.42255,-1.34381 -8.98199,-8.34021 -8.98199,-8.34021c-36.9599,9.10492 -54.85052,-22.26483 -57.09967,-41.06195c0,0 -12.93689,-3.25189 -18.60547,-3.84888c-16.03302,-1.68921 -24.27771,-42.48254 -24.3797,-44.90979c-3.02405,-71.95898 6.93628,-107.48578 55.81671,-154.61914c21.27087,-20.51065 53.31122,-31.15295 101.36786,-32.71991c30.31183,-0.9884 55.69122,0.34961 76.34662,10.90652c0,0 42.30652,17.66989 57.73999,29.5123c14.81104,11.36487 30.81104,29.94519 41.70215,46.19287c14.73206,32.14557 8.92981,81.12225 -25.66138,86.61298l-40.41919,6.41577c-11.46527,1.9574 15.28857,23.43073 -16.04065,42.34351c-25.96448,26.18359 -56.52368,2.76105 -59.02258,5.13257c0,0 -11.13116,15.71588 -14.75616,23.09607c-3.51642,7.15906 -7.01025,17.29315 -8.98236,25.0213c-1.54089,6.0412 2.20587,17.44049 -3.2077,20.5296c-13.10895,7.48688 -26.94586,2.54816 -26.94586,-0.64001l0,-17.96381l0,0l0,0z" id="path3168" stroke-miterlimit="4" stroke-width="10" fill-rule="evenodd" fill="#919899"/>
   </g>
   <path stroke="#000000" fill-opacity="0" id="svg_6" d="m1029.6311,441.96478c-112.06256,38.98889 -205.73413,90.48376 -316.32532,189.79517" opacity="0.55" stroke-linecap="null" stroke-linejoin="null" stroke-dasharray="null" stroke-width="18" fill="#000000"/>
   <path stroke="#000000" id="svg_7" fill-opacity="0" d="m1153.32324,597.17456c-91.38135,-73.47406 -183.93854,-126.9458 -326.164,-169.39713" opacity="0.55" stroke-linecap="null" stroke-linejoin="null" stroke-dasharray="null" stroke-width="18" fill="#000000"/>
   <path stroke="#000000" id="svg_8" d="m802.31824,767.1178c-11.03467,-123.83276 -13.24152,-216.03302 17.65533,-327.35995" opacity="0.55" fill-opacity="0" stroke-linecap="null" stroke-linejoin="null" stroke-dasharray="null" stroke-width="18" fill="#000000"/>
   <path stroke="#454a4b" id="svg_10" d="m693.78943,458.45764c0,0 -2.25214,1.69269 -3.39258,2.00467c-1.02637,0.2803 -2.5564,0.38901 -3.54681,0c-0.82263,-0.32297 -2.15894,-2.00467 -2.15894,-2.00467c-8.88373,2.18848 -13.18408,-5.35165 -13.72461,-9.86972c0,0 -3.10956,-0.78159 -4.47205,-0.92508c-3.8537,-0.40601 -5.83545,-10.21124 -5.85999,-10.79465c-0.72681,-17.2962 1.6673,-25.83551 13.41632,-37.16458c5.11267,-4.92996 12.81396,-7.48798 24.36493,-7.86462c7.28577,-0.23758 13.38599,0.08405 18.35089,2.62152c0,0 10.16882,4.24713 13.87842,7.09363c3.56006,2.73169 7.40588,7.19769 10.02362,11.10303c3.54102,7.72656 2.14642,19.49872 -6.16809,20.81845l-9.71515,1.54214c-2.7558,0.47046 3.6748,5.63181 -3.85559,10.17776c-6.24078,6.29355 -13.58618,0.66367 -14.18677,1.23367c0,0 -2.67554,3.77753 -3.54675,5.55139c-0.84534,1.72073 -1.68506,4.15662 -2.15912,6.01419c-0.37036,1.45209 0.53027,4.19202 -0.771,4.93454c-3.15088,1.79956 -6.47675,0.61246 -6.47675,-0.15387l0,-4.31781l0,0l0,0z" stroke-miterlimit="4" stroke-width="6" fill-rule="evenodd" fill="#919899"/>
   <path stroke="#454a4b" id="svg_11" d="m1147.96741,450.84872c0,0 -2.25232,1.69266 -3.3927,2.00467c-1.02637,0.28027 -2.5564,0.38901 -3.54675,0c-0.82251,-0.323 -2.15906,-2.00467 -2.15906,-2.00467c-8.88367,2.18851 -13.18408,-5.35165 -13.72437,-9.86972c0,0 -3.10962,-0.78162 -4.47217,-0.92514c-3.85364,-0.40594 -5.83545,-10.21121 -5.85999,-10.79459c-0.72693,-17.29623 1.66736,-25.83551 13.41638,-37.16461c5.11267,-4.92996 12.81396,-7.48798 24.36487,-7.86462c7.28577,-0.23761 13.38599,0.08405 18.35095,2.62152c0,0 10.1687,4.24713 13.8783,7.09363c3.56018,2.73172 7.40601,7.19769 10.0238,11.103c3.54102,7.72659 2.14624,19.49875 -6.16821,20.81845l-9.71509,1.54214c-2.75586,0.47046 3.6748,5.63184 -3.85571,10.17776c-6.24072,6.29361 -13.58606,0.6637 -14.18677,1.23364c0,0 -2.67554,3.77759 -3.54675,5.55145c-0.84534,1.72076 -1.68494,4.15665 -2.15906,6.01419c-0.37036,1.45212 0.53027,4.19205 -0.771,4.93454c-3.15076,1.79959 -6.47668,0.61249 -6.47668,-0.15387l0,-4.31778l0,0z" stroke-miterlimit="4" stroke-width="6" fill-rule="evenodd" fill="#919899"/>
   <path stroke="#454a4b" id="svg_12" d="m872.90179,1024.96802c0,0 -2.25214,1.69263 -3.39246,2.00476c-1.02643,0.28015 -2.55646,0.38892 -3.54694,0c-0.82251,-0.32312 -2.15887,-2.00476 -2.15887,-2.00476c-8.88373,2.18848 -13.18402,-5.35175 -13.72449,-9.86963c0,0 -3.10968,-0.78168 -4.47217,-0.92517c-3.8537,-0.40601 -5.83545,-10.21118 -5.85999,-10.79468c-0.72687,-17.29608 1.66736,-25.83551 13.41638,-37.16455c5.11261,-4.92999 12.8139,-7.48798 24.36493,-7.86462c7.28571,-0.23749 13.38599,0.08405 18.35077,2.62152c0,0 10.16888,4.24719 13.87848,7.09357c3.56,2.73175 7.40588,7.19781 10.02362,11.10309c3.54102,7.72662 2.14642,19.49866 -6.16803,20.81848l-9.71509,1.54205c-2.75592,0.47052 3.67474,5.6319 -3.85565,10.1778c-6.24084,6.29358 -13.58618,0.6637 -14.18683,1.23358c0,0 -2.67554,3.77765 -3.54675,5.55157c-0.84534,1.7207 -1.68506,4.15662 -2.15912,6.01398c-0.3703,1.45227 0.53033,4.19214 -0.771,4.93469c-3.15082,1.79956 -6.47681,0.61243 -6.47681,-0.15393l0,-4.31775l0,0z" stroke-miterlimit="4" stroke-width="6" fill-rule="evenodd" fill="#919899"/>
  </g>
  <text xml:space="preserve" text-anchor="middle" font-family="Sans-serif" font-size="134" id="svg_18" y="154.88373" x="960.00299" stroke-width="0" stroke="#000000" fill="#000000">Sapiens Research</text>
 </g>
</svg>