<?xml version="1.0"?>
<svg width="1920" height="1080" xmlns="http://www.w3.org/2000/svg" xmlns:svg="http://www.w3.org/2000/svg">
 <!-- Created with SVG-edit - http://svg-edit.googlecode.com/ -->
 <g>
  <title>Layer 1</title>
  <text xml:space="preserve" text-anchor="middle" font-family="Sans-serif" font-size="122" id="svg_32" y="217.82612" x="960.00266" stroke-linecap="null" stroke-linejoin="null" stroke-dasharray="null" stroke-width="0" stroke="#000000" fill="#000000">paper writing tools</text>
  <g id="svg_33">
   <g id="svg_28">
    <line id="svg_4" y2="396.05457" x2="971.80539" y1="396.05457" x1="735.72913" fill-opacity="0" stroke-linecap="round" stroke-linejoin="null" stroke-dasharray="null" stroke-width="11" stroke="#000000" fill="none"/>
    <line stroke="#000000" id="svg_6" y2="528.55457" x2="818.01727" y1="528.55457" x1="684.94103" fill-opacity="0" stroke-linecap="round" stroke-linejoin="null" stroke-dasharray="null" stroke-width="11" fill="none"/>
    <rect ry="28" rx="28" fill-opacity="0" id="svg_1" height="506.52175" width="406.52175" y="362.14156" x="647.98995" stroke-width="15" stroke="#000000" fill="#000000"/>
    <line stroke-linecap="round" id="svg_2" y2="844.07889" x2="854.72913" y1="515.05457" x1="854.72913" fill-opacity="0" stroke-width="15" stroke="#000000" fill="none"/>
    <path id="svg_3" d="m885.9267,521.53223l0,121l146.26483,0l0,-121l-146.26483,0zm123.24866,110.61633l-100.23254,0l0,-100.23267l100.23254,0l0,100.23267zm-75.86121,-60.94684c7.73987,0 13.98767,-6.24792 13.98767,-13.98761c0,-7.73981 -6.2478,-13.98773 -13.98767,-13.98773c-7.73596,0 -13.98755,6.24792 -13.98755,13.98773c0,7.73969 6.25159,13.98761 13.98755,13.98761zm70.43689,12.20416l-26.62012,-26.65338l-37.49878,37.4986l-10.38354,-10.41687l-14.88135,14.91449l0,28.00861l89.38379,0l0,-43.35144z" fill-opacity="0" stroke-linecap="round" stroke-width="6" stroke="#000000" fill="none"/>
    <line stroke="#000000" id="svg_5" y2="429.55457" x2="938.30536" y1="429.55457" x1="769.22911" fill-opacity="0" stroke-linecap="round" stroke-linejoin="null" stroke-dasharray="null" stroke-width="11" fill="none"/>
    <line id="svg_7" stroke="#000000" y2="557.55457" x2="818.01731" y1="557.55457" x1="684.94106" fill-opacity="0" stroke-linecap="round" stroke-linejoin="null" stroke-dasharray="null" stroke-width="11" fill="none"/>
    <line id="svg_8" stroke="#000000" y2="587.55457" x2="818.01731" y1="587.55457" x1="684.94106" fill-opacity="0" stroke-linecap="round" stroke-linejoin="null" stroke-dasharray="null" stroke-width="11" fill="none"/>
    <line id="svg_9" stroke="#000000" y2="616.55457" x2="818.01731" y1="616.55457" x1="684.94106" fill-opacity="0" stroke-linecap="round" stroke-linejoin="null" stroke-dasharray="null" stroke-width="11" fill="none"/>
    <line id="svg_10" stroke="#000000" y2="645.55457" x2="818.01731" y1="645.55457" x1="684.94106" fill-opacity="0" stroke-linecap="round" stroke-linejoin="null" stroke-dasharray="null" stroke-width="11" fill="none"/>
    <line id="svg_11" stroke="#000000" y2="674.55457" x2="818.01731" y1="674.55457" x1="684.94106" fill-opacity="0" stroke-linecap="round" stroke-linejoin="null" stroke-dasharray="null" stroke-width="11" fill="none"/>
    <line id="svg_12" stroke="#000000" y2="701.55457" x2="818.01731" y1="701.55457" x1="684.94106" fill-opacity="0" stroke-linecap="round" stroke-linejoin="null" stroke-dasharray="null" stroke-width="11" fill="none"/>
    <line id="svg_13" stroke="#000000" y2="815.55457" x2="818.01731" y1="815.55457" x1="684.94106" fill-opacity="0" stroke-linecap="round" stroke-linejoin="null" stroke-dasharray="null" stroke-width="11" fill="none"/>
    <line id="svg_14" stroke="#000000" y2="672.55457" x2="1023.76727" y1="672.55457" x1="890.69103" fill-opacity="0" stroke-linecap="round" stroke-linejoin="null" stroke-dasharray="null" stroke-width="11" fill="none"/>
    <line id="svg_16" stroke="#000000" y2="728.55457" x2="818.01727" y1="728.55457" x1="684.94103" fill-opacity="0" stroke-linecap="round" stroke-linejoin="null" stroke-dasharray="null" stroke-width="11" fill="none"/>
    <line id="svg_17" stroke="#000000" y2="757.55457" x2="818.01727" y1="757.55457" x1="684.94103" fill-opacity="0" stroke-linecap="round" stroke-linejoin="null" stroke-dasharray="null" stroke-width="11" fill="none"/>
    <line id="svg_18" stroke="#000000" y2="784.55457" x2="818.01727" y1="784.55457" x1="684.94103" fill-opacity="0" stroke-linecap="round" stroke-linejoin="null" stroke-dasharray="null" stroke-width="11" fill="none"/>
    <line id="svg_23" stroke="#000000" y2="700.55457" x2="1023.76724" y1="700.55457" x1="890.691" fill-opacity="0" stroke-linecap="round" stroke-linejoin="null" stroke-dasharray="null" stroke-width="11" fill="none"/>
    <line id="svg_24" stroke="#000000" y2="814.55457" x2="1023.76724" y1="814.55457" x1="890.691" fill-opacity="0" stroke-linecap="round" stroke-linejoin="null" stroke-dasharray="null" stroke-width="11" fill="none"/>
    <line id="svg_25" stroke="#000000" y2="727.55457" x2="1023.76727" y1="727.55457" x1="890.69103" fill-opacity="0" stroke-linecap="round" stroke-linejoin="null" stroke-dasharray="null" stroke-width="11" fill="none"/>
    <line id="svg_26" stroke="#000000" y2="756.55457" x2="1023.76727" y1="756.55457" x1="890.69103" fill-opacity="0" stroke-linecap="round" stroke-linejoin="null" stroke-dasharray="null" stroke-width="11" fill="none"/>
    <line id="svg_27" stroke="#000000" y2="783.55457" x2="1023.76727" y1="783.55457" x1="890.69103" fill-opacity="0" stroke-linecap="round" stroke-linejoin="null" stroke-dasharray="null" stroke-width="11" fill="none"/>
   </g>
   <path d="m1263.04297,511.4173l-27.3501,-17.14899c-6.90002,-4.336 -15.96692,-2.26501 -20.30371,4.63098l-10.78906,17.14905l52.28394,32.82196l10.78906,-17.14899c4.33704,-6.90002 2.2688,-15.96802 -4.63013,-20.30402zm-151.43311,152.71381l52.28418,32.81757l85.1521,-135.61237l-52.28125,-32.81897l-85.15503,135.61377zm-7.98401,41.68738l-1.18079,30.8476l27.30103,-14.43976l25.32593,-13.35284l-50.40991,-31.73254l-1.03625,28.67755z" id="svg_29" stroke-linecap="null" stroke-linejoin="null" stroke-dasharray="null" stroke-width="11" stroke="#000000" fill="#000000"/>
  </g>
 </g>
</svg>