<?xml version="1.0"?>
<svg width="1920" height="1080" xmlns="http://www.w3.org/2000/svg" xmlns:svg="http://www.w3.org/2000/svg">
<defs><pattern id="gridpattern" patternUnits="userSpaceOnUse" x="0" y="0" width="100" height="100"><image id="svg_6" x="0" y="0" width="100" height="100"></image></pattern><pattern height="100" width="100" y="0" x="0" patternUnits="userSpaceOnUse" id="gridpattern"><image height="100" width="100" y="0" x="0" id="svg_4"></image></pattern></defs><g><title style="pointer-events:inherit">subject</title><g id="svg_16"><path fill-opacity="0" fill="#000000" stroke-width="15" d="M 1703.31 337.63 C 1703.31 297.131 1675.33 263.184 1637.66 254.016 C 1636.06 190.524 1584.13 139.531 1520.26 139.531 C 1482.84 139.531 1449.54 157.041 1428.02 184.293 C 1415.96 168.704 1397.08 158.658 1375.84 158.658 C 1339.41 158.658 1309.88 188.197 1309.88 224.63 C 1309.88 227.805 1310.11 230.924 1310.55 233.981 C 1305.01 232.983 1299.31 232.432 1293.49 232.432 C 1240.67 232.431 1197.86 275.249 1197.86 328.064 C 1197.86 380.882 1240.67 423.698 1293.48 423.698 L 1617.42 423.69 C 1664.87 423.6 1703.31 385.107 1703.31 337.63 Z" id="svg_4" stroke="#428bca"></path><g id="svg_7"><path stroke="#428bca" fill="#ffffff" stroke-width="12" stroke-dasharray="null" stroke-linejoin="null" stroke-linecap="null" d="M 217.31 818.982 C 217.31 730.212 289.217 658.308 377.986 658.308 C 466.755 658.308 538.661 730.212 538.661 818.982 C 538.661 863.368 520.685 903.536 491.605 932.608 C 462.526 961.68 422.362 979.655 377.986 979.655 C 289.217 979.655 217.31 907.752 217.31 818.982 L 217.31 818.982 Z" id="svg_41" transform=""></path><line stroke="#428bca" fill="none" stroke-width="12" stroke-dasharray="null" stroke-linejoin="null" stroke-linecap="null" x1="377.3112711279297" y1="659.0169458380127" x2="377.3112711279297" y2="820.3088658380127" id="svg_44" transform=""></line><line stroke="#428bca" fill="none" stroke-width="12" stroke-dasharray="null" stroke-linejoin="null" stroke-linecap="null" x1="376.64478112792966" y1="817.6428858380127" x2="497.9469611279296" y2="923.6156758380127" id="svg_45" transform=""></line><line stroke="#428bca" fill="none" stroke-width="12" stroke-dasharray="null" stroke-linejoin="null" stroke-linecap="null" x1="375.9782911279297" y1="818.9758858380127" x2="216.68584112792968" y2="834.9717658380127" id="svg_46" transform=""></line><line stroke="#428bca" fill="none" stroke-width="12" stroke-dasharray="null" stroke-linejoin="null" stroke-linecap="null" x1="375.3117811279297" y1="817.6428858380127" x2="267.3395011279297" y2="705.0051358380127" id="svg_47" transform=""></line><line stroke="#428bca" fill="none" stroke-width="12" stroke-dasharray="null" stroke-linejoin="null" stroke-linecap="null" x1="375.9782911279297" y1="816.9763958380126" x2="321.9921411279297" y2="670.3473758380127" id="svg_48" transform=""></line></g><g id="svg_23"><g id="svg_31" transform=""><path stroke="#428bca" d="M 243.244 100.345 L 377.564 100.345 L 411.153 100.345 L 444.742 100.345 C 472.081 122.631 497.301 150.531 512.012 181.942 L 511.884 262.132 L 511.884 423.917 L 243.244 423.917 L 243.244 100.345 L 243.244 100.345 L 243.244 100.345 Z" stroke-linecap="round" stroke-linejoin="round" stroke-dasharray="null" stroke-width="10" fill="#ffffff" id="svg_33" transform=""></path><path stroke="#428bca" d="M 443.975 100.772 C 449.658 107.56 457.79 111.889 464.168 118.325 C 470.546 124.762 477.637 131.198 483.996 138.685 C 490.374 146.174 494.998 153.314 499.621 160.1 C 504.245 166.887 506.42 175.429 512.103 182.216 C 478.149 186.311 492.86 184.586 472.154 186.209 C 451.431 187.834 447.264 184.38 444.322 183.62 C 438.474 182.099 440.575 150.65 440.32 145.136 C 440.064 139.623 443.426 104.575 443.975 100.772 Z" stroke-linecap="round" stroke-linejoin="round" stroke-dasharray="null" stroke-width="10" fill="#ffffff" id="svg_34" transform=""></path></g><g id="svg_39" transform=""><rect stroke="#000000" fill="#428bca" stroke-width="0" stroke-dasharray="null" stroke-linejoin="null" stroke-linecap="null" x="388.54916112792966" y="312.13572089355466" width="33.15982" height="77.20019" rx="6" ry="6" id="svg_36" transform=""></rect><rect stroke="#000000" fill="#428bca" stroke-width="0" stroke-dasharray="null" stroke-linejoin="null" stroke-linecap="null" x="336.2188211279297" y="267.0590908935547" width="33.15982" height="122.27682" id="svg_35" rx="6" ry="6" transform=""></rect><rect stroke="#000000" fill="#428bca" stroke-width="0" stroke-dasharray="null" stroke-linejoin="null" stroke-linecap="null" x="438.8070111279296" y="343.22305089355467" width="33.15982" height="46.11287" rx="6" ry="6" id="svg_37" transform=""></rect><rect stroke="#000000" fill="#428bca" stroke-width="0" stroke-dasharray="null" stroke-linejoin="null" stroke-linecap="null" x="283.37037112792973" y="229.7543008935547" width="33.15982" height="159.58163" rx="6" ry="6" id="svg_38" transform=""></rect></g></g><g id="svg_2"><text stroke="#000000" transform="matrix(1.07686 0 0 1.07686 -10.1626 -66.3262)" xml:space="preserve" text-anchor="middle" font-family="Sans-serif" font-size="57" id="svg_44" y="389.78986484957295" x="831.6096564493259" stroke-linecap="round" stroke-linejoin="round" stroke-dasharray="null" stroke-width="0" fill="#000000">data</text><g id="svg_1" transform=""><rect ry="16" rx="16" fill-opacity="0" id="svg_9" height="422.59609" width="319.48213346292675" y="378.17653248931884" x="725.6284576423998" stroke-linecap="round" stroke-linejoin="round" stroke-dasharray="null" stroke-width="8" fill="#000000" stroke="#000000" transform=""></rect><rect stroke="#000000" id="svg_60" height="50.61227" width="104.45511" y="383.72101248931887" x="729.6900707089233" stroke-linecap="round" stroke-linejoin="round" stroke-dasharray="null" stroke-width="5" fill="#cea7a7" transform=""></rect><rect stroke="#000000" id="svg_62" height="50.61227" width="104.45511" y="383.72101248931887" x="834.6836107089234" stroke-linecap="round" stroke-linejoin="round" stroke-dasharray="null" stroke-width="5" fill="#cea7a7" transform=""></rect><rect stroke="#000000" id="svg_63" height="50.61227" width="104.45511" y="383.72101248931887" x="939.1387207089233" stroke-linecap="round" stroke-linejoin="round" stroke-dasharray="null" stroke-width="5" fill="#cea7a7" transform=""></rect><rect stroke="#000000" id="svg_65" height="50.61227" width="104.45511" y="435.41014248931884" x="729.4208507089234" stroke-linecap="round" stroke-linejoin="round" stroke-dasharray="null" stroke-width="5" fill="#b2b2b2" transform=""></rect><rect stroke="#000000" id="svg_66" height="50.61227" width="104.45511" y="435.41014248931884" x="834.4143907089233" stroke-linecap="round" stroke-linejoin="round" stroke-dasharray="null" stroke-width="5" fill="#b2b2b2" transform=""></rect><rect stroke="#000000" id="svg_67" height="50.61227" width="104.45511" y="435.41014248931884" x="938.8695007089234" stroke-linecap="round" stroke-linejoin="round" stroke-dasharray="null" stroke-width="5" fill="#b2b2b2" transform=""></rect><rect stroke="#000000" id="svg_69" height="50.61227" width="104.45511" y="487.0992624893189" x="729.4208507089234" stroke-linecap="round" stroke-linejoin="round" stroke-dasharray="null" stroke-width="5" fill="#d3d36e" transform=""></rect><rect stroke="#000000" id="svg_70" height="50.61227" width="104.45511" y="487.0992624893189" x="834.4143907089233" stroke-linecap="round" stroke-linejoin="round" stroke-dasharray="null" stroke-width="5" fill="#d3d36e" transform=""></rect><rect stroke="#000000" id="svg_71" height="50.61227" width="104.45511" y="487.0992624893189" x="938.8695007089234" stroke-linecap="round" stroke-linejoin="round" stroke-dasharray="null" stroke-width="5" fill="#d3d36e" transform=""></rect><rect stroke="#000000" id="svg_73" height="50.61227" width="104.45511" y="538.7883924893189" x="729.4208507089234" stroke-linecap="round" stroke-linejoin="round" stroke-dasharray="null" stroke-width="5" fill="#8fb78f" transform=""></rect><rect stroke="#000000" id="svg_74" height="50.61227" width="104.45511" y="538.7883924893189" x="834.4143907089233" stroke-linecap="round" stroke-linejoin="round" stroke-dasharray="null" stroke-width="5" fill="#8fb78f" transform=""></rect><rect stroke="#000000" id="svg_75" height="50.61227" width="104.45511" y="538.7883924893189" x="938.8695007089234" stroke-linecap="round" stroke-linejoin="round" stroke-dasharray="null" stroke-width="5" fill="#8fb78f" transform=""></rect><rect stroke="#000000" id="svg_77" height="50.61227" width="104.45511" y="590.4775224893189" x="729.4208507089234" stroke-linecap="round" stroke-linejoin="round" stroke-dasharray="null" stroke-width="5" fill="#a7a7c6" transform=""></rect><rect stroke="#000000" id="svg_78" height="50.61227" width="104.45511" y="590.4775224893189" x="834.4143907089233" stroke-linecap="round" stroke-linejoin="round" stroke-dasharray="null" stroke-width="5" fill="#a7a7c6" transform=""></rect><rect stroke="#000000" id="svg_79" height="50.61227" width="104.45511" y="590.4775224893189" x="938.8695007089234" stroke-linecap="round" stroke-linejoin="round" stroke-dasharray="null" stroke-width="5" fill="#a7a7c6" transform=""></rect><rect stroke="#000000" id="svg_81" height="50.61227" width="104.45511" y="642.1666524893188" x="729.4208507089234" fill-opacity="0" stroke-linecap="round" stroke-linejoin="round" stroke-dasharray="null" stroke-width="5" fill="#000000" transform=""></rect><rect stroke="#000000" id="svg_82" height="50.61227" width="104.45511" y="642.1666524893188" x="834.4143907089233" fill-opacity="0" stroke-linecap="round" stroke-linejoin="round" stroke-dasharray="null" stroke-width="5" fill="#000000" transform=""></rect><rect stroke="#000000" id="svg_83" height="50.61227" width="104.45511" y="642.1666524893188" x="938.8695007089234" fill-opacity="0" stroke-linecap="round" stroke-linejoin="round" stroke-dasharray="null" stroke-width="5" fill="#000000" transform=""></rect><rect stroke="#000000" id="svg_85" height="50.61227" width="104.45511" y="693.8557724893188" x="729.4208507089234" fill-opacity="0" stroke-linecap="round" stroke-linejoin="round" stroke-dasharray="null" stroke-width="5" fill="#000000" transform=""></rect><rect stroke="#000000" id="svg_86" height="50.61227" width="104.45511" y="693.8557724893188" x="834.4143907089233" fill-opacity="0" stroke-linecap="round" stroke-linejoin="round" stroke-dasharray="null" stroke-width="5" fill="#000000" transform=""></rect><rect stroke="#000000" id="svg_87" height="50.61227" width="104.45511" y="693.8557724893188" x="938.8695007089234" fill-opacity="0" stroke-linecap="round" stroke-linejoin="round" stroke-dasharray="null" stroke-width="5" fill="#000000" transform=""></rect><rect stroke="#000000" id="svg_89" height="50.61227" width="104.45511" y="745.5449024893188" x="729.4208507089234" fill-opacity="0" stroke-linecap="round" stroke-linejoin="round" stroke-dasharray="null" stroke-width="5" fill="#000000" transform=""></rect><rect stroke="#000000" id="svg_90" height="50.61227" width="104.45511" y="745.5449024893188" x="834.4143907089233" fill-opacity="0" stroke-linecap="round" stroke-linejoin="round" stroke-dasharray="null" stroke-width="5" fill="#000000" transform=""></rect><rect stroke="#000000" id="svg_91" height="50.61227" width="104.45511" y="745.5449024893188" x="938.8695007089234" fill-opacity="0" stroke-linecap="round" stroke-linejoin="round" stroke-dasharray="null" stroke-width="5" fill="#000000" transform=""></rect></g></g><g id="svg_14" stroke=""><path fill="#428bca" stroke-width="5" stroke-dasharray="null" stroke-linejoin="round" stroke-linecap="round" d="M 1288.02 673.529 L 1272.18 689.358 L 1272.18 678.935 L 1288.02 663.108 L 1303.87 678.935 L 1303.87 689.358 L 1288.02 673.529 Z" id="svg_12" stroke="#428bca" transform=""></path><line fill="none" stroke-width="15" stroke-dasharray="null" stroke-linejoin="round" stroke-linecap="round" fill-opacity="0" x1="1288.0897838982241" y1="686.7473252570347" x2="1288.0897838982241" y2="963.8443202686802" id="svg_5" stroke="#428bca" transform=""></line><line fill="none" stroke-width="15" stroke-dasharray="null" stroke-linejoin="round" stroke-linecap="round" fill-opacity="0" x1="1568.4788597820957" y1="963.8402551667577" x2="1291.3818647704502" y2="963.8402551667577" id="svg_8" points="null" d="null" stroke="#428bca" transform=""></line><path fill="none" stroke-width="15" stroke-dasharray="null" stroke-linejoin="round" stroke-linecap="round" fill-opacity="0" d="M 1309.79 929.349 L 1344.67 852.616 L 1405.9 868.893 L 1444.66 765.806 L 1515.19 765.806 L 1542.32 722.402" id="svg_10" stroke="#428bca" transform=""></path><path fill="#428bca" stroke-width="5" stroke-dasharray="null" stroke-linejoin="round" stroke-linecap="round" fill-opacity="1" d="M 1581.3 963.81 L 1565.47 947.966 L 1575.89 947.966 L 1591.72 963.81 L 1575.89 979.655 L 1565.47 979.655 L 1581.3 963.81 Z" stroke-opacity="1" id="svg_13" stroke="#428bca" transform=""></path></g></g></g></svg>