<?xml version="1.0"?>
<svg width="1920" height="1080" xmlns="http://www.w3.org/2000/svg" xmlns:xlink="http://www.w3.org/1999/xlink">
 <!-- Created with SVG-edit - http://svg-edit.googlecode.com/ -->
 <defs>
  <pattern id="gridpattern" patternUnits="userSpaceOnUse" x="0" y="0" width="100" height="100">
   <image id="svg_6" x="0" y="0" width="100" height="100"/>
  </pattern>
  <pattern height="100" width="100" y="0" x="0" patternUnits="userSpaceOnUse" id="gridpattern">
   <image height="100" width="100" y="0" x="0" id="svg_4"/>
  </pattern>
  <marker refY="50" refX="50" markerHeight="5" markerWidth="5" viewBox="0 0 100 100" se_type="leftarrow" orient="auto" markerUnits="strokeWidth" id="se_marker_start_svg_8">
   <path stroke-width="10" stroke="#000000" fill="#000000" d="m0,50l100,40l-30,-40l30,-40z"/>
  </marker>
 </defs>
 <g>
  <title>subject</title>
  <g id="svg_12">
   <g id="svg_3">
    <path stroke="#007fff" id="svg_9" fill="#b2b2b2" stroke-width="0" stroke-dasharray="null" stroke-linejoin="null" stroke-linecap="null" d="m1527.82813,677.11182l0,46.88776l45.03137,0l1.00208,-47.9527" transform="rotate(-90 1550.84 700.023)"/>
    <path stroke="#007fff" fill="#428bca" d="m1345.2052,738.21881l0,-5.39716l70.16797,0c20.83301,0 37.78296,-16.95026 37.78296,-37.78455l0,-91.76129l43.18005,0l0,5.39807c0,8.90607 7.28796,16.19324 16.19397,16.19324l53.97449,0c8.90686,0 16.19373,-7.28815 16.19373,-16.19324l0,-53.97632c0,-8.90601 -7.28687,-16.19397 -16.19373,-16.19397l-53.97449,0c-8.90601,0 -16.19397,7.28796 -16.19397,16.19397l0,5.39703l-43.18005,0l0,-91.758c0,-20.83401 -16.94995,-37.784 -37.78296,-37.784l-70.16797,0l0,-5.39697c0,-8.90662 -7.28796,-16.19244 -16.19397,-16.19244l-53.9751,0c-8.90601,0 -16.19299,7.28586 -16.19299,16.19244l0,53.97595c0,8.90601 7.28699,16.19199 16.19299,16.19199l53.9751,0c8.90601,0 16.19397,-7.28598 16.19397,-16.19199l0,-5.39697l64.771,0l0,86.35999l-64.771,0l0,-5.39703c0,-8.90601 -7.28796,-16.19397 -16.19397,-16.19397l-53.9751,0c-8.90601,0 -16.19299,7.28796 -16.19299,16.19397l0,53.97632c0,8.90607 7.28699,16.19324 16.19299,16.19324l53.9751,0c8.90601,0 16.19397,-7.28815 16.19397,-16.19324l0,-5.39807l64.771,0l0,86.36426l-64.771,0l0,-5.39807c0,-8.90619 -7.28796,-16.19324 -16.19397,-16.19324l-53.9751,0c-8.90601,0 -16.19299,7.28705 -16.19299,16.19324l0,53.97681c0,8.90607 7.28699,16.19415 16.19299,16.19415l53.9751,0c8.90601,0 16.19397,-7.28809 16.19397,-16.19415l0,0l0,0l0,0l0,0l0,0l0,0zm-64.77112,-264.48416l0,-43.181l43.18005,0l0,43.181l-43.18005,0zm0,129.54117l0,-43.18121l43.18005,0l0,43.18121l-43.18005,0zm237.49316,-43.18121l43.18042,0l0,43.18121l-43.18042,0l0,-43.18121zm-237.49316,172.72705l0,-43.18158l43.18005,0l0,43.18158l-43.18005,0z" id="svg_1" transform="rotate(-90 1420.77 581.688)"/>
   </g>
   <g id="svg_5">
    <g id="svg_7">
     <path stroke="#428bca" fill="#ffffff" stroke-width="12" stroke-dasharray="null" stroke-linejoin="null" stroke-linecap="null" d="m567.76208,581.68805c0,-51.01001 41.32007,-92.32898 92.33002,-92.32898c51.00995,0 92.33002,41.31897 92.33002,92.32898c0,25.50598 -10.33002,48.58801 -27.04016,65.29401c-16.70996,16.70599 -39.78979,27.03497 -65.28986,27.03497c-51.00995,0 -92.33002,-41.31799 -92.33002,-92.32898z" id="svg_41"/>
     <line stroke="#428bca" fill="none" stroke-width="12" stroke-dasharray="null" stroke-linejoin="null" stroke-linecap="null" x1="659.70452" y1="489.76675" x2="659.70452" y2="582.451" id="svg_44"/>
     <line stroke="#428bca" fill="none" stroke-width="12" stroke-dasharray="null" stroke-linejoin="null" stroke-linecap="null" x1="659.32153" y1="580.91903" x2="729.02621" y2="641.81488" id="svg_45"/>
     <line stroke="#428bca" fill="none" stroke-width="12" stroke-dasharray="null" stroke-linejoin="null" stroke-linecap="null" x1="658.93854" y1="581.68502" x2="567.40326" y2="590.87684" id="svg_46"/>
     <line stroke="#428bca" fill="none" stroke-width="12" stroke-dasharray="null" stroke-linejoin="null" stroke-linecap="null" x1="658.55554" y1="580.91903" x2="596.51071" y2="516.19325" id="svg_47"/>
     <line stroke="#428bca" fill="none" stroke-width="12" stroke-dasharray="null" stroke-linejoin="null" stroke-linecap="null" x1="658.93854" y1="580.53604" x2="627.91612" y2="496.27763" id="svg_48"/>
    </g>
    <g id="svg_23">
     <g id="svg_31">
      <path stroke="#428bca" d="m317.80209,496.24603l73.5,0l18.38,0l18.38,0c14.95996,12.19501 28.76001,27.46204 36.80994,44.65002l-0.06995,43.88l0,88.52899l-147,0l0,-177.05902l0,0l0,0z" stroke-linecap="round" stroke-linejoin="round" stroke-dasharray="null" stroke-width="10" fill="#ffffff" id="svg_33"/>
      <path stroke="#428bca" d="m427.64206,496.48004c3.10999,3.71399 7.56006,6.08301 11.05005,9.60498c3.48999,3.52203 7.37,7.04401 10.84998,11.14105c3.48999,4.09796 6.02002,8.005 8.55005,11.71796c2.52991,3.71405 3.71997,8.388 6.82996,12.10205c-18.57996,2.24097 -10.53003,1.297 -21.85999,2.185c-11.33997,0.88898 -13.62,-1.00104 -15.22998,-1.41705c-3.20007,-0.83197 -2.05005,-18.04095 -2.19006,-21.05798c-0.14001,-3.01697 1.70007,-22.19501 2,-24.276z" stroke-linecap="round" stroke-linejoin="round" stroke-dasharray="null" stroke-width="10" fill="#ffffff" id="svg_34"/>
     </g>
     <g id="svg_39">
      <rect stroke="#000000" fill="#428bca" stroke-width="0" stroke-dasharray="null" stroke-linejoin="null" stroke-linecap="null" x="397.31326" y="612.13826" width="18.14509" height="42.24403" rx="6" ry="6" id="svg_36"/>
      <rect stroke="#000000" fill="#428bca" stroke-width="0" stroke-dasharray="null" stroke-linejoin="null" stroke-linecap="null" x="368.67804" y="587.47228" width="18.14509" height="66.91001" id="svg_35" rx="6" ry="6"/>
      <rect stroke="#000000" fill="#428bca" stroke-width="0" stroke-dasharray="null" stroke-linejoin="null" stroke-linecap="null" x="424.81441" y="629.14928" width="18.14509" height="25.23301" rx="6" ry="6" id="svg_37"/>
      <rect stroke="#000000" fill="#428bca" stroke-width="0" stroke-dasharray="null" stroke-linejoin="null" stroke-linecap="null" x="339.75931" y="567.05906" width="18.14509" height="87.32324" rx="6" ry="6" id="svg_38"/>
     </g>
    </g>
   </g>
   <path stroke="#000000" marker-start="url(#se_marker_start_svg_8)" fill-opacity="0" id="svg_8" d="m1502.37256,754.2099c-315.76831,148.89893 -753.14484,48.88385 -977.47791,-95.26099" stroke-linecap="null" stroke-linejoin="null" stroke-dasharray="null" stroke-width="9" fill="#000000"/>
   <text xml:space="preserve" text-anchor="middle" font-family="Sans-serif" font-size="111" id="svg_10" y="279.66498" x="515.9816" stroke-linecap="null" stroke-linejoin="null" stroke-dasharray="null" stroke-width="0" stroke="#000000" fill="#000000">dataverse</text>
   <text id="svg_11" xml:space="preserve" text-anchor="middle" font-family="Sans-serif" font-size="111" y="279.66907" x="1407.29105" stroke-linecap="null" stroke-linejoin="null" stroke-dasharray="null" stroke-width="0" stroke="#000000" fill="#000000">subject.ro</text>
  </g>
 </g>
</svg>