<?xml version="1.0"?>
<svg width="1920" height="1080" xmlns="http://www.w3.org/2000/svg" xmlns:xlink="http://www.w3.org/1999/xlink">
 <g>
  <title>Layer 1</title>
  <g display="none" id="Captions"/>
  <text xml:space="preserve" text-anchor="middle" font-family="Sans-serif" font-size="147" id="svg_27" y="191.73916" x="960.00437" stroke-linecap="null" stroke-linejoin="null" stroke-dasharray="null" stroke-width="0" fill="#428bca">dataverse</text>
  <path id="svg_18" d="m1000.90167,415.83298l-21.87549,-13.8103c-5.54633,-3.48712 -12.99695,-1.80298 -16.48456,3.7251l-8.55951,13.79028l42.00562,26.39178l8.71729,-13.77063c3.48767,-5.54767 1.7431,-12.85883 -3.80334,-16.32623l0,0zm-121.73602,122.78519l42.00537,26.41162l68.47662,-109.07413l-42.00555,-26.39182l-68.47644,109.05432zm-6.49823,33.54425l-0.79272,24.80676l21.87451,-11.61096l20.44653,-10.7583l-40.578,-25.48059l-0.95032,23.04309z" stroke-linecap="null" stroke-linejoin="null" stroke-dasharray="null" stroke-width="0" fill="#000000"/>
  <path fill="#000000" d="m664.2951,814.26166c0,2.57965 -2.08545,4.66803 -4.66223,4.66803c-2.57977,0 -4.66803,-2.08838 -4.66803,-4.66803c0,-2.57684 2.08826,-4.66797 4.66803,-4.66797c2.57397,0 4.66223,2.09113 4.66223,4.66797zm-10.2702,7.39911l-9.22748,9.22748l2.23694,2.24261l6.99054,-6.99066l0,-4.47943zm0.93994,14.37543l0,15.59814l3.84528,0l0,-15.59814l-3.84528,0zm0,-15.31531l0,4.47662l0,2.39972l0,7.49908l9.33026,0l0,-7.49908l0,-2.39691l0,-4.47656l0,-0.01147l-9.33026,0l0,0.00861zm5.48499,15.31531l0,15.59814l3.84528,0l0,-15.59814l-3.84528,0zm4.78516,-14.37543l0,4.47662l6.9906,6.9906l2.23401,-2.24261l-9.22461,-9.22461zm79.13055,-8.21613c0,2.57965 -2.08545,4.66803 -4.6651,4.66803s-4.66809,-2.08551 -4.66809,-4.66803c0,-2.57404 2.08838,-4.66516 4.66809,-4.66516s4.6651,2.08832 4.6651,4.66516zm-9.33319,21.77734l0,15.59528l3.84821,0l0,-15.59528l-3.84821,0zm0,-15.31812l0,4.47656l0,2.39972l0,7.49915l9.33319,0l0,-7.49915l0,-2.39685l0,-4.47662l0,-0.01141l-9.33319,0l0,0.00861zm5.48511,15.31812l0,15.59528l3.84808,0l0,-15.59528l-3.84808,0zm4.78503,-15.29248l0,13.01569l3.17975,0l0,-9.84167l-3.17975,-3.17401zm0,-0.03424l0,0.03424l0.03436,-0.03424l-0.03436,0zm-14.42395,13.06415l3.17682,0l0,-13.03845l-3.17682,3.17676l0,9.86169zm3.16821,-13.047l0.01141,0.00854l0,-0.00854l-0.01141,0zm-151.00195,-6.46777c0,2.57965 -2.09119,4.66803 -4.66797,4.66803s-4.66803,-2.08551 -4.66803,-4.66803c0,-2.57404 2.09119,-4.66516 4.66803,-4.66516s4.66797,2.08832 4.66797,4.66516zm-9.33313,21.77734l0,15.59528l3.84802,0l0,-15.59528l-3.84802,0zm0,-15.31812l0,4.47656l0,2.39972l0,7.49915l9.33606,0l0,-7.49915l0,-2.39685l0,-4.47662l0,-0.01141l-9.33606,0l0,0.00861zm5.48505,15.31812l0,15.59528l3.84808,0l0,-15.59528l-3.84808,0zm4.78229,-15.29248l0,13.01569l3.17676,0l0,-9.84167l-3.17676,-3.17401zm0,-0.03424l0,0.03424l0.0343,-0.03424l-0.0343,0zm-14.42114,13.06415l3.17676,0l0,-13.03839l-3.17676,3.17676l0,9.86163zm3.16815,-13.047l0.00568,0.00861l0,-0.00861l-0.00568,0zm127.0849,69.37457c0,2.57684 -2.08545,4.66516 -4.66803,4.66516c-2.57678,0 -4.66516,-2.08551 -4.66516,-4.66516s2.08545,-4.66803 4.66516,-4.66803c2.58258,0 4.66803,2.08832 4.66803,4.66803zm-9.33032,21.76886l0,15.60095l3.84528,0l0,-15.60095l-3.84528,0zm0,-15.3125l0,4.47662l0,2.39972l0,7.50195l9.33319,0l0,-7.50195l0,-2.39972l0,-4.47375l0,-0.01428l-9.33319,0l0,0.01141zm5.48785,15.3125l0,15.60095l3.84534,0l0,-15.60095l-3.84534,0zm4.77661,-15.28967l0,13.01843l3.1767,0l0,-9.83881l-3.1767,-3.17963zm0,-0.03137l0,0.0343l0.0343,-0.0343l-0.0343,0zm-14.41827,13.06415l3.17383,0l0,-13.03558l-3.17383,3.17389l0,9.86169zm3.16534,-13.04987l0.00848,0.01147l0,-0.01147l-0.00848,0zm10.31879,-154.70148c0,2.57971 -2.08545,4.66797 -4.66803,4.66797c-2.57678,0 -4.66516,-2.08832 -4.66516,-4.66797c0,-2.57684 2.08545,-4.66803 4.66516,-4.66803c2.58258,0 4.66803,2.08832 4.66803,4.66803zm-9.33032,21.77454l0,15.59814l3.84528,0l0,-15.59814l-3.84528,0zm0,-15.31818l0,4.47943l0,2.39972l0,7.49908l9.33319,0l0,-7.49908l0,-2.39972l0,-4.47656l0,-0.01141l-9.33319,0l0,0.00854zm5.48785,15.31818l0,15.59814l3.84534,0l0,-15.59814l-3.84534,0zm4.77661,-15.29248l0,13.01556l3.1767,0l0,-9.83881l-3.1767,-3.17676zm0,-0.03424l0,0.03424l0.0343,-0.03424l-0.0343,0zm-14.41827,13.06702l3.17383,0l0,-13.04132l-3.17383,3.17676l0,9.8645l0,0.00006zm3.16534,-13.04987l0.00848,0.00854l0,-0.00854l-0.00848,0zm-25.76563,146.99664c0,2.5769 -2.08813,4.66803 -4.66797,4.66803c-2.57672,0 -4.6651,-2.08832 -4.6651,-4.66803c0,-2.57391 2.08838,-4.66516 4.6651,-4.66516c2.57983,0 4.66797,2.08838 4.66797,4.66516zm-9.33307,21.77454l0,15.60101l3.84814,0l0,-15.60101l-3.84814,0zm0,-15.31525l0,4.47656l0,2.39978l0,7.50476l9.336,0l0,-7.50476l0,-2.39978l0,-4.47089l0,-0.01428l-9.336,0l0,0.00861l0,0zm5.48499,15.31525l0,15.60101l3.85101,0l0,-15.60101l-3.85101,0zm4.78522,-15.29236l0,13.01837l3.17395,0l0,-9.83881l-3.17395,-3.17957zm0,-0.03149l0,0.0343l0.03424,-0.0343l-0.03424,0zm-14.42401,13.06421l3.17682,0l0,-13.03564l-3.17682,3.17395l0,9.86163l0,0l0,0.00006zm3.16821,-13.04987l0.00861,0.01141l0,-0.01141l-0.00861,0zm10.31866,-166.11163c0,2.57684 -2.08813,4.66516 -4.66797,4.66516c-2.57672,0 -4.6651,-2.08832 -4.6651,-4.66516c0,-2.57678 2.08838,-4.66797 4.6651,-4.66797c2.57983,0.00287 4.66797,2.09399 4.66797,4.66797zm-9.33307,21.77454l0,15.59814l3.84814,0l0,-15.59814l-3.84814,0zm0,-15.31525l0,4.47656l0,2.39685l0,7.50195l9.336,0l0,-7.49902l0,-2.39691l0,-4.47662l0,-0.01428l-9.336,0l0,0.01147zm5.48499,15.31525l0,15.59814l3.85101,0l0,-15.59814l-3.85101,0zm4.78522,-15.28961l0,13.01563l3.17395,0l0,-9.84167l-3.17395,-3.17395l0,0zm0,-0.03711l0,0.0343l0.03424,-0.0343l-0.03424,0zm-14.42401,13.06989l3.17682,0l0,-13.04132l-3.17682,3.17395l0,9.86737zm3.16821,-13.04987l0.00861,0.00854l0,-0.00854l-0.00861,0zm76.62512,124.11658c0,2.57404 -2.09119,4.66797 -4.66797,4.66797c-2.57684,0 -4.66803,-2.09119 -4.66803,-4.66797c0,-2.57684 2.08838,-4.66803 4.66803,-4.66803c2.57678,0 4.66797,2.09119 4.66797,4.66803zm-9.33319,21.77448l0,15.59821l3.85095,0l0,-15.59821l-3.85095,0zm0,-15.31812l0,4.47943l0,2.39978l0,7.49908l9.33606,0l0,-7.49908l0,-2.39691l0,-4.47943l0,-0.00854l-9.33606,0l0,0.00568zm5.48798,15.31812l0,15.59821l3.84808,0l0,-15.59821l-3.84808,0zm4.78235,-15.29236l0,13.01563l3.1767,0l0,-9.83887l-3.1767,-3.17676zm0,-0.03143l0,0.03424l0.03412,-0.03424l-0.03412,0zm-14.42407,13.06128l3.17963,0l0,-13.03845l-3.17963,3.17969l0,9.85876zm3.16821,-13.04419l0.01141,0.00574l0,-0.00574l-0.01141,0zm10.31873,-109.84973c0,2.5769 -2.09119,4.66803 -4.66797,4.66803c-2.57684,0 -4.66803,-2.08832 -4.66803,-4.66803c0,-2.57678 2.08838,-4.66797 4.66803,-4.66797c2.57678,0.00287 4.66797,2.09399 4.66797,4.66797zm-9.33319,21.77747l0,15.59814l3.85095,0l0,-15.59814l-3.85095,0zm0,-15.31537l0,4.47662l0,2.39691l0,7.50189l9.33606,0l0,-7.50189l0,-2.39691l0,-4.47662l0,-0.01141l-9.33606,0l0,0.01141zm5.48798,15.31537l0,15.59814l3.84808,0l0,-15.59814l-3.84808,0zm4.78235,-15.29248l0,13.01563l3.1767,0l0,-9.83887l-3.1767,-3.17676zm0,-0.0343l0,0.0343l0.03412,-0.0343l-0.03412,0zm-14.42407,13.06702l3.17963,0l0,-13.03839l-3.17963,3.1767l0,9.86169zm3.16821,-13.04987l0.01141,0.00861l0,-0.00861l-0.01141,0zm-121.02838,96.91418c0,2.57397 -2.08844,4.66797 -4.66803,4.66797c-2.57965,0 -4.66522,-2.09119 -4.66522,-4.66797c0,-2.5769 2.08557,-4.66809 4.66522,-4.66809c2.57959,0 4.66803,2.09119 4.66803,4.66809zm-9.33325,21.77448l0,15.59821l3.84534,0l0,-15.59821l-3.84534,0zm0,-15.31818l0,4.47949l0,2.39972l0,7.49908l9.33325,0l0,-7.49908l0,-2.39691l0,-4.47937l0,-0.00861l-9.33325,0l0,0.00568zm5.48511,15.31818l0,15.59821l3.84814,0l0,-15.59821l-3.84814,0zm4.78217,-15.29242l0,13.01563l3.17688,0l0,-9.83887l-3.17688,-3.17676zm0,-0.03143l0,0.03424l0.03717,-0.03424l-0.03717,0zm-14.42389,13.06128l3.17682,0l0,-13.03845l-3.17682,3.17969l0,9.85883l0,-0.00006l0,0zm3.16821,-13.04419l0.00861,0.00574l0,-0.00574l-0.00861,0zm10.32166,-109.84973c0,2.5769 -2.08844,4.66803 -4.66803,4.66803c-2.57965,0 -4.66522,-2.08832 -4.66522,-4.66803c0,-2.57678 2.08557,-4.66797 4.66522,-4.66797c2.57959,0.00287 4.66803,2.09406 4.66803,4.66797zm-9.33325,21.77747l0,15.59814l3.84534,0l0,-15.59814l-3.84534,0zm0,-15.31537l0,4.47662l0,2.39691l0,7.50189l9.33325,0l0,-7.50189l0,-2.39691l0,-4.47662l0,-0.01141l-9.33325,0l0,0.01141zm5.48511,15.31537l0,15.59814l3.84814,0l0,-15.59814l-3.84814,0zm4.78217,-15.29248l0,13.01563l3.17688,0l0,-9.83887l-3.17688,-3.17676zm0,-0.0343l0,0.0343l0.03717,-0.0343l-0.03717,0zm-14.42389,13.06702l3.17682,0l0,-13.03839l-3.17682,3.17676l0,9.86163zm3.16821,-13.0498l0.00861,0.00854l0,-0.00854l-0.00861,0zm40.58368,120.75409c0,2.5769 -2.08826,4.66516 -4.66803,4.66516c-2.57666,0 -4.66504,-2.08545 -4.66504,-4.66516s2.08838,-4.66797 4.66504,-4.66797c2.57977,0 4.66803,2.08832 4.66803,4.66797zm-9.33307,21.76892l0,15.60095l3.84814,0l0,-15.60095l-3.84814,0zm0,-15.3125l0,4.47662l0,2.39978l0,7.50189l9.336,0l0,-7.50189l0,-2.39978l0,-4.47375l0,-0.01428l-9.336,0l0,0.01141zm5.48499,15.3125l0,15.60095l3.84808,0l0,-15.60095l-3.84808,0zm4.7851,-15.28961l0,13.01843l3.17395,0l0,-9.83881l-3.17395,-3.17963zm0,-0.03143l0,0.0343l0.03149,-0.0343l-0.03149,0zm-14.42389,13.06421l3.17377,0l0,-13.03571l-3.17377,3.17395l0,9.86169l0,0.00006zm3.16528,-13.04993l0.00848,0.01135l0,-0.01135l-0.00848,0zm10.32159,-154.70154c0,2.57971 -2.08826,4.66803 -4.66803,4.66803c-2.57666,0 -4.66504,-2.08832 -4.66504,-4.66803c0,-2.57684 2.08838,-4.66797 4.66504,-4.66797c2.57977,0 4.66803,2.09113 4.66803,4.66797zm-9.33307,21.77454l0,15.59814l3.84814,0l0,-15.59814l-3.84814,0zm0,-15.31818l0,4.47949l0,2.39972l0,7.49908l9.336,0l0,-7.49908l0,-2.39972l0,-4.47662l0,-0.01141l-9.336,0l0,0.00854zm5.48499,15.31818l0,15.59814l3.84808,0l0,-15.59814l-3.84808,0zm4.7851,-15.29242l0,13.0155l3.17395,0l0,-9.83881l-3.17395,-3.1767zm0,-0.0343l0,0.0343l0.03149,-0.0343l-0.03149,0zm-14.42389,13.06702l3.17377,0l0,-13.04126l-3.17377,3.1767l0,9.86456zm3.16528,-13.04993l0.00848,0.00867l0,-0.00867l-0.00848,0zm73.47974,51.08533l-5.37646,2.37976l1.40552,1.40839l-11.26434,11.26434l3.17975,3.17963l11.26434,-11.26434l1.40826,1.40839l2.38263,-5.37933l2.37689,-5.37939l-5.37659,2.38257zm-67.95178,2.99683l2.3797,5.37933l1.40839,-1.40839l11.26434,11.26434l3.18243,-3.17963l-11.26715,-11.26434l1.40845,-1.40558l-5.37665,-2.38257l-5.37921,-2.3797l2.3797,5.37653zm73.33118,68.78888l-2.37683,-5.37653l-2.38257,-5.37927l-1.40839,1.40839l-11.26434,-11.26154l-3.17963,3.17676l11.26434,11.26727l-1.40845,1.40833l5.37646,2.37976l5.37939,2.37683zm-75.71375,0l5.37933,-2.37683l5.37646,-2.38263l-1.40851,-1.40839l11.26733,-11.26434l-3.1825,-3.17676l-11.26147,11.26154l-1.40839,-1.40558l-2.3797,5.37939l-2.38257,5.3736zm86.33826,-38.46399l-5.48511,-2.11975l0,1.99121l-15.92657,0l-0.0058,4.49951l15.93237,0l0,1.98834l5.48511,-2.11694l5.48792,-2.11969l-5.48792,-2.12268zm-50.59967,-48.3399l-2.11981,5.48505l1.99121,0l0,15.92957l4.49664,0l0,-15.93237l1.99121,0l-2.12262,-5.48511l-2.11688,-5.48792l-2.11975,5.49078zm2.11975,102.57349l2.11688,-5.48511l2.12262,-5.48792l-1.99121,0l0,-15.92957l-4.49664,0.00287l0,15.9267l-1.99121,0l2.11981,5.48792l2.11975,5.48511zm-54.09369,-52.11383l5.48804,2.11981l5.48499,2.11688l0,-1.9884l15.93243,0l0,-4.49945l-15.93243,0l0,-1.99121l-5.48499,2.11975l-5.48804,2.12262z" id="svg_6"/>
  <g id="svg_24">
   <g id="Your_Icon">
    <g id="svg_1">
     <path id="svg_2" d="m341.72195,596.92456c-0.37662,-0.01556 -0.75522,-0.10486 -1.11829,-0.27374c-1.45227,-0.68146 -2.07745,-2.40942 -1.396,-3.86359c8.7077,-18.57813 18.69876,-34.1004 27.51334,-47.79187c10.74048,-16.68158 19.22485,-29.8606 19.62482,-40.05359c0.23889,-6.03027 -2.21133,-12.66644 -5.31393,-21.07318c-6.07492,-16.46021 -14.3963,-39.00513 -11.86655,-78.37137c0.10294,-1.59982 1.44055,-2.84628 3.08505,-2.71231c1.59985,0.10287 2.81329,1.48334 2.71234,3.08508c-2.45026,38.13916 5.62262,60.01425 11.51901,75.98718c3.32581,9.01251 5.95276,16.1282 5.66919,23.3118c-0.46393,11.77921 -9.32507,25.54459 -20.5451,42.97354c-8.71548,13.53815 -18.59396,28.88373 -27.13858,47.11243c-0.51251,1.08905 -1.6134,1.71423 -2.7453,1.66962l0,0z" fill="#000000"/>
    </g>
    <path id="svg_3" d="m496.63464,524.83856c-0.37665,-2.61334 -3.71609,-22.06732 -20.32602,-32.901c-5.77798,-3.76654 -11.66672,-6.9856 -17.11273,-9.68042c-13.81018,-7.4263 -27.12927,-15.43121 -26.82825,-28.85294c0.03107,-1.40176 -0.94168,-2.62494 -2.31433,-2.90646c-1.37274,-0.29126 -2.75113,0.45047 -3.27927,1.74927c-1.39392,3.43652 -2.15503,6.95068 -2.31625,10.2998c-6.03021,-6.86719 -11.13837,-16.33017 -15.25833,-28.33063c-0.48541,-1.40567 -1.95129,-2.22498 -3.39566,-1.88715c-1.44846,0.33194 -2.41336,1.7027 -2.23676,3.17627c1.79013,14.90311 7.24576,39.71381 23.7836,50.71057c-1.30078,1.5668 -2.54523,3.45782 -3.67905,5.63824c-3.61511,6.95447 -6.20709,16.41162 -6.5119,26.06287c-0.21741,6.76819 0.88928,13.68579 2.74332,19.79382c1.26016,4.14319 2.87152,7.83789 4.6442,10.84723c-7.95642,3.15302 -13.42368,7.96021 -18.34924,17.68121c-0.72427,1.43091 -0.15347,3.18024 1.27939,3.9024c0.3844,0.19611 0.79016,0.29706 1.19589,0.31256c0.92612,0.03693 1.81152,-0.3902 2.39203,-1.14349c0.20386,-0.2019 0.38635,-0.43292 0.52805,-0.69708c7.29434,-13.60974 16.48166,-15.396 38.67142,-19.71191l1.02518,-0.20001c27.08459,-5.27313 41.02295,-12.0918 45.19714,-22.10809c0.24084,-0.57849 0.27576,-1.19006 0.14758,-1.75507zm-69.85666,-9.79498c-6.28864,-1.60175 -0.64261,-19.26184 3.56851,-18.5318c4.89642,0.8465 1.56479,19.84033 -3.56851,18.5318zm20.67343,27.84717c-1.37643,0.26599 -2.7084,0.52618 -3.99561,0.78052c2.51822,-6.62451 4.151,-15.36328 4.46741,-25.05725c0.32043,-9.45328 -0.7901,-18.13574 -2.75504,-24.84558c16.15372,6.1973 35.62549,15.35547 42.85001,31.44092c-3.91806,7.33698 -17.20218,13.13055 -40.56677,17.6814z" fill="#000000"/>
   </g>
   <path stroke="#000000" fill="#000000" stroke-width="0" d="m304.76749,523.76587c-6.38681,-6.38684 -9.89362,-14.88104 -9.86823,-23.93259c0.01266,-9.05154 3.57651,-17.57785 10.00732,-24.00867l-9.84268,-9.84274c-18.67896,18.67896 -18.73599,49.01727 -0.13284,67.62042l9.83643,-9.83643l0,0zm-17.4574,17.43201c-22.76166,-22.7616 -22.6608,-59.89178 0.22122,-82.77386l-9.83633,-9.83627c-28.30655,28.30661 -28.40765,74.26035 -0.22134,102.44669l9.83646,-9.83649l0,0l0,-0.00006l0,0zm21.01443,-48.23236c3.75983,-3.75983 9.86807,-3.76617 13.62799,-0.00623s3.75974,9.87433 -0.00006,13.63416c-3.75989,3.75989 -9.86801,3.76611 -13.63409,0s-3.76001,-9.86176 0.00616,-13.62793z" id="svg_4"/>
  </g>
  <g id="svg_26">
   <g id="svg_20">
    <path d="m1173.47839,758.3595c-24.56042,0 -44.46289,17.61444 -44.46289,39.34753s5.33618,97.14343 45.34387,97.14343c39.12671,0 43.57092,-75.41254 43.57092,-97.14343s-19.90015,-39.34753 -44.4519,-39.34753zm-0.2854,54.30383c-19.30688,0 -34.95227,-10.38043 -34.95227,-23.18707c0,-12.79767 15.64539,-23.18256 34.95227,-23.18256s34.96118,10.38489 34.96118,23.18256c0,12.80664 -15.65637,23.18707 -34.96118,23.18707z" id="svg_11"/>
    <rect x="1147.47207" y="751.16044" width="3.10409" height="15.35546" id="svg_12"/>
    <path d="m1153.54285,749.12079c0,2.50879 -2.03601,4.54694 -4.55151,4.54694c-2.5177,0 -4.55127,-2.03815 -4.55127,-4.54694c0.0022,-2.51764 2.03601,-4.55359 4.55347,-4.55359c2.51538,0 4.54932,2.03595 4.54932,4.55359z" id="svg_13"/>
    <path d="m1133.68945,802.31854c-6.07666,0 -11.04944,4.53577 -11.84106,10.39606c-0.74023,0.65564 -1.46289,1.34692 -2.14746,2.11182c-7.27185,8.15491 -10.41821,21.64392 -8.97546,38.15894c-5.88477,2.56219 -10.66138,14.6062 -0.50171,21.69299c-0.82507,-3.7196 0.92322,-11.34827 6.29944,-12.1734c3.72632,-1.03912 9.72266,2.0672 9.72266,9.51086c4.45544,-4.46667 5.85815,-19.71509 -3.14856,-19.95819c-1.05933,-11.82312 0.60437,-21.57251 4.63586,-27.38599c1.76184,1.01465 3.77759,1.63904 5.95398,1.63904c6.61865,0 11.99487,-5.36755 11.99487,-11.99274c0.00232,-6.62738 -5.37402,-11.99939 -11.99255,-11.99939z" id="svg_14"/>
    <path d="m1239.95557,856.20313c-0.3009,-24.42908 -7.51257,-38.54462 -16.17151,-45.06952c-1.40271,-5.06879 -5.99402,-8.81287 -11.5022,-8.81287c-6.63855,0 -12.0061,5.37201 -12.0061,11.99719c0,6.62518 5.36755,11.99274 12.0061,11.99274c2.62927,0 5.03967,-0.87195 7.01538,-2.30798c4.05408,5.01288 7.75818,14.40094 8.21509,30.43213c-10.84851,-0.4549 -12.66394,15.65649 -2.2478,21.28943c-0.87415,-7.32098 1.90454,-11.98157 6.25061,-12.59705c5.98962,0.20514 5.77795,10.07269 5.37659,13.23474c10.64355,-6.3822 10.41174,-17.08588 3.06384,-20.15881z" id="svg_15"/>
    <path d="m1145.69104,791.1911c4.64722,-3.10406 14.27405,-4.2146 19.65259,-1.80182c1.12378,0.50403 1.82397,0.15393 1.54993,-1.04584c-3.15332,-13.75885 -22.23279,-11.23224 -22.92834,2.08282c-0.0647,1.2287 0.70239,1.4472 1.72583,0.76483z" id="svg_16"/>
    <path d="m1179.87622,789.62122c5.08203,-2.32141 14.75989,-1.87762 19.68164,1.36481c1.02795,0.67786 1.77502,0.44592 1.69702,-0.78271c-0.90784,-14.09113 -20.1499,-14.63965 -22.96204,-1.61237c-0.25867,1.20416 0.46179,1.54102 1.58337,1.03027z" id="svg_17"/>
    <ellipse cx="1173.85464" cy="926.30985" rx="31.21934" ry="5.57488" id="svg_19" fill="black"/>
   </g>
   <g id="svg_23">
    <circle id="svg_21" r="16.8584" cy="760.42208" cx="1305.88906" fill="#000000"/>
    <path id="svg_22" d="m1317.12866,782.8985l-22.47791,0c-10.30225,0 -18.73157,8.4292 -18.73157,18.73151l0,43.08258c0,7.64056 4.64185,14.24164 11.23901,17.14685l0,54.03308c0,8.24194 6.74316,14.98529 14.98523,14.98529l7.49255,0c8.24207,0 14.98535,-6.74335 14.98535,-14.98529l0,-54.03308c6.59729,-2.9071 11.23901,-9.50629 11.23901,-17.14685l0,-43.08258c0,-10.30231 -8.42932,-18.73151 -18.73169,-18.73151z" fill="#000000"/>
   </g>
   <path stroke="#000000" id="svg_25" fill="#000000" stroke-width="0" d="m1216.77026,769.06689c5.96582,-5.96606 13.90039,-9.24182 22.35547,-9.21814c8.45508,0.01196 16.41943,3.34088 22.42651,9.34796l9.19421,-9.19409c-17.448,-17.44812 -45.78735,-17.5014 -63.16455,-0.12408l9.18835,9.18835l0,0zm-16.28345,-16.30719c21.26172,-21.26184 55.94519,-21.1676 77.31946,0.20667l9.18811,-9.18811c-26.44116,-26.44135 -69.36694,-26.53589 -95.6958,-0.20673l9.18811,9.18817l0,0l0.00012,0l0,0zm45.05408,19.62964c3.51208,3.51215 3.51794,9.2179 0.00586,12.7301s-9.22363,3.51202 -12.73572,-0.00012c-3.51221,-3.51208 -3.51807,-9.21765 0,-12.73566s9.21191,-3.51215 12.72986,0.00568z"/>
  </g>
  <g id="svg_32">
   <text transform="matrix(0.874528 0 0 0.874528 173.599 74.6302)" xml:space="preserve" text-anchor="middle" font-family="Sans-serif" font-size="43" id="svg_29" y="409.44235" x="1649.58613" stroke-linecap="null" stroke-linejoin="null" stroke-dasharray="null" stroke-width="0" fill="#000000">2.3</text>
   <g id="svg_10">
    <polygon fill="black" id="svg_7" points="1533.17 556.654 1439.1 556.654 1398.79 596.969 1519.73 596.969 1586.92 529.778 1560.05 529.778" clip-rule="evenodd" fill-rule="evenodd"/>
    <polygon id="svg_8" points="1533.17 502.899 1439.1 502.899 1398.79 543.215 1519.73 543.215 1586.92 476.025 1560.05 476.025" clip-rule="evenodd" fill-rule="evenodd"/>
    <path id="svg_9" d="m1398.78479,489.45956l120.94507,0l67.19226,-67.19012l-120.94519,0l-67.19214,67.19012z" clip-rule="evenodd" fill-rule="evenodd"/>
   </g>
   <text transform="matrix(0.874528 0 0 0.874528 173.599 74.6302)" id="svg_30" xml:space="preserve" text-anchor="middle" font-family="Sans-serif" font-size="43" y="471.17638" x="1649.57966" stroke-linecap="null" stroke-linejoin="null" stroke-dasharray="null" stroke-width="0" fill="#000000">2.2</text>
   <text transform="matrix(0.874528 0 0 0.874528 173.599 74.6302)" id="svg_31" xml:space="preserve" text-anchor="middle" font-family="Sans-serif" font-size="43" y="536.39378" x="1649.57221" stroke-linecap="null" stroke-linejoin="null" stroke-dasharray="null" stroke-width="0" fill="#000000">2.1</text>
  </g>
 </g>
</svg>