<?xml version="1.0"?>
<svg width="1920" height="1080" xmlns="http://www.w3.org/2000/svg" xmlns:xlink="http://www.w3.org/1999/xlink">
 <g display="inline">
  <title>Layer 1</title>
  <g id="svg_8">
   <path fill="#000000" d="m1129.93762,193.44711l-4.64026,-13.40349l5.67017,-18.04376c0,0 -14.42993,-15.98163 -18.56116,-18.04372s-20.62073,7.73218 -31.97278,11.64679c-5.67017,-1.48915 -10.55896,-2.77585 -14.02722,-3.7702c-2.30847,-0.65935 -11.99133,-6.37563 -20.53784,-11.41951c-25.97131,-15.31876 -46.62524,-27.03918 -56.60651,-27.03918c-45.19397,0 -95.42828,0.77061 -125.36743,6.46677c-2.4906,0.46994 -4.22711,2.22306 -5.62512,3.6246c-0.27704,0.27699 -0.65228,0.66051 -0.9245,0.89964c-21.33099,4.55763 -40.76917,14.74487 -54.79175,28.72958c-22.94324,22.94794 -22.94324,29.83612 -22.94324,32.43442l0,35.65422l0.97308,1.31984c8.29443,11.22305 42.30328,12.33578 42.63702,12.33578c0.24744,0 1.68683,-0.00357 4.15381,-0.01538c5.68787,10.73888 16.97125,18.08043 29.94623,18.08043c13.10748,0 24.47852,-7.48953 30.1084,-18.41545c30.88727,-0.17282 69.36237,-0.39537 107.26093,-0.60135c17.25305,-0.09114 34.28699,-0.19412 50.37402,-0.28056c5.64648,11.41957 17.401,19.30566 30.97852,19.30566c13.70764,0 25.55688,-8.04591 31.14404,-19.65248c0,0 19.91064,-16.16275 21.21265,-17.64008c2.7699,-3.17123 1.02991,-8.24831 -1.55066,-12.88853l3.0896,-9.2829l0,0l0,-0.00117l0,0l0,0l0,0l0,0.00003zm-53.89563,45.88765c-11.58887,0 -21.01135,-9.42374 -21.01135,-21.01376s9.42249,-21.00897 21.01135,-21.00897c11.58875,0 21.02319,9.42017 21.02319,21.00897c-0.01184,11.59003 -9.44617,21.01376 -21.02319,21.01376zm-218.70532,0c-11.59351,0 -21.01727,-9.42374 -21.01727,-21.01376s9.42377,-21.00897 21.01727,-21.00897c11.58527,0 21.01849,9.42017 21.01849,21.00897c-0.0083,11.59003 -9.43323,21.01376 -21.01849,21.01376z" id="svg_1"/>
   <g id="svg_2">
    <path fill="#000000" d="m1093.73877,126.08526c-0.61548,0 -1.2428,-0.14087 -1.83472,-0.43325c-2.03613,-1.0192 -2.86462,-3.49818 -1.84668,-5.53539c5.46887,-10.92117 5.46887,-15.63953 0,-26.55598c-6.65259,-13.31826 -6.65259,-20.61366 0,-33.93546c1.01807,-2.0372 3.50391,-2.86584 5.54004,-1.84782c2.03601,1.0192 2.8645,3.49797 1.84656,5.53044c-5.45703,10.92117 -5.45703,15.63968 0,26.55718c6.65259,13.31705 6.65259,20.61362 0,33.93423c-0.73401,1.45268 -2.18994,2.28603 -3.7052,2.28603l0,0l0,0.00002z" id="svg_3"/>
   </g>
   <g id="svg_4">
    <path fill="#000000" d="m1111.88562,126.08526c-0.6156,0 -1.24292,-0.14087 -1.83484,-0.43325c-2.03601,-1.0192 -2.86475,-3.49818 -1.84668,-5.53539c5.46887,-10.92117 5.46887,-15.63953 0,-26.55598c-6.65259,-13.31826 -6.65259,-20.61366 0,-33.93546c1.02979,-2.0372 3.49207,-2.86584 5.53992,-1.84307c2.03601,1.01802 2.86475,3.49677 1.84656,5.53399c-5.46887,10.92117 -5.46887,15.63955 0,26.55716c6.65271,13.31709 6.65271,20.61365 0,33.93424c-0.73389,1.4444 -2.18982,2.27775 -3.70496,2.27775l0,0.00001z" id="svg_5"/>
   </g>
   <g id="svg_6">
    <path fill="#000000" d="m1130.04419,126.08526c-0.62744,0 -1.25488,-0.14087 -1.8468,-0.43325c-2.03589,-1.0192 -2.8645,-3.49818 -1.84656,-5.53065c5.45703,-10.92117 5.45703,-15.63953 0,-26.55717c-6.65259,-13.31707 -6.65259,-20.61366 0,-33.93543c1.01807,-2.03721 3.50391,-2.86584 5.53992,-1.84309c2.03613,1.01921 2.86462,3.49796 1.84668,5.53518c-5.46887,10.92105 -5.46887,15.63955 0,26.55598c6.65259,13.31827 6.65259,20.61365 0,33.93543c-0.72205,1.43491 -2.1781,2.27299 -3.69324,2.27299l0,0l0,0l0,0l0,0l0,0l0,0.00001z" id="svg_7"/>
   </g>
  </g>
  <g id="svg_31">
   <g id="svg_17">
    <path fill-rule="evenodd" clip-rule="evenodd" fill="#428bca" d="m1667.57153,275.3385l16.79309,0c21.86646,0 39.80798,17.9534 39.80798,39.80258l0,84.67569c0,22.11243 -17.94153,40.05222 -39.80798,40.05222l-16.79309,0c-21.86646,0 -39.81714,-17.93979 -39.81714,-40.05222l0,-84.67569c0,-21.84918 17.95068,-39.80258 39.81714,-39.80258l0,0zm-11.50305,140.36801c-4.15076,0 -7.60522,3.44275 -7.60522,7.59091c0,4.13895 3.45447,7.36288 7.60522,7.36288c4.14185,0 7.35217,-3.22394 7.35217,-7.36288c0,-4.14816 -3.21033,-7.59091 -7.35217,-7.59091l0,0zm20.70886,-2.07001c-5.29016,0 -9.66711,4.13913 -9.66711,9.66092c0,5.2984 4.37695,9.43735 9.66711,9.43735s9.6582,-4.13895 9.6582,-9.43735c0,-5.52631 -4.36792,-9.66092 -9.6582,-9.66092l0,0zm19.77747,2.07001c-4.13269,0 -7.58728,3.44275 -7.58728,7.59091c0,4.13895 3.45459,7.36288 7.58728,7.36288c4.14172,0 7.37012,-3.22394 7.37012,-7.36288c0,-4.14816 -3.22839,-7.59091 -7.37012,-7.59091l0,0zm-57.06238,-114.58954l0,107.22211l72.26392,0l0,-107.22211l-72.26392,0z" id="svg_25"/>
    <path fill-rule="evenodd" clip-rule="evenodd" fill="#428bca" d="m1798.50745,400.04559c-1.61865,-1.1394 -2.77625,-2.51218 -3.91565,-3.90033c2.99316,-7.8251 12.41626,-19.32706 16.79309,-30.38501c17.95972,-44.40018 2.99329,-88.34268 -28.54016,-116.87845c1.62769,-1.61145 3.45447,-2.53662 4.61194,-5.2975c41.66187,33.83327 56.61023,101.4897 11.05078,156.46129z" id="svg_26"/>
    <path fill-rule="evenodd" clip-rule="evenodd" fill="#428bca" d="m1774.79626,378.88281c-1.83582,-0.45761 -2.98425,-1.59708 -3.45447,-2.53214c-0.23511,-4.82996 4.83813,-8.51141 7.14404,-12.65051c10.81567,-19.09821 11.9552,-41.89246 6.44775,-59.14496c-4.3678,-13.10901 -13.5918,-22.55096 -21.16992,-34.04755c6.20361,-5.76593 14.26099,7.36292 17.47131,12.41263c15.42773,23.94266 21.1792,64.2038 -6.43872,95.96252l0,0z" id="svg_27"/>
    <path fill-rule="evenodd" clip-rule="evenodd" fill="#428bca" d="m1755.245,362.77957c-0.92249,-1.61688 -2.99341,-2.74637 -4.62109,-4.14899c19.34338,-24.85873 13.59192,-51.31451 -4.59399,-67.41772c1.3927,-1.37366 3.00244,-2.29877 4.15088,-4.60205c21.63123,17.94885 26.70435,49.70306 5.06421,76.16876z" id="svg_28"/>
    <path fill-rule="evenodd" clip-rule="evenodd" fill="#428bca" d="m1739.60022,348.51672c-2.54102,-0.92966 -1.85376,-2.76541 -4.83801,-3.44272c11.25879,-14.51068 6.21265,-28.54028 -1.84485,-38.66858c1.15747,-1.61691 2.52307,-2.53662 3.68054,-3.68152c12.43445,11.04898 16.10583,28.29248 3.00232,45.79282l0,0z" id="svg_29"/>
   </g>
   <path fill="#428bca" id="svg_18" d="m1578.11096,281.24008l-62.85632,0c-6.31299,0 -11.42871,5.11572 -11.42871,11.42786l0,135.77228c0,6.31213 5.11572,11.42877 11.42871,11.42877l62.85632,0c6.31213,0 11.42871,-5.11664 11.42871,-11.42877l0,-135.77228c0,-6.31213 -5.11658,-11.42786 -11.42871,-11.42786zm-31.42859,153.56836c-4.11011,0 -7.4408,-3.33063 -7.4408,-7.43982c0,-4.11014 3.33069,-7.4407 7.4408,-7.4407c4.10742,0 7.43982,3.33057 7.43982,7.4407c0,4.10919 -3.33057,7.43982 -7.43982,7.43982zm35.71411,-24.22485c0,2.36209 -1.92249,4.28552 -4.28552,4.28552l-62.85632,0c-2.36304,0 -4.28552,-1.92343 -4.28552,-4.28552l0,-117.91565c0,-2.36206 1.92249,-4.28558 4.28552,-4.28558l62.85632,0c2.36304,0 4.28552,1.92352 4.28552,4.28558l0,117.91565z"/>
  </g>
  <g id="svg_40">
   <line fill="none" stroke-width="35" x1="281.72346" y1="259.26619" x2="281.72346" y2="424.1871" id="svg_36" stroke-linejoin="round" stroke-linecap="round" stroke="#000000"/>
   <line fill="none" stroke-width="35" x1="396.20171" y1="259.26619" x2="396.20171" y2="424.1871" id="svg_37" stroke-linejoin="round" stroke-linecap="round" stroke="#000000"/>
   <line fill="none" stroke-width="35" x1="383.41306" y1="342.7726" x2="294.43684" y2="342.7726" stroke-linejoin="round" stroke-linecap="round" id="svg_38" stroke="#000000"/>
  </g>
  <g id="svg_23">
   <path id="svg_117" d="m961.98096,978.13947c-2.92181,-15.67719 -34.00928,-42.62354 -72.3028,-43.64838c-39.45825,-1.05981 -74.70776,30.11041 -74.98022,45.24359c-0.2724,15.78528 16.28125,18.23633 16.28125,18.23633c1.2027,0 17.83136,-0.02722 38.08679,-0.05444c-7.88239,-6.22595 -13.03076,-15.74487 -13.03076,-26.53949c0,-18.74554 15.24786,-33.98029 33.98126,-33.98029c18.73328,0 33.96246,15.23474 33.96246,33.98029c0,10.75427 -5.12036,20.23926 -12.94635,26.46429c19.58844,-0.02625 35.05231,-0.05353 35.05231,-0.05353c10.86987,-0.00751 18.42328,-6.17902 15.89606,-19.64838z"/>
   <path id="svg_118" d="m909.47302,837.69598c-12.84253,-10.4903 -14.71228,-29.41156 -4.24622,-42.21008c10.42822,-12.77698 29.34949,-14.67859 42.19202,-4.14124c12.7959,10.51648 14.66534,29.39832 4.22778,42.17529c-10.50354,12.78448 -29.4245,14.67853 -42.17358,4.17603z"/>
   <path id="svg_119" d="m1106.00391,963.88184l-67.94348,0l51.15503,-55.8692c0.29102,-0.29224 4.70679,-5.05164 6.32275,-7.59766c6.36963,-10.18396 6.14417,-22.49982 0.72339,-32.31732c-0.0188,-0.02728 -0.0282,-0.06763 -0.0376,-0.10797c-7.71313,-14.45496 -24.1073,-38.40057 -52.90234,-50.51337c-28.42908,-11.95587 -44.4942,-7.69904 -53.29712,-4.04633c-13.09637,5.43872 -21.50476,14.41449 -26.83173,22.6698c-0.02826,0.04126 -28.8045,50.45874 -28.8045,50.45874l-44.40936,18.22217c-7.62885,3.11633 -11.27386,11.84039 -8.15472,19.45105c2.36743,5.78442 7.9386,9.26807 13.81036,9.26807c1.87897,0 3.80487,-0.35986 5.65576,-1.12732l49.16302,-20.15759c0.23499,-0.09491 0.42279,-0.27808 0.64832,-0.40015c0.88306,-0.40125 1.69092,-0.91699 2.47083,-1.50043c0.40393,-0.29224 0.79858,-0.54303 1.17432,-0.87653c0.76093,-0.69238 1.39978,-1.50043 2.0293,-2.34875c0.20679,-0.29218 0.48853,-0.48853 0.67639,-0.7948l22.77319,-36.5741l0,25.05981l-28.63531,39.5542c-5.12994,7.08179 -3.55133,16.97363 3.53229,22.0929c2.80908,2.03021 6.05035,3.00726 9.27283,3.00726c4.90393,0 9.74243,-2.26703 12.82379,-6.53778l31.65131,-43.70953c1.96356,-2.70197 3.00623,-5.95453 3.00623,-9.28119l0,-22.05164c2.03888,1.08606 4.07745,2.22656 6.0506,3.53723c4.38721,2.9198 8.7088,6.92493 12.55133,10.84912l-43.77997,72.14392c-2.05756,3.07501 -6.57648,8.44501 -4.03961,19.74329c1.64386,7.30542 10.03363,13.74835 16.76953,13.74835l106.5752,0c9.3855,0 17.00476,-7.5976 17.00476,-17.01398c0,-9.36951 -7.61926,-16.98029 -17.00476,-16.98029z"/>
   <g id="Layer_2">
    <path id="svg_121" d="m916.3125,971.37708c0,-14.52258 -11.77161,-26.31494 -26.29602,-26.31494c-14.54321,0 -26.31506,11.79236 -26.31506,26.31494c0,14.50848 11.77185,26.30182 26.31506,26.30182c14.52441,0 26.29602,-11.79333 26.29602,-26.30182z"/>
   </g>
   <g id="svg_19">
    <line fill="none" stroke-width="40" stroke-dasharray="null" stroke-linejoin="round" stroke-linecap="round" x1="837.07388" y1="817.42575" x2="837.07388" y2="896.67494" id="svg_20" stroke="#428bca"/>
    <line fill="none" stroke-width="40" stroke-dasharray="null" stroke-linejoin="round" stroke-linecap="round" x1="876.24057" y1="857.9496" x2="796.99139" y2="857.9496" id="svg_21" stroke="#428bca"/>
   </g>
  </g>
  <g id="svg_35">
   <path id="svg_30" d="m256.74496,625.06165l0,-5.91626l7.72839,0l0,-3.74347c0,-6.65796 5.81732,-12.039 13.01337,-12.039c7.18445,0 12.99603,5.38391 12.99603,12.039l0,3.74347l7.56262,0l0,5.91626l-41.30042,0z"/>
   <path fill="black" id="svg_32" d="m324.94193,747.04883c-15.25317,0 -27.61792,12.36194 -27.61792,27.61212c0,15.25311 12.36475,27.61798 27.61792,27.61798c15.24158,0 27.59174,-12.36487 27.59174,-27.61798c0,-15.25018 -12.35016,-27.61212 -27.59174,-27.61212zm-0.00586,40.82629c-7.29785,0 -13.21118,-5.91339 -13.21118,-13.21124c0,-7.29791 5.91333,-13.20245 13.21118,-13.20245c7.28925,0 13.19678,5.90167 13.19678,13.20245c0,7.29785 -5.90753,13.21124 -13.19678,13.21124z"/>
   <path id="svg_33" d="m166.83768,746.78125c-15.24158,0 -27.60632,12.37354 -27.60632,27.61792c0,15.25317 12.36189,27.60626 27.60632,27.60626c15.25305,0 27.61499,-12.35309 27.61499,-27.60626c0,-15.24438 -12.36194,-27.61792 -27.61499,-27.61792zm0.06105,40.85535c-7.29492,0 -13.2113,-5.90747 -13.2113,-13.21124c0,-7.29492 5.91638,-13.20251 13.2113,-13.20251s13.20824,5.90759 13.20824,13.20251c-0.00287,7.30377 -5.91321,13.21124 -13.20824,13.21124z"/>
   <path id="svg_34" d="m371.28592,696.13818c8.24615,1.60565 13.18512,5.16876 16.9082,25.52075l5.88721,36.73669c2.12036,11.95465 -4.63647,16.31482 -13.05713,16.31482l-20.22986,0c0,-19.80817 -16.04724,-35.92224 -35.85242,-35.92224c-19.80811,0 -35.8728,16.11694 -35.8728,35.92224l-86.45758,0c0,-19.80817 -16.05597,-35.92224 -35.86407,-35.92224c-19.81689,0 -35.8728,16.11694 -35.8728,35.92224l-16.76269,0c-5.90166,0 -10.5033,-4.46777 -10.5033,-10.23572l0,-120.79169c0,-6.5824 5.19495,-11.87036 11.56201,-11.87036l186.58031,0l30.48584,0c8.24615,0 14.27869,4.09546 17.26013,11.27118l21.78894,53.05432zm-72.35632,-52.01306l0,50.17767l58.0224,0l-20.35211,-50.17767l-37.67029,0zm-51.9026,43.73785l0,-30.78833l-30.78824,0l0,30.78833l-30.79428,0l0,30.79419l30.79428,0l0,30.78558l30.78824,0l0,-30.78558l30.78847,0l0,-30.79419l-30.78847,0z"/>
  </g>
  <g id="svg_24">
   <g id="svg_11">
    <circle fill="#000000" cx="1545.24739" cy="596.68027" r="23.29918" id="svg_9"/>
    <path fill="#000000" d="m1560.78076,627.74585l-31.06628,0c-14.23767,0 -25.88855,11.65015 -25.88855,25.88776l0,59.54242c0,10.55994 6.41541,19.68286 15.5332,23.698l0,74.67676c0,11.39026 9.31958,20.70996 20.70996,20.70996l10.35535,0c11.39124,0 20.71179,-9.3197 20.71179,-20.70996l0,-74.67676c9.11682,-4.0177 15.53137,-13.13806 15.53137,-23.698l0,-59.54242c0,-14.23761 -11.64917,-25.88776 -25.88684,-25.88776z" id="svg_10"/>
   </g>
   <g id="svg_22">
    <rect fill="#000000" stroke-width="5" x="1605.66846" y="573.38109" width="131.41908" height="131.41908" id="svg_13" stroke-linejoin="round" stroke-linecap="round" rx="25" ry="25"/>
    <g id="svg_16">
     <line fill="none" stroke-width="40" stroke-dasharray="null" stroke-linejoin="round" stroke-linecap="round" x1="1671.8903" y1="594.75716" x2="1671.8903" y2="683.42409" id="svg_14" stroke="#428bca"/>
     <line fill="none" stroke-width="40" stroke-dasharray="null" stroke-linejoin="round" stroke-linecap="round" x1="1715.71144" y1="640.09674" x2="1627.04452" y2="640.09674" id="svg_15" stroke="#428bca"/>
    </g>
   </g>
  </g>
  <g id="svg_39">
   <path id="svg_1" d="m904.52643,539.25c0,2.263 -1.47101,3.56403 -3.284,2.90704c-1.815,-0.66101 -3.28497,-3.02899 -3.28497,-5.29303s1.46997,-3.56702 3.28497,-2.90698c1.81299,0.65698 3.284,3.02899 3.284,5.29297l0,0z"/>
   <path id="svg_2" d="m917.19641,543.836c0,2.26404 -1.46997,3.565 -3.28497,2.90704c-1.815,-0.66101 -3.28302,-3.02899 -3.28302,-5.29303s1.47003,-3.56702 3.28302,-2.90698c1.815,0.65698 3.28497,3.02899 3.28497,5.29297z"/>
   <path id="svg_3" d="m942.53845,553.09705c0,2.26398 -1.47101,3.56696 -3.28601,2.90796s-3.28302,-3.02997 -3.28302,-5.29297s1.47101,-3.565 3.28302,-2.90802s3.28601,3.03003 3.28601,5.29303l0,0z"/>
   <path id="svg_4" d="m1001.67041,504.89908"/>
   <path id="svg_5" d="m891.85541,498.45206c0,2.26398 -1.47198,3.56702 -3.28497,2.90698s-3.28601,-3.02899 -3.28601,-5.29297s1.47101,-3.56604 3.28601,-2.90704c1.81403,0.66101 3.28497,3.02905 3.28497,5.29303z"/>
   <path id="svg_6" d="m904.52643,503.08603c0,2.263 -1.47101,3.56702 -3.284,2.90503c-1.815,-0.65698 -3.28497,-3.02899 -3.28497,-5.29303s1.46997,-3.56696 3.28497,-2.90698s3.284,3.02899 3.284,5.29498z"/>
   <path id="svg_7" d="m917.19641,507.67007c0,2.26398 -1.46997,3.56696 -3.28497,2.90796c-1.815,-0.65796 -3.28302,-3.02997 -3.28302,-5.29401c0,-2.263 1.47003,-3.56396 3.28302,-2.90497s3.28497,3.02802 3.28497,5.29102z"/>
   <path id="svg_8" d="m942.53845,516.93201c0,2.263 -1.47101,3.56604 -3.28601,2.90704c-1.81403,-0.65802 -3.28302,-3.02905 -3.28302,-5.29303s1.47101,-3.56497 3.28302,-2.90695c1.815,0.66098 3.28601,3.02896 3.28601,5.29294z"/>
   <path id="svg_9" d="m955.20844,521.565c0,2.26404 -1.47003,3.56702 -3.28497,2.90802c-1.815,-0.65802 -3.28302,-3.02997 -3.28302,-5.29297s1.46997,-3.565 3.28302,-2.90802c1.81494,0.65997 3.28497,3.02802 3.28497,5.29297z"/>
   <g id="svg_10">
    <g id="XMLID_47_">
     <polygon fill="#428bca" id="svg_11" points="921.783 461.249 921.106 461.001 921.106 461.001"/>
     <path fill="#428bca" id="svg_12" d="m1050.04053,450.23004l-99.31909,-36.03998l-77.836,28.26999l0,28.332l10.62799,3.86401l-10.62799,3.858l0,28.32898l10.77899,3.922l-10.77899,3.91501l0,28.33099l99.30902,36.09698l77.84607,-28.302l0,-28.35699l-10.75,-3.901l10.75,-3.90802l0,-28.35696l-10.59009,-3.84399l10.59009,-3.85199l0,-28.35703zm-99.31909,-29.62698l87.479,31.741l-66.008,24.017l-87.46301,-31.79001l65.992,-23.96799zm21.47302,86.284l58.42603,-21.23901l7.57996,2.74902l-66.008,24.01694l-87.46301,-31.78793l7.612,-2.76401l79.85303,29.02499l0,0zm-93.27405,-40.315l0,-17.69501l90.25403,32.80402l0,17.69397l-90.25403,-32.80298zm0,36.05298l0,-17.69598l90.25403,32.80795l0,17.69202l-90.25403,-32.80399zm90.25403,68.97l-90.25403,-32.80603l0,-17.69196l90.25403,32.802l0,17.69598l0,0zm3.01801,-23.01501l-87.46301,-31.78998l7.76202,-2.81903l79.703,28.96899l58.276,-21.18396l7.72998,2.80701l-66.008,24.01697l0,0z"/>
    </g>
   </g>
   <path id="svg_13" d="m891.85541,462.39804c0,2.26401 -1.47198,3.56702 -3.28497,2.90802s-3.28601,-3.03 -3.28601,-5.293s1.47101,-3.565 3.28601,-2.90802c1.81403,0.66 3.28497,3.02802 3.28497,5.293z"/>
   <path id="svg_14" d="m904.52643,467.03006c0,2.26401 -1.47101,3.56699 -3.284,2.90799s-3.28497,-3.03 -3.28497,-5.29401s1.46997,-3.56598 3.28497,-2.90698s3.284,3.03 3.284,5.293z"/>
   <path id="svg_15" d="m917.19641,471.61707c0,2.263 -1.46997,3.56598 -3.28497,2.90698s-3.28302,-3.02899 -3.28302,-5.293s1.47003,-3.56699 3.28302,-2.90698s3.28497,3.02899 3.28497,5.293z"/>
   <path id="svg_16" d="m955.20844,557.68402c0,2.26398 -1.47003,3.565 -3.28302,2.90698s-3.28497,-3.02899 -3.28497,-5.29297s1.46997,-3.565 3.28497,-2.90698c1.815,0.66095 3.28302,3.02899 3.28302,5.29297z"/>
   <path id="svg_17" d="m929.86743,476.24805c0,2.26401 -1.46997,3.56702 -3.28302,2.90601c-1.815,-0.65799 -3.28595,-3.02798 -3.28595,-5.29099s1.47296,-3.56702 3.28595,-2.90802c1.81305,0.65802 3.28302,3.02802 3.28302,5.293z"/>
   <path id="svg_18" d="m942.53845,480.87805c0,2.26401 -1.47101,3.56702 -3.28601,2.90701s-3.28302,-3.02902 -3.28302,-5.293s1.47101,-3.56601 3.28302,-2.90701c1.815,0.66101 3.28601,3.03101 3.28601,5.293z"/>
   <path id="svg_19" d="m955.20844,485.51004c0,2.263 -1.47003,3.56702 -3.28302,2.90704c-1.815,-0.65906 -3.28497,-3.02902 -3.28497,-5.29303s1.47198,-3.56699 3.28497,-2.90701c1.81299,0.65701 3.28302,3.02902 3.28302,5.293z"/>
   <path id="svg_20" d="m899.60144,499.31003c-3.008,1.09302 -6.34302,1.89203 -9.12402,3.46704c-2.797,1.58398 -4.38196,4.58801 -5.56696,7.43597c-3.20203,7.689 -3.08002,17.04697 -2.13702,25.16696c1.05902,9.13104 3.62701,18.70404 9.31598,26.10504c4.65002,6.05096 12.927,11.30597 20.88702,8.992c6.51599,-1.896 8.992,-9.47205 10.22797,-15.37201c1.888,-9.01099 1.98602,-18.40802 2.11804,-27.573c0.13397,-9.37402 -0.039,-18.785 0.72601,-28.13297c0.27197,-3.30902 0.70294,-6.63202 1.71497,-9.80304c0.36798,-1.15295 0.565,-1.62 1.33801,-2.75598c-0.328,0.48297 0.46497,-0.47003 0.66602,-0.64301c-0.55304,0.47803 -0.01605,0.04901 0.12799,-0.034c0.29901,-0.14905 0.25696,-0.138 -0.12201,0.03192c0.69598,-0.25189 1.39301,-0.50595 2.08997,-0.75995c2.453,-0.89001 4.90302,-1.78201 7.35602,-2.67099c3.62799,-1.319 2.06104,-7.14603 -1.604,-5.81302c-5.54297,2.01401 -12.19098,2.92902 -14.80499,8.82101c-3.04498,6.86093 -3.03699,15.10696 -3.263,22.47293c-0.29797,9.76901 -0.117,19.54202 -0.52197,29.30801c-0.31104,7.49396 -0.51001,16.224 -3.83801,23.04401c-0.60498,1.23798 -1.20703,2.10999 -1.95898,2.88c-0.68701,0.69897 -1.37396,1.04895 -2.13605,1.26996c-0.797,0.23401 -2.53094,0.20001 -3.93896,-0.05396c-1.93103,-0.34601 -3.67102,-1.10004 -5.33002,-2.125c-7.19891,-4.45703 -10.37598,-13.96106 -12.08197,-21.75c-1.82703,-8.33405 -2.22101,-17.56201 -0.04602,-25.87103c0.37604,-1.43597 0.85498,-2.81403 1.51599,-4.10599c0.56299,-1.09998 1.461,-2.25598 1.85803,-2.55701c1.79199,-1.34998 5.37195,-2.15698 8.13995,-3.159c3.62402,-1.323 2.05902,-7.14899 -1.60797,-5.815l0,0l0,0.00006z"/>
   <path id="svg_21" d="m912.27142,540.05701c-2.81799,1.02502 -6.54901,1.64905 -8.91699,3.448c-2.79901,2.12201 -3.47998,5.64404 -3.90302,8.93903c-1.15698,8.974 1.05304,18.97699 4.96002,27.04602c3.43097,7.08997 11.06299,14.23596 19.57599,11.09595c7.573,-2.79498 9.12201,-12.17297 10.01001,-19.14697c1.41699,-11.112 0.59198,-22.46698 2.64697,-33.50201c0.65002,-3.49396 1.79004,-8.24597 4.63202,-10.28497c2.80902,-2.01001 7.17297,-2.849 10.61401,-4.099c3.62799,-1.31799 2.06299,-7.14703 -1.60498,-5.81201c-6.57202,2.38702 -13.49701,3.69 -16.86304,10.40698c-3.97797,7.93402 -3.92499,17.82001 -4.33197,26.48102c-0.39203,8.32397 0.12,18.07397 -3.27203,25.88501c-1.10199,2.53699 -2.677,4.46399 -5.07898,4.698c-3.60199,0.35101 -6.60803,-1.89899 -8.66101,-4.65503c-5.013,-6.73596 -6.82397,-16.14301 -6.81201,-24.375c0.00201,-1.66901 0.11401,-3.33301 0.45001,-4.96997c0.14398,-0.69702 0.35303,-1.37604 0.60101,-2.04199c-0.14203,0.38 0.84601,-1.18103 0.35602,-0.612c0.49194,-0.56903 -0.49603,0.27399 0.09698,-0.10803c-1.12799,0.72198 1.70801,-0.61798 1.68298,-0.612c1.271,-0.461 2.54498,-0.927 3.81598,-1.388c0.53601,-0.19696 1.07104,-0.388 1.60699,-0.58496c3.62701,-1.31201 2.06201,-7.13702 -1.60498,-5.80804l0,0l0,0z"/>
  </g>
  <circle stroke="#000000" id="svg_42" r="119.16287" cy="497.17395" cx="959.34779" fill-opacity="0" stroke-linecap="null" stroke-linejoin="null" stroke-dasharray="null" stroke-width="9" fill="#000000"/>
 </g>
</svg>