<?xml version="1.0"?>
<svg width="1920" height="1080" xmlns="http://www.w3.org/2000/svg" xmlns:xlink="http://www.w3.org/1999/xlink">
 <!-- Created with SVG-edit - http://svg-edit.googlecode.com/ -->
 <metadata id="metadata3065">image/svg+xml</metadata>
 <defs>
  <linearGradient id="svg_5" y2="1">
   <stop stop-color="#ffffe0" offset="0" id="stop3031"/>
   <stop stop-color="#edc39c" offset="1" id="stop3033"/>
  </linearGradient>
  <linearGradient id="svg_10" y1="0.78125" x2="0.28906" x1="0.57031" y2="0.41406">
   <stop stop-color="#ff7f00" offset="0" id="stop3036"/>
   <stop stop-color="#FF0" offset="1" id="stop3038"/>
  </linearGradient>
  <linearGradient id="svg_18" y1="0.35938" x1="0.37891" y2="1">
   <stop stop-color="#e0e0e0" offset="0" id="stop3041"/>
   <stop stop-color="#666" offset="1" id="stop3043"/>
  </linearGradient>
 </defs>
 <g>
  <title>Layer 1</title>
  <text fill="#000000" stroke="#666666" stroke-width="0" stroke-dasharray="null" stroke-linejoin="null" stroke-linecap="null" x="1658.26081" y="954.79505" id="svg_5" font-size="39" font-family="Sans-serif" text-anchor="middle" xml:space="preserve">made with</text>
  <a xlink:href="https://code.google.com/p/svg-edit/" target="_svgedit" id="svg_16">
   <title>svg-edit</title>
   <g id="svg_9">
    <path id="svg_19" fill="#FFF" d="m1796.4342,928.5213l-5.32568,-7.98853l4.11536,-8.47266l8.23047,0.48413l6.052,3.63116l1.69446,-8.4726l6.7782,-3.87323l6.05188,2.90491l24.20752,24.69171l5.08374,5.56775l-3.63123,8.47266l-8.71472,2.17871l4.84143,11.86169l-7.50427,5.80981l-11.86169,-4.11523l-0.24207,7.50433l-7.98853,5.08356l-7.50439,-4.59943l-3.14697,-8.47266l-7.26233,5.08362l-7.26221,-2.17871l-1.21045,-8.47266l3.87329,-7.50433l-7.74646,-1.45251l-3.6311,-4.59943l0.7262,-8.71472l11.37756,-4.35736z"/>
    <path id="path2902" d="m1818.25488,900.68011c-6.05701,0 -10.98315,4.92651 -10.98315,10.98492c0,0.17487 0.00427,0.34863 0.01135,0.52209c-0.11938,-0.12982 -0.24048,-0.25684 -0.36462,-0.38361c-2.07227,-2.07098 -4.83179,-3.21576 -7.76428,-3.21576c-2.9342,0 -5.6936,1.14343 -7.7677,3.21863c-4.28308,4.28357 -4.28308,11.24738 0,15.53503c0.12537,0.12512 0.25378,0.24512 0.38501,0.36456c-0.17651,-0.00867 -0.35291,-0.01166 -0.53076,-0.01166c-6.05701,0 -10.98352,4.92645 -10.98352,10.98468c0,6.05524 4.92651,10.98175 10.98352,10.98175c0.17639,0 0.35156,-0.00299 0.52637,-0.01172c-0.12817,0.11676 -0.25525,0.2392 -0.37891,0.36163c-4.28479,4.28204 -4.28479,11.25336 -0.00159,15.53815c2.07666,2.07397 4.8335,3.21423 7.7677,3.21423c2.9325,0 5.68909,-1.14044 7.7644,-3.21423c0.12402,-0.12518 0.24646,-0.25385 0.3645,-0.38226c-0.00708,0.17236 -0.01135,0.35022 -0.01135,0.52228c0,6.05554 4.92627,10.98468 10.98328,10.98468c6.0553,0 10.98315,-4.92914 10.98315,-10.98468c0,-0.1748 -0.00403,-0.34991 -0.0127,-0.52795c0.11633,0.12811 0.23608,0.25378 0.35999,0.37921c2.0769,2.07697 4.83618,3.21747 7.77197,3.21747c2.93152,0 5.69226,-1.14044 7.76318,-3.21436c4.2821,-4.28467 4.2821,-11.25287 0,-15.53497c-0.12244,-0.11969 -0.24487,-0.24213 -0.37354,-0.35889c0.16943,0.00873 0.34448,0.01172 0.52527,0.01172c6.05554,0 10.97888,-4.92651 10.97888,-10.98175c0,-6.05817 -4.92334,-10.98474 -10.97888,-10.98474c-0.18079,0 -0.35583,0.00305 -0.53088,0.01172c0.12866,-0.11945 0.25671,-0.23944 0.38513,-0.36456c2.07104,-2.07104 3.21423,-4.82751 3.21423,-7.76459c0,-2.93591 -1.14343,-5.6936 -3.22034,-7.76898c-2.07092,-2.07233 -4.83154,-3.2157 -7.76306,-3.2157c-2.93433,0 -5.6936,1.14337 -7.7677,3.2157c-0.1239,0.12543 -0.24658,0.25385 -0.36438,0.38226c0.00867,-0.17505 0.0127,-0.34857 0.0127,-0.52502c0,-6.05817 -4.92786,-10.98492 -10.98315,-10.98492m0,5.01563c3.29614,0 5.96936,2.67035 5.96936,5.96912c0,1.60431 -0.64185,3.05518 -1.67273,4.12738l0,12.50903l8.84534,-8.8443c0.02917,-1.4873 0.60107,-2.96466 1.73853,-4.10242c1.16504,-1.1651 2.69214,-1.74884 4.22205,-1.74884c1.52563,0 3.05396,0.58368 4.22083,1.74884c2.32922,2.33185 2.32922,6.11218 0,8.44287c-1.1377,1.13446 -2.61633,1.70642 -4.10388,1.73846l-8.84399,8.84375l12.50732,0c1.07202,-1.02966 2.52454,-1.67139 4.13464,-1.67139c3.29004,0 5.96216,2.672 5.96216,5.97076c0,3.29614 -2.67212,5.97083 -5.96216,5.97083c-1.61011,0 -3.06274,-0.64471 -4.13464,-1.67438l-12.50281,0l8.83655,8.83795c1.49365,0.03497 2.96924,0.60645 4.10706,1.74445c2.32922,2.32751 2.32922,6.10803 0,8.43823c-1.16406,1.16681 -2.69507,1.75012 -4.22083,1.75012c-1.53003,0 -3.05847,-0.58331 -4.22375,-1.75012c-1.13306,-1.13464 -1.70618,-2.6134 -1.73682,-4.10101l-8.84546,-8.84399l0,12.50739c1.03101,1.07635 1.67285,2.526 1.67285,4.13031c0,3.29871 -2.6731,5.97052 -5.96948,5.97052c-3.29749,0 -5.96912,-2.67181 -5.96912,-5.97052c0,-1.60437 0.6405,-3.05408 1.67126,-4.13031l0,-12.50739l-8.84521,8.84692c-0.03076,1.48737 -0.60242,2.96912 -1.73853,4.10101c-1.16541,1.1665 -2.69238,1.75012 -4.21912,1.75012c-1.52856,0 -3.05554,-0.58362 -4.22083,-1.75012c-2.33191,-2.33081 -2.33191,-6.11072 0,-8.44116c1.13306,-1.13202 2.61206,-1.70673 4.10107,-1.73877l8.84375,-8.84375l-12.5072,0c-1.07495,1.02966 -2.52454,1.67438 -4.13025,1.67438c-3.29614,0 -5.9679,-2.67462 -5.9679,-5.97076c0,-3.29877 2.67175,-5.97083 5.9679,-5.97083c1.60571,0 3.05518,0.64172 4.13025,1.67145l12.51172,0l-8.84827,-8.84668c-1.48779,-0.02905 -2.96643,-0.60376 -4.10278,-1.74146c-2.33032,-2.32758 -2.33032,-6.10925 0,-8.43976c1.16541,-1.1651 2.69385,-1.74872 4.22229,-1.74872c1.52673,0 3.05371,0.58362 4.21912,1.74872c1.1377,1.13611 1.70923,2.61493 1.7384,4.10272l8.84534,8.84375l0,-12.50592c-1.03088,-1.07196 -1.67114,-2.52289 -1.67114,-4.12732c0,-3.29883 2.67175,-5.96918 5.96912,-5.96918" fill-rule="nonzero" fill="#1a171a"/>
    <path stroke="#FFF" id="svg_6" stroke-width="0" fill="url(#svg_10)" d="m1825.48328,913.99677l3.87329,-11.37756l37.52173,-35.82727l25.9021,24.20758l-38.24805,38.00598l-10.65125,2.90491l-18.39783,-17.91364z"/>
    <path stroke="#FFF" id="svg_11" stroke-width="0" fill="url(#svg_18)" d="m1861.00793,872.90363c-2.78381,9.62256 13.43518,27.89929 26.44678,23.90503l5.08362,-5.08362l-24.93384,-24.44965l-6.59656,5.62823z"/>
    <rect stroke="#FFF" id="svg_13" opacity="0.4" transform="matrix(0.168435 0.173869 -0.173869 0.168435 489.917 311.741)" height="232.67" width="42.352" y="-2474.19538" x="5625.28083" stroke-width="0" fill="#FFF"/>
    <rect stroke="#FFF" id="svg_14" opacity="0.4" transform="matrix(0.168435 0.173869 -0.173869 0.168435 489.957 312.615)" height="232.67" width="14" y="-2472.19538" x="5635.28083" stroke-width="0" fill="#FFF"/>
    <ellipse stroke="#FFF" id="svg_12" transform="matrix(0.186863 0.153893 -0.153893 0.186863 477.259 292.428)" rx="67.793" ry="34.82" cy="-1814.88666" cx="6013.54285" stroke-width="0" fill="#ea7598"/>
    <path stroke="#FFF" id="svg_4" stroke-width="0" fill="url(#svg_5)" d="m1831.11157,903.3454c-2.05762,11.37762 8.77527,25.11542 24.026,23.42084l-36.9165,12.89056l12.8905,-36.3114z"/>
    <path stroke="#FFF" id="svg_3" stroke-width="0" fill="#27382f" d="m1823.66772,921.86426c0.12109,4.96252 6.47559,10.89337 11.31702,11.74066l-16.03748,4.84149l4.72046,-16.58215z"/>
    <path stroke="#800000" id="svg_1" stroke-width="7" fill="none" d="m1816.76855,939.89886l12.34595,-36.79553l38.00586,-37.0376c9.68298,-2.90491 28.56506,11.61963 25.41797,25.41797l-38.00598,37.0376l-37.76379,11.37756z"/>
   </g>
  </a>
  <a xlink:href="https://github.com/loredanacirstea/thesapiens-pres" target="_github" id="svg_22">
   <title>our site on GitHub</title>
   <path id="svg_20" d="m167.3511,974.32074c-5.66139,-0.97595 -11.52307,-1.61072 -16.32347,-1.78131l-0.83315,0c0.20235,-0.40466 0.34515,-0.69031 0.37494,-0.74982c0.11505,-0.11505 0.20032,-0.46021 0.20032,-0.80139c0,-0.17456 0.08731,-0.80536 0.23012,-1.67023c1.29332,0.05951 3.01715,0.11505 4.88574,0.11505c7.2422,0.05951 14.79997,0.63477 20.0011,1.55518c3.10449,0.57129 4.11012,0.51575 1.83894,0c-2.3269,-0.57526 -9.1665,-1.38062 -14.6275,-1.78528c-3.67767,-0.2301 -8.93637,-0.34119 -12.04066,-0.28564c0.08522,-0.51575 0.20027,-1.091 0.31532,-1.72577c0.43242,-2.35657 0.57526,-4.76868 0.57526,-9.48181c0.0298,-7.35535 -0.37294,-9.37073 -2.78699,-14.25446c-0.94804,-2.01141 -2.06848,-3.67767 -3.39154,-5.17334c1.15053,-3.44757 1.12073,-8.7915 -0.08528,-13.4491c-0.97797,-3.79272 -1.32312,-4.02283 -4.8004,-3.33252c-2.92987,0.6308 -5.28644,1.49567 -8.30556,2.98737c-1.43622,0.74982 -3.39006,1.84082 -4.82623,2.76123c-3.70741,-1.32507 -7.55956,-2.18597 -11.66769,-2.64618c-4.16764,-0.46021 -14.36955,-0.2301 -17.98975,0.46021c-3.53485,0.6308 -6.72653,1.43616 -9.59885,2.41608c-1.46591,-0.92041 -3.53487,-2.12646 -5.03053,-2.87628c-3.04489,-1.49567 -5.40147,-2.35657 -8.33327,-2.98737c-3.44757,-0.74982 -3.82249,-0.46021 -4.79843,3.33252c-1.23581,4.71313 -1.23581,10.11658 -0.02975,13.56415c0.14481,0.40466 0.2301,0.6308 0.25986,0.8609c-4.91547,6.2088 -6.52419,13.10791 -5.46096,22.76031c0.28764,2.53113 0.71809,4.82819 1.32111,6.95465c-3.13217,-0.05554 -7.58546,0.05951 -10.80491,0.28961c-5.46097,0.34515 -12.32833,1.15051 -14.62738,1.72577c-2.29904,0.57129 -1.26358,0.57129 1.81107,0.05554c5.20111,-0.92041 12.78854,-1.55121 20.00107,-1.61072c1.37863,0 2.6442,0 3.7352,-0.05554c0.34515,1.15051 0.72006,2.18201 1.15051,3.21747l-0.02975,0c-4.79843,0.17456 -10.6601,0.80536 -16.3234,1.72577c-4.25293,0.74585 -10.48752,2.12646 -11.23535,2.58667c-0.7756,0.4007 -0.14481,0.28564 3.16193,-0.51971c5.97672,-1.55121 13.7645,-2.70172 23.42087,-3.50311l1.091,-0.05951c2.06894,4.77264 5.25864,8.45032 9.77142,11.32263c2.75925,1.78131 7.18475,3.56262 9.39651,3.85223c0.60501,0.05554 2.38632,0.4007 3.96729,0.80536c1.55121,0.34515 4.62585,0.91644 6.80984,1.20605l0.05753,0c-0.05753,0.05554 -0.0853,0.05554 -0.14282,0.11505c-2.61642,1.32111 -4.34021,3.50708 -5.48874,6.8396c-0.51773,0.17059 -1.17828,0.34515 -1.86859,0.6308c-2.47162,0.80542 -3.44955,0.97595 -5.97672,1.03552c-2.61642,0 -3.24722,-0.11511 -4.80042,-0.86096c-2.26929,-1.03546 -4.39575,-2.99133 -5.80414,-5.3479c-2.35658,-3.84827 -6.43692,-6.6095 -9.82895,-6.6095c-2.93182,0 -3.47733,1.15051 -1.37863,2.87628c3.15994,2.58667 5.54626,5.22888 6.49445,7.2403c0.5455,1.15051 1.40839,2.87231 1.86661,3.90784c0.51773,1.0354 1.6385,2.53113 2.67395,3.50708c2.44186,2.35657 4.82819,3.44751 8.36304,3.96729c2.38434,0.40063 2.95959,0.40063 5.77637,0c1.35086,-0.17456 2.47162,-0.34521 3.5051,-0.57532c0,1.14661 0,2.47168 0,4.02283c0,8.33533 -0.11505,10.97754 -0.43045,11.78284c-0.63278,1.49176 -2.01141,2.98749 -3.36227,3.6778c-1.35086,0.69031 -1.78131,1.43616 -1.20804,2.18201c0.31738,0.34509 0.92041,0.40466 2.95959,0.28955c3.88,-0.2301 6.61148,-1.66626 7.99011,-4.19739c0.46021,-0.80145 0.5455,-2.47162 0.69031,-10.91803c0.17258,-9.19617 0.2301,-10.06104 0.83313,-11.38208c0.34515,-0.80542 0.8609,-1.66626 1.17834,-1.89636c0.48798,-0.40076 0.51773,0.40466 0.51773,11.43762c0,12.12805 -0.14481,13.56427 -1.35092,15.92084c-0.25986,0.51965 -0.7756,1.20605 -1.15051,1.55115c-0.63277,0.57532 -0.89066,2.07092 -0.46021,2.53113c0.72005,0.69031 4.3978,-0.46021 6.38144,-2.01135c3.39005,-2.70178 3.79272,-4.94324 3.8205,-20.97906l0.02975,-9.48584l1.03348,0.11511l1.03549,0.11499l0.17258,12.35815c0.17258,13.85382 0.20035,14.08392 2.58667,16.78168c1.32111,1.49561 2.67197,2.30103 4.88571,2.99133c2.92981,0.86084 3.8205,-0.46021 1.83881,-2.87634c-2.15619,-2.58667 -2.24152,-3.56262 -2.12646,-18.79303c0.08533,-9.77148 0.08533,-9.77148 0.71808,-9.19617c1.32111,1.20605 1.58099,3.16187 1.58099,12.35803c0,11.37823 0.31537,12.47321 4.3382,14.42511c1.86859,0.92041 2.41406,1.03552 4.80036,1.03552c2.55688,0.05554 2.72948,0 2.81677,-0.69031c0.08525,-0.51575 -0.2301,-0.86096 -1.43817,-1.61072c-1.55116,-0.97595 -2.64411,-2.18201 -3.33247,-3.73334c-0.25983,-0.63477 -0.43243,-4.54248 -0.54749,-12.58813c-0.17255,-11.26709 -0.20032,-11.78284 -0.9184,-13.56421c-0.94818,-2.35657 -2.38634,-4.25293 -4.22516,-5.51849c-0.46021,-0.28564 -0.94818,-0.51575 -1.55121,-0.74585c0.74585,-0.05951 1.49371,-0.17456 2.18396,-0.2301c7.41479,-0.97595 11.32262,-1.84082 14.45477,-3.04688c6.66707,-2.52716 11.1501,-6.78009 13.59344,-12.8183c0.20032,-0.51575 0.43044,-1.03149 0.60304,-1.43616l1.86859,0.11505c9.65428,0.8609 17.4422,2.01141 23.44867,3.50708c3.27696,0.8609 3.90985,0.92041 3.16191,0.51575c-0.71808,-0.4007 -6.98436,-1.83685 -11.2373,-2.52716l-0.00002,0zm-28.30615,-0.17456c-1.09099,2.41608 -4.16765,5.51849 -6.63725,6.72455c-2.44392,1.21002 -6.2663,2.12646 -10.57679,2.58667c-2.95953,0.28961 -19.48331,0.40466 -22.21484,0.11505c-9.02359,-0.8609 -14.0799,-2.64221 -17.81707,-6.08978c-3.53487,-3.33649 -5.17334,-7.81952 -4.88571,-13.33405c0.17258,-3.45154 1.00571,-5.63354 3.1897,-8.27972c1.98364,-2.35657 4.08235,-3.84827 6.5242,-4.59808c2.06894,-0.6308 8.39081,-0.69031 16.86895,-0.17059c3.73718,0.2301 6.83963,0.2301 10.60458,0c8.88071,-0.57526 14.79984,-0.46021 16.98386,0.17059c3.4496,1.09497 6.58179,3.96729 8.47816,7.76001c0.83315,1.72577 1.00568,2.41608 1.12074,5.05829c0.17258,3.62213 -0.46022,7.4704 -1.6385,10.05707l-0.00003,0zm-44.77282,-15.57556c-5.0583,-0.8609 -7.93259,7.81952 -4.08035,12.1875c1.83884,2.12646 3.47534,2.47162 5.51651,1.20605c1.89636,-1.20605 2.93183,-3.39203 2.93183,-6.26434c0,-3.79272 -1.72379,-6.6095 -4.36798,-7.12921l-0.00001,0zm30.66321,0.51971c-5.05829,-0.86487 -7.96033,7.75604 -4.08032,12.18353c1.86658,2.12646 3.47729,2.47162 5.51648,1.20605c1.89629,-1.20605 2.93176,-3.39203 2.93176,-6.26434c0,-3.79272 -1.72373,-6.6095 -4.36789,-7.12524l-0.00002,0l-0.00001,0zm-13.59387,17.01172c-0.11505,0.34515 -0.6308,0.8609 -1.17828,1.15051c-1.32114,0.69031 -2.29907,0.46021 -3.73523,-0.80536c-0.86288,-0.80536 -1.26556,-1.26556 -1.55122,-0.40466c-0.23009,0.74982 1.32111,2.30103 2.52716,2.81677c1.12274,0.40466 1.92616,0.46021 3.13419,-0.05554c1.17828,-0.51971 2.24152,-1.84082 2.24152,-2.70172c0,-0.80536 -1.17828,-0.80536 -1.43814,0l-0.00001,0l0.00001,0zm-1.49368,-2.70172c0.7756,-0.69031 0.94817,-2.07092 0.20035,-2.81677s-2.21179,-0.6308 -2.81482,0.2301c-0.66254,0.97595 -0.28764,1.72577 0.17059,2.47162c0.7776,0.57526 1.78329,0.74585 2.44389,0.11505l-0.00001,0z" stroke-linecap="null" stroke-linejoin="null" stroke-dasharray="null" stroke-width="0" stroke="#666666" fill="#000000"/>
  </a>
  <g id="svg_29">
   <g id="svg_26">
    <text fill="#000000" stroke="#666666" stroke-width="0" stroke-dasharray="null" stroke-linejoin="null" stroke-linecap="null" x="737.72823" y="158.99765" id="svg_1" font-size="52" font-family="Sans-serif" text-anchor="middle" xml:space="preserve">we wanted to make</text>
    <text fill="#000000" stroke="#666666" stroke-width="0" stroke-dasharray="null" stroke-linejoin="null" stroke-linecap="null" x="737.72144" y="246.6736" font-size="63" font-family="Sans-serif" text-anchor="middle" xml:space="preserve" id="svg_2">a svg presentation</text>
   </g>
   <g id="svg_27">
    <text fill="#000000" stroke="#666666" stroke-width="0" stroke-dasharray="null" stroke-linejoin="null" stroke-linecap="null" x="970.33792" y="393.73612" font-size="52" font-family="Sans-serif" text-anchor="middle" xml:space="preserve" id="svg_3">we ended up with</text>
    <text fill="#000000" stroke="#666666" stroke-width="0" stroke-dasharray="null" stroke-linejoin="null" stroke-linecap="null" x="970.33859" y="481.45486" font-size="63" font-family="Sans-serif" text-anchor="middle" xml:space="preserve" id="svg_4">a svg site</text>
   </g>
   <g id="svg_28">
    <text id="svg_23" fill="#000000" stroke="#666666" stroke-width="0" stroke-dasharray="null" stroke-linejoin="null" stroke-linecap="null" x="1257.28288" y="615.4817" font-size="52" font-family="Sans-serif" text-anchor="middle" xml:space="preserve">join us and</text>
    <text id="svg_24" fill="#000000" stroke="#666666" stroke-width="0" stroke-dasharray="null" stroke-linejoin="null" stroke-linecap="null" x="1257.28966" y="703.19638" font-size="63" font-family="Sans-serif" text-anchor="middle" xml:space="preserve">who knows ?</text>
   </g>
  </g>
  <a xlink:href="http://en.wikipedia.org/wiki/JavaScript" target="_js" id="svg_7">
  <title>javascript</title>
   <text font-weight="bold" xml:space="preserve" text-anchor="middle" font-family="Sans-serif" font-size="47" id="svg_15" y="1043.91309" x="1817.53449" stroke-linecap="null" stroke-linejoin="null" stroke-dasharray="null" stroke-width="0" stroke="#666666" fill="#891b1b">.JS</text>
  </a>
 </g>
</svg>