<?xml version="1.0"?>
<svg width="1920" height="1080" xmlns="http://www.w3.org/2000/svg" xmlns:xlink="http://www.w3.org/1999/xlink">
 <!-- Created with SVG-edit - http://svg-edit.googlecode.com/ -->
 <g>
  <title>Layer 1</title>
  <text xml:space="preserve" text-anchor="middle" font-family="Sans-serif" font-size="147" id="svg_1" y="261.05566" x="960" stroke-width="0" stroke="#000000" fill="#000000">you all know</text>
  <text id="svg_2" xml:space="preserve" text-anchor="middle" font-family="Sans-serif" font-size="147" y="453.0166" x="960" stroke-width="0" stroke="#000000" fill="#000000">Google Earth</text>
  <path id="svg_6" d="m959.99957,518.91296c-120.39838,0 -217.99957,97.60132 -217.99957,217.99988c0,120.3988 97.6012,218.00024 217.99957,218.00024c120.39874,0 218.00043,-97.60144 218.00043,-218.00024c0,-120.39856 -97.60168,-217.99988 -218.00043,-217.99988zm47.33612,327.04541c-1.19067,1.00842 -2.74744,1.92224 -1.55676,3.11353c1.18964,1.1897 -1.3739,2.01373 -1.3739,2.56458s1.64911,3.66138 0.8241,5.03406c-0.8241,1.37396 -1.37268,3.38898 -1.92261,4.48749c-0.64105,1.19006 -2.01392,2.37933 -1.55591,4.11908c0.36597,1.74078 -1.5567,1.1908 -1.5567,2.93054c0,1.73975 1.73975,0.91479 1.28186,3.11255c-0.36591,2.10565 -1.28186,2.74579 -1.28186,4.21332c0,1.55396 0.91595,3.75269 0.91595,4.30225s-0.91595,2.56403 -2.28986,4.12024c-1.37274,1.55676 -2.38049,2.56262 -2.19775,3.47833c0.18451,1.00745 1.55682,2.19781 1.37402,2.74573c-0.18304,0.5509 -1.92261,2.5647 -1.73993,3.93744c0.18317,1.28302 1.92273,0.7345 2.28955,1.74078c0.45703,0.91571 -2.28955,1.73926 -1.09863,2.74744c1.09863,0.91388 2.74664,0.73236 2.28857,3.11353c-0.27466,1.64569 1.00696,2.38019 1.92273,2.92871c-13.36743,3.29694 -27.2843,5.30969 -41.659,5.30969c-95.4035,0 -173.04437,-77.64038 -173.04437,-173.0448c0,-31.03766 8.42236,-60.24585 22.79846,-85.42303c1.18958,-0.64099 2.01379,-1.00867 2.56323,-0.91626c1.00732,0.18329 1.1897,1.55676 2.74646,1.92267c1.55676,0.36591 2.93024,-1.19 3.93652,-1.73938c0.91638,-0.6413 1.73956,-2.92987 0.73315,-2.74689c-1.00684,0.18262 -3.47961,0 -3.47961,0s2.74646,-1.5567 2.74646,-2.56329s0.36719,-2.47235 1.92401,-3.11353c1.55542,-0.54926 1.55542,-0.18304 0.54913,2.10651c-1.00745,2.38 1.92249,1.37256 3.11169,0.45685s1.92432,-0.18304 4.12073,-1.55585c2.10516,-1.37378 2.10516,-2.19739 3.29608,-2.19739c1.18988,0 3.29681,2.19739 4.48651,1.37372c1.09888,-0.73309 4.48615,1.00665 6.40881,1.00665c1.92261,0 8.14874,2.56421 9.33966,2.56421c1.18945,0 4.66876,1.28113 4.94397,3.84528c0.1828,2.56311 1.28168,2.38049 2.47137,2.38049s3.93738,0.91547 3.93738,1.92242c0,0.91547 -0.82385,4.85217 1.09882,5.86029c2.01379,0.91418 3.75336,2.47095 4.48645,2.10541c0.82373,-0.36627 0,-3.4798 -0.91583,-3.8454c-1.00684,-0.45813 -0.36584,-1.83173 -0.8241,-2.56354c-0.36591,-0.73322 1.19,-0.73322 1.83057,0.54865c0.55029,1.37427 2.10706,3.93726 3.11353,3.93726c0.9162,0 3.11249,2.28857 2.4718,3.66302c-0.54907,1.37256 0.64069,3.38708 2.38068,3.38708c1.73956,0 3.84528,2.65576 4.67023,2.83807c0.73169,0.27441 1.73962,1.19 1.73962,1.83118c0,0.54956 1.00696,3.84521 1.00696,5.21875c0,1.37445 -0.64117,6.86682 -0.8241,8.97321s1.55591,5.85968 3.47852,7.78259c2.01453,1.92242 3.75427,5.67651 4.85339,6.40833c1.18939,0.82397 2.0144,2.92914 3.75299,2.74713c1.73975,-0.18378 2.9306,1.19037 4.48737,3.9375c1.55579,2.74585 3.11255,7.23199 4.30219,7.59924c1.19086,0.3656 3.11346,1.73785 2.10699,2.74628c-0.91614,0.91608 -2.47296,3.11285 -0.73315,3.11285c1.73962,0 2.2887,-1.00763 3.66235,0.73273c1.37396,1.7392 3.11359,2.74713 2.92932,3.93756c-0.18286,1.18939 1.55682,1.55566 2.38086,1.7384c0.73279,0.18445 2.47247,3.6626 4.21216,2.10693c1.83087,-1.55676 -2.28949,-3.84534 -3.47937,-4.85388c-1.19092,-1.00592 0,-3.11261 -2.74622,-5.21759c-2.7478,-2.19769 -2.29004,-3.75446 -4.30328,-5.31122c-1.92267,-1.55542 -3.47937,-2.9295 -1.5567,-4.3028c2.01453,-1.37384 2.19739,1.37329 2.9292,3.11353c0.82373,1.73889 4.85345,5.31006 6.68408,6.86682c1.7395,1.55676 4.85315,6.9577 5.76801,6.9577s3.75427,3.1134 3.75427,3.1134s1.55676,2.56299 0.91608,3.3869c-0.55023,0.73285 0.82385,3.66199 2.19617,4.48608c1.37366,0.73254 6.86694,3.29694 7.59998,3.66302c0.82373,0.36688 2.28851,3.29584 4.48584,3.29584c2.10583,0 3.6626,0.18341 4.30322,0.82373c0.55023,0.54907 2.28864,2.9292 3.47949,1.55658c1.19012,-1.37292 1.37317,-2.0141 3.11267,-2.0141c1.73999,0 2.56317,1.37396 3.47943,2.38062c1.00635,1.0061 3.75397,3.5705 5.12708,3.29602c1.3736,-0.1825 3.11353,1.55695 4.12042,1.00714s2.47229,0.36633 3.29651,0.73254c0.73181,0.45874 3.47943,1.83112 3.29517,4.11969c-0.18347,2.38055 1.55682,2.93073 2.74768,3.47913c1.18958,0.64087 2.74628,2.01477 3.6618,2.93115c1.00714,1.00604 3.11261,1.18982 3.75366,1.73914c0.54974,0.64111 0.91565,1.73926 2.74615,0.82367c1.74036,-1.00751 1.37439,-2.74738 1.37439,-2.74738s1.92273,-0.36615 2.83838,0.36694c1.00696,0.82367 1.55518,3.29602 2.19647,3.75262c0.54968,0.36835 1.7395,3.29736 0.91547,5.4021c-0.73181,2.19861 -0.54816,4.30426 -1.37244,4.30426c-0.73254,0 -1.7395,2.56354 -2.93036,3.11328c-1.09924,0.54926 -4.21124,3.29559 -4.02844,4.30316c0.18304,0.91547 1.92267,3.84552 1.55676,5.21808c-0.3667,1.37439 -2.93048,2.93115 -2.28937,5.12732c0.5498,2.10724 4.67029,2.74756 4.85266,4.67035c0.18359,1.92261 3.11255,6.22614 3.47937,8.14874c0.36603,2.01367 3.66309,4.12018 3.66309,6.77454c0,2.83875 4.7594,4.57831 5.67566,4.76141c1.00641,0.18372 2.7467,1.92267 4.12012,2.47321s2.4718,1.73804 3.47937,3.3869s0.82397,3.84558 0.82397,4.48572c0,0.5498 -0.64056,6.59229 -1.19092,10.07172c-0.64063,3.57086 0.73309,6.22607 -0.45667,7.23273zm-125.80133,-181.19348c0.54987,0.18304 1.73981,1.37433 2.28949,1.37433c0.64124,0 3.47852,2.28857 4.30347,3.11255c0.82361,0.73279 0.82361,2.92914 -0.18414,3.11353s-1.55536,-2.19843 -1.73853,-3.11353c-0.27521,-1.00751 -2.19788,-1.00751 -3.11346,-1.55676c-1.00696,-0.6416 -3.20453,-3.47968 -1.55682,-2.93011zm251.14423,78.28192c-2.198,2.74731 -1.92261,4.12012 -2.92969,4.30267c-1.00781,0.18481 1.00708,1.00879 1.37292,2.93073c0.27502,1.64783 -1.00671,3.388 0.91565,4.94476c-7.32434,69.21704 -55.66748,126.44244 -120.21527,146.76721c-0.18304,-0.18402 -0.27484,-0.36554 -0.367,-0.45703c-0.36603,-1.19135 -0.36603,-3.57233 1.00769,-4.30414c1.37305,-0.82495 4.66907,-3.47888 5.40216,-4.11896c0.82367,-0.55127 1.92261,-3.29694 1.37286,-3.66382c-0.54919,-0.36639 -3.47968,0 -3.93616,-0.64026c-0.36731,-0.54962 -0.36731,-1.37366 1.55554,-2.65479c2.0144,-1.37225 2.93036,-3.38788 3.75427,-3.93793c0.73181,-0.54785 2.28857,-1.73853 2.9295,-3.11267c0.54987,-1.37317 -0.64093,-0.64008 -1.73956,-0.64008s-1.83069,-2.10687 -1.83069,-3.11353s2.92932,0.45746 5.12695,0.82495c2.10596,0.36542 1.18982,-1.00848 0.91589,-2.10797c-0.18408,-1.18909 0.45825,-3.20276 1.64783,-2.56232c1.099,0.54932 7.1416,-0.18347 7.96558,-0.36639c0.73181,-0.27405 2.83862,-3.75323 3.6626,-4.66937c0.82373,-1.00677 0.91553,-2.01483 0,-2.56305c-1.00708,-0.64203 -2.10583,-2.74683 -2.56384,-3.29712c-0.36694,-0.64008 -0.54968,-4.12 -0.18311,-5.12592c0.36633,-0.91626 0,5.67621 2.74695,6.50012c2.74622,0.73181 4.30298,1.09924 6.77478,-1.19061c2.56323,-2.38043 4.48596,-3.93671 4.76111,-5.49347c0.18286,-1.55676 0.73315,-3.11353 1.73975,-3.66138c0.91577,-0.55084 1.55676,1.55676 2.7467,-1.00781c1.09863,-2.56445 2.28943,-2.28967 3.47913,-4.48682c1.18994,-2.10657 -1.92236,-4.85291 0.36621,-6.40967c2.38062,-1.55554 6.40845,-3.47943 6.40845,-3.47943s1.1908,-0.64063 3.57153,-1.18964c2.2887,-0.54871 4.85205,-0.1828 5.58533,-1.37366c0.82361,-1.19019 1.55676,-3.66162 2.74609,-5.03552c1.19092,-1.37317 2.56409,-3.57123 1.92285,-4.48572c-0.54895,-1.00818 1.55676,-5.3114 1.37402,-6.4082c-0.18335,-1.19177 -1.92297,-3.93756 1.00647,-6.3183s6.04321,-5.86041 6.22607,-6.77448c0.18262,-1.00861 2.56348,-5.03717 2.28845,-7.05109c-0.18274,-1.9231 -2.28845,-4.30365 -3.66248,-4.85297c-1.37256,-0.54822 -4.30286,-0.73285 -5.40088,-2.28851s-4.48743,-3.11371 -5.677,-2.7475c-1.18994,0.36676 -3.11218,0.73346 -4.66895,-0.27399c-1.55676,-0.91608 -4.12073,-2.10699 -5.12732,-2.83887c-0.91602,-0.823 -3.47913,-1.37329 -4.67029,-1.37329s-0.91479,-0.82422 -2.74646,1.55682c-1.73999,2.28864 0,3.11371 -3.11255,2.74683c-3.11353,-0.36609 0.45813,-0.64087 2.19641,-2.93036c1.74023,-2.37982 -0.18274,-3.75427 -2.19641,-3.11359c-1.92273,0.55011 -0.54968,1.7403 -3.66199,2.29059c-3.11353,0.64044 -3.11353,-1.37451 -1.19116,-1.74048c2.01477,-0.36584 5.4939,-2.10492 5.4939,-2.92987c0,-0.73181 -0.36682,-2.92975 -1.92236,-2.92975s-1.19116,-1.92316 -3.57153,-4.39398c-2.28857,-2.56433 -5.21814,-4.12109 -7.59888,-3.75562c-2.28955,0.36633 -4.02905,1.00793 -5.21899,-1.18842c-1.1908,-2.10699 -2.56372,-2.47308 -3.38721,-3.66296c-0.73328,-1.1911 -2.65564,0 -3.29651,-0.55072s-0.54883,-0.64038 -0.54883,-0.64038s-2.56348,0.64038 -1.19067,-1.18927c1.37341,-1.73956 1.92249,-5.0365 1.37341,-4.85309c-0.54993,0.1828 -1.55676,2.93011 -2.56348,2.74774c-0.91577,-0.18439 -0.18274,-0.55072 -2.10681,-1.73999c-1.92242,-1.19116 -5.03479,-0.18378 -5.03479,0.73181c0,1.00818 -1.00714,1.83148 -1.00714,1.83148s-0.54974,-0.64093 -1.19086,-1.83148c-0.54895,-1.0993 -3.29504,-1.28204 -4.66907,-0.1828c-1.37366,1.19098 -2.10553,-2.93024 -3.11353,-2.93024s-2.92975,1.00781 -3.84564,2.74683c-1.00677,1.74017 -0.64105,4.30334 -1.46472,4.12091c-0.73181,-0.18372 -0.91559,-3.47998 -0.73181,-4.67029c0.18304,-1.18964 2.3797,-3.11255 0.73181,-3.57031c-1.46466,-0.36633 -3.84528,2.01453 -4.76105,2.19733c-1.00696,0.18335 -2.92957,1.55676 -4.12054,3.11237c-1.18988,1.5567 -1.7381,2.56256 -2.92902,3.11334c-1.19006,0.54938 -2.92969,0 -2.56372,-0.55078c0.45758,-0.64032 -3.29663,-2.74518 -3.8454,-2.01239c-0.64105,0.82397 -2.38055,1.37207 -4.12054,2.19702c-1.7395,0.82422 -3.29626,-1.00775 -3.66223,-1.7395s-1.18945,-1.00769 -1.37299,-3.57104c-0.18372,-2.47198 0.36591,-5.21887 0.91528,-6.77484c0.6405,-1.55676 -2.92938,-4.66901 -4.21124,-4.48633c-1.37427,0.18274 -2.74658,1.55676 -4.12018,1.3728c-1.37323,-0.18286 -0.8241,-0.54858 -2.92999,-0.54858c-2.10516,0 -0.36682,-0.36609 0,-2.19824c0.36597,-1.73944 -0.73267,-4.12018 1.37329,-5.67621c2.10614,-1.55658 1.37341,-5.21832 0,-5.40204c-1.37329,-0.1825 -3.93622,0.54907 -5.67645,0.36572c-1.7392,-0.18201 -3.11359,1.37469 -2.47229,3.11353c0.54962,1.73932 -1.0072,2.93036 -1.55548,2.74701c-0.64075,-0.18274 -1.37433,-1.1911 -3.57159,0.36566c-2.10541,1.55676 -2.83893,1.00739 -5.03534,-0.73285c-2.1062,-1.73804 -4.48602,-3.47815 -4.85303,-6.22601c-0.36597,-2.74658 -0.64111,-5.4928 0.18274,-7.04956c0.73279,-1.55487 0.73279,-4.30292 -0.36597,-4.6684c-1.18976,-0.36633 1.28217,-2.28857 2.65515,-2.74738c1.37347,-0.36523 3.57117,-2.1059 3.93701,-2.93085c0.36682,-0.73181 2.38068,-0.54791 4.48578,-0.54791c2.1073,0 2.47321,0 4.67035,1.18951c2.10614,1.09906 2.5639,-0.6416 2.5639,-1.18951c0,-0.64124 0.73175,-1.74066 3.11249,-1.55676c2.28931,0.18176 5.58478,-0.82428 6.22534,-0.1839s1.74023,2.93018 2.93103,2.1059c1.18958,-0.73181 1.55548,-2.1059 1.92273,0.18268c0.36591,2.3811 1.37225,5.86023 3.11218,6.5014c1.7395,0.54999 0.82385,2.8385 2.56354,3.02216c1.73981,0.27405 2.56323,-3.66333 1.92261,-5.03571c-0.54877,-1.2818 -1.73956,-5.40234 -2.74664,-6.41077c-0.91565,-0.91364 -0.91565,-3.47772 1.00708,-4.30267c1.92371,-0.73187 6.5929,-4.66888 7.96582,-5.7677c1.37329,-1.18976 5.03619,-2.19739 3.93719,-3.75415c-1.18951,-1.55676 -1.55682,-2.56274 -1.55682,-3.75409s1.099,-0.73181 1.7395,0s2.83899,-1.09808 2.28955,-2.10535c-0.54962,-0.91589 -0.36682,-2.28857 1.0072,-2.10541c1.37256,0.18274 1.7395,-1.00684 1.1897,-1.83179c-0.64105,-0.73181 1.28162,-1.74005 2.65552,-1.28168c1.37372,0.36652 4.9444,-0.27411 5.4928,-1.00684c0.55005,-0.82404 -1.18927,-1.55688 -1.18927,-3.11255c0,-1.55676 2.38043,-2.93085 3.75336,-3.11353c1.37354,-0.18329 3.11359,0 3.29626,-0.64105c0.18298,-0.54852 2.10583,-2.10529 2.28857,-0.73303c0.27496,1.37408 0,3.66266 1.55676,3.66266c1.55688,0 3.47949,-1.74005 4.12048,-1.92224c0.54871,-0.18365 4.30334,-1.00739 5.03638,-1.19049c0.82373,-0.18274 5.49268,-0.54993 4.94373,-1.92218c-0.64075,-1.37445 -1.19055,-2.74701 -1.83142,-3.29681c-0.54883,-0.54852 -1.099,0.18329 -1.92285,1.19055c-0.73291,0.91492 -2.19763,0.91492 -2.56348,0.18311c-0.36597,-0.7326 0.18286,-3.11353 -1.09851,-2.38062c-1.37396,0.82385 -1.55682,1.55676 -2.38098,1.19025c-0.82385,-0.36639 -1.55676,-1.74011 -1.55676,-1.74011s1.92261,-1.0069 0.5498,-2.74597c-1.37366,-1.74005 -3.29639,-1.37335 -5.21906,-0.36615c-1.92267,1.0069 -1.73969,0.73181 -4.12006,1.37341s-3.4787,1.19025 -3.4787,1.19025s3.11292,-2.0152 4.48627,-3.11353c1.3728,-1.19025 3.11249,-1.83081 4.30341,-2.92932c1.0976,-1.19 4.21124,0.54944 4.21124,0.54944s1.64801,-1.55676 1.64801,-0.54944s-0.45831,3.47919 0.7326,3.47919c1.19006,0 4.48621,-1.55676 3.11279,-2.01447c-1.3728,-0.36621 1.92261,0 3.29626,-0.91528c1.37402,-1.00763 2.92957,-1.00763 3.75452,-1.37329c0.73169,-0.36615 1.37244,-2.10626 2.65405,-2.10626c1.46509,0 2.01514,1.74011 0,2.93011s-2.10547,4.02765 -3.11206,4.8526c-0.91614,0.73181 -0.36694,1.73871 1.1897,1.55566c1.55688,-0.18311 2.93042,0.18304 4.3031,-0.18311s2.10571,0.36615 2.56396,0.91602c0.36572,0.64075 1.55664,-0.54987 1.55664,-0.54987s2.47131,-0.54846 3.29626,0.36755c0.73181,1.00616 1.37305,-0.5506 0.73181,-1.55676c-0.54883,-0.91602 -1.37256,-1.92291 -1.92273,-3.11353c-0.54858,-1.19006 -1.37256,-1.55566 -2.92932,-1.19006c-1.55688,0.45825 -1.92273,-0.3656 -2.93042,-0.9162c-0.91516,-0.6405 -1.73889,0.73291 -0.91516,-0.6405c0.73181,-1.2818 1.19006,-1.74023 1.74011,-2.92993c0.54858,-1.09875 3.11243,-3.29626 0.54858,-3.84534c-2.47156,-0.6405 -3.29651,-1.00763 -3.66211,-2.1972c-0.36621,-1.099 -3.29675,-3.29681 -4.12061,-3.29681c-0.73181,0 -3.47949,0 -3.66235,-0.91473c-0.18298,-1.00751 -2.19629,-3.11353 -3.11206,-4.11981c-1.0083,-1.00824 -4.66956,-5.31018 -5.3103,-5.67773c-0.55017,-0.3656 -1.3739,-0.18256 -3.11353,2.19806c-1.73993,2.28864 -3.29675,2.7467 -4.66901,2.10559c-1.37408,-0.54877 -1.55676,-0.36597 -2.93085,-1.92273c-1.37305,-1.55676 1.37408,-1.73962 0.82495,-2.74652c-0.64111,-0.91547 -3.7547,-1.37372 -5.67737,-1.55676c-1.92261,-0.18243 -3.29633,-2.38037 -6.22595,-2.56348c-2.92908,-0.18317 -6.40845,0.45795 -7.41541,0.45795c-0.91571,0 -0.91571,1.28192 -1.37396,3.47986c-0.36603,2.1048 1.37396,2.74609 -0.36603,3.1123c-1.7395,0.36664 -2.56348,0.54932 -0.82495,1.37341c1.8316,0.73181 4.12012,3.9375 4.12012,3.9375s0,1.7384 -1.37244,2.65417c-1.37366,1.00787 -2.74768,2.01526 -3.47943,0.82397c-0.82391,-1.18964 -2.92938,-1.00653 -2.28864,0.1839c0.54901,1.18988 1.73846,1.7392 1.73846,2.92957c0,1.19025 1.7403,4.1203 0.55017,5.03558c-1.19086,1.00726 -2.56342,0.27435 -3.47943,0.45752s-2.01477,-1.55554 -1.18982,-2.01318c0.73181,-0.36731 -0.18384,-3.29718 -0.18384,-3.29718s-2.37933,3.29718 -2.19696,1.55676c0.27423,-1.7395 -0.91553,-1.92242 -0.91553,-3.2962c0,-1.37286 -1.19086,-1.92224 -2.92981,-1.55676c-1.7392,0.36719 -3.93671,-0.64105 -7.23346,-1.18964c-3.29541,-0.55011 -4.66931,-1.00665 -7.41583,-2.38068c-2.74591,-1.37347 -3.66187,-0.36591 -5.03619,-0.1828c-1.37231,0.1828 -0.82324,-2.74622 -2.56317,-3.11353c-1.73944,-0.36572 -2.74677,0.36731 -3.11261,-2.10577c-0.36682,-2.56348 0.6413,-3.11273 4.85254,-5.86005c4.30261,-2.74664 3.75433,-3.93591 7.04926,-4.30341c3.29651,-0.36554 4.85321,0.36749 4.85321,-0.54865s0.82422,-4.94409 0.82422,-2.9292s3.93579,2.01294 2.10535,3.38721c-1.73944,1.3725 -0.73279,1.55676 0.64056,1.55676c1.37433,0 3.84528,-1.37427 3.84528,-1.37427s3.11353,-1.37299 3.9375,-0.1825c0.82404,1.18994 0.82404,2.38049 2.19794,2.38049s4.21118,-1.55676 1.73877,-2.93066c-2.56378,-1.37213 -4.11951,-1.18982 -5.67621,-2.74646s-1.19086,-1.00671 -2.92987,-0.54871c-1.73907,0.36627 -1.73907,-0.64117 -2.37994,-0.64117s-1.55664,0.36627 -1.92255,-0.367c-0.36774,-0.82349 0.18268,-1.00659 2.19617,-1.00659c1.92267,0 4.30328,0.6405 4.30328,0.6405s2.28961,-0.82367 2.83838,-1.00665c0.64105,-0.1825 3.75464,-0.55011 3.11353,-2.28857c-0.5498,-1.83118 -2.47247,-1.83118 -3.11353,-2.38062s1.1908,-1.37372 2.19788,-1.73907c0.91565,-0.36761 3.66223,0 3.66223,0s1.73987,0.18231 1.73987,-0.64148s-0.36737,-1.7392 0.82336,-1.09882s0,2.28857 1.74042,1.92261c1.73907,-0.36584 2.10504,0 3.11212,0.54944c1.00775,0.64063 -0.18311,2.93005 -1.18945,3.38794c-0.91638,0.36615 -2.47314,1.09796 -0.36591,1.28229c2.19611,0.27368 3.66077,0.27368 3.66077,0.27368s1.37402,-1.37299 2.01483,-2.56342c0.55005,-1.19012 1.55682,-0.36633 2.28857,0c0.82495,0.36658 3.75427,1.00745 1.008,1.73926c-2.74652,0.82416 -3.29657,1.73975 -3.93738,2.74719c-0.54901,1.00726 -0.73303,1.55676 -3.29663,1.00726c-2.56317,-0.64093 -3.9361,-0.45795 -4.48578,0.5495c-0.54956,0.91565 -0.18353,4.11981 0.82355,3.66156c0.91547,-0.36554 1.92407,-0.36554 3.11359,-0.73267c1.09894,-0.36584 5.85999,0.36713 6.95886,0.18463c1.18976,-0.18463 3.1123,1.9223 3.75342,1.55548c0.54987,-0.36621 1.73914,0.82495 2.92908,1.55676c1.09875,0.82373 0.73309,-1.74011 2.83905,-0.18341c2.19733,1.55676 1.00775,1.55676 2.19733,1.55676c1.099,0 3.66241,0.18347 3.66241,0.18347s0.27496,-1.92303 2.19757,-1.55682c1.92285,0.3656 3.66284,2.56305 3.47961,1.00623c-0.18408,-1.55548 0.18323,-2.74634 -1.37354,-3.93597c-1.55688,-1.19122 -4.02869,-1.92303 -4.48657,-2.56354c-0.36597,-0.55005 -0.73303,-1.28198 -0.18274,-1.73993c0.54865,-0.367 3.29517,0.18317 4.85193,1.18988c1.55676,1.00806 2.92975,2.01453 4.12036,1.19055c1.09912,-0.82367 2.56372,-1.19055 3.11243,-1.73926c0.55029,-0.64117 1.92261,-2.38092 1.92261,-2.38092s-5.85889,-0.7326 -6.59174,-1.73926c-0.82379,-1.0072 -3.57025,-2.28857 -4.30316,-2.28857s-2.92969,1.28137 -3.66272,-0.64136s-0.82373,-4.30347 -1.64746,-4.48596c-0.73309,-0.18433 -8.88202,-1.37415 -10.07129,-1.92352c-1.19098,-0.64105 -5.86017,-1.9231 -7.6001,-2.92963s-4.30347,-2.38062 -5.86023,-2.38062c-1.55518,0 -7.96436,0.82379 -9.15515,0.64105c-1.18994,-0.18341 -4.66943,0.36566 -6.0426,0.5495c-1.37268,0.18323 1.73914,2.74683 -1.18988,3.2959c-2.9303,0.64038 -2.47308,1.00751 -1.92267,-1.92297c0.54907,-2.92963 -1.92273,-3.6626 -4.48633,-2.56348c-2.56372,1.19055 -6.59271,2.01434 -5.67725,3.38715c1.0072,1.28204 -0.18237,2.28986 1.83221,3.66229c1.92261,1.37445 2.65424,1.73987 5.21783,1.55676c2.56311,-0.18231 5.03619,0.36597 5.03619,0.36597s0,2.38086 -0.91626,2.74756c-1.00641,0.36591 -2.56329,0.36591 -2.92914,1.55566c-0.36694,1.1911 -2.38086,1.73975 -2.38086,1.1911s1.00732,-2.56372 -0.36682,-3.57172c-1.37256,-0.91412 -1.73834,-1.09766 -3.2951,-0.18237c-1.55682,1.00732 -1.73993,1.37323 -2.5639,-0.18347c-0.73285,-1.55676 -3.11353,-2.92896 -3.11353,-2.92896s-1.55682,-1.92297 -2.74585,-2.93079c-1.09943,-0.91455 -3.29675,-0.73181 -3.47949,0.27472c-0.18311,0.91571 0.3667,1.92322 1.19086,3.66229c0.73187,1.73981 1.55505,5.03625 0.1828,5.31018c-1.37366,0.18396 -1.55676,0.36694 -2.93042,0.73328c-1.37317,0.36548 -1.92261,-0.54932 -1.92261,-2.10608s-0.64142,-2.93054 -0.18311,-3.57141c0.3667,-0.54828 -1.64819,0.45789 -3.5708,0c-1.92261,-0.36597 -3.47937,0.82495 -1.55676,1.37384c1.92273,0.64081 2.38062,2.92938 0.64117,3.57037c-1.83038,0.55011 -8.42328,0 -10.52911,0s-5.31006,0.55011 -5.86023,-0.64099c-0.64069,-1.18976 1.73975,-1.92236 3.1134,-1.92236c1.37402,0 5.4021,0.18311 6.95886,-1.92297c1.55597,-2.19629 -1.92273,-2.56293 -3.47943,-2.56293c-1.55676,0 -2.74677,-0.5495 -4.48602,-2.2887c-1.73938,-1.74017 1.18976,-2.92969 0.82385,-3.75464c-0.45789,-0.73181 -2.38049,-0.18274 -4.12,-0.18274c-1.73999,0 -4.48639,-1.37286 -4.48639,0.18274c0,1.55682 2.10571,6.04333 0.82379,5.03583c-1.37384,-0.91571 -1.1897,-2.28851 -2.19751,-3.479c-1.0072,-1.19006 -2.47168,-1.00684 -4.48657,-0.73187c-1.92267,0.18292 -5.21912,0.73187 -6.22571,0.54913c-0.91608,-0.18353 -0.18311,-0.18353 -2.2887,-1.19116c-2.19763,-0.91473 -3.20459,-0.73181 -4.76135,-1.73853c-1.46436,-1.00793 -0.18286,-1.37408 -2.83832,-1.55682c-2.74664,-0.18298 -2.56366,1.37292 -5.31036,0.91565c-2.65552,-0.36676 -3.47937,0.27386 -6.22571,0c-2.74658,-0.18378 -4.02808,-0.36676 -4.48639,1.00684c-0.36578,1.37286 -1.1908,3.7533 -2.28925,3.7533c-1.19019,0 -2.56378,1.28204 1.09845,1.55676c3.75458,0.18292 1.64911,1.92322 4.94403,1.73969c3.29663,-0.18286 6.22607,-0.18286 6.95886,-1.73969c0.82397,-1.55676 1.37396,-1.55676 1.83093,-1.00653c0.36688,0.54907 3.29669,4.12012 3.29669,4.12012s1.92261,1.55554 2.74603,1.92316c0.7334,0.36536 -0.82343,2.10498 -2.38013,1.18921c-1.55603,-1.0069 -4.48663,-0.82385 -5.67639,-1.73981c-1.19086,-1.00616 -6.40869,-1.00616 -7.78235,-0.82385c-1.3739,0.18311 -3.66248,-0.54871 -4.48639,-0.54871c-0.73291,0 -3.29657,1.92316 -3.29657,1.92316s-1.00665,-1.55676 -1.55573,-2.38068c-0.54987,-0.73285 -1.55682,0.82391 -2.38049,1.00623c-0.73309,0.18311 -3.11359,-1.55676 -5.40222,-0.82379c-2.38043,0.82379 -1.5567,1.55676 -4.94421,1.37433s-4.02814,-0.73285 -5.21906,-0.55054c-1.18988,0.18311 -1.18988,0.18311 -1.18988,0.18311s0.18304,0.82373 -1.09863,1.5567c-1.37396,0.82385 -2.38074,1.73962 -3.38873,0.54877c-0.91467,-1.09766 -1.55524,-1.09766 -2.10559,-1.28174c-0.64056,-0.27386 -1.73962,-1.18915 -4.30322,-0.64087c-2.56348,0.64087 -6.40875,-0.73181 -7.23273,-0.73181c-0.54901,0 -4.66925,-0.27478 -7.32477,-0.54962c31.67975,-34.33368 76.90906,-56.03357 127.17413,-56.03357c31.95331,0 61.80194,8.78906 87.43842,23.89697c-1.73962,1.09894 -4.76123,0.91638 -5.76782,0.36584c-1.19104,-0.64032 -2.38049,-1.18958 -7.1416,-0.91492c-4.7616,0.2746 -9.98059,1.83142 -8.97278,3.38818c1.09875,1.5567 -2.10583,2.47107 -2.93079,1.73926c-0.82349,-0.82416 -4.66895,0.82373 -4.39417,2.47192c0.27527,1.55676 -0.54968,3.38708 -2.65564,2.92993c-2.01355,-0.36694 -3.3869,0.91528 -3.47937,2.19653c-0.18274,1.28186 -4.66931,2.19812 -5.03522,2.19812c-0.36591,0 -6.13495,-0.09216 -4.02814,1.4646c1.46484,1.00751 2.28857,0.3667 4.02814,0.73267c1.83051,0.45819 3.20477,3.29535 4.21136,3.66223c0.91632,0.36609 2.19788,0 2.83875,-0.73297c0.55017,-0.82379 1.37378,-3.56976 1.37378,-3.56976s0,2.65454 1.4649,3.112c1.46466,0.54993 4.94379,-0.36603 5.95074,-0.18292c0.91602,0.09229 6.50085,0.91638 8.05762,1.64905c1.55579,0.73181 5.31042,1.28137 6.40894,3.02039c1.099,1.64868 1.18994,7.50714 1.73962,8.14948c0.64099,0.64063 2.65466,-2.10693 3.11292,-2.74731c0.45752,-0.64111 2.93018,-0.27435 3.84521,0.64038c0.82397,0.91638 2.6554,3.11353 2.56323,4.02991c-0.0907,0.91425 -0.45789,2.37939 -1.1897,1.83008c-0.73291,-0.45789 -1.92261,-0.3656 -1.46472,-1.37378c0.54895,-1.09735 0.73181,-3.29541 -0.18286,-3.29541c-0.91577,0 -1.73987,0 -1.73987,0s-1.8313,-0.54993 -3.02136,1.46478s-0.2749,3.8454 0.54907,3.8454s2.83826,0 2.83826,0.54938c0,0.4574 -2.10535,2.10614 -1.92273,3.02112c0.09119,0.91614 1.64783,3.93781 2.10596,4.67029c0.45752,0.6405 3.02148,1.28168 3.66211,1.37231c0.73291,0.18378 -1.64783,0.27563 -1.00671,1.19122c0.54883,0.91486 1.46472,3.1123 2.83862,3.66284c1.28162,0.54803 4.94409,2.83661 5.40088,3.84534c0.45776,1.09814 3.38855,-0.73303 3.93726,-0.91644c0.64124,-0.09229 0.45813,2.7464 2.198,2.92938c1.64734,0.09186 2.19763,-0.2738 3.66223,-1.4649s1.00671,-2.74597 1.1897,-3.93591c0.09204,-1.09863 0,-2.01422 1.55676,-1.64868c1.55676,0.36694 2.38062,-0.27368 2.19751,-1.55676c-0.09204,-1.28198 -1.37366,-2.83789 1.09875,-3.29523c2.47192,-0.36633 3.7533,-2.01495 5.31018,-2.01495c1.55676,0 5.86011,0.64069 6.31689,0c0.45813,-0.64124 2.4729,-3.66254 3.75439,-3.75348c1.00708,-0.18298 3.38757,-0.36694 5.85999,-0.64087c23.71289,28.19922 38.36243,64.27271 40.10229,103.55249c-1.83044,2.37927 -0.18311,4.57715 0.2749,6.13391c0,0.45776 0.09106,0.82336 0.09106,1.2818c0,2.10583 -0.27393,4.02869 -0.36597,6.04333c0,0.09064 0,0.09064 0,0.09064zm-145.76038,-64.82306c-1.008,0.18329 -2.56372,-0.82361 -2.56372,-2.19745s-1.3736,2.56494 -0.5498,3.75421c0.73291,1.09943 -1.55676,2.47186 -2.38062,2.47186s-1.37305,-1.73865 -1.09875,-3.47882c0.18384,-1.73907 -1.18982,-3.29584 -3.38782,-3.11353c-2.1051,0.18323 -3.11182,1.92297 -3.84528,2.56372c-0.82318,0.5498 -0.82318,3.84534 -0.64056,4.67029s0.18323,3.47815 -1.73944,3.29596c-1.73993,-0.18378 -1.37323,-3.47986 -1.19012,-4.66943c0.27405,-1.19135 -0.5498,-4.12042 0.27405,-5.67731c0.73279,-1.5556 3.11365,-2.10553 4.67041,-2.2887s4.85168,0.91577 5.40076,0.73309c0.64185,-0.18439 3.38843,-0.18439 4.67029,0c1.37262,0.18268 3.29529,3.75299 2.38062,3.9361zm3.47791,0.5498c0.6413,0.36621 4.67029,-0.5498 5.49438,0.36621c0.73175,1.00671 -0.8241,1.18945 -2.7467,2.0144c-1.92273,0.73181 -2.56335,0.54907 -3.2959,1.55597s-3.38757,1.28168 -4.48645,2.47272c-1.1908,1.18933 -3.29651,1.92249 -3.75458,1.00714c-0.54871,-1.19049 0.18445,-0.64142 0.36682,-1.19049c0.27423,-0.55005 3.75372,-1.92218 3.75372,-1.92218s4.12048,-4.67029 4.6687,-4.30377zm-15.56372,-6.86682c-0.55029,0.27417 -2.74658,-0.36639 -4.48608,-0.36639c-1.73999,0 -1.37402,-1.19037 -2.19812,-0.91528c-0.73279,0.18347 -2.47113,0.54907 -3.66205,1.18964c-1.18951,0.5506 -3.11218,0.36621 -3.11218,-0.64056c0,-1.55676 0.73181,-1.18958 3.29492,-2.10583c2.5639,-1.00684 5.31158,-3.75403 6.4093,-2.5636c1.19086,1.19031 3.29608,2.5636 4.67023,2.74707c1.37256,0.18231 -0.36768,2.47186 -0.91602,2.65497zm-19.95959,-60.42792c-1.1908,0.36572 -5.21924,2.10492 -4.76105,3.02124c0.0921,0.27448 1.09851,1.00629 2.8385,0.7326c1.64734,-0.27515 4.1203,-0.54987 5.31012,-0.64069c1.19092,-0.09192 1.37329,-2.10712 0.09192,-2.19781c-1.28174,-0.09198 -2.28937,-1.28162 -3.47949,-0.91534zm-14.37451,1.55634c-0.91614,0.36591 -3.66205,-0.64099 -5.12744,0.27374c-0.91565,0.55005 -0.36694,2.47235 1.09949,2.56439c1.37244,0.18353 3.84534,-0.91577 4.11884,-0.09204c0.27509,0.73303 1.19086,4.30334 3.47949,3.11237c2.38086,-1.18927 2.19763,-2.19641 2.8382,-2.37933c0.73358,-0.09186 -0.09143,-2.93054 -1.09875,-3.57104c-1.09851,-0.64105 -4.39392,-0.27539 -5.30981,0.09192zm-4.76154,-11.07941c0.27527,0.73285 -0.09137,1.1908 1.74011,1.46637c1.83069,0.27368 2.56329,0.54834 3.66205,0.54834c1.00708,0 0.64111,-1.73926 -0.27466,-2.83862c-0.91614,-1.18921 -0.64093,-1.09875 -3.02148,-1.7395c-2.28857,-0.6405 -4.66907,-0.6405 -6.22583,-0.54907c-1.55676,0.18311 -3.29639,-0.18274 -3.66223,1.55676c-0.18317,1.0072 1.09851,1.73901 2.65527,1.73901s4.94421,-0.8241 5.12677,-0.18329zm3.388,7.14215c0.73254,1.46454 0.73254,0.82416 2.47217,0.91565c1.83057,0.18274 3.2959,-1.73969 3.38733,-2.38013c0.18323,-0.73346 -0.91559,-2.01495 -3.38733,-1.7403c-2.47217,0.27496 -9.97998,-0.36591 -10.98694,0.54938c-1.00732,0.82483 0,3.47955 -0.45789,3.75378c-0.36597,0.27496 0.18237,1.37408 1.18964,1.19019c1.00787,-0.27393 1.55682,-2.74689 2.38092,-2.74689c0.73254,0 4.76074,-0.91577 5.4021,0.45831zm-24.354,-5.30994c0.73181,0.6405 2.7464,0.1825 2.56335,-0.45807c-0.09229,-0.6413 0.8241,-3.29681 -0.73267,-3.38727c-1.55676,-0.18341 -3.75336,1.37231 -6.13397,2.19641c-1.5567,0.45807 -1.1908,1.92346 -0.18402,1.92346s3.66235,-0.91595 4.4873,-0.27454zm10.98584,2.38013c-1.28137,0.64124 -1.64728,1.00702 -2.83728,0.73187c-1.19092,-0.18292 -1.19092,-2.2887 -3.20435,-1.92279c-2.10718,0.36761 -2.47314,1.55676 -3.11353,2.10565s-2.10547,0.91644 -2.65564,0.64099c-0.45691,-0.27393 -3.47833,-1.92279 -3.47833,-1.92279s-6.22601,-0.2738 -6.50098,-1.09772c-0.27466,-0.73285 -1.2818,-2.01471 -4.12,-1.8316s-7.78314,2.01495 -8.60699,2.01495c-0.82361,0 0.91626,1.55585 -0.09088,1.55585c-1.09857,0 -2.38055,-0.09149 -2.74762,1.00739c-0.27368,0.82397 1.19092,0.82397 2.8385,0.82397c1.64807,0 4.39569,0 5.21912,-0.45819c0.73181,-0.36578 4.66931,-1.28174 4.48633,-0.09186c-0.09204,1.19067 1.55676,3.02161 2.47156,2.74744c0.91583,-0.27496 2.74756,-2.01447 3.66235,-1.28101c0.91602,0.64032 1.00781,2.19623 1.92267,2.56281c0.91608,0.36609 3.38861,0.36609 4.57831,0c1.19092,-0.36658 4.39551,-0.36658 5.86005,-0.0921c1.3728,0.18359 5.5849,1.0069 5.95081,0.18359c0.36591,-0.73199 1.55682,-0.91534 1.73981,-1.64825s0.73309,-3.20428 0.73309,-3.20428s-0.73309,-1.46478 -2.10699,-0.82391zm65.83051,134.31537c-1.8316,0.36688 -1.37323,3.84534 0.73334,3.20453c2.19641,-0.64117 1.00696,-3.47827 -0.73334,-3.20453zm16.93835,-4.57751c-1.55688,-0.4577 -3.29633,0 -4.48627,0.18286c-1.1908,0.18353 -4.48608,3.11261 -4.48608,3.11261s2.19751,0.36639 3.47937,0.36639c1.37256,0 2.19666,0.73181 3.29504,1.37372c1.19104,0.54974 3.38867,-0.82379 4.12048,-0.82379c0.82397,0 1.7403,2.38055 1.92297,-0.18323c0.2749,-2.5639 -2.2887,-3.66217 -3.84552,-4.02856zm-54.29388,-126.34991c-0.64038,-1.55676 -3.84552,-2.10614 -4.578,-0.54938c-0.54871,1.37262 5.21924,2.1059 4.578,0.54938zm37.17316,116.73608c2.10504,-0.36609 0.91571,-2.10645 -0.82428,-1.92285c-1.7395,0.18335 -1.37366,2.28949 0.82428,1.92285zm25.91028,12.08508c-1.83051,0.27576 -1.37274,3.755 0.73285,3.11407c2.1969,-0.64093 1.00684,-3.48022 -0.73285,-3.11407zm-23.62177,-5.85968c-1.3728,0.2749 -4.30353,-1.28162 -5.86035,-2.65411c-1.55579,-1.37402 -4.48608,-1.37402 -5.58496,-1.37402c-1.18976,0 -5.85876,1.37402 -5.85876,1.37402c-0.18353,1.9223 1.7392,1.28119 4.12,1.28119s6.40906,-0.36566 7.14093,0.64111c0.82349,0.91565 4.3028,2.47137 5.3114,3.29633c0.91412,0.82391 4.02765,1.00677 4.21118,0.18347s-2.10626,-2.93079 -3.47943,-2.74799zm-23.25653,-124.42682c-1.92267,-0.09143 -4.39386,-0.09143 -5.95056,0c-1.5567,0.091 -2.74628,-1.00787 -3.93719,-1.64819c-1.09766,-0.64148 -3.75336,-2.7467 -5.31012,-3.02039c-1.55682,-0.27557 -1.28174,-0.27557 -4.48688,-1.00842c-1.64709,-0.45795 -4.39362,-0.91595 -4.39362,-1.28186c0,-0.4574 -0.82501,1.73987 0.64069,2.47272c1.37329,0.64081 3.75293,1.83057 5.40125,2.47205c1.73999,0.64044 4.94397,0.73273 6.0426,2.0141c1.00842,1.28174 4.48657,2.38055 4.48657,2.38055l4.21228,0.36609c0,0 2.83875,-0.64105 5.76807,-0.36609c3.02142,0.27417 7.41553,0.6413 9.88788,0.54907c2.47174,-0.18298 2.83899,-0.91608 3.11255,-1.46429c0.27472,-0.54938 -4.48615,-1.55676 -5.67566,-1.37433c-1.19092,0 -7.7829,0 -9.79785,-0.091zm7.32477,29.93896c-0.54865,0.54993 2.28955,1.37372 2.83899,0.64063c0.5498,-0.82367 -1.55682,-2.10553 -2.83899,-0.64063zm8.69885,2.65607c1.28137,-0.54938 0.64075,-2.10614 -1.19092,-1.55676c-2.10583,0.64032 -0.091,2.1048 1.19092,1.55676z" stroke-linecap="null" stroke-linejoin="null" stroke-dasharray="null" stroke-width="0" stroke="#000000" fill="#000000"/>
 </g>
</svg>