<?xml version="1.0"?>
<svg width="1920" height="1080" xmlns="http://www.w3.org/2000/svg" xmlns:xlink="http://www.w3.org/1999/xlink">
 <!-- Created with SVG-edit - http://svg-edit.googlecode.com/ -->
 <g>
  <title>Layer 1</title>
  <text xml:space="preserve" text-anchor="middle" font-family="Sans-serif" font-size="162" id="svg_8" y="312.28944" x="960.00265" stroke-width="0" stroke="#007fff" fill="#000000">remember ...</text>
  <g id="svg_2">
   <title>subject</title>
   <path stroke="#007fff" id="svg_9" fill="#b2b2b2" stroke-width="0" stroke-dasharray="null" stroke-linejoin="null" stroke-linecap="null" d="m1632.03918,780.43237l0,46.88776l45.03137,0l1.0022,-47.95264" transform="rotate(-90 1655.06 803.343)"/>
   <path stroke="#007fff" fill="#428bca" d="m1449.41614,841.53937l0,-5.39709l70.16809,0c20.83301,0 37.78296,-16.95032 37.78296,-37.78455l0,-91.76129l43.18018,0l0,5.39813c0,8.90607 7.28796,16.19324 16.19385,16.19324l53.97449,0c8.90674,0 16.19373,-7.28815 16.19373,-16.19324l0,-53.97632c0,-8.90588 -7.28699,-16.19373 -16.19373,-16.19373l-53.97449,0c-8.90588,0 -16.19385,7.28784 -16.19385,16.19373l0,5.39703l-43.18018,0l0,-91.75677c0,-20.83374 -16.94995,-37.78351 -37.78296,-37.78351l-70.16809,0l0,-5.39685c0,-8.90649 -7.28796,-16.19226 -16.19373,-16.19226l-53.9751,0c-8.90601,0 -16.19299,7.28583 -16.19299,16.19226l0,53.97516c0,8.90588 7.28699,16.19183 16.19299,16.19183l53.9751,0c8.90576,0 16.19373,-7.28595 16.19373,-16.19183l0,-5.39685l64.77112,0l0,86.35883l-64.77112,0l0,-5.39703c0,-8.90588 -7.28796,-16.19373 -16.19373,-16.19373l-53.9751,0c-8.90601,0 -16.19299,7.28784 -16.19299,16.19373l0,53.97632c0,8.90607 7.28699,16.19324 16.19299,16.19324l53.9751,0c8.90576,0 16.19373,-7.28815 16.19373,-16.19324l0,-5.39813l64.77112,0l0,86.36426l-64.77112,0l0,-5.39807c0,-8.90619 -7.28796,-16.19318 -16.19373,-16.19318l-53.9751,0c-8.90601,0 -16.19299,7.28699 -16.19299,16.19318l0,53.97675c0,8.90607 7.28699,16.19421 16.19299,16.19421l53.9751,0c8.90576,0 16.19373,-7.28815 16.19373,-16.19421l0,0l0,0l0,0l0,0l0,0l0,0zm-64.77087,-264.48291l0,-43.18042l43.17981,0l0,43.18042l-43.17981,0zm0,129.53998l0,-43.18115l43.17981,0l0,43.18115l-43.17981,0zm237.49292,-43.18115l43.18054,0l0,43.18115l-43.18054,0l0,-43.18115zm-237.49292,172.72699l0,-43.18158l43.17981,0l0,43.18158l-43.17981,0z" id="svg_1" transform="rotate(-90 1524.98 685.008)"/>
   <ellipse fill="#000000" stroke="#000000" stroke-width="9" stroke-dasharray="null" stroke-linejoin="null" stroke-linecap="null" cx="1653.89037" cy="804.1399" id="svg_19" rx="71.73913" ry="63.04348" fill-opacity="0"/>
  </g>
  <g id="svg_3">
   <text xml:space="preserve" text-anchor="middle" font-family="Sans-serif" font-size="162" id="svg_7" y="653.58292" x="719.37627" stroke-width="0" stroke="#007fff" fill="#000000">our</text>
   <text xml:space="preserve" text-anchor="middle" font-family="Sans-serif" font-size="162" id="svg_9" y="829.67395" x="719.37524" stroke-width="0" stroke="#007fff" fill="#428bca">atomic entities</text>
  </g>
 </g>
</svg>