<?xml version="1.0"?>
<svg width="1920" height="1080" xmlns="http://www.w3.org/2000/svg" xmlns:xlink="http://www.w3.org/1999/xlink">
 <!-- Created with SVG-edit - http://svg-edit.googlecode.com/ -->
 <defs>
  <marker refY="50" refX="50" markerHeight="5" markerWidth="5" viewBox="0 0 100 100" orient="auto" markerUnits="strokeWidth" id="se_marker_end_svg_21">
   <path stroke-width="10" stroke="#000000" fill="#000000" d="m100,50l-100,40l30,-40l-30,-40l100,40z" id="svg_2"/>
  </marker>
  <pattern height="100" width="100" y="0" x="0" patternUnits="userSpaceOnUse" id="gridpattern">
   <image height="100" width="100" y="0" x="0" id="svg_6"/>
  </pattern>
  <pattern id="gridpattern" patternUnits="userSpaceOnUse" x="0" y="0" width="100" height="100">
   <image id="svg_4" x="0" y="0" width="100" height="100"/>
  </pattern>
 </defs>
 <g>
  <title>subject</title>
  <path transform="rotate(-90 535.513 389.1)" d="m512.49664,366.18896l0,46.8877l45.03137,0l1.00201,-47.95264" stroke-linecap="null" stroke-linejoin="null" stroke-dasharray="null" stroke-width="0" fill="#b2b2b2" id="svg_9" stroke="#007fff"/>
  <path transform="rotate(-90 405.439 270.765)" id="svg_1" d="m329.87366,427.29593l0,-5.39713l70.168,0c20.83301,0 37.78302,-16.95026 37.78302,-37.78452l0,-91.76132l43.17999,0l0,5.3981c0,8.90607 7.28799,16.19321 16.194,16.19321l53.97443,0c8.90686,0 16.19379,-7.28812 16.19379,-16.19321l0,-53.9763c0,-8.90601 -7.28693,-16.194 -16.19379,-16.194l-53.97443,0c-8.90601,0 -16.194,7.28799 -16.194,16.194l0,5.397l-43.17999,0l0,-91.75801c0,-20.83401 -16.95001,-37.78397 -37.78302,-37.78397l-70.168,0l0,-5.39698c0,-8.90659 -7.28799,-16.19245 -16.194,-16.19245l-53.97501,0c-8.90599,0 -16.19299,7.28587 -16.19299,16.19245l0,53.97596c0,8.90598 7.287,16.19199 16.19299,16.19199l53.97501,0c8.90601,0 16.194,-7.28601 16.194,-16.19199l0,-5.397l64.771,0l0,86.36l-64.771,0l0,-5.397c0,-8.90601 -7.28799,-16.194 -16.194,-16.194l-53.97501,0c-8.90599,0 -16.19299,7.28799 -16.19299,16.194l0,53.9763c0,8.90607 7.287,16.19321 16.19299,16.19321l53.97501,0c8.90601,0 16.194,-7.28812 16.194,-16.19321l0,-5.3981l64.771,0l0,86.36426l-64.771,0l0,-5.39807c0,-8.90619 -7.28799,-16.19324 -16.194,-16.19324l-53.97501,0c-8.90599,0 -16.19299,7.28705 -16.19299,16.19324l0,53.97678c0,8.90607 7.287,16.19418 16.19299,16.19418l53.97501,0c8.90601,0 16.194,-7.28812 16.194,-16.19418l0,0l0,0l0,0l0,0l0,0l0,0zm-64.771,-264.48413l0,-43.181l43.17999,0l0,43.181l-43.17999,0zm0,129.54117l0,-43.18118l43.17999,0l0,43.18118l-43.17999,0zm237.49301,-43.18118l43.18051,0l0,43.18118l-43.18051,0l0,-43.18118zm-237.49301,172.72702l0,-43.18158l43.17999,0l0,43.18158l-43.17999,0z" fill="#428bca" stroke="#007fff"/>
  <path stroke="#000000" marker-end="url(#se_marker_end_svg_21)" id="svg_21" d="m988.69604,387.62628l-379.99976,-0.33795l379.99976,0.33795z" fill-opacity="0" stroke-linecap="null" stroke-linejoin="null" stroke-dasharray="null" stroke-width="9" fill="#000000"/>
  <ellipse fill-opacity="0" ry="63.04348" rx="71.73913" id="svg_19" cy="389.8948" cx="534.34778" stroke-linecap="null" stroke-linejoin="null" stroke-dasharray="null" stroke-width="9" stroke="#000000" fill="#000000"/>
  <path transform="rotate(-84.0174 1532.7 637.45)" id="path732" d="m1535.94958,535.76697c1.23999,0 3.25,-0.255 6.07007,-0.76599c2.77991,-0.51202 4.79993,-0.76801 6.03992,-0.76801c3.42004,0 6.30005,0.51202 8.60999,1.534c2.3501,1.02301 4.13,3.21399 5.37,6.60999c2.78003,-2.70197 6.84009,-4.08997 12.11011,-4.08997c3.10999,0 6.13,0.43799 9.07996,1.27802s5.03003,1.461 6.27002,1.789c5.91003,9.78699 8.85999,20.77899 8.85999,32.97595c0,6.06201 -0.60999,11.64905 -1.84998,16.72504c2.47998,9.78699 4.19995,16.83496 5.13,21.034c0.90991,4.23602 1.38,9.38501 1.38,15.48401c-2.4801,7.77802 -7.28003,16.323 -14.42004,25.59796c-7.14001,9.31201 -13.81995,18.00403 -20.05005,26.14703c-3.08997,1.35101 -5.2699,3.87097 -6.51001,7.59601c-1.23999,6.75598 -2.47998,13.36499 -3.71997,19.79199l0.94006,15.703c-4.66003,7.12097 -10.57007,11.94098 -17.71008,14.461s-15.52991,3.79797 -25.1499,3.79797c-5.90002,0 -12.88,-2.00897 -20.96008,-6.099c-8.07996,-4.05298 -12.88,-6.24396 -14.44995,-6.573l-1.84998,-2.55597l0,-9.349c0,-3.21301 0.14001,-6.53601 0.46997,-9.896c0,-7.12103 -0.40002,-12.599 -1.17004,-16.50604c-0.77002,-3.87097 -2.88,-7.85095 -6.29993,-11.90497c-2.79004,-8.47198 -5.1001,-17.23602 -6.97998,-26.36499c-1.84009,-9.13 -2.78003,-18.25903 -2.78003,-27.38904c0,-12.52496 2.17993,-24.02802 6.5,-34.50897c3.71997,-4.711 7.44995,-9.64001 11.19995,-14.716c4.96997,-5.40503 10.22998,-8.10699 15.83008,-8.10699c0.59998,-3.35999 2.25,-6.50104 4.8999,-9.38501c2.60999,-2.849 4.96008,-4.96698 6.97009,-6.31799s4.42993,-2.04498 7.20996,-2.04498l6.06995,0c4.03003,0 6.51001,-1.862 7.45007,-5.58704c0.93994,-3.68799 3.41992,-6.245 7.43994,-7.59601l0,0zm0,3.03101c-2.78003,1.35101 -4.55994,3.83502 -5.32996,7.37701c-0.81006,3.54199 -1.17004,6.31702 -1.17004,8.362c2.17004,18.58801 4.32007,37.02899 6.5,55.28802l1.88,-1.53406l1.83997,4.565c1.24011,0.32904 3.42004,0.51105 6.54004,0.51105c2.18005,0 3.89001,-0.65704 5.13,-2.04504c0.30005,-2.33698 -0.16003,-3.87097 -1.41003,-4.56396c-1.23999,-0.65802 -2.94995,-0.987 -5.13,-0.987c-3.07996,0 -5.13,-0.51099 -6.02991,-1.53302c1.83997,-2.04498 3.25,-3.54199 4.18994,-4.565c6.5,-1.35101 10.39001,0.32898 11.64001,5.07599l1.83997,-11.17395c-1.23999,-2.703 -3.25,-4.05402 -6.03992,-4.05402c-4.36011,1.02301 -7.31006,1.534 -8.8501,1.534s-2.77991,-1.02203 -3.71997,-3.03101l9.76001,0c-4.03003,-6.427 -7.20996,-11.68597 -9.53003,-15.73901c-2.33997,-4.05402 -3.47998,-6.75598 -3.47998,-8.10699c0,-2.37402 0.67004,-4.89301 2.07007,-7.63202c1.40991,-2.70197 2.88989,-5.22198 4.42993,-7.59595c2.47998,-2.70203 6.20996,-4.05304 11.17004,-4.05304c1.88,0 3.28003,0.18201 4.18994,0.51099l0,-3.03101c-0.90991,-1.71594 -2.15002,-2.88495 -3.71997,-3.57898c-1.54004,-0.65698 -3.26001,-0.98596 -5.13,-0.98596c-1.23999,0 -3.26001,0.146 -6.04004,0.47498c-2.77991,0.36499 -4.65991,0.51099 -5.59998,0.51099zm33.53003,2.55603c-1.83997,0.32898 -3.25,1.49799 -4.19006,3.54297s-1.37,4.23602 -1.37,6.60901c3.08008,3.35999 7.9801,6.64697 14.65002,9.85999s11.09998,6.02502 13.28003,8.39899c0,-3.396 -0.06006,-6.79199 -0.22998,-10.15198c-0.17004,-3.396 -0.87,-6.86499 -2.12,-10.40698s-2.95007,-5.73303 -5.08997,-6.573c-2.18005,-0.87701 -5.30005,-1.27899 -9.33008,-1.27899l-5.59998,0zm-18.14001,8.10699c-2.51001,0.69397 -4.29004,1.86298 -5.35999,3.54199c-1.10999,1.71698 -2.12,4.23596 -3.02002,7.633c5.57007,5.40399 12.10999,8.10699 19.55005,8.10699c0.93994,-0.69397 1.70996,-1.67999 2.30994,-3.06799c-0.29993,-0.328 -0.46997,-0.65698 -0.46997,-0.98602c-1.23999,0.32904 -2.31006,0.65802 -3.25,0.98602c1.23999,-2.008 2.47998,-4.05298 3.71997,-6.06201c-3.71997,-4.74701 -6.32996,-7.70502 -7.90991,-8.87402c-1.54004,-1.20496 -3.42004,-1.60596 -5.57007,-1.27795zm-35.88,2.04498c-4.35999,1.35199 -7.91003,3.104 -10.69995,5.29498c-2.81006,2.22803 -4.35999,5.18604 -4.66003,8.87402c4.96997,7.45001 8.29004,15.81201 10,25.12402s2.57996,20.04797 2.57996,32.20898l2.78003,3.03101c1.54004,-3.36005 3.25,-6.93903 5.13,-10.62701c1.84998,-1.02203 3.71997,-1.534 5.59998,-1.534c1.84998,0 3.56006,0.51196 5.09998,1.534c0,-12.52502 -0.37,-23.33398 -1.13989,-32.46399c-0.81006,-9.12903 -1.95007,-16.50604 -3.52002,-22.05701c-1.54004,-5.58704 -3.32007,-8.47198 -5.33008,-8.65399c-2.0199,-0.146 -3.95996,-0.40204 -5.83997,-0.73102zm23.31006,10.62701c0,5.07599 1.90991,9.823 5.79993,14.20502c3.89001,4.41895 7.14001,7.77899 9.79004,10.15198s6.14001,3.72498 10.45996,4.05402c4.35999,0.328 7.31006,1.534 8.85999,3.54199c-0.93994,0.69397 -2.48999,1.02197 -4.65991,1.02197c-2.48999,0 -4.20007,0.32904 -5.1001,1.02301c-0.63989,1.35101 -0.23999,2.95801 1.14001,4.82001c1.41003,1.86298 2.88,3.61499 4.42004,5.33197c-0.93005,1.35101 -2.06995,1.49701 -3.47998,0.47504c-1.41003,-0.987 -2.55005,-0.987 -3.48999,0c0,4.74701 0.69995,9.05597 2.07996,12.96301c1.41003,3.87097 3.65002,7.85199 6.77002,11.90497c-3.42004,0 -6.07007,-2.19098 -7.91003,-6.60999c-1.88,-4.38202 -3.28992,-8.10602 -4.18994,-11.138c-6.54004,0 -12.51001,3.03198 -17.94006,9.13s-10.63,12.01398 -15.59998,17.74701c-1.56995,3.03101 -2.33997,7.44995 -2.33997,13.18298c0,2.703 0.15991,5.33197 0.45996,7.85101c0.31006,2.55701 0.64001,5.00397 0.94006,7.37695c-2.4801,-1.67999 -4.83008,-3.54199 -6.97009,-5.58698c-0.93994,-3.03101 -1.40991,-6.93799 -1.40991,-11.64899c0,-3.72504 0.59998,-6.427 1.83997,-8.14398c0,3.06799 0.46997,5.25897 1.41003,6.60999c0,-3.03101 0.46997,-5.91602 1.40991,-8.61804s1.8501,-5.40497 2.78003,-8.10699l-11.16003,-3.06696c-0.64001,1.35095 -1.94995,2.37299 -3.95996,3.06696c-2.01001,0.65704 -3.34998,1.35101 -3.95996,2.00903c-5.29004,1.02197 -9.48999,-1.16901 -12.57007,-6.57404c-2.81995,-7.12097 -4.82996,-12.01398 -6.06995,-14.716c-1.54004,-0.69397 -4.35999,-1.02295 -8.38,-1.02295c-4.96997,0.32898 -8.56006,0.51099 -10.70007,0.51099c-0.33997,2.00897 -0.46997,4.74799 -0.46997,8.10699c0,5.77002 0.30005,10.81 0.94006,15.22803c0.59998,4.38196 1.53992,9.38495 2.77991,14.97296c1.24011,5.54999 2.88,11.83099 4.90002,18.73303c2.01001,6.93799 4.48999,11.612 7.44006,13.94995c2.94995,2.37305 5.83997,3.90704 8.62,4.56403c2.78003,0.69397 5.42993,1.02301 7.91003,1.02301c2.17993,0 4.65991,-0.25598 7.44995,-0.76703c2.81995,-0.51099 4.82996,-0.91296 6.06995,-1.24097c1.23999,0 2.8501,-0.69501 4.89001,-2.04602c2.02002,-1.35101 3.48999,-1.67902 4.43005,-1.02197c-1.23999,2.70197 -1.94006,6.09796 -2.10999,10.15198s-0.07007,6.427 0.22998,7.08398c0.64001,-4.05298 1.17993,-7.52197 1.65002,-10.37097c0.46997,-2.88501 1.7699,-5.33099 3.94995,-7.37604c3.08997,-0.98596 4.96997,-0.65796 5.56995,1.02203l-2.77991,28.41101c0,8.10699 1.23999,14.35095 3.71997,18.76996c2.47998,0.32904 5.13,-0.58398 7.91003,-2.81195c2.81995,-2.19104 4.82996,-3.79803 6.06995,-4.82001c-1.23999,-3.03101 -1.88,-6.90204 -1.88,-11.64905c0,-2.37396 0.31006,-6.099 0.94006,-11.17499c0.64001,-5.039 0.93994,-8.76398 0.93994,-11.138c-3.71997,-0.69299 -6.83997,-1.09497 -9.31995,-1.27795c-2.47998,-0.14606 -4.02002,-1.60706 -4.66003,-4.30902c1.23999,-0.65698 3.48999,-0.51099 6.77002,0.51099c3.26001,1.02301 5.64001,1.02301 7.20996,0c-4.95996,0 -8.67993,-0.43799 -11.19995,-1.27802c-2.47998,-0.83899 -4.96008,-3.104 -7.44006,-6.82898c-0.29993,-1.35101 -0.46997,-2.88397 -0.46997,-4.56403c2.47998,1.67999 4.95996,3.46906 7.47998,5.33099c2.47998,1.86304 6.20007,2.776 11.16003,2.776c3.08997,0 6.51001,-0.76703 10.22998,-2.26404c3.76001,-1.534 7.31006,-3.323 10.72998,-5.33197c1.54004,-2.70203 7.14001,-10.07904 16.77002,-22.05603c9.62,-12.01495 15.06006,-22.09393 16.30005,-30.20099c-0.31006,-1.02197 -1.71008,-7.44897 -4.20007,-19.28101s-4.65991,-20.26697 -6.5,-25.34302l-4.18994,4.56403c-1.23999,1.02301 -2.71997,2.00897 -4.43005,3.03101s-3.18994,1.53406 -4.42993,1.53406s-2.65002,-1.02203 -4.19006,-3.03107c1.84998,-3.06702 3.48999,-5.258 4.90002,-6.60901c1.37,-1.35101 2.84998,-2.19098 4.39001,-2.52002l-6.96997,9.12903c4.65991,-2.37299 7.90991,-4.30902 9.78992,-5.84198c1.84009,-1.534 2.78003,-3.98102 2.78003,-7.37695l-16.30005,-8.61798c-0.29993,0.36499 -1.16992,1.97192 -2.53992,4.81995c-1.41003,2.88501 -3.06006,4.67401 -4.90002,5.33203c-4.06006,1.02197 -8.15002,0.51099 -12.33997,-1.534c-4.19006,-2.00806 -7.68005,-4.71106 -10.5,-8.10699c-0.6001,-4.38202 0.46997,-7.59601 3.26001,-9.64099c-1.55005,0.36597 -3.09009,3.57898 -4.63,9.64099l0,0l0,0zm-40.55005,8.10699c-2.17004,-0.65698 -4.42004,-0.32898 -6.73999,1.02197c-2.33997,1.35199 -4.58997,2.703 -6.77002,4.05402c-0.59998,2.37299 -1.23999,4.74701 -1.83997,7.12103l-1.41003,-2.55603c-2.47998,1.716 -4.32996,3.323 -5.56995,4.82001c-1.23999,1.534 -2.95007,4.30902 -5.13,8.362c1.83997,1.71698 4.32996,2.88501 7.43994,3.57898c-1.23999,-2.04498 -2.30994,-4.23596 -3.25,-6.60901c5.90002,2.04504 9.93005,6.42603 12.10999,13.18201s4.19006,13.03699 6.03003,18.77002c1.88,5.77002 4.35999,8.61902 7.47998,8.61902l0.46997,-5.07605c0.30005,-0.987 1.01001,-2.59296 2.08008,-4.82098c1.06995,-2.19098 2.88,-3.28601 5.37,-3.28601c0,-5.07599 -0.23999,-10.66296 -0.70996,-16.72498c-0.47009,-6.099 -1.94006,-12.672 -4.42004,-19.79303l-5.14001,-10.66296zm-29.33997,26.914l-1.84009,13.18201l17.67004,0.51099c0.33997,-4.41803 -1.37,-7.63202 -5.09998,-9.64001c-3.71997,-1.35101 -7.31006,-2.70197 -10.72998,-4.05298zm78.70996,5.54999l-3.26001,-0.51099l3.26001,0.51099zm-25.15002,14.71698c1.87,1.35101 3.58008,1.35101 5.13,0c-0.60999,0 -1.54993,-0.32898 -2.78992,-1.02295c-1.24011,-0.65704 -2.01001,-0.328 -2.34009,1.02295zm13.51001,1.02203l0,3.54199l2.82007,-1.534c-0.94006,-0.65698 -1.88,-1.35101 -2.82007,-2.008zm-13.51001,2.008c-1.54993,-0.328 -2.48999,0.43896 -2.78992,2.30096s-0.6001,2.95801 -0.94006,3.28705c1.23999,0.69397 3.42004,1.02197 6.54004,1.02197c1.84998,0 3.72998,-0.328 5.56995,-1.02197l0,-2.00903c0,-2.37299 -1.06995,-3.57898 -3.25,-3.57898l-5.13,0zm-17.20996,3.06799l-0.46997,5.58698c2.78992,0.65802 4.19995,-1.02197 4.19995,-5.07599l-3.72998,-0.51099zm14.89001,34.47302l-0.46997,-3.03101l0.46997,5.07599l0,-2.04498zm34.47998,35.01996l1.83997,-5.58698l-1.83997,5.58698zm-38.19995,-2.55597l-4.66003,2.04498l4.66003,-2.04498zm32.13,31.953c0,-4.711 0.3999,-10.992 1.16992,-18.77002s1.17004,-12.16101 1.17004,-13.18298c-1.87,7.12097 -2.81006,14.89899 -2.81006,23.33496c0,4.05304 0.16003,6.93805 0.47009,8.61804zm-22.81006,-30.93103c-2.80994,10.15204 -4.18994,20.633 -4.18994,31.44202l0,6.09802c0.59998,2.703 0.90991,4.711 0.90991,6.06195c1.87,-0.328 3.89001,-0.83899 6.07007,-1.49695c-2.18005,-4.05304 -3.26001,-9.823 -3.26001,-17.27301l0,-9.34802c0,-3.21399 0.14001,-6.53699 0.46997,-9.896l0,-5.58801zm-43.31995,1.02301c1.53992,11.138 2.30994,21.98401 2.30994,32.46399c3.12,0.98602 8.18005,3.03101 15.16003,6.06201c6.96997,3.06702 12.51001,4.565 16.53003,4.565l0,-41.08307c-3.72009,2.04498 -6.91003,3.21399 -9.56006,3.54199c-2.65002,0.36603 -8.15002,1.02301 -16.53003,2.04602c-2.17993,0 -3.41992,-1.42499 -3.71997,-4.31s-1.70996,-3.97998 -4.18994,-3.28601l0,0.00006zm28.3999,0.51099l-2.30994,-0.51099l2.30994,0.51099zm42.86011,9.604l-1.41003,14.71704l1.41003,-14.71704zm27.92993,-128.28601l2.34998,-2.55597l-2.34998,2.55597zm-63.78003,28.37402l10.70007,0.51099c-1.55005,2.04504 -3.72998,3.06799 -6.51001,3.06799c-2.82007,0 -4.19006,-1.20502 -4.19006,-3.57898zm70.79004,-22.82306c0,2.04407 -1.41003,4.05304 -4.18994,6.09802c-2.82007,2.04498 -4.36011,3.21399 -4.66003,3.54199c-0.31006,-0.328 -1.23999,-0.51099 -2.82007,-0.51099c2.51001,-0.65704 4.83008,-1.75305 7.01001,-3.28705s3.72009,-3.46899 4.66003,-5.84198zm-92.68994,30.45508l11.63989,-2.04504c-0.93994,1.02301 -2.71997,1.68005 -5.37,2.04504c-2.60999,0.32898 -4.72998,0.32898 -6.2699,0z" class="fil0" fill="#428bca" stroke="#428bca" stroke-width="5"/>
  <path stroke="#428bca" transform="rotate(91.6716 1263.76 652.092)" id="svg_5" fill="#ffffff" stroke-width="11" d="m1294.02283,554.49097q-1.95996,0.52203 -3.20996,1.73804q-1.42004,1.38898 -3.91003,6.77399q-2.5,5.55798 -6.77002,19.28101q-4.27002,13.72296 -6.57996,24.31897c0,0 -2.38,10.29199 -2.48999,10.59601c-0.12,0.30402 -0.38,0.43402 -0.87,0.34698c-0.49011,-0.08698 -0.38,-0.86798 -0.38,-0.86798l1.59998,-10.59601q1.59998,-10.59601 4.98999,-23.27698q3.19995,-12.67999 3.91003,-17.19598q0.70996,-4.51703 0,-6.25403q-0.71008,-1.737 -2.8501,-3.12598q-2.13,-1.216 -4.79993,-0.52203q-2.67004,0.69501 -4.45007,2.43201q-1.95996,1.91101 -4.09998,6.427q-2.13,4.51703 -4.79993,13.20203q-2.67004,8.685 -5.34009,20.84399q-2.84998,12.33301 -3.38,18.06598q-0.70996,5.73199 -3.73999,12.50598q-3.03003,6.77502 -6.22998,11.29102q-3.38,4.69 -6.22998,7.47003q-3.02002,2.77899 -4.27002,2.60498q-1.25,-0.17401 -2.67004,-1.91101q-1.59998,-1.56299 -6.40991,-12.159q-4.80005,-10.59601 -7.65002,-13.896q-2.84998,-3.30103 -5.87,-5.55902q-3.03003,-2.258 -6.05005,-3.474q-3.20996,-1.216 -6.22998,-1.216q-3.03003,0 -4.44995,1.04199q-1.43005,1.216 -1.25,2.43201q0,1.216 2.48999,5.55902q2.48999,4.34198 6.77002,15.80701q4.2699,11.638 4.79993,14.24402q0.35999,2.77899 0,4.51599q-0.34998,1.737 -0.17993,7.12201q0.17993,5.55798 0.89001,7.46899q0.53992,1.91101 8.54993,14.93896q7.83008,13.20099 12.09998,18.065q4.27002,4.86401 4.09009,9.38q-0.18005,4.69 -3.20007,20.67102l-3.03003,16.15399l27.95007,0l27.76001,0l-0.18005,-5.211q-0.16992,-5.03699 0.89001,-10.77002q0.89001,-5.73199 4.45007,-11.46399q3.37988,-5.73199 9.25989,-13.375q5.87,-7.46997 9.43005,-13.54901q3.38,-5.90601 7.30005,-15.80701q3.73999,-9.72797 5.87,-18.06598q2.14001,-8.164 10.85999,-25.534q8.71997,-17.19702 10.14001,-21.36603q1.42993,-4.16895 1.42993,-6.25299q0,-1.91101 -1.78003,-3.82196q-1.77991,-1.737 -3.02991,-1.91003q-1.23999,-0.17401 -2.48999,0.34698q-1.42004,0.52106 -13.17004,19.62903c0,0 -11.19006,18.36902 -11.75,19.10699c-0.55005,0.73798 -5.08997,2.91003 -3.73999,-3.82202q1.35999,-6.73096 0,0q0,-2.953 11.40002,-30.224c0,0 9.82996,-21.88696 10.53992,-24.927c0.71008,-3.03998 0.48999,-4.42896 0.48999,-4.42896q-0.35999,-2.08502 -1.59998,-3.30103q-1.25,-1.04199 -3.38,-1.737q-2.31995,-0.521 -3.55994,-0.17297q-1.43005,0.521 -2.48999,1.56299q-1.07007,1.216 -2.5,4.86401q-1.6001,3.82098 -9.43005,18.93298q-7.82996,15.11298 -9.79004,20.84497c0,0 -1.62,4.94995 -2.13,5.73193c-0.5199,0.78204 -2.82996,2.69305 -2.31995,-1.38898q0.51001,-4.08197 0,0q0,-1.91101 3.20996,-14.59198q3.02002,-12.67999 8.01001,-29.703c0,0 3.42004,-11.20404 4.13,-14.41803c0.71008,-3.21295 0.35999,-5.47101 0.35999,-5.47101c-1.42993,-3.12695 -1.77991,-3.64795 -4.66992,-4.42999c-2.90002,-0.78101 -4.27002,-0.521 -4.27002,-0.521l0,0l0,0l0,0l0,0l0,0l0,0.00006z"/>
  <path id="svg_11" d="m1516.51917,351.78897c-22.15002,0 -42.9801,8.62802 -58.65002,24.29504s-24.29004,36.496 -24.29004,58.65201c0,22.15594 8.62,42.98596 24.29004,58.65198c15.66992,15.66702 36.5,24.29498 58.65002,24.29498c22.15991,0 42.98999,-8.62796 58.6499,-24.29498c15.67004,-15.66602 24.30005,-36.49603 24.30005,-58.65198c0,-22.15601 -8.63,-42.98505 -24.30005,-58.65201c-15.65991,-15.66702 -36.48999,-24.29504 -58.6499,-24.29504zm0,-19.14096l0,0c56.38,0 102.08997,45.70596 102.08997,102.08801s-45.70996,102.08795 -102.08997,102.08795c-56.38,0 -102.09009,-45.70599 -102.09009,-102.08795c0,-56.38205 45.71008,-102.08801 102.09009,-102.08801zm-12.76001,140.37097l25.5199,0l0,25.52197l-25.5199,0l0,-25.52197zm0,-102.08798l25.5199,0l0,76.56601l-25.5199,0l0,-76.56601z" stroke-width="0" fill="#428bca" stroke="#000000"/>
  <path fill="#428bca" stroke-width="0" d="m1230.87915,475.31l25.63,0l0,24.42596l-25.63,0l0,-24.42596zm51.26001,-85.492c7.07996,0 12.80994,5.46802 12.80994,12.21301l0,36.64001l-38.43994,24.42596l-25.63,0l0,-12.21301l38.44995,-24.42596l0,-12.21402l-64.06995,0l0,-24.42599l76.88,0zm-38.44006,-30.53198c-22.25,0 -43.16003,8.25696 -58.90002,23.25098s-24.39001,34.92902 -24.39001,56.13403c0,21.20398 8.66003,41.13898 24.39001,56.13397c15.73999,14.99298 36.65002,23.25098 58.90002,23.25098c22.25,0 43.16003,-8.258 58.89001,-23.25098c15.72998,-14.995 24.40002,-34.92999 24.40002,-56.13397c0,-21.20505 -8.67004,-41.14005 -24.40002,-56.13403c-15.72998,-14.99402 -36.64001,-23.25098 -58.89001,-23.25098zm0,-18.32001l0,0c56.60999,0 102.51001,43.74402 102.51001,97.70502s-45.90002,97.70398 -102.51001,97.70398c-56.62,0 -102.51025,-43.74304 -102.51025,-97.70398c0,-53.961 45.89026,-97.70502 102.51025,-97.70502z" id="svg_10" stroke="#000000"/>
  <path fill="#428bca" stroke-width="0" stroke-dasharray="null" stroke-linejoin="round" stroke-linecap="round" d="m1401.27905,122.714l0,176.402l213.22009,0l0,-176.402l-213.22009,0zm179.68005,161.268l-146.14001,0l0,-146.13402l146.14001,0l0,146.13402zm-110.56995,-88.87599c11.27991,0 20.43994,-9.06001 20.43994,-20.33902c0,-11.278 -9.16003,-20.43498 -20.43994,-20.43498c-11.27002,0 -20.43005,9.15698 -20.43005,20.43498c0,11.27902 9.16003,20.33902 20.43005,20.33902zm102.65991,17.83299l-38.83997,-38.847l-54.55994,54.56l-15.14001,-15.133l-21.78003,21.784l0,40.77403l130.31995,0l0,-63.13805l0,0.00002z" id="svg_32" stroke="#000000"/>
  <g id="svg_7">
   <path id="svg_41" d="m1439.57239,843.09601c0,-51.0097 41.3241,-92.32892 92.33289,-92.32892c51.00842,0 92.33276,41.31921 92.33276,92.32892c0,25.50562 -10.33423,48.58813 -27.04138,65.29407c-16.70703,16.70593 -39.78711,27.03503 -65.29138,27.03503c-51.00879,0 -92.33289,-41.31793 -92.33289,-92.3291z" stroke-linecap="null" stroke-linejoin="null" stroke-dasharray="null" stroke-width="12" fill="#ffffff" stroke="#428bca"/>
   <line id="svg_44" y2="843.86074" x2="1531.51868" y1="751.17649" x1="1531.51868" stroke-linecap="null" stroke-linejoin="null" stroke-dasharray="null" stroke-width="12" fill="none" stroke="#428bca"/>
   <line id="svg_45" y2="903.22462" x2="1600.84037" y1="842.32877" x1="1531.13569" stroke-linecap="null" stroke-linejoin="null" stroke-dasharray="null" stroke-width="12" fill="none" stroke="#428bca"/>
   <line id="svg_46" y2="852.28658" x2="1439.21742" y1="843.09476" x1="1530.7527" stroke-linecap="null" stroke-linejoin="null" stroke-dasharray="null" stroke-width="12" fill="none" stroke="#428bca"/>
   <line id="svg_47" y2="777.60299" x2="1468.32487" y1="842.32877" x1="1530.3697" stroke-linecap="null" stroke-linejoin="null" stroke-dasharray="null" stroke-width="12" fill="none" stroke="#428bca"/>
   <line id="svg_48" y2="757.68737" x2="1499.73028" y1="841.94578" x1="1530.7527" stroke-linecap="null" stroke-linejoin="null" stroke-dasharray="null" stroke-width="12" fill="none" stroke="#428bca"/>
  </g>
  <g id="svg_22">
   <g id="svg_17">
    <g id="svg_10">
     <path fill="#ffffff" stroke-width="10" stroke-dasharray="null" stroke-linejoin="round" stroke-linecap="round" d="m1182.36304,127.201l64.81006,0l16.19995,0l16.20996,0c13.19006,10.75201 25.36011,24.215 32.46008,39.37099l-0.06006,38.69301l0,78.06398l-129.62,0l0,-156.12798l0,0z" id="svg_3" stroke="#428bca"/>
     <path fill="#ffffff" stroke-width="10" stroke-dasharray="null" stroke-linejoin="round" stroke-linecap="round" d="m1279.21301,127.407c2.73999,3.274 6.67004,5.364 9.73999,8.46899c3.08008,3.10501 6.5,6.21101 9.57007,9.82401c3.07996,3.614 5.30994,7.058 7.54004,10.33301c2.22998,3.274 3.27991,7.39601 6.0199,10.67099c-16.38,1.976 -9.27991,1.14302 -19.2699,1.927c-10,0.783 -12.01001,-0.882 -13.43005,-1.24899c-2.81995,-0.735 -1.80994,-15.909 -1.93005,-18.569c-0.12988,-2.66101 1.5,-19.571 1.76001,-21.40601z" id="svg_8" stroke="#428bca"/>
    </g>
    <g id="svg_11">
     <path fill="#ffffff" stroke-width="10" stroke-dasharray="null" stroke-linejoin="round" stroke-linecap="round" d="m1171.50305,136.91499l64.81006,0l16.19995,0l16.20996,0c13.19006,10.752 25.35999,24.21501 32.46008,39.371l-0.06006,38.69301l0,78.064l-129.62,0l0,-156.12801l0,0z" id="svg_12" stroke="#428bca"/>
     <path fill="#ffffff" stroke-width="10" stroke-dasharray="null" stroke-linejoin="round" stroke-linecap="round" d="m1268.36304,137.121c2.72998,3.274 6.66003,5.364 9.73999,8.46899c3.07007,3.105 6.48999,6.211 9.57007,9.82401c3.06995,3.614 5.29993,7.058 7.52991,10.33299c2.2301,3.274 3.28003,7.39601 6.02002,10.67101c-16.38,1.976 -9.27991,1.14301 -19.27002,1.927c-9.98999,0.78299 -12.00989,-0.882 -13.41992,-1.25c-2.83008,-0.73401 -1.82007,-15.908 -1.94006,-18.56801c-0.13,-2.661 1.5,-19.571 1.77002,-21.40599z" id="svg_13" stroke="#428bca"/>
    </g>
    <g id="svg_14">
     <path fill="#ffffff" stroke-width="10" stroke-dasharray="null" stroke-linejoin="round" stroke-linecap="round" d="m1161.34302,146.39999l64.81006,0l16.19995,0l16.20007,0c13.19995,10.75301 25.37,24.21501 32.46997,39.371l-0.06006,38.69301l0,78.06398l-129.62,0l0,-156.12799l0,0l0,0z" id="svg_15" stroke="#428bca"/>
     <path fill="#ffffff" stroke-width="10" stroke-dasharray="null" stroke-linejoin="round" stroke-linecap="round" d="m1258.19312,146.606c2.73999,3.27499 6.65991,5.364 9.73999,8.47c3.07996,3.105 6.5,6.211 9.56995,9.82399c3.07996,3.61301 5.31006,7.058 7.54004,10.332c2.22998,3.27501 3.27002,7.39699 6.01001,10.67101c-16.37,1.97701 -9.27002,1.144 -19.26001,1.927c-10,0.784 -12.02002,-0.882 -13.43005,-1.24901c-2.81995,-0.73399 -1.80994,-15.90799 -1.93994,-18.569c-0.12,-2.65999 1.5,-19.571 1.77002,-21.40599z" id="svg_16" stroke="#428bca"/>
    </g>
   </g>
   <text xml:space="preserve" text-anchor="middle" font-family="Sans-serif" font-size="101" y="-47.70198" x="1630.02027" stroke-linecap="null" stroke-linejoin="null" stroke-dasharray="null" stroke-width="0" fill="#428bca" id="svg_20" transform="matrix(0.384102 0 0 0.384102 600.557 255.064)" stroke="#428bca" font-weight="bold">article</text>
  </g>
  <g id="svg_23">
   <g id="svg_31">
    <path id="svg_33" fill="#ffffff" stroke-width="10" stroke-dasharray="null" stroke-linejoin="round" stroke-linecap="round" d="m1189.62097,757.65399l73.4989,0l18.37195,0l18.38318,0c14.9585,12.19464 28.76001,27.46149 36.81189,44.64941l-0.06799,43.88049l0,88.52875l-146.99792,0l0,-177.05865l0,0l0,0z" stroke="#428bca"/>
    <path id="svg_34" fill="#ffffff" stroke-width="10" stroke-dasharray="null" stroke-linejoin="round" stroke-linecap="round" d="m1299.45544,757.88763c3.1073,3.71405 7.56433,6.08313 11.04578,9.60559c3.49304,3.52124 7.37146,7.04364 10.85315,11.14105c3.49292,4.09741 6.02185,8.00427 8.55078,11.71722c2.52893,3.71399 3.71973,8.38867 6.82715,12.10272c-18.57605,2.24097 -10.52429,1.29626 -21.85352,2.1842c-11.3407,0.88916 -13.62024,-1.00018 -15.23047,-1.41644c-3.19824,-0.8324 -2.05273,-18.04077 -2.18884,-21.05853c-0.14746,-3.0166 1.70105,-22.19482 1.99597,-24.27582z" stroke="#428bca"/>
   </g>
   <g id="svg_39">
    <rect id="svg_36" ry="6" rx="6" height="42.24403" width="18.14509" y="873.548" x="1269.12742" stroke-linecap="null" stroke-linejoin="null" stroke-dasharray="null" stroke-width="0" fill="#428bca" stroke="#000000"/>
    <rect ry="6" rx="6" id="svg_35" height="66.91001" width="18.14509" y="848.88202" x="1240.4922" stroke-linecap="null" stroke-linejoin="null" stroke-dasharray="null" stroke-width="0" fill="#428bca" stroke="#000000"/>
    <rect id="svg_37" ry="6" rx="6" height="25.23301" width="18.14509" y="890.55902" x="1296.62857" stroke-linecap="null" stroke-linejoin="null" stroke-dasharray="null" stroke-width="0" fill="#428bca" stroke="#000000"/>
    <rect id="svg_38" ry="6" rx="6" height="87.32324" width="18.14509" y="828.4688" x="1211.57347" stroke-linecap="null" stroke-linejoin="null" stroke-dasharray="null" stroke-width="0" fill="#428bca" stroke="#000000"/>
   </g>
  </g>
  <text xml:space="preserve" text-anchor="middle" font-family="Sans-serif" font-size="162" id="svg_18" y="889.56527" x="473.47821" stroke-width="0" stroke="#007fff" fill="#000000">Data</text>
  <ellipse stroke="#000000" fill-opacity="0" ry="141.30435" rx="280.43478" id="svg_24" cy="846.087" cx="1379.99999" stroke-width="11" fill="#000000"/>
  <path stroke="#000000" id="svg_25" marker-end="url(#se_marker_end_svg_21)" d="m1076.52148,832.12549l-416.95612,-0.33795l416.95612,0.33795z" fill-opacity="0" stroke-linecap="null" stroke-linejoin="null" stroke-dasharray="null" stroke-width="9" fill="#000000"/>
 </g>
</svg>