<?xml version="1.0"?>
<svg width="1920" height="1080" xmlns="http://www.w3.org/2000/svg" xmlns:xlink="http://www.w3.org/1999/xlink">
 <!-- Created with SVG-edit - http://svg-edit.googlecode.com/ -->
 <defs>
  <filter height="200%" width="200%" y="-50%" x="-50%" id="svg_11_blur">
   <feGaussianBlur stdDeviation="20"/>
  </filter>
 </defs>
 <g display="inline">
  <title>dataverse</title>
  <g id="svg_1">
   <path stroke="#000000" filter="url(#svg_11_blur)" stroke-width="7" fill-opacity="0" id="svg_11" d="m534.61041,712.78394c4.6286,-35.99994 3.85712,-103.24249 51.39606,-187.55206l11.08911,-15.71768c42.04254,-94.24237 169.45142,-181.27887 216.76501,-208.27866c47.3136,-26.99979 87.04193,-42.81393 164.12012,-60.84592l31.04736,-3.95354c149.91833,-6.1714 212.81238,36.23763 249.31592,61.56102c36.50366,25.32349 73.62451,65.92422 88.62891,96.88373c15.01172,30.95871 31.3042,73.23343 36.19507,103.06198c4.88306,29.82782 6.61865,88.45593 -6.94275,161.70941l-4.62866,15.71777c-39.08801,84.59875 -50.17334,106.97626 -90.58813,153.18127c-40.41479,46.20428 -82.26453,74.77783 -114.60999,90.59198c-64.68408,31.6283 -103.87976,39.85626 -151.97021,39.34253l-11.57153,-0.77142l-13.32318,8.46783c-65.73358,38.41687 -189.88013,80.79108 -300.78687,34.49036c-110.90649,-46.29919 -163.39325,-215.88947 -154.13623,-287.88861l0,0zm344.05206,-148.88446c-11.57135,18.83582 -18.12854,33.2251 -23.91412,62.09949c-5.78571,28.87433 -8.65161,49.2514 -7.48901,65.83698c5.92523,27.25592 11.65015,30.98419 15.44543,37.02679c3.79541,6.04242 39.50153,42.09412 52.04413,44.84192c12.54321,2.74707 12.5509,-0.77289 40.66699,-23.91638c28.11676,-23.14337 49.61621,-52.65033 61.20313,-64.89746c11.58679,-12.24786 29.05164,-40.41016 39.46594,-63.52039c10.41418,-23.11096 32.96289,-74.81104 19.16211,-123.99298c-13.79297,-49.18127 -33.07861,-43.40253 -62.74744,-45.71674l-10.27545,2.16916c-40.37085,13.64493 -44.17078,21.35913 -66.47882,37.94476c-22.30798,16.5856 -45.5116,53.28903 -57.08289,72.12497l0,0l0,-0.00006l0,0l0,-0.00006l0,0l0,0z" stroke-linecap="null" stroke-linejoin="null" stroke-dasharray="null" fill="#000000"/>
   <path stroke="#000000" opacity="0.7" id="svg_3" d="m543.63684,798.15106c-0.19287,-0.19287 -1.60718,-52.95502 -0.38586,-67.88525c1.2215,-14.93018 6.65356,-49.75671 10.31781,-59.86963c3.66431,-10.11285 4.01788,-11.90479 5.68933,-15.92255c1.67151,-4.01782 5.26324,-14.72137 11.34222,-31.64642c6.07904,-16.92505 10.30585,-26.37842 17.58618,-39.6615c7.28027,-13.28308 10.591,-18.85596 18.52625,-30.47748c7.93524,-11.62158 15.67352,-22.92767 35.2804,-45.3634c39.21362,-44.87128 52.45667,-68.91342 141.17029,-128.82748c88.7135,-59.91406 136.28479,-62.7421 166.24146,-72.12802c14.97839,-4.69293 41.94537,-10.83215 71.83759,-13.11426c29.8924,-2.28207 62.32428,-0.32132 89.38959,6.9429c13.53271,3.63211 38.04468,9.68701 59.31128,17.04062c21.26685,7.35361 38.13086,16.77737 61.05383,29.8472c11.46143,6.53488 26.26501,17.36896 38.07886,30.33401c11.81384,12.96506 15.7356,19.55927 26.31177,35.40585c5.28796,7.92322 21.63245,37.84 32.03906,64.65491c10.40637,26.81488 11.40344,53.99942 12.9967,74.97238c1.59277,20.97314 1.18774,34.77808 -5.30762,67.11383c-6.49536,32.33569 -40.49963,119.5705 -87.94202,163.15582c-47.4425,43.58533 -81.9021,64.41382 -135.38477,80.22791l-20.90552,20.94263c-9.90491,6.69592 -30.54822,29.07947 -44.4259,40.24121c-13.87805,11.16168 -13.76233,10.24524 -20.38892,15.5882l-22.66443,16.18433c12.95221,5.59283 63.5498,1.25366 106.38696,-12.10126c42.83691,-13.35565 77.92126,-35.72687 89.1687,-43.05542c22.50232,-14.65692 58.01855,-42.9743 74.10278,-61.42444c16.09192,-18.45013 40.12915,-53.26056 58.58191,-82.4458c18.45227,-29.18524 25.2948,-46.47821 35.72437,-72.12793c10.42957,-25.64984 10.17505,-33.04236 14.0321,-55.92816c3.85718,-22.8858 13.24536,-106.1994 -6.17126,-163.92722c-19.41663,-57.72781 -34.58301,-86.1424 -64.0282,-119.95618c-29.44519,-33.81378 -82.02527,-73.28516 -140.3988,-90.25644c-58.37341,-16.97128 -41.13977,-10.9606 -70.58496,-14.89812c-29.44531,-3.93745 -49.43286,-3.87312 -91.02783,-2.45886c-41.59271,1.41423 -166.62726,36.51393 -237.21228,89.87068c-70.58521,53.35699 -78.68512,62.4852 -105.68488,87.94217c-26.99988,25.45694 -83.69928,108.38483 -99.51349,151.97015c-15.81415,43.58539 -29.60333,89.00287 -32.11047,144.44885c-2.50714,55.44598 9.35358,86.97784 8.96777,86.59216l0,0l0,0z" stroke-linecap="null" stroke-linejoin="null" stroke-dasharray="null" fill="#428bca"/>
   <path stroke="#000000" opacity="0.7" id="svg_4" d="m846.03436,687.83765c0,0 0.77148,-77.91357 40.49969,-136.15594c39.72809,-58.24243 53.22809,-61.71384 67.11371,-72.89951c13.88568,-11.18561 50.14233,-29.69974 71.74213,-26.61404c21.59998,3.08569 42.81396,1.92859 52.84253,54.771c10.02844,52.84247 -26.61401,130.7561 -43.58533,155.05591c-16.97125,24.29974 -97.19922,123.04181 -183.59851,156.59869c-43.19971,16.77844 -56.89246,18.22485 -69.57263,20.78015c-12.68036,2.55536 -21.64807,3.90533 -33.02649,3.13397l4.09216,4.11017c23.60669,22.45557 77.06384,53.43311 100.27271,65.69147l6.33417,2.71198c98.74213,-44.74243 172.4129,-136.92743 185.14142,-155.82733c12.72839,-18.89978 60.55652,-82.15637 75.98486,-151.19867c7.71436,-34.52118 16.29639,-81.48151 10.36633,-114.12234c-5.93042,-32.64078 -16.34473,-62.91907 -28.88025,-76.03326c-6.26782,-6.55707 -30.37488,-35.38892 -63.37732,-39.87283c-33.00232,-4.48389 -55.229,1.49463 -84.3501,18.27307c-14.56055,8.38922 -52.74597,36.93179 -73.98419,78.32343c-21.23822,41.3916 -30.9292,70.17529 -34.01489,95.24658c-1.54291,12.53558 -7.32861,46.28528 -5.78571,72.65833c1.54285,26.37292 5.78571,45.3692 5.78571,45.3692z" stroke-linecap="null" stroke-linejoin="null" stroke-dasharray="null" fill="#428bca"/>
   <path stroke="#000000" opacity="0.45" id="svg_5" d="m859.1485,915.79297c0,0 -43.77814,20.9248 -88.03857,28.88013c-44.26031,7.95526 -79.74567,4.29108 -112.53119,-5.73749c-32.7854,-10.02844 -83.3136,-44.35675 -98.742,-84.08502c-7.71429,-19.86414 -14.17493,-38.08899 -16.77844,-70.77795c-2.60358,-32.68903 2.50714,-79.07086 6.3642,-97.00635c3.85712,-17.93561 13.0177,-40.11401 23.91418,-70.7298c10.89624,-30.61584 28.15674,-54.62634 38.95667,-71.59772c10.79999,-16.97125 82.54224,-100.28488 95.27075,-109.15622c6.36414,-4.43573 33.9425,-29.02478 66.00476,-51.10672c32.06226,-22.08194 69.37988,-42.04251 86.35107,-49.17816c16.97131,-7.13565 36.83539,-15.71777 50.47992,-18.2731l42.4765,-11.42667l-30.51941,13.93378c-52.02283,30.61584 -75.16541,52.98712 -97.53674,79.40829c-22.37128,26.4212 -37.79968,47.82822 -67.88507,104.52777l-9.07098,13.58878c-7.52222,8.89392 -19.49573,36.81879 -28.71063,57.68335c-9.2149,20.86462 -24.14923,75.73206 -24.26971,96.3194c-0.24109,41.17462 -5.25537,48.59955 6.12311,89.6778l3.47137,11.45685c5.52051,15.48267 11.95709,26.27057 13.59637,29.57324c3.2785,6.60529 21.31049,29.9408 29.60333,39.9693c4.14648,5.01422 6.74597,6.8302 21.04541,18.41766c14.2995,11.5874 32.84167,23.56049 85.32654,52.89063l5.09857,2.74823z" stroke-linecap="null" stroke-linejoin="null" stroke-dasharray="null" fill="#428bca"/>
   <path stroke="#000000" id="svg_6" d="m1112.94641,862.56482c83.31372,-21.98553 145.02747,-89.87073 145.02747,-89.87073c0,0 59.78516,-69.81366 77.91345,-156.59869c18.12854,-86.78503 -15.0426,-161.22723 -28.5426,-182.44135c-13.49976,-21.21417 -24.68555,-55.15671 -77.14209,-86.39929c-26.22839,-15.62131 -43.77832,-24.78195 -64.60669,-31.43549c-20.82837,-6.6535 -38.76392,-12.34274 -56.50671,-16.39273l-25.45679,-4.2428l18.12842,5.01422c19.09277,5.59283 52.45679,24.01056 72.65833,41.2229c20.20154,17.21231 33.41211,39.77646 33.41211,39.77646c0,0 16.58557,28.44623 26.85522,54.3371c10.26953,25.89084 12.48743,35.91931 15.1875,68.31909c2.69983,32.39972 5.59265,37.60681 2.55505,66.24585c-3.03735,28.63904 -4.67664,33.26752 -9.88367,57.95313c-2.60364,12.34271 -9.44995,34.52112 -17.86328,56.50665c-8.41333,21.98553 -17.23645,42.62109 -21.47913,49.56384c-4.24292,6.94281 -13.01782,23.91412 -23.28735,39.9693c-10.26965,16.05524 -22.03381,31.1944 -32.25513,46.81573l-34.71411,41.6568z" opacity="0.45" stroke-linecap="null" stroke-linejoin="null" stroke-dasharray="null" fill="#428bca"/>
   <path stroke="#000000" id="svg_7" d="m898.10535,895.35028l12.9032,-0.31342c27.271,-2.65173 43.33832,-8.17224 67.18018,-13.66864c23.84161,-5.4964 73.42969,-32.68903 87.70093,-42.71753c28.54272,-20.05695 101.44202,-85.62787 119.57043,-124.9704c18.12842,-39.34259 38.57117,-65.57086 47.05688,-126.51318c8.4856,-60.94244 -0.38574,-99.89923 -9.2572,-121.49902c-8.87134,-21.59985 -33.55676,-74.82797 -82.92773,-96.81348c-49.37122,-21.9856 -67.70837,-31.61227 -154.28455,-18.12845l-8.22052,1.85623c-11.80432,0.71521 -52.97101,15.4606 -67.13782,22.7811c-28.33368,14.64093 -55.2049,33.79791 -68.89764,43.24777c-27.3855,18.89987 -63.64227,61.32809 -89.48499,92.57074c-25.84265,31.24261 -53.99951,116.099 -56.69946,149.27014c-1.34998,16.58563 -6.36426,79.26367 10.60693,116.05084c16.97131,36.78723 12.34277,26.46948 27.96411,49.03357l14.65698,16.58557c13.88562,2.69995 46.47815,-4.6286 75.59949,-13.21063c29.12109,-8.58209 61.71375,-26.90332 67.88513,-31.14618l-14.60889,-21.93732c-13.16229,-21.93732 -28.20508,-62.53339 -30.51929,-76.41901c-1.15717,-6.94275 -5.8822,-33.99078 -6.70178,-60.87006c-0.8197,-26.87927 3.03748,-53.58966 4.38745,-59.85748c1.34998,-6.26782 4.82141,-43.29608 19.62299,-72.80301c14.8017,-29.5069 22.99805,-50.4317 43.24786,-70.68155c40.49976,-40.49966 68.65668,-59.39951 122.27051,-57.85669l13.5542,1.12698c1.16296,1.60916 18.29102,4.92386 29.88647,13.67468c11.59534,8.75082 37.94446,32.64081 42.95862,50.76926c5.01416,18.12842 12.82483,26.3248 15.38013,64.55841c2.55554,38.23358 -3.61597,64.46191 -6.89441,84.32611c-0.8197,4.966 -4.29114,16.48914 -9.19995,30.66699c-4.90869,14.17792 -11.25476,31.01056 -17.82397,46.59564c-13.13831,31.17035 -26.78284,51.17914 -35.4613,65.83612c-4.33936,7.32855 -56.12097,74.73157 -95.3429,108.91516c-19.61121,17.09186 -47.65356,37.83594 -59.46289,44.39899l-9.5072,7.14172z" opacity="0.3" stroke-linecap="null" stroke-linejoin="null" stroke-dasharray="null" fill="#428bca"/>
   <path stroke="#000000" id="svg_8" d="m757.70642,503.46777l14.07849,-15.38022c12.18213,-14.99454 54.64246,-59.83347 67.69238,-67.93338c13.0498,-8.09995 37.63885,-25.64978 59.54419,-38.52292c21.90509,-12.87311 50.38342,-21.84088 61.95471,-25.89087c5.78564,-2.02499 42.52478,-8.09995 70.24768,-10.53473c27.72302,-2.43478 46.42993,0.6991 65.52258,6.67761c19.0929,5.97855 81.77087,23.52838 112.62769,86.01361c30.85693,62.48517 23.91406,68.65656 26.99988,96.42776c3.08569,27.77118 -13.11426,107.6134 -24.68542,129.2132c-11.57153,21.59985 -42.81409,84.85645 -65.95679,104.14197c-11.57129,9.64288 -29.12122,28.34985 -48.31018,45.41754c-19.18921,17.06769 -35.0033,27.86761 -51.97461,38.66748c-16.97131,10.79999 -59.78528,28.92841 -79.45648,33.94269c-19.67139,5.01422 -58.24249,10.02844 -67.11383,10.02844c-8.87134,0 -39.72821,19.67126 -39.72821,19.67126l15.9588,6.99103c31.45959,19.45428 68.78918,29.61542 103.62976,33.58698l17.72461,1.85022c18.12854,1.92859 108.77039,-89.48499 118.41321,-97.97064c9.64294,-8.48566 54.96387,-68.84943 59.39966,-76.75647c4.43567,-7.9071 28.92847,-46.18896 36.83533,-67.3548c7.9071,-21.16595 20.82849,-39.48718 27.57837,-74.58691c6.75,-35.09961 18.12842,-64.7995 14.27136,-109.92761c-3.85718,-45.1282 -5.40015,-72.89938 -31.24268,-125.35611c-25.84277,-52.4567 -53.22803,-70.1994 -71.74219,-82.15646c-18.51416,-11.95706 -47.44238,-26.61407 -80.22791,-29.6998c-32.78552,-3.08569 -47.73169,-4.2428 -73.04407,0.04822c-25.31226,4.29105 -69.66913,20.3945 -90.88318,35.43726c-21.21423,15.04272 -55.92822,37.02823 -79.84222,68.65656c-11.95709,15.81412 -39.79254,46.67102 -60.41193,90.97961l-7.85901,14.31952l0,-0.00003z" opacity="0.2" stroke-linecap="null" stroke-linejoin="null" stroke-dasharray="null" fill="#428bca"/>
   <path stroke="#000000" id="svg_9" d="m846.42004,698.25189l7.71417,17.74268c15.81421,23.1427 34.71405,42.8139 67.11371,61.71381l-7.13562,4.966l-21.7926,14.70526c-10.79999,-16.19989 -16.97131,-19.67126 -32.78552,-58.62805c-15.81409,-38.95685 -12.34265,-42.42828 -13.11414,-40.49969z" opacity="0.2" stroke-linecap="null" stroke-linejoin="null" stroke-dasharray="null" fill="#428bca"/>
   <path stroke="#000000" id="svg_10" d="m564.46521,864.87909l12.72852,24.29974c12.34265,27.77124 28.54254,50.14246 51.29956,70.19946c22.75696,20.05701 64.41376,46.67108 79.0708,49.37103c14.65698,2.70001 49.75671,13.88562 89.87061,13.11426c40.11401,-0.77142 79.0708,-9.2572 107.61353,-19.28564c28.54254,-10.0285 37.0282,-11.57135 71.35651,-31.24255l23.1427,-12.72852c0,0 -18.12854,-1.54279 -18.12854,-1.54279c0,0 -64.79938,-12.34283 -80.22784,-20.82849c-15.42847,-8.4856 -29.31409,-14.2713 -40.49963,-20.05695l-18.03198,7.42493c-28.92841,9.93207 -38.08899,12.82495 -52.5531,17.26062c-14.46423,4.43561 -80.22797,13.88556 -118.02765,3.08563c-37.7998,-10.79987 -77.14227,-36.25684 -91.02789,-54.38525c-13.88562,-18.12842 -16.58557,-24.68549 -16.58557,-24.68549z" opacity="0.1" stroke-linecap="null" stroke-linejoin="null" stroke-dasharray="null" fill="#428bca"/>
  </g>
  <text xml:space="preserve" text-anchor="middle" font-family="Sans-serif" font-size="162" id="svg_2" y="140" x="960" opacity="0.8" stroke-linecap="null" stroke-linejoin="null" stroke-dasharray="null" stroke-width="0" stroke="#000000" fill="#000000">dataverse</text>
 </g>
</svg>