<?xml version="1.0"?>
<svg width="1920" height="1080" xmlns="http://www.w3.org/2000/svg" xmlns:xlink="http://www.w3.org/1999/xlink">
 <g display="inline">
  <title>3flow</title>
  <g id="svg_5">
   <path stroke="#7f7f7f" d="m1301.09106,671.49292l-198.71655,-144.52112l0,72.26062c-36.13037,0 -54.19543,0 -90.32568,0c0,-36.13031 0,-126.45599 -36.13037,-180.65149c-36.13025,-54.19543 -152.49219,-90.7634 -216.78174,-90.32571l-126.45605,0l0,144.52121l126.45605,0c36.13037,0 90.32574,0 108.39087,36.13025c11.01318,22.02625 18.06519,36.13031 18.06519,90.32574c-19.16803,0 -180.64905,-0.64905 -252.91211,0l0,144.52124c72.26056,0 236.90564,0 252.91211,0c0,36.13025 0,72.2605 -18.06519,90.32574c-36.13031,36.13019 -72.2605,36.13019 -108.39087,36.13019l-126.45605,0l0,144.52124l126.45605,0c86.42578,0.02307 180.65149,-36.13025 216.78174,-90.32581c36.13037,-54.19543 36.13037,-144.52112 36.13037,-180.65137c36.13025,0 54.19531,0 90.32568,0l0,72.2605l198.71655,-144.52124z" stroke-width="11" fill="#7f7f7f" id="svg_7" opacity="0.55" filter="url(#svg_7_blur)"/>
   <path id="svg_1" d="m1287.31934,661.00244l-198.71655,-144.52118l0,72.26062c-36.13025,0 -54.19531,0 -90.32568,0c0,-36.13031 0,-126.45605 -36.13025,-180.65149c-36.13037,-54.19547 -152.49231,-90.7634 -216.78186,-90.32574l-126.45599,0l0,144.52118l126.45599,0c36.13025,0 90.32574,0 108.39087,36.13028c11.01306,22.02621 18.06519,36.13028 18.06519,90.32578c-19.16809,0 -180.64911,-0.64905 -252.91205,0l0,144.52118c72.26056,0 236.90558,0 252.91205,0c0,36.13031 0,72.26068 -18.06519,90.32568c-36.13025,36.13037 -72.26062,36.13037 -108.39087,36.13037l-126.45599,0l0,144.52118l126.45599,0c86.42572,0.02301 180.65149,-36.13031 216.78186,-90.32574c36.13025,-54.19543 36.13025,-144.52118 36.13025,-180.65149c36.13037,0 54.19543,0 90.32568,0l0,72.26068l198.71655,-144.5213z" stroke-width="20" fill="#428bca"/>
  </g>
  <text style="cursor: move;" xml:space="preserve" text-anchor="middle" font-family="Sans-serif" font-size="147" id="svg_6" y="164.18606" x="959.99881" stroke-width="0" stroke="#000000" fill="#000000">3flow.ro</text>
 </g>
 <defs>
  <linearGradient id="svg_2" x2="1" y2="1">
   <stop stop-color="#005050" offset="0"/>
   <stop stop-color="#666666" stop-opacity="0.99609" offset="1"/>
  </linearGradient>
  <linearGradient id="svg_3" x2="1" y2="0.79688">
   <stop stop-color="#005050" offset="0"/>
   <stop stop-color="#333333" stop-opacity="0.99609" offset="0.72974"/>
  </linearGradient>
  <linearGradient id="svg_4" x2="1" y2="0.79688" x1="0" y1="0">
   <stop stop-color="#005050" offset="0"/>
   <stop stop-color="#4c4c4c" stop-opacity="0.99609" offset="0.72974"/>
  </linearGradient>
  <filter id="svg_7_blur" x="-50%" y="-50%" width="200%" height="200%">
   <feGaussianBlur stdDeviation="20"/>
  </filter>
 </defs>
</svg>