<?xml version="1.0"?>
<svg width="1920" height="1080" xmlns="http://www.w3.org/2000/svg" xmlns:svg="http://www.w3.org/2000/svg">
 <!-- Created with SVG-edit - http://svg-edit.googlecode.com/ -->
 <g>
  <title>Layer 1</title>
  <g id="svg_36">
   <g id="svg_25">
    <path id="svg_26" d="m968.05481,995.95508c2.02069,-10.59033 3.56702,-21.2879 3.56702,-34.36017c0,-40.23029 -10.90869,-72.84271 -24.36438,-72.84271c-13.4588,0 -24.36426,32.61243 -24.36426,72.84271c0,12.45831 1.08173,24.11096 2.93018,34.36017"/>
    <path id="svg_27" fill="black" d="m1017.8457,842.22601c5.00281,43.69983 25.10852,77.2934 44.91162,75.02911c19.80981,-2.26746 31.80688,-39.53516 26.80078,-83.23822c-5.00269,-43.7063 -12.11731,-77.66376 -31.92371,-75.39612c-19.80359,2.26746 -44.7915,39.89899 -39.7887,83.60522z"/>
    <path id="svg_28" d="m1064.47583,762.63599c4.82397,8.77435 -14.64136,29.0423 -43.47253,45.25586c-28.8407,16.22015 -56.12885,22.24622 -60.94977,13.46863c-4.82733,-8.77765 14.63483,-29.03906 43.46606,-45.26251c28.84076,-16.21356 56.12872,-22.23639 60.95624,-13.46198z"/>
    <ellipse id="svg_29" ry="26.33944" rx="71.46865" cy="900.69388" cx="1006.27434"/>
    <ellipse id="svg_30" ry="35.66935" rx="35.19181" cy="716.50943" cx="1039.29935"/>
    <path id="svg_31" d="m825.43573,834.30933l180.73792,-0.78296c0,0 11.16852,9.38507 -0.77649,23.46448c-11.9483,14.07281 -179.96143,18.76691 -179.96143,18.76691l0,-41.44843z"/>
    <path id="svg_32" d="m935.88745,827.02917c0,0 16.24286,-3.24854 11.37,-12.94556c-0.73083,-1.45209 -74.84717,-4.31732 -74.84717,-4.31732l-22.35675,-81.99408c0,0 -11.15875,-8.71259 -14.70953,4.31415c-3.53113,12.94879 21.94092,94.94281 21.94092,94.94281"/>
   </g>
   <g id="svg_9">
    <path id="svg_10" d="m531.30505,622.56549c2.02075,-10.59033 3.56702,-21.2879 3.56702,-34.36023c0,-40.23022 -10.90869,-72.84271 -24.36435,-72.84271c-13.4588,0 -24.36429,32.61249 -24.36429,72.84271c0,12.45837 1.08176,24.11102 2.93018,34.36023"/>
    <path id="svg_11" fill="black" d="m581.09595,468.83646c5.00281,43.6998 25.10828,77.2933 44.91156,75.02908c19.80988,-2.26752 31.80695,-39.53519 26.80084,-83.23825c-5.00275,-43.7063 -12.11731,-77.6637 -31.92377,-75.39612c-19.80341,2.26749 -44.79144,39.89899 -39.78864,83.60529z"/>
    <path id="svg_12" d="m627.72601,389.2464c4.82404,8.77435 -14.64124,29.04227 -43.47235,45.25586c-28.84082,16.22015 -56.12897,22.24622 -60.94983,13.4686c-4.82733,-8.77762 14.63489,-29.039 43.46606,-45.26245c28.84082,-16.21356 56.12866,-22.23642 60.95612,-13.46201z"/>
    <ellipse id="svg_13" ry="26.33944" rx="71.46865" cy="527.30429" cx="569.52458"/>
    <ellipse id="svg_14" ry="35.66935" rx="35.19181" cy="343.11984" cx="602.54958"/>
    <path id="svg_15" d="m388.6861,460.91971l180.73773,-0.78296c0,0 11.16858,9.3851 -0.77637,23.46445c-11.94824,14.07285 -179.96136,18.767 -179.96136,18.767l0,-41.44849z"/>
    <path id="svg_16" d="m499.13782,453.63962c0,0 16.2428,-3.24857 11.3699,-12.94559c-0.73083,-1.45209 -74.84714,-4.31735 -74.84714,-4.31735l-22.35675,-81.99402c0,0 -11.15875,-8.71268 -14.70956,4.31415c-3.53116,12.94879 21.94101,94.94281 21.94101,94.94281"/>
   </g>
   <g id="svg_17">
    <path id="svg_18" d="m1404.80457,622.56549c2.02075,-10.59033 3.56702,-21.2879 3.56702,-34.36023c0,-40.23022 -10.90869,-72.84271 -24.36438,-72.84271c-13.45874,0 -24.36426,32.61249 -24.36426,72.84271c0,12.45837 1.08167,24.11102 2.93018,34.36023"/>
    <path id="svg_19" fill="black" d="m1454.59534,468.83643c5.00293,43.69983 25.10852,77.29333 44.91174,75.02911c19.80981,-2.26746 31.80688,-39.53516 26.80078,-83.23822c-5.00269,-43.70633 -12.11731,-77.66373 -31.92371,-75.39615c-19.80347,2.26749 -44.7915,39.89899 -39.78882,83.60526z"/>
    <path id="svg_20" d="m1501.22559,389.2464c4.82397,8.77435 -14.64136,29.04227 -43.47253,45.25586c-28.8407,16.22015 -56.12878,22.24622 -60.94971,13.46863c-4.82739,-8.77765 14.63489,-29.03903 43.46606,-45.26248c28.84082,-16.21356 56.12866,-22.23642 60.95618,-13.46201z"/>
    <ellipse id="svg_21" ry="26.33944" rx="71.46865" cy="527.30429" cx="1443.02405"/>
    <ellipse id="svg_22" ry="35.66935" rx="35.19181" cy="343.11984" cx="1476.04906"/>
    <path id="svg_23" d="m1262.18555,460.91971l180.73779,-0.78293c0,0 11.16858,9.38504 -0.77637,23.46445c-11.94824,14.07285 -179.96143,18.76694 -179.96143,18.76694l0,-41.44846z"/>
    <path id="svg_24" d="m1372.63733,453.63959c0,0 16.2428,-3.24854 11.36987,-12.94556c-0.73083,-1.45209 -74.84717,-4.31735 -74.84717,-4.31735l-22.35669,-81.99402c0,0 -11.15869,-8.71268 -14.70959,4.31415c-3.53113,12.94879 21.94104,94.94278 21.94104,94.94278"/>
   </g>
   <path id="svg_34" d="m725.4361,709.74292c0,-15.75061 6.1319,-30.50488 17.29095,-41.58618c11.14325,-11.08136 26.00659,-17.18256 41.81897,-17.18256l0,-24.21594c-45.92767,0 -83.29578,37.22736 -83.29578,82.98468l24.18585,0l0,0zm-42.89301,-0.06146c0,-55.96765 45.77228,-101.47467 102.03406,-101.47467l0,-24.21686c-69.59955,0 -126.21997,56.40125 -126.21997,125.69153l24.18591,0l0,0zm85.13208,-33.43073c9.24481,0 16.76196,7.47021 16.76196,16.74567s-7.51715,16.74652 -16.76196,16.74652c-9.24426,0 -16.76172,-7.5329 -16.76172,-16.74652s7.5014,-16.74567 16.76172,-16.74567z" stroke-linecap="null" stroke-linejoin="null" stroke-dasharray="null" stroke-width="11" fill="#000000"/>
   <path id="svg_35" d="m1168.36316,650.83508c15.75049,0 30.50476,6.13184 41.58606,17.29089c11.08142,11.14331 17.18262,26.00653 17.18262,41.81897l24.21582,0c0,-45.92773 -37.22742,-83.29578 -82.9845,-83.29578l0,24.18591l0,0zm0.06128,-42.89307c55.96777,0 101.47473,45.77234 101.47473,102.03406l24.21692,0c0,-69.59955 -56.40137,-126.21991 -125.69165,-126.21991l0,24.18585l0,0zm33.43079,85.13208c0,9.24475 -7.47021,16.76196 -16.74573,16.76196s-16.74634,-7.51721 -16.74634,-16.76196c0,-9.24432 7.53271,-16.76178 16.74634,-16.76178s16.74573,7.50146 16.74573,16.76178z" stroke-linecap="null" stroke-linejoin="null" stroke-dasharray="null" stroke-width="11" fill="#000000"/>
  </g>
  <text xml:space="preserve" text-anchor="middle" font-family="Sans-serif" font-size="122" id="svg_37" y="180.8696" x="959.99894" stroke-linecap="null" stroke-linejoin="null" stroke-dasharray="null" stroke-width="0" fill="#000000">collaboration tools</text>
 </g>
</svg>