<?xml version="1.0"?>
<svg width="1920" height="1080" xmlns="http://www.w3.org/2000/svg" xmlns:xlink="http://www.w3.org/1999/xlink">
 <!-- Created with SVG-edit - http://svg-edit.googlecode.com/ -->
 <g>
  <title>Layer 1</title>
  <text fill="#000000" stroke="#428bca" stroke-width="0" stroke-dasharray="null" stroke-linejoin="null" stroke-linecap="null" x="959.99521" y="303.40801" id="svg_1" font-size="196" font-family="Sans-serif" text-anchor="middle" xml:space="preserve">1. legalese</text>
  <g id="g2588">
   <path id="path26" fill="#000000" fill-rule="nonzero" d="m1166.33545,662.75153c0,0 0,0 -0.23218,0l-2.78076,-5.21497l-0.11621,0l-83.78906,-152.164l-237.92285,0l-0.81104,1.62201l-85.64301,155.75696l0.23102,0l-0.11499,0c-0.11603,0 -0.11603,0 -0.11603,0c0,0 0,0.11603 0.11603,0.23206l-0.11603,0.11597l0.34705,0c5.33099,5.90997 83.44196,88.19202 172.32898,0l0.34802,0l-0.11603,-0.23199c0.11603,0 0.11603,0 0.11603,-0.11603l-0.11603,0l0,0l0,0l-1.73798,-3.36096l-1.04303,-1.854l-0.11603,0l-80.54395,-146.48599l0.11597,-0.23102l110.56,0c0,0.69501 -0.81201,11.47299 -14.60297,182.991c-0.927,23.75702 -11.00897,31.52203 -18.89001,33.95599l-87.84503,0c-7.41699,0 -13.32697,5.56201 -13.32697,12.40002c0,6.83704 5.90997,12.284 13.32697,12.284l256.00208,0c7.30103,0 13.328,-5.44696 13.328,-12.284c0,-6.83801 -6.02698,-12.40002 -13.328,-12.40002l-90.04706,0c-7.99597,-2.31799 -18.19495,-10.19897 -19.12195,-33.95599c-13.67505,-171.51794 -14.48608,-182.29599 -14.60205,-182.991l110.2121,0l-80.77606,146.71701l0,0l-2.78107,5.21497l0.11603,0l0,0l-0.23199,0c0.11597,0.11603 0.11597,0.11603 0.11597,0.11603l-0.11597,0.23199l0.34802,0c89.35107,88.19202 167.69299,5.90997 173.02393,0l0.34814,0l-0.11621,-0.11597c0.11621,-0.11603 0.11621,-0.23206 0.11621,-0.23206l0,0zm-247.19409,-5.21497l-155.17798,0l77.53101,-141.039l77.64697,141.039zm82.39801,0l77.7619,-141.27002l77.87915,141.27002l-155.64105,0"/>
   <path id="path28" fill="#000000" fill-rule="nonzero" d="m1044.53442,943.09052c0,0 -67.91205,-78.80499 -147.52808,-56.78595c-36.62201,14.95001 -58.177,25.49603 -69.99799,27.81305c-11.70502,2.08594 -39.28699,4.28796 -56.091,-7.06909c30.82703,28.16101 59.45099,29.90002 80.54401,25.96008c21.09198,-4.05701 42.18402,-21.20801 47.63098,-25.61206c5.56201,-4.28796 25.61102,-28.16199 64.55103,-12.74799c28.16101,13.211 63.97101,52.03497 69.99701,58.98798c10.89404,-10.54602 10.89404,-10.54602 10.89404,-10.54602"/>
   <path id="path30" fill="#000000" fill-rule="nonzero" d="m896.54236,884.79755c-0.11603,0 -31.52197,13.21198 -31.52197,13.21198c-18.427,7.88007 -30.59503,12.97906 -38.35999,14.48608c-3.59302,0.69501 -35.81006,6.14191 -54.81604,-6.83807l-1.96997,2.43408c0,0.11591 0.11597,0.23193 0.11597,0.23193c25.14801,22.83002 52.61401,31.63806 81.81799,26.19104c14.02301,-2.66504 30.24799,-11.24109 48.09503,-25.72699c0.23096,-0.11603 2.31799,-1.97101 2.31799,-1.97101c7.30103,-6.60504 26.65399,-24.22101 60.84198,-10.66199c27.23401,12.74799 62.11707,49.94897 69.30298,58.5249l1.15796,1.27509l13.21204,-12.74805l-1.04297,-1.159c-0.69507,-0.81104 -69.41803,-79.26898 -149.151,-57.25zm-69.18701,30.82703c7.99701,-1.50696 20.28101,-6.72198 38.82404,-14.71802l31.40594,-13.09601c74.17004,-20.51202 138.6051,48.44305 144.74695,55.164c-1.62195,1.62305 -6.95288,6.72205 -8.69189,8.34399c-8.92297,-10.198 -42.41602,-45.54498 -69.41803,-58.06097c-36.04199,-14.37006 -56.43903,4.172 -64.20294,11.242l-1.85504,1.73798c-17.61499,14.13898 -33.37598,22.59906 -47.05103,25.14801c-24.91699,4.75195 -48.55798,-1.96997 -70.57697,-18.77399c19.58502,6.83704 43.57397,3.59198 46.81897,3.013"/>
   <path id="path32" fill="#000000" fill-rule="nonzero" d="m881.82434,882.71155c0,0 -43.80695,9.38702 -60.26294,14.13904c-16.45703,4.867 -72.08405,5.79395 -104.53345,-43.57501c25.72742,21.09198 57.25043,21.09198 69.88239,20.62799c12.74805,-0.34698 45.54504,4.51996 61.65302,7.53302c-0.34698,-3.01306 -16.57202,-6.60504 -21.43896,-9.15503c-4.86804,-2.54999 -18.54303,-6.60596 -35.11505,-42.76398c-5.56299,-11.00903 -6.48999,-17.15106 -10.31396,-20.51202c6.953,1.04297 20.51196,15.64502 24.68402,20.04901c4.172,4.40399 29.43597,33.492 43.80695,40.909c14.37,7.53302 21.44006,11.12598 31.638,12.74799"/>
   <path id="path34" fill="#000000" fill-rule="nonzero" d="m780.65137,810.28052c2.08698,1.73804 3.245,4.51904 4.98401,8.80707l4.98297,11.12598c15.41302,33.724 28.27704,39.86597 34.42004,42.87903l1.27399,0.57996l8.92401,3.24506c0.927,0.34698 2.20197,0.81097 3.36096,1.15894c-16.573,-2.66595 -40.79401,-6.02698 -51.68701,-5.67902c-28.16199,0.81104 -51.33997,-6.026 -68.83929,-20.39697l-2.43378,2.20203c31.2901,47.39899 86.10712,50.18097 106.38708,44.15399c16.10901,-4.75104 59.68402,-13.90601 60.14801,-14.02203l-0.11603,-3.12897c-10.08295,-1.73901 -17.15198,-5.33099 -31.17499,-12.63202c-12.16797,-6.375 -32.797,-29.08899 -40.56195,-37.66498l-2.78107,-3.013l-1.04297,-1.04297c-8.69202,-9.15503 -18.42596,-18.54205 -24.56897,-19.35406l-1.27502,2.78198zm55.51202,63.62305l-8.34399,-3.013l-1.39105,-0.69501c-5.44696,-2.54999 -17.96301,-8.69202 -32.91296,-41.37299c0,-0.11603 -4.98303,-11.01001 -4.98303,-11.01001c-0.927,-2.43298 -2.086,-3.59204 -3.12897,-5.33002c6.37396,3.70801 15.06598,12.63202 18.77399,16.57202l1.04303,1.04297l2.66595,3.013c7.88,8.57605 28.85602,31.75403 41.604,38.36005c10.89398,5.67798 17.73199,9.15497 25.03302,11.24097c-13.09601,2.89697 -41.026,8.92401 -53.42603,12.63202c-18.42596,5.44702 -66.17297,3.013 -96.88397,-35.34601c16.91998,10.89301 37.896,16.34003 62.81195,15.52899c12.16901,-0.34802 43.80701,4.172 61.19104,7.41699l2.086,0.46301l-0.23199,-2.20099c0,-0.46399 -0.927,-0.81201 -1.27502,-1.27496l0,0c0,0 -0.11597,-0.11603 -0.11597,-0.11603c-1.50598,-1.854 -4.98303,-3.47699 -12.51599,-5.91101"/>
   <path id="path36" fill="#000000" fill-rule="nonzero" d="m800.93237,865.09656c0,0 -22.01904,-6.02704 -38.35901,-8.34399c-16.45697,-2.20197 -73.82257,-16.68903 -96.18951,-84.021c22.59869,26.30695 27.69781,27.92999 40.90942,34.53497c13.32739,6.60602 53.42511,29.43701 67.33209,41.953c4.05603,2.31799 4.05603,2.31799 4.05603,2.31799c0,0 1.39099,-1.73895 -4.75104,-6.95398c-5.91101,-5.33099 -26.19098,-23.75696 -29.32001,-65.01398c-2.54999,-18.19501 -6.60602,-34.76703 -7.88098,-36.96906c9.15497,5.21503 19.93298,26.30701 22.13501,32.21704c2.20197,6.026 17.03595,47.63098 19.00598,52.61401c1.854,4.86798 13.90698,31.29095 23.06201,37.66498"/>
   <path id="path38" fill="#000000" fill-rule="nonzero" d="m735.33838,743.29559c1.04297,1.854 5.09998,17.96295 7.64899,36.505c1.50702,19.354 7.88098,46.58795 29.89996,65.94196c0.11603,0 0.11603,0 0.11603,0.11603c-15.29797,-12.63202 -51.68738,-33.37604 -65.01477,-39.98206l-2.086,-1.15894c-11.47321,-5.67908 -17.2677,-8.46002 -38.2439,-33.02905l-2.78143,1.50702c24.33698,73.35803 90.04712,84.25201 97.46411,85.17902c16.10901,2.086 37.896,8.34399 38.12799,8.34399l1.39001,-2.78101c-8.46002,-6.026 -20.28003,-31.17505 -22.59802,-37.08496l-18.89001,-52.49805c-2.086,-5.44702 -12.97998,-27.466 -22.83099,-33.14502l-2.20197,2.08606zm44.61798,109.16895c0.34802,-0.34802 0.46399,-0.81201 0.46399,-1.39099c0,-1.50696 -1.04297,-3.94 -5.44696,-7.64899c-21.09204,-18.77399 -27.35004,-45.08099 -28.74103,-63.97101c-1.73798,-12.51599 -4.28796,-24.685 -6.258,-31.75403c7.64899,7.64801 15.52899,22.71399 17.383,27.698l19.00702,52.61401c1.27399,3.36102 10.77698,24.22101 19.70099,34.18701c-7.41699,-1.854 -21.672,-5.44598 -33.37598,-6.953c-6.72205,-0.927 -64.78333,-11.24097 -90.85864,-74.05396c15.76111,17.49994 22.25092,21.32397 32.56519,26.42297l2.20197,1.04297c13.79083,6.95404 53.30945,29.43604 66.98444,41.72107c0.23199,0.23193 4.40405,2.54895 4.40405,2.54895l1.159,0.69604l0.81097,-1.15906"/>
   <path id="path40" fill="#000000" fill-rule="nonzero" d="m739.62634,810.16455c0,0 -27.58167,-16.10901 -42.76337,-27.92999c-15.18158,-11.93701 -57.82928,-42.995 -53.42542,-98.159c6.60583,17.84698 17.38348,34.07196 29.0885,43.922c11.7049,9.96704 32.9129,41.25702 38.01208,48.55798c4.98322,7.302 8.4599,9.27203 8.4599,9.27203c0,0 1.62262,-3.59302 -4.05609,-9.85101c-4.172,-6.72198 -11.70496,-22.48297 -7.64868,-56.90204c5.09918,-31.98596 6.95337,-39.63495 6.02618,-44.61798c4.40393,11.24103 10.19843,35.46301 12.3999,73.35901c1.27502,21.43903 3.70898,38.01202 6.48999,45.31305c2.89703,7.18494 7.41699,17.03595 7.41699,17.03595"/>
   <path id="path42" fill="#000000" fill-rule="nonzero" d="m711.81287,674.80457c0.11591,0.69501 0.11591,1.50598 0.11591,2.43298c0,3.59302 -0.927,9.27203 -2.89722,21.32397l-3.24487,20.28107c-0.81134,6.83795 -1.27484,13.09595 -1.27484,19.00598c0,16.22498 3.01312,29.31995 9.03943,38.93903c1.97009,2.086 2.89728,3.70898 3.47668,5.099c-1.39069,-1.39001 -3.12897,-3.24506 -5.21509,-6.258c0,0 -1.73828,-2.43304 -1.73828,-2.43304c-6.95343,-10.19904 -25.72772,-37.20099 -36.50549,-46.35596c-11.47314,-9.73505 -22.13501,-25.84406 -28.74084,-43.34406l-3.01318,0.46405c-4.28802,54.005 35.34662,84.83197 52.2666,98.159l1.7384,1.27496c15.0658,11.82098 42.64728,28.04602 42.87927,28.16101l2.31805,-1.96997l-7.30103,-17.03607c-2.78198,-7.41699 -5.21503,-24.10498 -6.48999,-44.849c-2.66602,-45.89294 -10.19843,-68.14398 -12.40033,-73.823l-3.01318,0.92804zm0.34772,24.22101c1.27478,-7.30103 1.97021,-11.93701 2.43372,-15.64502c3.12909,10.89301 7.53284,31.29004 9.50305,64.55103c1.27502,20.97595 3.70801,38.01196 6.72205,45.776c0,0 3.245,7.53296 5.33099,12.63196c-8.229,-4.98297 -26.88702,-16.45599 -38.36023,-25.37994l-1.73828,-1.39001c-15.6452,-12.28503 -51.33954,-40.09802 -51.33954,-87.61401c0,-0.57904 0,-1.15802 0,-1.73798c6.83752,15.76099 16.1087,30.01599 26.77075,39.05493c10.54596,8.80804 29.0885,35.69403 36.04187,45.77704l1.6225,2.43402c5.21509,7.41699 8.92358,9.61902 9.03943,9.73401l1.6225,0.92798l0.57935,-1.73901c0.34784,-0.46301 1.85431,-4.75104 -4.28784,-11.58899c-7.6488,-12.284 -10.0824,-31.05798 -7.18524,-55.51099c0,0 3.24493,-20.28101 3.24493,-20.28101"/>
   <path id="path44" fill="#000000" fill-rule="nonzero" d="m693.73407,733.32855c0,0 -9.50311,-14.83398 -18.07898,-24.56799c-8.57581,-9.50299 -46.47205,-52.383 -26.8866,-124.69904c0,16.80505 2.31775,26.30804 4.05615,32.33405c1.97021,5.90997 20.74445,46.23999 22.59869,57.13397c1.85425,10.89398 4.98334,31.40601 9.38715,33.72406c1.62238,-1.04303 -0.23181,-4.63605 -0.81122,-7.99603c-0.69537,-3.24506 -6.14227,-31.29102 10.31421,-61.77002c14.94989,-26.771 17.7312,-29.32001 19.93317,-38.59198c0.69531,17.5 -4.98328,52.151 -9.50305,66.75299c-4.40375,14.487 -16.34064,48.211 -11.00952,67.67999"/>
   <path id="path46" fill="#000000" fill-rule="nonzero" d="m674.49615,709.91956c8.34412,9.38702 17.84723,24.10498 17.84723,24.22101l2.89716,-1.27496c-4.63556,-16.92004 4.51971,-45.89301 9.38721,-61.53802l1.62244,-5.21503c4.28796,-13.90698 10.31427,-49.02197 9.61896,-67.33197l-3.12909,-0.34802c-1.6225,6.37402 -3.36078,9.61902 -9.50305,20.16504l-10.31421,18.19495c-9.7348,17.96301 -11.93671,35.22998 -11.93671,47.28302c0,7.06903 0.81128,11.93695 1.27478,14.48596c-2.086,-7.06897 -3.94019,-17.383 -4.98328,-22.94592l-0.3476,-2.31805c-1.2749,-7.64899 -10.08252,-28.16101 -16.57245,-43.11096l-5.91046,-14.255c-1.73834,-5.56201 -4.05609,-15.065 -4.05609,-31.87006l-3.12903,-0.46295c-12.86377,47.39899 -3.12909,92.24902 27.23419,126.32098l0,0zm2.31793,-2.20197c-21.0921,-23.526 -31.86993,-52.49902 -31.86993,-83.90503c0,-8.80798 1.15894,-17.73102 2.78143,-26.771c0.81116,9.38702 2.31781,15.64502 3.59259,19.81702c0,0 6.14209,14.60297 6.14209,14.60297c6.02643,13.90704 15.1817,35.11401 16.34058,42.30005c0,0 0.34772,2.43298 0.34772,2.43298c2.89722,16.341 5.56268,30.13196 9.96649,32.44995l0.81122,0.34705l0.81128,-0.46301c0.92725,-0.58002 1.27484,-1.62299 1.27484,-2.66602c0,-1.27399 -0.3476,-2.66498 -0.81122,-4.05597l-0.69531,-2.78101c-0.46362,-2.086 -1.39081,-7.41705 -1.39081,-15.06598c0,-11.58905 2.2019,-28.27704 11.70502,-45.66107l10.19843,-18.07898c2.89716,-5.099 4.86737,-8.45996 6.25806,-11.47302c-0.92719,18.77405 -5.56281,44.85004 -9.03955,56.43903l-1.62244,5.21503c-4.2879,13.55902 -10.89368,34.30298 -10.89368,51.33899c0,1.85498 0.46356,3.47699 0.69531,5.21503c-3.59265,-5.21503 -9.15533,-13.09503 -14.60211,-19.237"/>
   <path id="path48" fill="#000000" fill-rule="nonzero" d="m677.85699,645.36859c0,0 -5.67865,-23.06305 -12.63202,-41.48901c-6.95343,-18.54303 -20.28082,-61.53802 14.25452,-106.38803c-7.30115,17.84702 -4.40381,29.436 -4.40381,31.40701c0,1.97003 4.2879,41.604 4.40381,51.45502c0.11584,12.63196 -2.2019,34.41895 -2.2019,34.41895c0,0 0.81116,2.66602 2.54956,0c1.04303,-1.62195 3.36084,-29.78296 20.28082,-46.58795c15.64526,-15.64502 28.39337,-27.466 31.87042,-33.95502c0,11.47302 -6.60602,28.39301 -12.0531,37.54803c-5.33099,9.27094 -27.466,39.63495 -32.56525,49.83295c-4.98328,10.31403 -9.50305,22.48303 -9.50305,23.75806"/>
   <path id="path50" fill="#000000" fill-rule="nonzero" d="m663.71838,604.45856c6.83759,18.07898 12.51617,41.14099 12.63196,41.37299l3.12915,-0.34796c0.11584,-1.27405 4.28796,-12.74805 9.38721,-23.06201c2.89716,-6.026 11.8208,-19.12201 19.8172,-30.711l12.63208,-19.12201c5.9104,-10.08197 12.1684,-27.00201 12.1684,-38.35901l-2.89703,-0.81201c-2.78198,5.21503 -11.82098,14.13904 -23.4101,25.49603l-8.22809,8.11298c-14.02289,13.90601 -18.31079,35.69397 -19.93317,43.80603c0,0 -0.34772,1.854 -0.46362,2.66595c0.57953,-2.89801 2.43372,-33.14496 2.43372,-33.14496l-3.245,-40.67804l-1.15881,-12.284c-0.23193,-1.39099 -0.46362,-3.59296 -0.46362,-6.48999c0,-5.33099 0.92712,-13.095 4.75153,-22.82999l-2.66553,-1.62302c-24.45288,31.87 -29.32031,68.14398 -14.48627,108.01001zm3.01318,-1.159c-5.44678,-14.60199 -8.22821,-28.74103 -8.22821,-42.29999c0,-19.00598 5.67859,-36.85303 16.34052,-53.65701c-1.27478,5.33102 -1.85431,10.082 -1.85431,13.55899c0,3.013 0.23181,5.33099 0.34778,6.83801c0.23175,1.159 1.15881,12.284 1.15881,12.284l3.36084,40.33002c0,0 -2.2019,34.18799 -2.2019,34.18799c0.23175,1.04303 0.81116,2.78101 2.43365,2.89697c1.15894,0.23206 2.20203,-0.46399 3.01324,-1.85394c0,0 1.04297,-4.17206 1.04297,-4.17206c1.6225,-7.88098 5.67859,-28.85699 19.00598,-42.06897c0,0 8.34424,-8.22803 8.34424,-8.22803c9.50287,-9.38696 15.99316,-16.10901 20.16522,-21.55597c-1.50702,10.89398 -6.83783,24.22198 -11.12585,31.52295l-12.51605,18.89008c-7.99652,11.58893 -17.03595,24.79993 -20.04913,30.94299c-3.01318,6.14197 -6.02631,13.55896 -7.88062,18.77399c-2.2019,-7.88104 -6.3739,-23.29401 -11.35718,-36.39001"/>
   <path id="path52" fill="#000000" fill-rule="nonzero" d="m687.82355,566.79456c0,0 2.54974,-6.37402 0.23181,-32.10199c-2.43372,-25.728 -3.47668,-60.84241 36.39001,-84.4841c-9.96692,16.68829 -11.58942,19.5856 -14.6026,33.26059c-3.01318,13.55951 -6.37402,35.3465 -11.8208,47.63049c-2.2019,6.02698 -3.59259,10.77802 -2.54962,11.35797c0.92712,0.57904 1.39063,-0.46393 2.08612,-2.54993c0.927,-2.08606 9.03943,-20.51202 25.49579,-32.21704c16.45612,-11.70499 31.2901,-23.41028 36.85309,-34.99921c-2.43396,21.43961 -10.54596,29.0882 -18.65796,39.86621c-8.80804,11.70502 -40.44604,36.15802 -45.77704,44.15399c-5.44678,7.88098 -7.6488,10.08301 -7.6488,10.08301"/>
   <path id="path54" fill="#000000" fill-rule="nonzero" d="m686.43286,534.80859c2.31793,24.68494 -0.11591,31.28998 -0.11591,31.28998l2.54974,1.85498l7.88049,-10.42999c2.43365,-3.59302 11.00958,-11.12598 19.93311,-19.12201c10.43005,-9.15601 21.20807,-18.659 25.84406,-24.91699c0,0 3.24402,-4.172 3.24402,-4.172c6.95398,-8.923 13.56,-17.38351 15.76202,-36.3895l-3.01404,-0.92709c-5.56201,11.47308 -20.74396,23.29358 -36.38922,34.41959c-11.93665,8.45999 -19.46954,20.28104 -23.29395,27.35001c0.23175,-0.81097 0.34766,-1.04303 0.69537,-2.086c4.172,-9.271 6.95343,-23.87302 9.6189,-36.621l2.2019,-11.24179c3.01318,-13.21152 4.40387,-15.87701 14.48602,-32.79703l-2.2016,-2.202c-42.87952,25.49591 -39.17102,64.8988 -37.20093,85.99084zm4.17212,18.65796c0,-4.75098 -0.23169,-10.89301 -1.04303,-18.89001c-0.46356,-4.98297 -0.92706,-11.00897 -0.92706,-17.61499c0,-18.77399 5.56268,-42.0683 30.13147,-60.14728c-6.14221,10.43008 -7.9964,14.94989 -10.43018,26.3071l-2.43359,11.24118c-2.43384,12.63202 -5.33099,27.00299 -9.38721,36.15802c-2.2019,5.91101 -3.01324,9.15497 -3.01324,11.01001c0,1.27399 0.46375,1.854 1.15906,2.31702l0.57935,0.34796l1.39075,-0.11597c1.27478,-0.46301 1.85419,-1.854 2.43365,-3.70801c0.81122,-1.854 9.03955,-20.04901 24.91644,-31.40701c13.09601,-9.27103 25.49597,-19.12152 32.91296,-28.85629c-2.66602,12.63208 -7.76495,19.70129 -13.67499,27.35028l-3.245,4.056c-4.52002,6.02597 -15.52899,15.87698 -25.38007,24.569c-9.50305,8.46002 -17.84711,15.76099 -20.51263,19.70099c0,0 -1.85419,2.55005 -3.70837,4.98303c0.11578,-1.96997 0.23169,-4.172 0.23169,-7.30103"/>
   <path id="path56" fill="#000000" fill-rule="nonzero" d="m717.60748,498.53455c0,0 5.21509,-27.23389 15.6449,-43.34277c10.42999,-16.1087 32.10199,-30.36331 54.93201,-37.43262c-7.99603,6.72171 -12.86304,12.74802 -15.64502,17.61542c-2.78101,4.7515 -20.04901,31.75388 -27.92902,40.3298c-8.11298,8.5759 -21.09247,16.34058 -27.00287,22.83017"/>
   <path id="path58" fill="#000000" fill-rule="nonzero" d="m731.86237,454.26477c-10.43048,16.22458 -15.52972,42.87979 -15.76147,43.92279l2.78125,1.38998l11.58923,-9.85028l15.18201,-12.9798c8.22797,-8.80771 25.61096,-35.92599 28.27698,-40.56171c3.245,-5.67859 8.34399,-11.47321 15.297,-17.26761l-1.50598,-2.66559c-24.10498,7.41708 -45.42902,22.0192 -55.85901,38.01221zm2.78101,1.73828c8.80798,-13.67508 26.42297,-26.07538 46.58801,-33.84c-4.05603,4.172 -7.64905,8.34412 -10.08203,12.40021c-2.66595,4.51981 -19.81799,31.4064 -27.81396,40.09821c0,0 -19.58569,16.5723 -23.17834,19.58539c1.97009,-8.34409 6.83734,-26.42288 14.48633,-38.2438"/>
   <path id="path60" fill="#000000" fill-rule="nonzero" d="m882.28735,945.17657c0,0 65.94202,-80.54401 146.02197,-60.49506c37.08496,14.02301 58.75708,23.99005 70.69409,25.84406c11.81995,1.97003 39.28589,3.47693 55.85889,-8.46002c-30.13184,28.97198 -58.75684,31.52197 -79.84888,28.04498c-21.20801,-3.47595 -42.64709,-20.04901 -48.21008,-24.33698c-5.56299,-4.28802 -26.42297,-27.466 -64.78302,-11.125c-28.04492,13.90698 -62.81299,53.54102 -68.60693,60.72601c-11.12604,-10.198 -11.12604,-10.198 -11.12604,-10.198"/>
   <path id="path62" fill="#000000" fill-rule="nonzero" d="m881.01337,944.13361l-0.927,1.15894l13.55902,12.40002l1.04297,-1.39001c7.06897,-8.69202 41.14105,-46.81995 68.02704,-60.263c33.724,-14.37097 53.54193,2.78101 60.95898,9.271l2.086,1.73798c18.4259,14.02307 34.76697,22.36707 49.02087,24.68506c29.20508,4.63501 56.55518,-4.86798 81.00806,-28.27704c0.11609,-0.11603 0.11609,-0.11603 0.11609,-0.23199l-1.96997,-2.43396c-18.77515,13.44299 -51.10803,8.80798 -54.70093,8.22803c-7.76404,-1.27502 -19.81726,-6.02606 -38.12805,-13.32709l-32.21704,-12.51599c-80.31207,-20.16498 -147.18103,60.14703 -147.87604,60.95807zm146.94904,-57.94501l31.98608,12.51593c18.54175,7.30103 30.70996,12.16907 38.82275,13.44299c3.01306,0.46405 25.84314,3.59302 44.84912,-2.89697c-21.09204,16.45703 -43.92212,23.17804 -68.375,19.23804c-13.55896,-2.20203 -29.552,-10.19904 -47.28296,-23.87402c-0.23206,-0.11499 -2.20203,-1.73804 -2.20203,-1.73804c-7.88104,-6.83698 -28.74097,-24.91595 -64.435,-9.61896c-26.539,13.09601 -59.336,49.25403 -68.02802,59.79999c-1.73798,-1.50696 -7.185,-6.60602 -8.80798,-7.99701c5.91095,-6.953 68.60797,-77.52997 143.47302,-58.87195"/>
   <path id="path64" fill="#000000" fill-rule="nonzero" d="m1043.49146,880.74158c0,0 44.03784,8.112 60.49487,12.51599c16.57202,4.40399 72.31592,3.94 103.60608,-46.24005c-25.26404,21.78705 -56.90198,22.599 -69.53406,22.48303c-12.63208,-0.11603 -45.42896,5.56201 -61.30591,9.039c0.23096,-3.12897 16.33997,-7.06897 21.20801,-9.73499c4.75085,-2.66498 18.30981,-7.06903 33.95496,-43.69c5.4469,-11.12598 6.14294,-17.38403 9.96692,-20.745c-6.95288,1.27496 -20.16504,16.22498 -24.22095,20.62903c-4.17212,4.63495 -28.74097,34.30298 -42.88013,42.06799c-14.13794,7.99597 -21.20691,11.58893 -31.28979,13.67499"/>
   <path id="path66" fill="#000000" fill-rule="nonzero" d="m1117.66138,822.68054l-1.15894,1.27502l-3.12915,3.47601c-7.53296,8.69202 -27.46582,31.75397 -39.28687,38.24402c-14.37012,8.11292 -21.20801,11.47296 -30.94312,13.44397l0,3.12903c0.34814,0.11597 44.15515,8.22797 60.49512,12.51599c20.39697,5.56195 75.21301,1.39001 105.229,-46.93604l-2.31799,-1.96997c-17.26819,14.83398 -40.3302,22.25098 -68.375,22.01898c-11.01001,-0.11597 -34.99902,3.82495 -51.68799,7.06903c1.15881,-0.46301 2.43396,-0.92706 3.47693,-1.27405l8.69202,-3.47699l1.39099,-0.69501c5.56201,-2.78198 18.65796,-9.50299 33.37598,-43.69098l4.75208,-11.24103c1.62195,-4.28802 2.78101,-7.18597 4.63501,-8.92401l-1.27502,-2.78094c-6.02612,1.04297 -15.41309,10.54596 -23.87305,19.81696zm-42.06812,45.89301c12.28418,-6.95398 31.86914,-29.43701 40.21411,-39.05597l3.01306,-3.36005l1.27502,-1.39099c3.59192,-3.93994 11.93579,-12.86395 18.07898,-16.80396c-0.9281,1.73798 -2.08606,3.013 -3.01416,5.44696l-4.63489,11.00897c-14.25513,33.26105 -26.65503,39.51904 -31.98596,42.30005l-1.39099,0.69598c0,0 -8.22803,3.245 -8.22803,3.245c-7.53296,2.66498 -10.89404,4.40302 -12.40015,6.25806c0,0 -0.11597,0.11493 -0.11597,0.11493l0,0c-0.3479,0.46405 -1.15894,0.92804 -1.27502,1.39099l-0.11584,2.20203l2.08606,-0.57898c14.83398,-3.245 47.97888,-9.04004 60.95886,-8.92401c24.91602,0.11603 45.776,-5.79401 62.46497,-17.26801c-29.90002,39.28699 -77.53088,42.88 -96.07385,37.89697c-12.40002,-3.36096 -40.56104,-8.80798 -53.77319,-11.24194c7.07007,-2.31799 13.79102,-5.79407 24.91699,-11.93604zm57.8291,-42.76398l0,0"/>
   <path id="path68" fill="#000000" fill-rule="nonzero" d="m1124.0354,861.04059c0,0 21.6709,-6.72205 38.01196,-9.27203c16.45605,-2.66498 73.4751,-18.65802 94.10315,-86.57001c-21.9032,26.88702 -26.88721,28.625 -39.98206,35.69501c-13.09595,6.83698 -52.73022,30.59503 -66.40503,43.45801c-4.05713,2.43402 -4.05713,2.43402 -4.05713,2.43402c0,0 -1.15894,-1.62207 4.63599,-6.953c5.91101,-5.44702 25.72815,-24.453 27.92993,-65.82605c2.08618,-18.19495 5.79419,-34.76697 7.06909,-37.20093c-9.03906,5.56299 -19.354,27.00195 -21.43994,32.91296c-2.08594,6.026 -15.99292,47.979 -17.73096,52.96198c-1.854,4.98297 -13.21204,31.638 -22.13501,38.36005"/>
   <path id="path70" fill="#000000" fill-rule="nonzero" d="m1162.39526,769.25458l-17.73193,52.96198c-2.31689,6.14203 -13.44287,31.40704 -21.6709,37.54901l1.39087,2.78101c0.23108,0 21.9032,-6.72198 38.01196,-9.271c7.30115,-1.15906 72.77917,-13.67505 95.37695,-87.61304l-2.78076,-1.50696c-20.62817,25.26398 -25.95911,28.04596 -37.5481,34.18799l-2.08594,1.04297c-12.97998,6.953 -48.3269,28.27698 -63.73999,41.37305c21.43994,-20.04901 27.23401,-47.28302 28.27698,-66.63702c2.08594,-18.659 5.67883,-34.651 6.83801,-36.50604l-2.31812,-2.20197c-9.73486,6.02704 -20.04907,28.39301 -22.01904,33.84003zm-14.71802,54.00494c0,0 17.73108,-52.96198 17.73108,-52.96198c1.73792,-5.099 9.27112,-20.28003 16.68811,-28.16101c-1.73804,7.06903 -3.94019,19.00598 -5.44702,31.63806c-1.5061,27.46594 -10.66211,49.25397 -27.3501,64.89893c-4.05603,3.70801 -5.21509,6.14203 -5.21509,7.64905c0,0.57898 0.11621,1.15796 0.46313,1.50598l0.81201,1.04303l5.21484,-3.12903c13.55908,-12.63202 52.61401,-36.15796 66.28906,-43.45898l1.97009,-1.04303c10.31506,-5.44696 16.68909,-9.38696 32.10205,-27.46594c-24.453,63.50793 -82.2821,75.21295 -89.12,76.37195c-11.58911,1.854 -25.72705,5.67804 -33.14404,7.88c8.69092,-10.08203 17.49902,-30.59497 19.00586,-34.76703"/>
   <path id="path72" fill="#000000" fill-rule="nonzero" d="m1183.95044,804.60156c0,0 27.11902,-16.92004 42.06787,-29.20404c14.83411,-12.16895 56.78711,-44.271 51.10791,-99.31897c-6.25781,17.96301 -16.5719,34.41998 -28.04492,44.61804c-11.4729,10.19897 -31.86987,42.06799 -36.73792,49.48499c-4.98303,7.41797 -8.34412,9.50397 -8.34412,9.50397c0,0 -1.73804,-3.59296 3.8252,-10.08295c3.93994,-6.60608 11.24097,-22.71405 6.25806,-56.90204c-5.79504,-31.98596 -7.76514,-39.51898 -7.06909,-44.38605c-4.05701,11.24103 -9.27197,35.46204 -10.54712,73.474c-0.69507,21.55603 -2.89697,38.12805 -5.56201,45.42908c-2.66602,7.41699 -6.95386,17.38397 -6.95386,17.38397"/>
   <path id="path74" fill="#000000" fill-rule="nonzero" d="m1194.84424,741.78851c-0.69482,20.74506 -2.78088,37.54907 -5.44702,44.85004l-6.83691,17.38397l2.31714,1.97003c0.23206,-0.23199 27.35095,-17.15198 42.18494,-29.32098l1.73804,-1.39001c16.5719,-13.67499 55.51086,-45.42896 49.94897,-99.43396l-3.12903,-0.34802c-6.14307,17.84698 -16.2251,33.95599 -27.58191,44.03796c-10.54602,9.38806 -28.62512,36.854 -35.46301,47.28406l-1.62207,2.54895c-2.08594,3.013 -3.70898,4.86804 -4.98401,6.25806c0.46399,-1.27405 1.27502,-2.89703 3.01404,-4.98303c5.56201,-9.271 8.34399,-21.67102 8.34399,-36.737c0,-6.72198 -0.46411,-13.90704 -1.62305,-21.44c0,-0.11597 -3.82397,-20.62799 -3.82397,-20.62799c-2.31787,-12.28503 -3.36096,-17.84802 -3.36096,-21.32404c0,-0.69598 0,-1.39099 0.11609,-1.96997l-3.01318,-0.81201c-2.2019,5.79498 -9.15601,28.27795 -10.77808,74.05396zm-2.43384,46.00903c2.78186,-7.64899 4.98389,-24.80103 5.67896,-45.89294c1.15894,-33.26007 5.09888,-53.65704 7.99609,-64.66705c0.46399,3.59302 1.2749,8.229 2.66577,15.18201l3.82422,20.513c1.04297,7.53296 1.6228,14.60199 1.6228,21.09198c0,14.37 -2.66589,26.19098 -7.76489,34.76703c-3.47693,4.05603 -4.28809,7.30103 -4.28809,9.271c0,1.27502 0.34814,2.086 0.46411,2.20203l0.69507,1.73798l1.50696,-0.927c0.23096,-0.11597 3.8241,-2.43402 8.80701,-9.966l1.73901,-2.54999c6.72095,-10.31403 24.56799,-37.54803 34.88293,-46.58801c10.31396,-9.271 19.23694,-23.75702 25.61108,-39.63397c0.11597,1.27399 0.23193,2.66498 0.23193,3.93994c0,46.12402 -34.18701,74.17004 -49.36902,86.57007l-1.73792,1.39099c-11.24207,9.271 -29.5531,21.20801 -37.66516,26.42297c1.96997,-4.98401 5.09912,-12.86401 5.09912,-12.86401"/>
   <path id="path76" fill="#000000" fill-rule="nonzero" d="m1227.98938,726.49152c0,0 9.15503,-15.06592 17.4989,-24.91693c8.34424,-9.73401 45.31299,-53.65704 23.98901,-125.39301c0.34814,16.80396 -1.62195,26.42297 -3.35986,32.44897c-1.73901,5.91101 -19.47009,46.70398 -21.09204,57.59802c-1.73889,11.00897 -4.40405,31.52197 -8.80811,33.95599c-1.50696,-0.927 0.34814,-4.63605 0.81116,-7.88104c0.57996,-3.36096 5.33093,-31.63794 -11.82092,-61.53796c-15.52917,-26.30701 -18.42627,-28.97198 -20.74414,-38.12799c-0.34802,17.5 6.25793,52.03497 10.89404,66.40594c4.86694,14.48602 17.61499,47.86206 12.63196,67.448"/>
   <path id="path78" fill="#000000" fill-rule="nonzero" d="m1267.85535,576.18158c0,1.39099 0,2.89697 0,4.28796c0,11.00903 -1.04297,20.04901 -3.24487,27.698l-5.79407,14.95001c-6.0271,14.94904 -14.255,35.46204 -15.41394,42.87897l-0.46411,3.12903c-0.81091,5.67902 -2.31702,15.29797 -4.172,22.01904c0.3479,-2.31799 0.92798,-6.258 0.92798,-12.052c0,-12.05304 -2.31799,-30.24805 -13.21191,-49.138c0,0 -10.77808,-17.96301 -10.77808,-17.96301c-6.25806,-10.31403 -8.11194,-13.55902 -9.73499,-19.70105l-3.24402,0.34705c-0.23193,18.07898 6.60498,53.078 11.125,66.98499l1.854,5.33099c5.21509,15.41296 15.06592,44.15399 10.77808,61.19l2.89697,1.159c0.11597,-0.11597 9.15601,-15.06598 17.38403,-24.685c29.552,-34.76697 38.12793,-79.84796 24.22095,-126.89996l-3.12903,0.46399zm-30.8269,125.39301c4.40393,-2.43304 6.7218,-15.99304 9.03992,-31.98499l0.46301,-3.01404c1.15906,-7.185 9.61914,-28.27704 15.18201,-42.29999l5.90991,-15.18103c1.15894,-4.05597 2.31812,-11.12598 2.89709,-20.62897c2.31812,10.315 3.70886,20.513 3.70886,30.479c0,30.13196 -10.08301,58.29297 -29.89978,81.58698c-5.21521,6.14197 -10.54602,14.02301 -14.02307,19.354c0.11597,-1.27502 0.46387,-2.31799 0.46387,-3.59204c0,-17.15198 -7.3009,-38.59198 -12.05298,-52.38293l-1.854,-5.33099c-3.70776,-11.58905 -8.80786,-37.31702 -10.19788,-55.97504c1.5061,2.89697 3.36096,6.14197 6.37402,11.01001l10.77783,17.96198c10.43005,18.31104 12.6322,35.81097 12.6322,47.40002c0,6.48999 -0.69604,11.24103 -0.927,12.979c-0.11621,0 -0.81213,3.01398 -0.81213,3.01398c-0.23096,1.39001 -0.69495,2.66504 -0.69495,3.82404c0,1.159 0.3479,2.20197 1.39087,2.78101l0.81104,0.46393l0.81116,-0.46393"/>
   <path id="path80" fill="#000000" fill-rule="nonzero" d="m1241.78027,638.29852c0,0 5.21521,-23.29395 11.70508,-41.95197c6.48901,-18.659 18.77393,-61.88599 -16.68896,-105.92401c7.64893,17.61502 5.09998,29.32001 5.21484,31.28998c0,1.97107 -3.47583,41.72107 -3.24487,51.57202c0.11597,12.63202 3.01392,34.30298 3.01392,34.30298c0,0 -0.81201,2.66602 -2.54993,0.11603c-1.15894,-1.73798 -4.05591,-29.784 -21.32397,-46.12396c-16.10901,-15.18201 -29.08801,-26.65503 -32.68091,-33.14502c0.23206,11.58899 7.3009,28.16101 12.86389,37.31702c5.56299,9.039 28.39307,38.93896 33.72388,49.02094c5.21521,10.08307 9.96704,22.13605 9.96704,23.526"/>
   <path id="path82" fill="#000000" fill-rule="nonzero" d="m1235.29028,491.11786c4.63513,10.3147 5.44702,18.54269 5.44702,23.87372c0,2.31799 -0.11597,4.05597 -0.23193,5.21497l-0.927,11.58905l-2.43396,41.48895c0,0 1.85388,21.09198 2.66589,30.24701c-1.97083,-8.92401 -6.60583,-29.66797 -20.86084,-42.995c0,-0.11603 -8.80811,-8.46002 -8.80811,-8.46002c-11.58911,-10.89398 -20.74414,-19.46997 -23.5249,-24.453l-3.01318,0.81104c0.23108,11.35699 6.95313,28.04498 13.09497,38.12799l13.21216,19.00598c8.22803,11.24103 17.38293,24.10498 20.396,29.90002c5.44702,10.31396 9.73499,21.67102 9.85083,22.94598l3.24524,0.23199c0,-0.23199 5.21497,-23.40997 11.58899,-41.83698c14.02295,-39.86603 8.34399,-76.02405 -17.03601,-107.43011l-2.66516,1.7384zm5.67798,119.25171c1.62317,-0.23199 2.20215,-1.97101 2.31824,-2.31799c0,0 0,0 0,0c0,-1.27502 -3.01318,-34.76703 -3.01318,-34.76703l2.55005,-41.14099l0.69495,-10.43103c0.11597,-1.73798 0.34814,-3.93994 0.34814,-6.60498c0,-3.82498 -0.81201,-9.15598 -2.31812,-14.94998c11.58899,17.15201 17.73096,35.694 17.73096,55.62698c0,12.86401 -2.43408,26.19104 -7.30103,39.98199c-4.63599,13.328 -8.57581,28.85699 -10.42993,36.73804c-1.96997,-5.10004 -5.09888,-12.401 -8.34387,-18.54303c-3.24512,-6.026 -12.51599,-18.88995 -20.62903,-30.24701l-13.09497,-18.88995c-5.1001,-8.229 -10.31506,-20.86102 -12.05322,-31.17505c4.28809,5.21503 10.89404,11.70502 20.51318,20.86005l8.92285,8.229c13.55908,12.86298 17.96313,33.02795 19.81714,41.604l1.15906,4.172c0.92688,1.39099 1.97083,1.96997 3.12878,1.85498"/>
   <path id="path84" fill="#000000" fill-rule="nonzero" d="m1230.07544,559.84058c0,0 -2.66602,-6.25806 -0.927,-31.98499c1.73779,-25.84402 1.96985,-60.95883 -38.36011,-83.67334c10.31409,16.5722 11.93701,19.46951 15.29712,33.02872c3.36084,13.4433 7.30078,35.11459 12.97998,47.2836c2.31787,6.026 3.93994,10.66199 2.89697,11.24103c-1.04297,0.69598 -1.5061,-0.46301 -2.31689,-2.43402c-0.81213,-2.086 -9.50415,-20.28003 -26.07617,-31.52203c-16.80396,-11.35699 -31.87012,-22.71429 -37.66394,-34.07147c2.78101,21.32379 11.12512,28.74048 19.46887,39.2865c9.04004,11.47296 41.2572,35.11499 46.82019,42.88c5.67883,7.88 7.88098,9.966 7.88098,9.966"/>
   <path id="path86" fill="#000000" fill-rule="nonzero" d="m1189.39722,445.10934c10.4303,16.6882 11.93701,19.35373 15.18213,32.44931l2.43408,10.66199c2.89697,12.86392 6.14209,27.46588 10.54602,36.96893c0.23096,0.58002 0.69482,1.73798 1.04297,2.66602c-3.70911,-6.72198 -11.474,-18.89102 -24.22205,-27.46603c-15.87695,-10.66229 -31.40601,-22.2514 -37.08496,-33.37689l-3.01318,0.92709c2.55029,18.8902 9.27209,27.1188 16.57312,35.92578l3.245,4.05603c4.86707,6.258 15.99207,15.52997 26.53809,24.56897c9.15601,7.64899 17.73193,14.83405 20.28101,18.42706l8.11292,10.08197l2.54895,-1.854c-0.11584,0 -2.54895,-6.48999 -0.81104,-31.17499c1.39111,-21.32303 4.05615,-60.84213 -39.1709,-85.17902l-2.20215,2.31778zm33.37708,91.90121c0.69507,-0.34802 1.04297,-1.04297 1.04297,-2.086c0,-1.854 -1.04297,-5.099 -3.245,-11.01001c-4.28784,-9.15497 -7.64893,-24.33701 -10.43091,-36.38928l-2.54895,-10.7778c-2.78101,-11.3573 -4.75208,-15.7612 -11.01013,-26.19131c25.49609,17.61539 31.52295,40.56171 31.52295,62.92841c0,4.86798 -0.23193,9.61902 -0.46387,14.255c-0.46411,6.48999 -0.57898,11.70502 -0.57898,15.87701c0,4.63495 0.11487,7.76398 0.46301,10.31396c-1.96997,-2.43396 -3.93994,-4.867 -3.93994,-4.867c-2.7821,-3.82501 -11.12598,-10.89398 -20.86011,-19.00598c-10.08301,-8.46002 -21.43994,-18.07901 -26.19189,-23.98999l-3.245,-4.17203c-6.026,-7.41699 -11.24109,-14.25439 -14.25403,-26.7706c7.06885,8.92361 18.54199,17.84711 33.60791,27.92963c17.1521,11.70502 25.49609,30.711 25.61194,30.82703c0.69519,1.854 1.15906,3.12897 2.4342,3.47699l0.69482,0.34698l1.39099,-0.69501"/>
   <path id="path88" fill="#000000" fill-rule="nonzero" d="m1198.66846,492.39267c0,0 -5.79419,-27.0025 -16.68811,-42.87952c-10.66199,-15.87689 -32.68103,-29.55209 -55.62708,-36.04199c8.11218,6.4899 13.09509,12.40039 15.99316,17.15189c2.89685,4.75153 20.85986,31.29041 28.97192,39.63452c8.22803,8.45999 21.43994,15.76108 27.3501,22.1351"/>
   <path id="path90" fill="#000000" fill-rule="nonzero" d="m1125.3103,414.74594c8.80713,6.83762 13.32715,12.86392 15.64514,16.68832c2.78088,4.63559 20.85999,31.4064 29.31995,39.98221c0,0 15.53003,12.63208 15.53003,12.63208l11.82007,9.38712l2.66589,-1.39072c-0.23193,-1.15891 -6.026,-27.466 -16.92004,-43.45889c-10.77795,-15.76111 -32.44897,-29.78381 -56.55493,-36.6214l-1.5061,2.78128l0,0zm62.34912,66.75302l-15.18213,-12.4003c-8.11206,-8.22821 -26.07483,-34.9989 -28.74097,-39.2869c-2.43311,-3.94022 -6.14209,-7.9964 -10.43005,-12.16852c20.39709,7.30112 38.24414,19.23782 47.39905,32.797c7.8811,11.58911 13.21191,29.43622 15.2981,37.7804c-3.47705,-2.89728 -8.34399,-6.72168 -8.34399,-6.72168"/>
  </g>
 </g>
</svg>