<?xml version="1.0"?>
<svg width="1920" height="1080" xmlns="http://www.w3.org/2000/svg" xmlns:xlink="http://www.w3.org/1999/xlink">
 <!-- Created with SVG-edit - http://svg-edit.googlecode.com/ -->
 <defs>
  <filter height="200%" width="200%" y="-50%" x="-50%" id="svg_2_blur">
   <feGaussianBlur stdDeviation="8"/>
  </filter>
 </defs>
 <g display="inline">
  <title>subject</title>
  <g id="svg_4">
   <path stroke="#007fff" stroke-width="0" fill="#428bca" d="m1288.78943,842.59735l-11.33752,0l0,-147.38843c0,-43.76013 -35.6012,-79.36304 -79.36292,-79.36304l-192.73877,0l0,-90.70056l11.33752,0c18.70691,0 34.0127,-15.30573 34.0127,-34.01279l0,-113.37592c0,-18.70706 -15.30579,-34.01276 -34.0127,-34.01276l-113.37573,0c-18.70691,0 -34.01276,15.30573 -34.01276,34.01276l0,113.37592c0,18.70706 15.30585,34.01279 34.01276,34.01279l11.33759,0l0,90.70056l-192.73883,0c-43.76013,0 -79.36304,35.60291 -79.36304,79.36304l0,147.38843l-11.33765,0c-18.70691,0 -34.01245,15.30585 -34.01245,34.01282l0,113.37573c0,18.70685 15.30554,34.01208 34.01245,34.01208l113.37598,0c18.70697,0 34.0127,-15.30524 34.0127,-34.01208l0,-113.37573c0,-18.70697 -15.30573,-34.01282 -34.0127,-34.01282l-11.33771,0l0,-136.0509l181.40125,0l0,136.0509l-11.33759,0c-18.70691,0 -34.01282,15.30585 -34.01282,34.01282l0,113.37573c0,18.70685 15.30591,34.01208 34.01282,34.01208l113.37573,0c18.70691,0 34.0127,-15.30524 34.0127,-34.01208l0,-113.37573c0,-18.70697 -15.30579,-34.01282 -34.0127,-34.01282l-11.33752,0l0,-136.0509l181.40112,0l0,136.0509l-11.33752,0c-18.70703,0 -34.0127,15.30585 -34.0127,34.01282l0,113.37573c0,18.70685 15.30566,34.01208 34.0127,34.01208l113.37561,0c18.70703,0 34.01294,-15.30524 34.01294,-34.01208l0,-113.37573c0,-18.70697 -15.30591,-34.01282 -34.01294,-34.01282zm-555.54102,136.05103l-90.70062,0l0,-90.70062l90.70062,0l0,90.70062zm272.10181,0l-90.70062,0l0,-90.70062l90.70062,0l0,90.70062zm-90.70062,-498.85352l0,-90.70062l90.70062,0l0,90.70062l-90.70062,0zm362.80231,498.85352l-90.70056,0l0,-90.70062l90.70056,0l0,90.70062z" id="svg_1"/>
   <path stroke="#000000" stroke-width="8" id="svg_2" fill="#000000" d="m1285.30762,846.06311l-11.17456,0l0,-147.38843c0,-43.76013 -35.08862,-79.36304 -78.22058,-79.36304l-189.96503,0l0,-90.70056l11.17462,0c18.43762,0 33.52307,-15.30573 33.52307,-34.01279l0,-113.37601c0,-18.70706 -15.08545,-34.01279 -33.52307,-34.01279l-111.74414,0c-18.4375,0 -33.52307,15.30573 -33.52307,34.01279l0,113.37601c0,18.70706 15.08557,34.01279 33.52307,34.01279l11.17444,0l0,90.70056l-189.9646,0c-43.13037,0 -78.22089,35.60291 -78.22089,79.36304l0,147.38843l-11.17438,0c-18.43762,0 -33.52307,15.30579 -33.52307,34.01276l0,113.37573c0,18.70679 15.08545,34.01215 33.52307,34.01215l111.74414,0c18.4375,0 33.52301,-15.30536 33.52301,-34.01215l0,-113.37573c0,-18.70697 -15.08551,-34.01276 -33.52301,-34.01276l-11.17456,0l0,-136.05096l178.79028,0l0,136.05096l-11.17444,0c-18.43762,0 -33.52319,15.30579 -33.52319,34.01276l0,113.37573c0,18.70679 15.08557,34.01215 33.52319,34.01215l111.74414,0c18.43762,0 33.52319,-15.30536 33.52319,-34.01215l0,-113.37573c0,-18.70697 -15.08557,-34.01276 -33.52319,-34.01276l-11.17462,0l0,-136.05096l178.79071,0l0,136.05096l-11.17456,0c-18.43774,0 -33.52319,15.30579 -33.52319,34.01276l0,113.37573c0,18.70679 15.08545,34.01215 33.52319,34.01215l111.74426,0c18.4375,0 33.52319,-15.30536 33.52319,-34.01215l0,-113.37573c0,-18.70697 -15.08569,-34.01276 -33.52319,-34.01276l-0.00024,0zm-547.54553,136.0509l-89.39514,0l0,-90.70056l89.39514,0l0,90.70056zm268.18536,0l-89.39508,0l0,-90.70056l89.39508,0l0,90.70056zm-89.39508,-498.85342l0,-90.70068l89.39508,0l0,90.70068l-89.39508,0zm357.58069,498.85342l-89.39502,0l0,-90.70056l89.39502,0l0,90.70056z" fill-opacity="0" opacity="0.8" filter="url(#svg_2_blur)"/>
  </g>
  <text xml:space="preserve" text-anchor="middle" font-family="Sans-serif" font-size="178" id="svg_3" y="228.57143" x="960.00223" opacity="0.8" stroke-linecap="null" stroke-linejoin="null" stroke-dasharray="null" stroke-width="0" stroke="#000000" fill="#000000">subject.ro</text>
 </g>
</svg>