<?xml version="1.0"?>
<svg width="1920" height="1080" xmlns="http://www.w3.org/2000/svg" xmlns:xlink="http://www.w3.org/1999/xlink">
 <metadata id="metadata7">image/svg+xml</metadata>
 <defs>
  <filter height="200%" width="200%" y="-50%" x="-50%" id="svg_1_blur">
   <feGaussianBlur stdDeviation="10"/>
  </filter>
 </defs>
 <g>
  <title>Layer 1</title>
  <text xml:space="preserve" text-anchor="middle" font-family="Sans-serif" font-size="35" id="svg_16" y="985.21744" x="123.4782" stroke-linecap="round" stroke-linejoin="round" stroke-dasharray="null" stroke-width="0" stroke="#000000" fill="#000000">details:</text>
  <a xlink:href="https://docs.google.com/document/d/1YDN7X2ScmWz4rZCpL1Mac134tk5uhherPDWPPyFl5B4/edit?usp=sharing" target="_volunteers" id="svg_19">
  <title>volunteer information</title>
   <path stroke="#000000" id="svg_18" d="m321.26196,949.04401c-4.05005,4.50275 -21.50418,10.19611 -23.75552,10.19611l-19.13672,0c-3.17026,0 -7.95761,0.62183 -10.20889,2.07062c0.25845,0.20728 0.51761,0.46521 0.76346,0.67249c1.73413,1.60297 5.78354,3.8808 9.3551,3.8808c1.68185,0 3.06601,-0.46527 4.24353,-1.49933c4.99435,-4.24481 7.59512,-4.76294 9.09616,-4.76294c1.78558,0 3.31195,0.82916 4.21771,2.27777c1.69556,2.6394 0.45313,6.10803 -0.81479,8.85107c-3.05396,6.41669 -12.96487,13.40546 -23.72977,13.40546c0,0 0,0 -0.01321,0c-1.50082,0 -2.97604,-0.10364 -4.38614,-0.41461l0,13.76593c0,3.15759 4.38614,10.76501 17.6745,10.76501s16.76923,-15.67993 16.76923,-18.37231l0,-19.14948c9.45792,-4.97015 19.12332,-7.66028 23.75583,-16.51129c4.35965,-8.33289 0.21994,-9.67792 -3.83047,-5.17529zm-29.72055,20.02838c3.37695,-7.19287 -0.21997,-7.19287 -6.52145,-1.8103s-15.53943,0.46521 -18.69653,-2.48511c-3.14429,-2.89746 -6.30136,-5.12231 -11.92963,-4.91504c-5.62827,0.20502 -18.9039,-0.6748 -26.56342,-2.48505c-7.65971,-1.81256 -20.75398,-12.73193 -21.84108,-9.88513c-1.12567,2.89728 0.89305,4.91724 4.95583,9.88513c4.04951,4.96796 21.5173,11.79907 21.5173,11.79907s0,14.59613 0,20.7041c0,6.05499 12.60248,15.32062 19.12387,15.32062s11.4892,-4.50275 11.4892,-7.66034l0,-19.15173c10.80438,5.6438 25.08899,-2.12115 28.46591,-9.31622zm-6.77985,-16.04395c7.38788,0 13.39206,-6.00195 13.39206,-13.4043c0,-7.40009 -6.00418,-13.40442 -13.39206,-13.40442s-13.39157,6.00433 -13.39157,13.40442c0,7.40234 6.0036,13.4043 13.39157,13.4043zm-35.28439,0c7.38782,0 13.39154,-6.00195 13.39154,-13.4043c0,-7.40009 -6.00372,-13.40442 -13.39154,-13.40442c-7.40149,0 -13.39192,6.00433 -13.39192,13.40442c0,7.40234 5.99043,13.4043 13.39192,13.4043z" stroke-linecap="round" stroke-linejoin="round" stroke-dasharray="null" stroke-width="0" fill="#000000"/>
  </a>
  <a xlink:href="play.svg?frame=0" id="svg_22">
  <title>check out our projects!</title>
   <g id="svg_21">
    <g id="svg_5">
     <g filter="url(#svg_1_blur)" id="svg_1" opacity="0.55">
      <path stroke="#000000" id="svg_2" d="m884.17139,223.09665c0,0 -12.50372,-10.78772 -16.37714,-16.02087c-7.19342,-9.71912 -15.61591,-23.24042 -19.22546,-34.53514c-4.12183,-12.89806 -6.08673,-31.36365 -4.98438,-44.85931c1.02954,-12.60482 4.59052,-29.92567 11.39282,-40.58709c7.41522,-11.62205 22.70148,-23.46572 34.89056,-29.9062c12.32452,-6.51206 30.961,-11.04025 44.8595,-12.10492c13.50098,-1.03423 31.75055,1.59169 44.85938,4.98437c15.0166,3.88655 35.03711,11.52052 46.99487,21.36157c28.84863,25.20751 28.54565,58.07372 30.61938,93.27891c2.06116,8.36079 9.15088,17.97545 14.24036,24.92165c2.23303,3.04936 6.85852,5.8746 8.54468,9.2567c1.0658,2.13722 2.3374,5.62646 1.42395,7.83278c-1.29272,3.1199 -6.31165,4.75383 -9.25684,6.40895c-1.83411,1.03053 -5.37842,1.01363 -6.40735,2.84776c-2.42639,4.32104 4.01782,11.3291 1.06714,15.30894c-1.54785,2.08789 -7.47595,2.49252 -7.47595,2.49252c0,0 7.33081,9.29335 4.27161,9.2567c-1.70593,-0.02116 -6.88135,8.62651 -5.69568,11.3925c0,0 3.50476,8.32063 3.55981,12.10448c0.06055,4.19699 -0.66541,10.4903 -3.55981,13.52985c-2.93652,3.08176 -9.42017,3.16214 -13.52979,4.27164c-6.55273,1.77209 -74.87659,2.82242 -88.29425,-17.44476c-13.4176,-20.2672 -27.26569,-23.0304 -71.91742,-43.79102l0,0l0,0z" stroke-miterlimit="4" stroke-width="2" fill-rule="evenodd" fill="#000000"/>
      <path stroke="#000000" id="svg_3" d="m930.09875,209.21161c0,0 -5.19971,3.90794 -7.83252,4.62834c-2.36957,0.64711 -5.90192,0.89804 -8.18866,0c-1.89923,-0.74577 -4.98425,-4.62834 -4.98425,-4.62834c-20.51025,5.05272 -30.43835,-12.35539 -31.6864,-22.78647c0,0 -7.17914,-1.80453 -10.32471,-2.13583c-8.89728,-0.93736 -13.47241,-23.57486 -13.52905,-24.9218c-1.67816,-39.93177 3.84912,-59.64661 30.97437,-85.80234c11.80389,-11.38198 29.58405,-17.28773 56.2522,-18.1573c16.82092,-0.54847 30.90503,0.19407 42.36755,6.05239c0,0 23.47736,9.80553 32.04181,16.37728c8.21912,6.30672 17.0979,16.61751 23.14172,25.63383c8.17542,17.8384 4.95557,45.01668 -14.24023,48.06364l-22.42981,3.56029c-6.36243,1.08626 8.48401,13.00238 -8.90149,23.49771c-14.40863,14.53004 -31.36731,1.53218 -32.75415,2.84822c0,0 -6.177,8.72125 -8.1886,12.8167c-1.95129,3.97281 -3.8902,9.59648 -4.9845,13.88506c-0.85516,3.35251 1.224,9.67822 -1.78009,11.39253c-7.2746,4.15466 -14.95319,1.41403 -14.95319,-0.35526l0,-9.96866l0,0z" stroke-miterlimit="4" stroke-width="2" fill-rule="evenodd" fill="#000000"/>
     </g>
     <g id="svg_4">
      <path stroke="#6a3900" d="m879.36597,218.34923c0,0 -12.50378,-10.7877 -16.37726,-16.02083c-7.19342,-9.71901 -15.61584,-23.24048 -19.22534,-34.53513c-4.12189,-12.8981 -6.08673,-31.36354 -4.98444,-44.85937c1.02954,-12.60469 4.59052,-29.92564 11.39294,-40.58707c7.41504,-11.62196 22.70142,-23.46578 34.89044,-29.90614c12.32458,-6.5121 30.96118,-11.04032 44.85962,-12.10497c13.50092,-1.03424 31.75037,1.59169 44.85931,4.98436c15.01648,3.88657 35.03705,11.52052 46.99493,21.36155c28.84869,25.20748 28.54559,58.0738 30.6192,93.27901c2.06128,8.36067 9.15112,17.9753 14.24048,24.92159c2.23303,3.04932 6.85864,5.87465 8.54468,9.25662c1.06592,2.13736 2.3374,5.62663 1.42383,7.83287c-1.29272,3.11978 -6.31165,4.75391 -9.25671,6.40886c-1.83398,1.03049 -5.37817,1.01367 -6.40747,2.84775c-2.42603,4.32117 4.01794,11.32912 1.06714,15.30907c-1.54785,2.08797 -7.47595,2.49243 -7.47595,2.49243c0,0 7.33069,9.29347 4.27136,9.25662c-1.70557,-0.0211 -6.88098,8.62657 -5.69543,11.39265c0,0 3.50488,8.32059 3.55994,12.10437c0.06055,4.19702 -0.66541,10.4903 -3.55994,13.52972c-2.93652,3.08191 -9.42017,3.16226 -13.52966,4.27179c-6.55273,1.77213 -74.87653,2.82239 -88.29449,-17.44485c-13.41724,-20.26695 -27.2655,-23.03035 -71.91718,-43.79091l0,0l0,0l0,0l0,0z" id="path2396" stroke-miterlimit="4" stroke-width="10" fill-rule="evenodd" fill="#ffd199"/>
      <path stroke="#454a4b" d="m925.29321,204.46413c0,0 -5.19946,3.90816 -7.83234,4.62845c-2.36963,0.64714 -5.90216,0.89809 -8.18878,0c-1.89917,-0.74591 -4.98431,-4.62845 -4.98431,-4.62845c-20.51013,5.05293 -30.43817,-12.35532 -31.68628,-22.78633c0,0 -7.17908,-1.80444 -10.32477,-2.13574c-8.89728,-0.93761 -13.47229,-23.575 -13.52887,-24.92184c-1.67834,-39.93192 3.84888,-59.64679 30.97424,-85.80255c11.80377,-11.38197 29.58392,-17.28759 56.25201,-18.15719c16.82092,-0.54846 30.90521,0.19406 42.36774,6.05227c0,0 23.47729,9.80578 32.04187,16.37749c8.21893,6.30662 17.09772,16.61749 23.14166,25.63384c8.17554,17.83835 4.95544,45.01661 -14.24036,48.06351l-22.42969,3.56032c-6.36243,1.08629 8.48413,13.00246 -8.90155,23.49782c-14.40857,14.53006 -31.36725,1.53214 -32.75415,2.84804c0,0 -6.17688,8.72134 -8.18848,12.81691c-1.95129,3.97276 -3.89032,9.59648 -4.98462,13.88506c-0.8551,3.35233 1.22406,9.67818 -1.78015,11.39236c-7.2746,4.15457 -14.95319,1.41414 -14.95319,-0.35532l0,-9.96864l0,0z" id="path3168" stroke-miterlimit="4" stroke-width="10" fill-rule="evenodd" fill="#919899"/>
     </g>
    </g>
    <g id="svg_20">
     <text xml:space="preserve" text-anchor="middle" font-family="Sans-serif" font-size="111" id="svg_6" y="409.13046" x="962.17284" stroke-width="0" stroke="#000000" fill="#000000">we are recruiting !</text>
     <text xml:space="preserve" text-anchor="middle" font-family="Sans-serif" font-size="63" id="svg_9" y="800.43483" x="1132.17389" stroke-width="0" stroke="#000000" fill="#000000">to become founding members</text>
     <g id="svg_15">
      <g id="svg_13">
       <text xml:space="preserve" text-anchor="middle" font-family="Sans-serif" font-size="92" id="svg_7" y="548.26091" x="1072.36124" stroke-width="0" stroke="#000000" fill="#000000">volunteers</text>
       <circle stroke="#000000" stroke-linecap="round" stroke-linejoin="round" id="svg_10" r="23.30334" cy="517.08595" cx="797.90474" stroke-width="0" fill="#428bca"/>
      </g>
      <g id="svg_14">
       <text xml:space="preserve" text-anchor="middle" font-family="Sans-serif" font-size="92" id="svg_8" y="698.26091" x="1176.70568" stroke-width="0" stroke="#000000" fill="#000000">worthy partners</text>
       <circle id="svg_11" stroke="#000000" stroke-linecap="round" stroke-linejoin="round" r="23.30334" cy="667.08591" cx="797.90471" stroke-width="0" fill="#428bca"/>
      </g>
     </g>
    </g>
   </g>
  </a>
 </g>
</svg>