<?xml version="1.0"?>
<svg width="1920" height="1080" xmlns="http://www.w3.org/2000/svg" xmlns:xlink="http://www.w3.org/1999/xlink">
 <!-- Created with SVG-edit - http://svg-edit.googlecode.com/ -->
 <g>
  <title>subject</title>
  <path stroke="#007fff" id="svg_19" fill="#428bca" d="m367.59998,908.51251l6.16364,0l0,-74.83704c0,-22.21802 19.34668,-40.29498 43.1236,-40.29498l104.71643,0l49.27637,0l0,46.052l-49.27637,0l-98.5636,0l0,69.08002l6.16357,0c10.16565,0 18.47998,7.77197 18.47998,17.27002l0,57.56696c0,9.49792 -8.31433,17.27002 -18.47998,17.27002l-61.60364,0c-10.15485,0 -18.47998,-7.77209 -18.47998,-17.27002l0,-57.56696c0,-9.49805 8.32513,-17.27002 18.47998,-17.27002zm6.16364,69.08099l49.27643,0l0,-46.05402l-49.27643,0l0,46.05402z"/>
  <path id="svg_4" d="m1879.25,741.13397c0,-147.79395 -102.12,-271.67697 -239.57996,-305.13498c-5.85999,-231.70699 -195.3501,-417.79748 -428.45007,-417.79748c-136.54993,0 -258.09796,63.8994 -336.61499,163.35451c-44.02795,-56.89099 -112.92798,-93.552 -190.41901,-93.552c-132.95099,0 -240.73099,107.79901 -240.73099,240.75603c0,11.586 0.86401,22.96899 2.45901,34.12396c-20.21799,-3.64401 -41.013,-5.65201 -62.27499,-5.65201c-192.73701,-0.005 -348.97422,156.25201 -348.97422,348.99402c0,192.75098 156.23719,349.00397 348.96921,349.00397l1182.14603,-0.03003c173.18994,-0.32996 313.46997,-140.80396 313.46997,-314.06598z" stroke-width="15" fill="#000000" fill-opacity="0" stroke="#428bca"/>
  <path fill="#428bca" d="m1413.52002,655.09302l-5.76001,0l0,-74.83704c0,-22.21802 -18.07996,-40.29498 -40.30005,-40.29498l-97.85999,0l-46.04993,0l0,46.052l46.04993,0l92.10999,0l0,69.08002l-5.76001,0c-9.5,0 -17.2699,7.77197 -17.2699,17.27002l0,57.56696c0,9.49799 7.7699,17.27002 17.2699,17.27002l57.57007,0c9.48999,0 17.27002,-7.77203 17.27002,-17.27002l0,-57.56696c0,-9.49805 -7.78003,-17.27002 -17.27002,-17.27002zm-5.76001,69.08099l-46.05005,0l0,-46.05402l46.05005,0l0,46.05402z" stroke="#007fff" id="svg_10"/>
  <path fill="#428bca" d="m1409.49121,908.32965l-5.75659,0l0,-74.83691c0,-22.21814 -18.07739,-40.29572 -40.29553,-40.29572l-97.86316,0l0,-46.0542l5.75647,0c9.49829,0 17.26965,-7.77155 17.26965,-17.26965l0,-57.56726c0,-9.49799 -7.77136,-17.26959 -17.26965,-17.26959l-57.56726,0c-9.49792,0 -17.26953,7.77161 -17.26953,17.26959l0,57.56726c0,9.49811 7.77161,17.26965 17.26953,17.26965l5.75659,0l0,46.0542l0,46.05225l0,69.08038l-5.75659,0c-9.49792,0 -17.26953,7.77155 -17.26953,17.26965l0,57.56726c0,9.49799 7.77161,17.26959 17.26953,17.26959l57.56726,0c9.49829,0 17.26965,-7.77161 17.26965,-17.26959l0,-57.56726c0,-9.49811 -7.77136,-17.26965 -17.26965,-17.26965l-5.75647,0l0,-69.08038l92.10657,0l0,69.08038l-5.75854,0c-9.49805,0 -17.26965,7.77155 -17.26965,17.26965l0,57.56726c0,9.49799 7.77161,17.26959 17.26965,17.26959l57.56726,0c9.49805,0 17.26965,-7.77161 17.26965,-17.26959l0,-57.56726c0,-9.49811 -7.77161,-17.26965 -17.26965,-17.26965zm-143.91528,69.08032l-46.0542,0l0,-46.05414l46.0542,0l0,46.05414zm-46.0542,-253.29333l0,-46.05414l46.0542,0l0,46.05414l-46.0542,0zm184.21289,253.29333l-46.05212,0l0,-46.05414l46.05212,0l0,46.05414z" id="svg_17" stroke="#007fff"/>
  <path id="svg_32" d="m805.60449,421.92941l0,48.2894l46.38074,0l1.03064,-49.38684" stroke-linecap="null" stroke-linejoin="null" stroke-dasharray="null" stroke-width="0" fill="#ffd4aa" stroke="#007fff"/>
  <path fill="#428bca" d="m1133.79614,401.29254l-5.75659,0l0,-74.83493c0,-22.22015 -18.07751,-40.29773 -40.29761,-40.29773l-97.86316,0l0,-46.05228l5.75653,0c9.49994,0 17.27155,-7.77145 17.27155,-17.27148l0,-57.56538c0,-9.49806 -7.77161,-17.26967 -17.27155,-17.26967l-57.56537,0c-9.50012,0 -17.26965,7.77161 -17.26965,17.26967l0,57.56538c0,9.50003 7.76953,17.27148 17.26965,17.27148l5.75647,0l0,46.05228l-97.86292,0c-22.22021,0 -40.29773,18.07758 -40.29773,40.29773l0,74.83493l-5.75647,0c-9.49817,0 -17.26965,7.77158 -17.26965,17.27155l0,57.56537c0,9.49805 7.77148,17.26956 17.26965,17.26956l57.56726,0c9.49811,0 17.26953,-7.77151 17.26953,-17.26956l0,-57.56537c0,-9.49997 -7.77142,-17.27155 -17.26953,-17.27155l-5.75659,0l0,-69.0784l92.10645,0l0,69.0784l-5.75647,0c-9.50012,0 -17.26965,7.77158 -17.26965,17.27155l0,57.56537c0,9.49805 7.76953,17.26956 17.26965,17.26956l57.56537,0c9.49994,0 17.27155,-7.77151 17.27155,-17.26956l0,-57.56537c0,-9.49997 -7.77161,-17.27155 -17.27155,-17.27155l-5.75653,0l0,-69.0784l92.10657,0l0,69.0784l-5.75647,0c-9.49817,0 -17.26953,7.77158 -17.26953,17.27155l0,57.56537c0,9.49805 7.77136,17.26956 17.26953,17.26956l57.56726,0c9.49805,0 17.26953,-7.77151 17.26953,-17.26956l0,-57.56537c0,-9.49997 -7.77148,-17.27155 -17.26953,-17.27155l0,0zm-282.07617,69.08038l-46.0542,0l0,-46.05234l46.0542,0l0,46.05234zm138.15881,0l-46.05237,0l0,-46.05234l46.05237,0l0,46.05234zm-46.05237,-253.29335l0,-46.05229l46.05237,0l0,46.05229l-46.05237,0zm184.21313,253.29335l-46.0542,0l0,-46.05234l46.0542,0l0,46.05234z" id="svg_12" stroke="#007fff"/>
  <path fill="#428bca" d="m1135.03076,906.97052l-5.75647,0l0,-74.8349c0,-22.22009 -18.07764,-40.29773 -40.29773,-40.29773l-97.86316,0l0,-46.05231l5.75659,0c9.49994,0 17.27155,-7.77148 17.27155,-17.27148l0,-57.56537c0,-9.49799 -7.77161,-17.26959 -17.27155,-17.26959l-57.56543,0c-9.5,0 -17.26953,7.77161 -17.26953,17.26959l0,57.56537c0,9.5 7.76953,17.27148 17.26953,17.27148l5.75653,0l0,46.05231l-97.86298,0c-22.22009,0 -40.29773,18.07764 -40.29773,40.29773l0,74.8349l-5.75647,0c-9.49817,0 -17.26953,7.77161 -17.26953,17.27161l0,57.56537c0,9.49799 7.77136,17.26953 17.26953,17.26953l57.56726,0c9.49817,0 17.26965,-7.77155 17.26965,-17.26953l0,-57.56537c0,-9.5 -7.77148,-17.27161 -17.26965,-17.27161l-5.75647,0l0,-69.07837l92.10638,0l0,69.07837l-5.75653,0c-9.5,0 -17.26953,7.77161 -17.26953,17.27161l0,57.56537c0,9.49799 7.76953,17.26953 17.26953,17.26953l57.56543,0c9.49994,0 17.27155,-7.77155 17.27155,-17.26953l0,-57.56537c0,-9.5 -7.77161,-17.27161 -17.27155,-17.27161l-5.75659,0l0,-69.07837l92.10669,0l0,69.07837l-5.75659,0c-9.49805,0 -17.26953,7.77161 -17.26953,17.27161l0,57.56537c0,9.49799 7.77148,17.26953 17.26953,17.26953l57.56726,0c9.49817,0 17.26965,-7.77155 17.26965,-17.26953l0,-57.56537c0,-9.5 -7.77148,-17.27161 -17.26965,-17.27161l0,0zm-282.07605,69.08038l-46.05432,0l0,-46.05225l46.05432,0l0,46.05225zm138.15869,0l-46.05231,0l0,-46.05225l46.05231,0l0,46.05225zm-46.05231,-253.29333l0,-46.05231l46.05231,0l0,46.05231l-46.05231,0zm184.2132,253.29333l-46.0542,0l0,-46.05225l46.0542,0l0,46.05225z" id="svg_13" stroke="#007fff"/>
  <path fill="#428bca" d="m996.74744,654.15277l-5.75659,0l0,-74.8349c0,-22.22021 -18.07739,-40.29761 -40.29761,-40.29761l-97.86298,0l0,-46.05191l5.75647,0c9.50012,0 17.27155,-7.77155 17.27155,-17.27155l0,-57.56537c0,-9.49805 -7.77142,-17.26959 -17.27155,-17.26959l-57.56525,0c-9.50012,0 -17.26965,7.77155 -17.26965,17.26959l0,57.56537c0,9.5 7.76953,17.27155 17.26965,17.27155l5.75647,0l0,46.05191l-97.86304,0c-22.22009,0 -40.29761,18.07739 -40.29761,40.29761l0,74.8349l-5.75659,0c-9.49805,0 -17.26965,7.77148 -17.26965,17.27148l0,57.56537c0,9.49811 7.77161,17.26959 17.26965,17.26959l57.56726,0c9.49805,0 17.26965,-7.77148 17.26965,-17.26959l0,-57.56537c0,-9.5 -7.77161,-17.27148 -17.26965,-17.27148l-5.75659,0l0,-69.07837l92.10657,0l0,69.07837l-5.75647,0c-9.50012,0 -17.26965,7.77148 -17.26965,17.27148l0,57.56537c0,9.49811 7.76953,17.26959 17.26965,17.26959l57.56525,0c9.50012,0 17.27155,-7.77148 17.27155,-17.26959l0,-57.56537c0,-9.5 -7.77142,-17.27148 -17.27155,-17.27148l-5.75647,0l0,-69.07837l92.10645,0l0,69.07837l-5.75653,0c-9.49805,0 -17.26953,7.77148 -17.26953,17.27148l0,57.56537c0,9.49811 7.77148,17.26959 17.26953,17.26959l57.56726,0c9.49817,0 17.26971,-7.77148 17.26971,-17.26959l0,-57.56537c0,-9.5 -7.77155,-17.27148 -17.26971,-17.27148l0,0zm-282.07605,69.08032l-46.05408,0l0,-46.05231l46.05408,0l0,46.05231zm138.15887,0l-46.05231,0l0,-46.05231l46.05231,0l0,46.05231zm-46.05231,-253.29282l0,-46.05228l46.05231,0l0,46.05228l-46.05231,0zm184.21289,253.29282l-46.05414,0l0,-46.05231l46.05414,0l0,46.05231z" id="svg_14" stroke="#007fff"/>
  <path id="svg_31" d="m943.8877,421.92941l0,48.2894l46.38074,0l1.03064,-49.38684" stroke-linecap="null" stroke-linejoin="null" stroke-dasharray="null" stroke-width="0" fill="#7cadd6" stroke="#007fff"/>
  <path id="svg_34" d="m1081.18335,423.90491l0,48.2894l46.38074,0l1.03064,-49.3869" stroke-linecap="null" stroke-linejoin="null" stroke-dasharray="null" stroke-width="0" fill="#b2b2b2" stroke="#007fff"/>
  <path id="svg_36" d="m668.30908,677.75287l0,48.28937l46.38068,0l1.03058,-49.38684" stroke-linecap="null" stroke-linejoin="null" stroke-dasharray="null" stroke-width="0" fill="#c69465" stroke="#007fff"/>
  <path id="svg_37" d="m806.10449,675.7774l0,48.28937l46.38074,0l1.03064,-49.38684" stroke-linecap="null" stroke-linejoin="null" stroke-dasharray="null" stroke-width="0" fill="#b2b2b2" stroke="#007fff"/>
  <path id="svg_38" d="m944.86322,677.25287l0,48.28937l46.3808,0l1.03052,-49.38684" stroke-linecap="null" stroke-linejoin="null" stroke-dasharray="null" stroke-width="0" fill="#7f7f7f" stroke="#007fff"/>
  <path id="svg_40" d="m806.60449,930.58899l0,48.28943l46.38074,0l1.03064,-49.38684" stroke-linecap="null" stroke-linejoin="null" stroke-dasharray="null" stroke-width="0" fill="#d18383" stroke="#007fff"/>
  <path id="svg_41" d="m943.8877,930.10126l0,48.28943l46.38074,0l1.03064,-49.38684" stroke-linecap="null" stroke-linejoin="null" stroke-dasharray="null" stroke-width="0" fill="#ffd4aa" stroke="#007fff"/>
  <path id="svg_42" d="m1082.17114,930.10126l0,48.28943l46.38062,0l1.03064,-49.38684" stroke-linecap="null" stroke-linejoin="null" stroke-dasharray="null" stroke-width="0" fill="#8db7a1" stroke="#007fff"/>
  <path fill="#428bca" d="m1271.62231,655.01801l-5.75659,0l0,-74.83691c0,-22.21814 -18.07751,-40.29559 -40.29761,-40.29559l-97.86304,0l0,-46.05383l5.75647,0c9.5,0 17.27161,-7.77158 17.27161,-17.26956l0,-57.56729c0,-9.49805 -7.77161,-17.26965 -17.27161,-17.26965l-57.56531,0c-9.50012,0 -17.26953,7.77161 -17.26953,17.26965l0,57.56729c0,9.49802 7.76941,17.26956 17.26953,17.26956l5.75659,0l0,46.05383l0,46.05212l0,69.08038l-5.75659,0c-9.50012,0 -17.26953,7.77148 -17.26953,17.26959l0,57.56726c0,9.49811 7.76941,17.26959 17.26953,17.26959l57.56531,0c9.5,0 17.27161,-7.77148 17.27161,-17.26959l0,-57.56726c0,-9.49811 -7.77161,-17.26959 -17.27161,-17.26959l-5.75647,0l0,-69.08038l92.10645,0l0,69.08038l-5.75647,0c-9.49829,0 -17.26965,7.77148 -17.26965,17.26959l0,57.56726c0,9.49811 7.77136,17.26959 17.26965,17.26959l57.56726,0c9.49805,0 17.26953,-7.77148 17.26953,-17.26959l0,-57.56726c0,-9.49811 -7.77148,-17.26959 -17.26953,-17.26959zm-143.91724,69.08032l-46.05225,0l0,-46.0542l46.05225,0l0,46.0542zm-46.05225,-253.29279l0,-46.05423l46.05225,0l0,46.05423l-46.05225,0zm184.21289,253.29279l-46.0542,0l0,-46.0542l46.0542,0l0,46.0542z" id="svg_16" stroke="#007fff"/>
  <path id="svg_15" fill="#428bca" d="m1553.5022,908.51251l-5.76001,0l0,-74.83704c0,-22.21802 -18.07996,-40.29498 -40.30005,-40.29498l-97.85999,0l-46.04993,0l0,46.052l46.04993,0l92.10999,0l0,69.08002l-5.76001,0c-9.5,0 -17.2699,7.77197 -17.2699,17.27002l0,57.56696c0,9.49799 7.7699,17.27002 17.2699,17.27002l57.57007,0c9.48987,0 17.27002,-7.77203 17.27002,-17.27002l0,-57.56696c0,-9.49805 -7.78015,-17.27002 -17.27002,-17.27002zm-5.76001,69.08099l-46.05005,0l0,-46.05402l46.05005,0l0,46.05402z" stroke="#007fff"/>
  <path fill="#428bca" d="m516.37964,907.80511l6.04675,0l0,-74.83691c0,-22.21814 18.98834,-40.29565 42.32849,-40.29565l102.79578,0l0,-46.05426l-6.04688,0c-9.97809,0 -18.14087,-7.77155 -18.14087,-17.26965l0,-57.5672c0,-9.49805 8.16278,-17.26965 18.14087,-17.26965l60.46729,0c9.97815,0 18.14075,7.77161 18.14075,17.26965l0,57.5672c0,9.49811 -8.1626,17.26965 -18.14075,17.26965l-6.04694,0l0,46.05426l0,46.05219l0,69.08038l6.04694,0c9.97815,0 18.14075,7.77155 18.14075,17.26965l0,57.56726c0,9.49799 -8.1626,17.26959 -18.14075,17.26959l-60.46729,0c-9.97809,0 -18.14087,-7.77161 -18.14087,-17.26959l0,-57.56726c0,-9.49811 8.16278,-17.26965 18.14087,-17.26965l6.04688,0l0,-69.08038l-96.75079,0l0,69.08038l6.04694,0c9.97815,0 18.14075,7.77155 18.14075,17.26965l0,57.56726c0,9.49799 -8.1626,17.26959 -18.14075,17.26959l-60.46716,0c-9.97726,0 -18.1405,-7.77161 -18.1405,-17.26959l0,-57.56726c0,-9.49811 8.16324,-17.26965 18.1405,-17.26965l0,0zm151.17102,69.08038l48.37347,0l0,-46.0542l-48.37347,0l0,46.0542zm48.37347,-253.2934l0,-46.05414l-48.37347,0l0,46.05414l48.37347,0zm-193.49774,253.2934l48.37347,0l0,-46.0542l-48.37347,0l0,46.0542z" id="svg_18" stroke="#007fff"/>
 </g>
</svg>