<?xml version="1.0"?>
<svg width="1920" height="1080" xmlns="http://www.w3.org/2000/svg" xmlns:xlink="http://www.w3.org/1999/xlink">
 <!-- Created with SVG-edit - http://svg-edit.googlecode.com/ -->
 <g>
  <title>subject</title>
  <g id="svg_14">
   <path stroke="#007fff" id="svg_7" fill="#ffd4aa" stroke-width="0" stroke-dasharray="null" stroke-linejoin="null" stroke-linecap="null" d="m1367.73462,368.39938l0,52.34998l50.28882,0l1.11658,-53.53909"/>
   <path stroke="#007fff" id="svg_11" fill="#8db7a1" stroke-width="0" stroke-dasharray="null" stroke-linejoin="null" stroke-linecap="null" d="m1367.73462,515.45404l0,52.34882l50.28882,0l1.11658,-53.53906"/>
   <path stroke="#007fff" id="svg_12" fill="#b2b2b2" stroke-width="0" stroke-dasharray="null" stroke-linejoin="null" stroke-linecap="null" d="m1367.73462,656.79651l0,52.34998l50.28882,0l1.11658,-53.53906"/>
   <g id="svg_13">
    <path stroke="#007fff" fill="#d18383" stroke-width="0" stroke-dasharray="null" stroke-linejoin="null" stroke-linecap="null" d="m760.99719,514.46594l0,52.34991l50.27881,0l1.11761,-53.53906" id="svg_28"/>
    <path stroke="#007fff" id="svg_6" fill="#ffd4aa" stroke-width="0" stroke-dasharray="null" stroke-linejoin="null" stroke-linecap="null" d="m493.97729,369.82745l0,52.34885l50.27991,0l1.11768,-53.53906"/>
    <path stroke="#007fff" id="svg_8" fill="#8db7a1" stroke-width="0" stroke-dasharray="null" stroke-linejoin="null" stroke-linecap="null" d="m495.40536,514.026l0,52.34998l50.27988,0l1.11768,-53.53906"/>
    <path stroke="#007fff" id="svg_9" fill="#b2b2b2" stroke-width="0" stroke-dasharray="null" stroke-linejoin="null" stroke-linecap="null" d="m495.40536,659.65259l0,52.34998l50.27988,0l1.11768,-53.53906"/>
    <path stroke="#007fff" fill="#428bca" d="m568.85681,714.77045l0,-6.02594l78.34515,0c23.2608,0 42.1861,-18.92529 42.1861,-42.18616l0,-102.45233l48.2132,0l0,6.02594c0,9.94391 8.13623,18.08014 18.08014,18.08014l60.26508,0c9.94385,0 18.08008,-8.13623 18.08008,-18.08014l0,-60.26508c0,-9.94385 -8.13623,-18.08008 -18.08008,-18.08008l-60.26508,0c-9.94391,0 -18.08014,8.13623 -18.08014,18.08008l0,6.02594l-48.2132,0l0,-102.4512c0,-23.26083 -18.92529,-42.18723 -42.1861,-42.18723l-78.34515,0l0,-6.02597c0,-9.94388 -8.13623,-18.07895 -18.08014,-18.07895l-60.26514,0c-9.94385,0 -18.08121,8.13507 -18.08121,18.07895l0,60.26624c0,9.94388 8.13736,18.07895 18.08121,18.07895l60.26514,0c9.94391,0 18.08014,-8.13507 18.08014,-18.07895l0,-6.02597l72.31921,0l0,96.42413l-72.31921,0l0,-6.02594c0,-9.94385 -8.13623,-18.08008 -18.08014,-18.08008l-60.26514,0c-9.94385,0 -18.08121,8.13623 -18.08121,18.08008l0,60.26508c0,9.94391 8.13736,18.08014 18.08121,18.08014l60.26514,0c9.94391,0 18.08014,-8.13623 18.08014,-18.08014l0,-6.02594l72.31921,0l0,96.42529l-72.31921,0l0,-6.02594c0,-9.94391 -8.13623,-18.08008 -18.08014,-18.08008l-60.26514,0c-9.94385,0 -18.08121,8.13617 -18.08121,18.08008l0,60.26508c0,9.94391 8.13736,18.08008 18.08121,18.08008l60.26514,0c9.94391,0 18.08014,-8.13617 18.08014,-18.08008zm-72.31931,-295.30176l0,-48.21207l48.21213,0l0,48.21207l-48.21213,0zm0,144.63733l0,-48.2132l48.21213,0l0,48.2132l-48.21213,0zm265.16983,-48.2132l48.21204,0l0,48.2132l-48.21204,0l0,-48.2132zm-265.16983,192.85168l0,-48.2132l48.21213,0l0,48.2132l-48.21213,0z" id="svg_1"/>
    <path stroke="#007fff" id="svg_2" fill="#428bca" d="m1344.89026,365.2251l0,6.02594l-78.34741,0c-23.25745,0 -42.18274,18.93088 -42.18274,42.18839l0,102.4523l-48.21216,0l0,-6.02484c0,-9.95056 -8.1394,-18.08899 -18.07666,-18.08899l-60.27185,0c-9.94385,0 -18.07898,8.13843 -18.07898,18.08899l0,60.26398c0,9.9361 8.13513,18.07452 18.07898,18.07452l60.27185,0c9.93726,0 18.07666,-8.13843 18.07666,-18.07452l0,-6.02484l48.21216,0l0,102.45233c0,23.25751 18.92529,42.18842 42.18274,42.18842l78.34741,0l0,6.02484c0,9.93713 8.13953,18.07556 18.07678,18.07556l60.27063,0c9.93726,0 18.07666,-8.13843 18.07666,-18.07556l0,-60.2774c0,-9.93719 -8.1394,-18.07452 -18.07666,-18.07452l-60.27063,0c-9.93726,0 -18.07678,8.13733 -18.07678,18.07452l0,6.03937l-72.31812,0l0,-96.42755l72.31812,0l0,6.02484c0,9.9361 8.13953,18.07452 18.07678,18.07452l60.27063,0c9.93726,0 18.07666,-8.13843 18.07666,-18.07452l0,-60.26398c0,-9.95056 -8.1394,-18.08899 -18.07666,-18.08899l-60.27063,0c-9.93726,0 -18.07678,8.13843 -18.07678,18.08899l0,6.02484l-72.31812,0l0,-96.42749l72.31812,0l0,6.02484c0,9.95169 8.13953,18.07449 18.07678,18.07449l60.27063,0c9.93726,0 18.07666,-8.1228 18.07666,-18.07449l0,-60.26398c0,-9.95059 -8.1394,-18.07452 -18.07666,-18.07452l-60.27063,0c-9.93726,0 -18.07678,8.12393 -18.07678,18.07452zm72.31812,295.30847l0,48.19867l-48.21204,0l0,-48.19867l48.21204,0zm0,-144.64185l0,48.21429l-48.21204,0l0,-48.21429l48.21204,0zm-265.16638,48.21429l-48.21216,0l0,-48.21429l48.21216,0l0,48.21429zm265.16638,-192.85498l0,48.2132l-48.21204,0l0,-48.2132l48.21204,0z"/>
    <path stroke="#007fff" id="svg_5" fill="#d18383" stroke-width="0" stroke-dasharray="null" stroke-linejoin="null" stroke-linecap="null" d="m1103.61328,512.59796l0,52.34998l50.28223,0l1.11646,-53.53909"/>
    <path stroke="#428bca" id="svg_4" d="m1190.29456,545.97235c0,-37.45868 -25.87024,-68.85681 -60.69495,-77.33585c-1.48499,-58.7276 -49.48718,-105.89236 -108.53632,-105.89236c-34.59149,0 -65.38,16.1965 -85.26886,41.40234c-11.15308,-14.41898 -28.60791,-23.70969 -48.23657,-23.70969c-33.68042,0 -60.98193,27.32053 -60.98193,61.01874c0,2.93649 0.21765,5.82166 0.62189,8.64871c-5.12048,-0.92337 -10.3894,-1.4314 -15.77448,-1.4314c-48.82507,-0.00226 -88.40179,39.60132 -88.40179,88.45209c0,48.85297 39.57672,88.45544 88.4007,88.45544l299.453,-0.00671c43.88,-0.08374 79.41931,-35.68787 79.41931,-79.60132z" stroke-width="15" fill="#000000" fill-opacity="0"/>
   </g>
  </g>
  <path stroke="#000000" id="svg_3" fill="#428bca" stroke-width="5" d="m260.99619,602.29718c-9.16791,-1.23602 -9.37671,-22.58868 -9.37671,-22.58868s26.94427,-22.59088 32.81284,-52.96741c15.79004,0 25.55081,-32.29581 9.75293,-43.65768c0.65652,-11.96033 20.29755,-93.8941 -79.14128,-93.8941c-99.44325,0 -79.80115,81.93378 -79.1424,93.8941c-15.79563,11.36188 -6.04158,43.65768 9.75296,43.65768c5.87076,30.37653 32.81056,52.96741 32.81056,52.96741s-0.20879,21.35266 -9.37668,22.58868c-29.5313,3.98047 -139.80899,45.18073 -139.80899,90.36023l371.52731,0c0,-45.1795 -110.2804,-86.37976 -139.81055,-90.36023z"/>
  <path stroke="#000000" id="svg_15" fill="#428bca" stroke-width="5" d="m1750.90784,599.67444c-9.16675,-1.23602 -9.37891,-22.58868 -9.37891,-22.58868s26.94202,-22.59088 32.81506,-52.96735c15.78784,0 25.54639,-32.29474 9.74731,-43.65665c0.65881,-11.96146 20.29871,-93.89407 -79.14014,-93.89407c-99.43872,0 -79.79895,81.93262 -79.14026,93.89407c-15.79883,11.36191 -6.04028,43.65665 9.75867,43.65665c5.86182,30.37646 32.80396,52.96735 32.80396,52.96735s-0.21228,21.35266 -9.37903,22.58868c-29.53247,3.98047 -139.80164,45.18073 -139.80164,90.36023l371.52771,0c0,-45.1795 -110.28027,-86.37976 -139.81274,-90.36023z"/>
 </g>
</svg>