<?xml version="1.0"?>
<svg width="1920" height="1080" xmlns="http://www.w3.org/2000/svg" xmlns:xlink="http://www.w3.org/1999/xlink">
 <!-- Created with SVG-edit - http://svg-edit.googlecode.com/ -->
 <defs>
  <marker id="se_marker_end_svg_8" markerUnits="strokeWidth" orient="auto" viewBox="0 0 100 100" markerWidth="5" markerHeight="5" refX="50" refY="50">
   <path id="svg_9" d="m0,50l100,40l-30,-40l30,-40l-100,40z" fill="#000000" stroke="#000000" stroke-width="10"/>
  </marker>
  <marker id="se_marker_end_svg_15" markerUnits="strokeWidth" orient="auto" viewBox="0 0 100 100" markerWidth="5" markerHeight="5" refX="50" refY="50">
   <path id="svg_10" d="m0,50l100,40l-30,-40l30,-40l-100,40z" fill="#000000" stroke="#000000" stroke-width="10"/>
  </marker>
  <marker id="se_marker_end_svg_19" markerUnits="strokeWidth" orient="auto" viewBox="0 0 100 100" markerWidth="5" markerHeight="5" refX="50" refY="50">
   <path id="svg_11" d="m0,50l100,40l-30,-40l30,-40l-100,40z" fill="#000000" stroke="#000000" stroke-width="10"/>
  </marker>
  <marker id="se_marker_end_svg_46" markerUnits="strokeWidth" orient="auto" viewBox="0 0 100 100" markerWidth="5" markerHeight="5" refX="50" refY="50">
   <path id="svg_20" d="m0,50l100,40l-30,-40l30,-40l-100,40z" fill="#000000" stroke="#000000" stroke-width="10"/>
  </marker>
  <marker id="se_marker_end_svg_47" markerUnits="strokeWidth" orient="auto" viewBox="0 0 100 100" markerWidth="5" markerHeight="5" refX="50" refY="50">
   <path id="svg_21" d="m0,50l100,40l-30,-40l30,-40l-100,40z" fill="#000000" stroke="#000000" stroke-width="10"/>
  </marker>
  <marker id="se_marker_end_svg_48" markerUnits="strokeWidth" orient="auto" viewBox="0 0 100 100" markerWidth="5" markerHeight="5" refX="50" refY="50">
   <path id="svg_22" d="m0,50l100,40l-30,-40l30,-40l-100,40z" fill="#000000" stroke="#000000" stroke-width="10"/>
  </marker>
  <marker id="se_marker_end_svg_49" markerUnits="strokeWidth" orient="auto" viewBox="0 0 100 100" markerWidth="5" markerHeight="5" refX="50" refY="50">
   <path id="svg_23" d="m0,50l100,40l-30,-40l30,-40l-100,40z" fill="#000000" stroke="#000000" stroke-width="10"/>
  </marker>
  <marker id="se_marker_end_svg_50" markerUnits="strokeWidth" orient="auto" viewBox="0 0 100 100" markerWidth="5" markerHeight="5" refX="50" refY="50">
   <path id="svg_24" d="m0,50l100,40l-30,-40l30,-40l-100,40z" fill="#000000" stroke="#000000" stroke-width="10"/>
  </marker>
  <marker id="se_marker_end_svg_51" markerUnits="strokeWidth" orient="auto" viewBox="0 0 100 100" markerWidth="5" markerHeight="5" refX="50" refY="50">
   <path id="svg_25" d="m0,50l100,40l-30,-40l30,-40l-100,40z" fill="#000000" stroke="#000000" stroke-width="10"/>
  </marker>
  <marker id="se_marker_end_svg_52" markerUnits="strokeWidth" orient="auto" viewBox="0 0 100 100" markerWidth="5" markerHeight="5" refX="50" refY="50">
   <path id="svg_26" d="m0,50l100,40l-30,-40l30,-40l-100,40z" fill="#000000" stroke="#000000" stroke-width="10"/>
  </marker>
 </defs>
 <g>
  <title>subject</title>
  <g id="svg_1">
   <path stroke="#428bca" id="svg_4" d="m1439.90002,578.75098c0,-76.90198 -53.14001,-141.36298 -124.66003,-158.77197c-3.05005,-120.565 -101.65002,-217.395 -222.93994,-217.395c-71.05005,0 -134.29602,33.24899 -175.15106,84.99901c-22.909,-29.60202 -58.76001,-48.67801 -99.08099,-48.67801c-69.17999,0 -125.26099,56.091 -125.26099,125.27399c0,6.02802 0.44897,11.95102 1.27899,17.75601c-10.52002,-1.897 -21.34003,-2.94101 -32.40399,-2.94101c-100.28699,-0.00299 -181.58301,81.30301 -181.58301,181.59299c0,100.29602 81.29602,181.60004 181.58099,181.60004l615.11005,-0.01599c90.12,-0.172 163.10999,-73.26501 163.10999,-163.42004z" stroke-width="15" fill="#000000" fill-opacity="0"/>
   <path stroke="#007fff" fill="#428bca" d="m1196.25,665.74902l-3,0l0,-38.94c0,-11.56104 -9.40002,-20.96704 -20.95996,-20.96704l-50.92004,0l0,-23.96399l2.98999,0c4.94006,0 8.98999,-4.04401 8.98999,-8.98596l0,-29.95404c0,-4.94202 -4.04993,-8.98596 -8.98999,-8.98596l-29.94995,0c-4.95007,0 -8.98999,4.04395 -8.98999,8.98596l0,29.95404c0,4.94196 4.03992,8.98596 8.98999,8.98596l2.98999,0l0,23.96399l0,23.96204l0,35.94501l-2.98999,0c-4.95007,0 -8.98999,4.04401 -8.98999,8.98596l0,29.95404c0,4.94299 4.03992,8.98596 8.98999,8.98596l29.94995,0c4.94006,0 8.98999,-4.04297 8.98999,-8.98596l0,-29.95404c0,-4.94196 -4.04993,-8.98596 -8.98999,-8.98596l-2.98999,0l0,-35.94501l47.92004,0l0,35.94501l-2.98999,0c-4.95007,0 -8.98999,4.04401 -8.98999,8.98596l0,29.95404c0,4.94299 4.03992,8.98596 8.98999,8.98596l29.94995,0c4.93994,0 8.98999,-4.04297 8.98999,-8.98596l0,-29.95404c0,-4.94196 -4.05005,-8.98596 -8.98999,-8.98596zm-74.88,35.94495l-23.96997,0l0,-23.96295l23.96997,0l0,23.96295zm-23.96997,-131.797l0,-23.96399l23.96997,0l0,23.96399l-23.96997,0zm95.84998,131.797l-23.95996,0l0,-23.96295l23.95996,0l0,23.96295z" id="svg_17"/>
   <path stroke="#007fff" id="svg_32" d="m882.026,412.65799l0,25.12701l24.13397,0l0.53601,-25.698" stroke-linecap="null" stroke-linejoin="null" stroke-dasharray="null" stroke-width="0" fill="#ffd4aa"/>
   <path stroke="#007fff" fill="#428bca" d="m1124.51001,533.94202l-2.98999,0l0,-38.94c0,-11.561 -9.41003,-20.96701 -20.96997,-20.96701l-50.92004,0l0,-23.96399l2.98999,0c4.94995,0 8.98999,-4.04401 8.98999,-8.98602l0,-29.95398c0,-4.94202 -4.04004,-8.98602 -8.98999,-8.98602l-29.95001,0c-4.94,0 -8.98999,4.04401 -8.98999,8.98602l0,29.95398c0,4.94202 4.04999,8.98602 8.98999,8.98602l2.99005,0l0,23.96399l0,23.96201l0,35.94501l-2.99005,0c-4.94,0 -8.98999,4.04401 -8.98999,8.98596l0,29.95404c0,4.94299 4.04999,8.98596 8.98999,8.98596l29.95001,0c4.94995,0 8.98999,-4.04297 8.98999,-8.98596l0,-29.95404c0,-4.94196 -4.04004,-8.98596 -8.98999,-8.98596l-2.98999,0l0,-35.94501l47.92004,0l0,35.94501l-2.98999,0c-4.94006,0 -8.99011,4.04401 -8.99011,8.98596l0,29.95404c0,4.94299 4.05005,8.98596 8.99011,8.98596l29.94995,0c4.93994,0 8.98999,-4.04297 8.98999,-8.98596l0,-29.95404c0,-4.94196 -4.05005,-8.98596 -8.98999,-8.98596zm-74.88,35.94501l-23.96997,0l0,-23.96301l23.96997,0l0,23.96301zm-23.96997,-131.79703l0,-23.96399l23.96997,0l0,23.96399l-23.96997,0zm95.85999,131.79703l-23.96997,0l0,-23.96301l23.96997,0l0,23.96301z" id="svg_16"/>
   <path stroke="#007fff" fill="#428bca" d="m731.53198,665.47601l3.14703,0l0,-38.94c0,-11.56104 9.88,-20.96704 22.02496,-20.96704l53.48804,0l0,-23.96399l-3.146,0c-5.19202,0 -9.44,-4.04401 -9.44,-8.98596l0,-29.95404c0,-4.94196 4.24799,-8.98596 9.44,-8.98596l31.46295,0c5.19202,0 9.43903,4.04401 9.43903,8.98596l0,29.95404c0,4.94196 -4.24701,8.98596 -9.43903,8.98596l-3.146,0l0,23.96399l0,23.96204l0,35.94501l3.146,0c5.19202,0 9.43903,4.04401 9.43903,8.98596l0,29.95502c0,4.94202 -4.24701,8.98499 -9.43903,8.98499l-31.46295,0c-5.19202,0 -9.44,-4.04297 -9.44,-8.98499l0,-29.95502c0,-4.94196 4.24799,-8.98596 9.44,-8.98596l3.146,0l0,-35.94501l-50.34302,0l0,35.94501l3.14697,0c5.19202,0 9.43903,4.04401 9.43903,8.98596l0,29.95502c0,4.94202 -4.24701,8.98499 -9.43903,8.98499l-31.46399,0c-5.19098,0 -9.43896,-4.04297 -9.43896,-8.98499l0,-29.95502c0,-4.94196 4.24799,-8.98596 9.43896,-8.98596l0,0zm78.66003,35.94501l25.17096,0l0,-23.96301l-25.17096,0l0,23.96301zm25.17096,-131.797l0,-23.96405l-25.17096,0l0,23.96405l25.17096,0zm-100.68396,131.797l25.16998,0l0,-23.96301l-25.16998,0l0,23.96301z" id="svg_18"/>
   <path stroke="#007fff" fill="#428bca" d="m1052.80005,401.92001l-3,0l0,-38.93903c0,-11.56198 -9.41003,-20.96899 -20.97009,-20.96899l-50.91895,0l0,-23.96201l2.995,0c4.94299,0 8.987,-4.04398 8.987,-8.987l0,-29.95398c0,-4.94202 -4.04401,-8.98602 -8.987,-8.98602l-29.953,0c-4.94299,0 -8.98602,4.04401 -8.98602,8.98602l0,29.95398c0,4.94302 4.04303,8.987 8.98602,8.987l2.995,0l0,23.96201l-50.92102,0c-11.56195,0 -20.96899,9.40701 -20.96899,20.96899l0,38.93903l-2.995,0c-4.94202,0 -8.98596,4.04398 -8.98596,8.987l0,29.95297c0,4.94202 4.04395,8.98602 8.98596,8.98602l29.95404,0c4.94196,0 8.98596,-4.04401 8.98596,-8.98602l0,-29.95297c0,-4.94302 -4.04401,-8.987 -8.98596,-8.987l-2.99506,0l0,-35.944l47.92603,0l0,35.944l-2.995,0c-4.94299,0 -8.98602,4.04398 -8.98602,8.987l0,29.95297c0,4.94202 4.04303,8.98602 8.98602,8.98602l29.953,0c4.94299,0 8.987,-4.04401 8.987,-8.98602l0,-29.95297c0,-4.94302 -4.04401,-8.987 -8.987,-8.987l-2.995,0l0,-35.944l47.92896,0l0,35.944l-2.99994,0c-4.94,0 -8.98004,4.04398 -8.98004,8.987l0,29.95297c0,4.94202 4.04004,8.98602 8.98004,8.98602l29.96002,0c4.93994,0 8.97998,-4.04401 8.97998,-8.98602l0,-29.95297c0,-4.94302 -4.04004,-8.987 -8.97998,-8.987l0,0zm-146.77808,35.94498l-23.96399,0l0,-23.96298l23.96399,0l0,23.96298zm71.88904,0l-23.96301,0l0,-23.96298l23.96301,0l0,23.96298zm-23.96301,-131.798l0,-23.96198l23.96301,0l0,23.96198l-23.96301,0zm95.85205,131.798l-23.96008,0l0,-23.96298l23.96008,0l0,23.96298z" id="svg_12"/>
   <path stroke="#007fff" fill="#428bca" d="m1053.43994,665.04199l-3,0l0,-38.93896c0,-11.56201 -9.3999,-20.96906 -20.96997,-20.96906l-50.91699,0l0,-23.96198l2.99603,0c4.94299,0 8.987,-4.04401 8.987,-8.987l0,-29.953c0,-4.94299 -4.04401,-8.98602 -8.987,-8.98602l-29.95404,0c-4.94299,0 -8.98596,4.04303 -8.98596,8.98602l0,29.953c0,4.94299 4.04297,8.987 8.98596,8.987l2.99506,0l0,23.96198l-50.92102,0c-11.56201,0 -20.96802,9.40704 -20.96802,20.96906l0,38.93896l-2.99597,0c-4.94202,0 -8.98602,4.04401 -8.98602,8.987l0,29.953c0,4.94202 4.04401,8.98602 8.98602,8.98602l29.95496,0c4.94202,0 8.98602,-4.04401 8.98602,-8.98602l0,-29.953c0,-4.94299 -4.04401,-8.987 -8.98602,-8.987l-2.99597,0l0,-35.94397l47.92603,0l0,35.94397l-2.99506,0c-4.94299,0 -8.98596,4.04401 -8.98596,8.987l0,29.953c0,4.94202 4.04297,8.98602 8.98596,8.98602l29.95404,0c4.94299,0 8.987,-4.04401 8.987,-8.98602l0,-29.953c0,-4.94299 -4.04401,-8.987 -8.987,-8.987l-2.99603,0l0,-35.94397l47.927,0l0,35.94397l-3,0c-4.94,0 -8.97998,4.04401 -8.97998,8.987l0,29.953c0,4.94202 4.03998,8.98602 8.97998,8.98602l29.95996,0c4.94006,0 8.9801,-4.04401 8.9801,-8.98602l0,-29.953c0,-4.94299 -4.04004,-8.987 -8.9801,-8.987l0,0zm-146.77594,35.94501l-23.96301,0l0,-23.96301l23.96301,0l0,23.96301zm71.88898,0l-23.96295,0l0,-23.96301l23.96295,0l0,23.96301zm-23.96295,-131.797l0,-23.96301l23.96295,0l0,23.96301l-23.96295,0zm95.84991,131.797l-23.95996,0l0,-23.96301l23.95996,0l0,23.96301z" id="svg_13"/>
   <path stroke="#007fff" fill="#428bca" d="m981.48499,533.492l-2.99597,0l0,-38.939c0,-11.56201 -9.40601,-20.96899 -20.96802,-20.96899l-50.92102,0l0,-23.96201l2.995,0c4.94305,0 8.987,-4.04401 8.987,-8.987l0,-29.953c0,-4.94202 -4.04395,-8.98599 -8.987,-8.98599l-29.95294,0c-4.94403,0 -8.98602,4.04398 -8.98602,8.98599l0,29.953c0,4.94299 4.04199,8.987 8.98602,8.987l2.995,0l0,23.96201l-50.922,0c-11.56104,0 -20.96802,9.40698 -20.96802,20.96899l0,38.939l-2.995,0c-4.94202,0 -8.98602,4.04401 -8.98602,8.987l0,29.953c0,4.94202 4.04401,8.98602 8.98602,8.98602l29.95398,0c4.94202,0 8.98602,-4.04401 8.98602,-8.98602l0,-29.953c0,-4.94299 -4.04401,-8.987 -8.98602,-8.987l-2.995,0l0,-35.944l47.92603,0l0,35.944l-2.995,0c-4.94403,0 -8.98602,4.04401 -8.98602,8.987l0,29.953c0,4.94202 4.04199,8.98602 8.98602,8.98602l29.95294,0c4.94305,0 8.987,-4.04401 8.987,-8.98602l0,-29.953c0,-4.94299 -4.04395,-8.987 -8.987,-8.987l-2.995,0l0,-35.944l47.92603,0l0,35.944l-2.99597,0c-4.94202,0 -8.98505,4.04401 -8.98505,8.987l0,29.953c0,4.94202 4.04303,8.98602 8.98505,8.98602l29.95496,0c4.94202,0 8.98602,-4.04401 8.98602,-8.98602l0,-29.953c0,-4.94299 -4.04401,-8.987 -8.98602,-8.987l0,0zm-146.77399,35.94501l-23.96399,0l0,-23.96301l23.96399,0l0,23.96301zm71.88898,0l-23.96295,0l0,-23.96301l23.96295,0l0,23.96301zm-23.96295,-131.797l0,-23.96301l23.96295,0l0,23.96301l-23.96295,0zm95.85199,131.797l-23.96301,0l0,-23.96301l23.96301,0l0,23.96301z" id="svg_14"/>
   <path stroke="#007fff" id="svg_31" d="m953.97998,412.65799l0,25.12701l24.133,0l0.53705,-25.698" stroke-linecap="null" stroke-linejoin="null" stroke-dasharray="null" stroke-width="0" fill="#7cadd6"/>
   <path stroke="#007fff" id="svg_34" d="m1025.42004,413.686l0,25.12698l24.13,0l0.53992,-25.698" stroke-linecap="null" stroke-linejoin="null" stroke-dasharray="null" stroke-width="0" fill="#b2b2b2"/>
   <path stroke="#007fff" id="svg_36" d="m810.58698,545.77197l0,25.12701l24.133,0l0.53601,-25.698" stroke-linecap="null" stroke-linejoin="null" stroke-dasharray="null" stroke-width="0" fill="#c69465"/>
   <path stroke="#007fff" id="svg_37" d="m882.28601,544.74402l0,25.12695l24.13397,0l0.53601,-25.698" stroke-linecap="null" stroke-linejoin="null" stroke-dasharray="null" stroke-width="0" fill="#b2b2b2"/>
   <path stroke="#007fff" id="svg_38" d="m954.48798,545.51202l0,25.12598l24.133,0l0.53601,-25.69702" stroke-linecap="null" stroke-linejoin="null" stroke-dasharray="null" stroke-width="0" fill="#7f7f7f"/>
   <path stroke="#007fff" id="svg_40" d="m882.547,677.33099l0,25.12701l24.133,0l0.53601,-25.698" stroke-linecap="null" stroke-linejoin="null" stroke-dasharray="null" stroke-width="0" fill="#d18383"/>
   <path stroke="#007fff" id="svg_41" d="m953.97998,677.078l0,25.12598l24.133,0l0.53705,-25.69696" stroke-linecap="null" stroke-linejoin="null" stroke-dasharray="null" stroke-width="0" fill="#ffd4aa"/>
   <path stroke="#007fff" id="svg_42" d="m1025.93005,677.078l0,25.12598l24.13989,0l0.53003,-25.69696" stroke-linecap="null" stroke-linejoin="null" stroke-dasharray="null" stroke-width="0" fill="#8db7a1"/>
  </g>
  <text stroke="#000000" stroke-opacity="0" xml:space="preserve" text-anchor="middle" font-family="serif" font-size="122" id="svg_1" y="941.7392" x="916.95649" stroke-linecap="null" stroke-linejoin="null" stroke-dasharray="null" stroke-width="0" fill="#000000">unique entity source</text>
  <path fill="#000000" stroke-width="3" stroke-dasharray="null" stroke-linejoin="round" stroke-linecap="round" fill-opacity="0" d="m1074.4043,306.16739l516.19141,138.66525l-516.19141,-138.66525z" id="svg_8" marker-end="url(#se_marker_end_svg_8)" transform="rotate(-24.0013 1332.5 375.5)" stroke="#000000"/>
  <path fill="#000000" stroke-width="3" stroke-dasharray="null" stroke-linejoin="round" stroke-linecap="round" fill-opacity="0" d="m1093.04602,425.21997l545.00757,157.18585l-545.00757,-157.18585z" marker-end="url(#se_marker_end_svg_19)" transform="rotate(-52.2952 1365.55 503.813)" id="svg_19" stroke="#000000"/>
  <path fill="#000000" stroke-width="3" stroke-dasharray="null" stroke-linejoin="round" stroke-linecap="round" fill-opacity="0" d="m1122.16846,374.06967l490.66309,131.86069l-490.66309,-131.86069z" marker-end="url(#se_marker_end_svg_15)" transform="rotate(-39.457 1367.5 440)" id="svg_15" stroke="#000000"/>
  <rect fill="#000000" stroke="#000000" stroke-width="7" stroke-dasharray="null" stroke-linejoin="null" stroke-linecap="null" x="1599.5652" y="291.73917" width="223.91305" height="108.69565" id="svg_5" fill-opacity="0" rx="29" ry="29"/>
  <path fill="#000000" stroke-width="3" stroke-dasharray="null" stroke-linejoin="round" stroke-linecap="round" fill-opacity="0" d="m561.56458,263.06204l358.78363,59.48401l-358.78363,-59.48401z" marker-end="url(#se_marker_end_svg_47)" transform="rotate(-146.077 740.956 292.804)" id="svg_47" stroke="#000000"/>
  <text fill="#000000" stroke="#000000" stroke-width="0" stroke-dasharray="null" stroke-linejoin="round" stroke-linecap="round" x="514.78219" y="132.4973" id="svg_53" font-size="63" font-family="serif" text-anchor="middle" xml:space="preserve">source 1</text>
  <rect fill="#000000" stroke-width="7" stroke-dasharray="null" stroke-linejoin="null" stroke-linecap="null" x="402.82606" y="58.04346" width="223.91305" height="108.69565" fill-opacity="0" rx="29" ry="29" id="svg_6" stroke="#000000"/>
  <path fill="#000000" stroke-width="3" stroke-dasharray="null" stroke-linejoin="round" stroke-linecap="round" fill-opacity="0" d="m362.89209,584.21588l362.8808,46.25293l-362.8808,-46.25293z" marker-end="url(#se_marker_end_svg_51)" transform="rotate(-167.134 544.332 607.342)" id="svg_51" stroke="#000000"/>
  <rect fill="#000000" stroke="#000000" stroke-width="7" stroke-dasharray="null" stroke-linejoin="null" stroke-linecap="null" x="144.60862" y="458.21739" width="223.91305" height="108.69565" fill-opacity="0" rx="29" ry="29" id="svg_7"/>
  <path fill="#000000" stroke-width="3" stroke-dasharray="null" stroke-linejoin="round" stroke-linecap="round" fill-opacity="0" d="m1150.53564,458.41803l504.92871,97.16339l-504.92871,-97.16339z" marker-end="url(#se_marker_end_svg_46)" transform="rotate(-52.2952 1403 507)" id="svg_46" stroke="#000000"/>
  <path fill="#000000" stroke-width="3" stroke-dasharray="null" stroke-linejoin="round" stroke-linecap="round" fill-opacity="0" d="m531.4696,290.77551l481.0625,119.44971l-481.0625,-119.44971z" marker-end="url(#se_marker_end_svg_48)" transform="rotate(-146.077 772.001 350.5)" id="svg_48" stroke="#000000"/>
  <path fill="#000000" stroke-width="3" stroke-dasharray="null" stroke-linejoin="round" stroke-linecap="round" fill-opacity="0" d="m530.01624,273.17404l417.96924,154.65262l-417.96924,-154.65262z" marker-end="url(#se_marker_end_svg_49)" transform="rotate(-146.077 739.001 350.5)" id="svg_49" stroke="#000000"/>
  <path fill="#000000" stroke-width="3" stroke-dasharray="null" stroke-linejoin="round" stroke-linecap="round" fill-opacity="0" d="m526.19122,254.07588l354.61896,194.84892l-354.61896,-194.84892z" marker-end="url(#se_marker_end_svg_50)" transform="rotate(-146.077 703.501 351.5)" id="svg_50" stroke="#000000"/>
  <path fill="#000000" stroke-width="3" stroke-dasharray="null" stroke-linejoin="round" stroke-linecap="round" fill-opacity="0" d="m359.85291,590.41748l442.29254,30.16626l-442.29254,-30.16626z" marker-end="url(#se_marker_end_svg_52)" transform="rotate(-167.134 580.999 605.501)" stroke="#000000" id="svg_52"/>
  <text fill="#000000" stroke="#000000" stroke-width="0" stroke-dasharray="null" stroke-linejoin="round" stroke-linecap="round" x="256.56507" y="532.66849" font-size="63" font-family="serif" text-anchor="middle" xml:space="preserve" id="svg_54">source 2</text>
  <text fill="#000000" stroke="#000000" stroke-width="0" stroke-dasharray="null" stroke-linejoin="round" stroke-linecap="round" x="1711.52401" y="366.19164" font-size="63" font-family="serif" text-anchor="middle" xml:space="preserve" id="svg_55">source 3</text>
 </g>
</svg>