<?xml version="1.0"?>
<svg width="1920" height="1080" xmlns="http://www.w3.org/2000/svg" xmlns:xlink="http://www.w3.org/1999/xlink">
 <!-- Created with SVG-edit - http://svg-edit.googlecode.com/ -->
 <g>
  <title>Layer 1</title>
  <g id="svg_33">
   <g id="svg_26">
    <g filter="url(#svg_13_blur)" id="svg_13">
     <rect stroke="#000000" id="svg_14" ry="40" rx="40" height="409.50307" width="63.15719" y="596.41179" x="277.33458" stroke-linecap="null" stroke-linejoin="null" stroke-dasharray="null" stroke-width="0" fill="#3f3f3f"/>
     <rect stroke="#000000" id="svg_15" transform="matrix(0.360152 -0.360152 0.360152 0.360152 -95.7834 304.081)" ry="40" rx="40" height="543.99999" width="124" y="1250.05547" x="-183.18815" stroke-linecap="null" stroke-linejoin="null" stroke-dasharray="null" stroke-width="0" fill="#3f3f3f"/>
     <rect stroke="#000000" id="svg_16" transform="matrix(0.360152 0.360152 -0.360152 0.360152 343.913 -109.792)" ry="40" rx="40" height="600.56852" width="124" y="748.52904" x="1183.78921" stroke-linecap="null" stroke-linejoin="null" stroke-dasharray="null" stroke-width="0" fill="#3f3f3f"/>
     <path stroke="#000000" id="svg_17" d="m568.36035,694.84631l13.06281,-48.90527c3.96002,-14.71381 10.40277,-38.84692 14.36646,-53.56433l13.11896,-48.84949c3.91113,-14.77686 -4.87811,-23.5661 -19.65509,-19.65497l-48.8493,13.11902c-14.71741,3.96356 -38.85431,10.40997 -53.56439,14.36627l-48.90527,13.06287c-14.72461,3.97083 -17.97147,16.0083 -7.16162,26.81818l110.76929,110.76929c10.80975,10.80981 22.84735,7.56299 26.81818,-7.16156z" stroke-linecap="null" stroke-linejoin="null" stroke-dasharray="null" stroke-width="0" fill="#3f3f3f"/>
    </g>
    <rect stroke="#005629" ry="40" rx="40" id="svg_5" height="409.50307" width="63.15719" y="580.11316" x="275.29725" stroke-linecap="null" stroke-linejoin="null" stroke-dasharray="null" stroke-width="9" fill="#00bf5f"/>
    <rect stroke="#005629" transform="matrix(0.360152 -0.360152 0.360152 0.360152 -84.5719 291.42)" id="svg_6" ry="40" rx="40" height="569.45583" width="124" y="1198.32753" x="-202.18814" stroke-linecap="null" stroke-linejoin="null" stroke-dasharray="null" stroke-width="9" fill="#00bf5f"/>
    <rect stroke="#005629" id="svg_7" transform="matrix(0.360152 0.360152 -0.360152 0.360152 334.199 -108.752)" ry="40" rx="40" height="628.85276" width="124" y="712.3869" x="1171.78921" stroke-linecap="null" stroke-linejoin="null" stroke-dasharray="null" stroke-width="9" fill="#00bf5f"/>
    <path stroke="#005629" id="svg_10" d="m564.28571,678.54767l13.06281,-48.90527c3.96002,-14.71381 10.40277,-38.84692 14.36639,-53.56433l13.11896,-48.84949c3.91107,-14.77692 -4.87805,-23.5661 -19.65497,-19.65497l-48.84949,13.11896c-14.71735,3.96362 -38.85419,10.41003 -53.56421,14.36633l-48.90533,13.06281c-14.72461,3.97083 -17.97144,16.00842 -7.16168,26.81824l110.76929,110.76929c10.80981,10.80981 22.84741,7.56305 26.81824,-7.16156z" stroke-linecap="null" stroke-linejoin="null" stroke-dasharray="null" stroke-width="9" fill="#00bf5f"/>
    <path stroke="#005629" id="svg_18" d="m302.21716,793.59863l0,0c1.74731,-6.52106 8.4502,-10.39099 14.97128,-8.64362l0,0c3.13159,0.83911 5.80157,2.88763 7.42264,5.69525c1.62097,2.80756 2.06012,6.14465 1.2211,9.276l0,0c-1.74731,6.521 -8.4502,10.39099 -14.97134,8.64362l0,0c-6.52109,-1.74731 -10.39099,-8.45026 -8.64368,-14.97125l0,0zm17.651,10.39136l0,0c3.55704,-2.87653 4.49231,-7.91272 2.20523,-11.87433c-2.28702,-3.96161 -7.11658,-5.66962 -11.38568,-4.02747l9.18045,15.90179l0,0zm-11.68713,-14.45435c-3.55679,2.87579 -4.49243,7.91309 -2.20508,11.87354c2.28699,3.96167 7.11633,5.67041 11.38568,4.02747l-9.1806,-15.901l0,0l0,0z" stroke-linecap="null" stroke-linejoin="null" stroke-dasharray="null" stroke-width="5" fill="#005629"/>
    <path stroke="#005629" id="svg_19" d="m489.65137,616.56659l0,0c-1.74731,-6.521 2.12268,-13.22394 8.64368,-14.97125l0,0c3.13159,-0.83911 6.46826,-0.39996 9.27588,1.22101c2.80756,1.62091 4.85638,4.29132 5.6955,7.42267l0,0c1.74725,6.521 -2.12262,13.22394 -8.64368,14.97131l0,0c-6.52112,1.74731 -13.22406,-2.12268 -14.97137,-8.64374l0,0zm20.48187,0.17371l0,0c1.64221,-4.26965 -0.0658,-9.09875 -4.02728,-11.38611c-3.96149,-2.28729 -8.99805,-1.35175 -11.87408,2.20496l15.90137,9.18115l0,0zm-17.34845,-6.67426c-1.64246,4.26892 0.06592,9.09912 4.0271,11.38538c3.96143,2.28735 8.99811,1.35254 11.87396,-2.20496l-15.90106,-9.18042l0,0l0,0z" stroke-linecap="null" stroke-linejoin="null" stroke-dasharray="null" stroke-width="5" fill="#005629"/>
   </g>
   <g id="svg_32">
    <g id="svg_25">
     <g id="svg_8">
      <path d="m1052.58374,430.67398c1.229,-6.44199 2.16968,-12.94916 2.16968,-20.90085c0,-24.47147 -6.63574,-44.30914 -14.82056,-44.30914c-8.18677,0 -14.82056,19.83768 -14.82056,44.30914c0,7.57825 0.6582,14.66635 1.78247,20.90085" id="svg_1" fill="black"/>
      <path d="m1082.87061,337.1629c3.04333,26.58194 15.27319,47.01639 27.31909,45.63907c12.05017,-1.3793 19.34766,-24.04868 16.30273,-50.6326c-3.04333,-26.58597 -7.37085,-47.24164 -19.41882,-45.86237c-12.04602,1.37927 -27.24597,24.26993 -24.203,50.8559z" id="svg_2"/>
      <path d="m1111.23499,288.74942c2.93469,5.33731 -8.90588,17.66595 -26.4436,27.52847c-17.54321,9.86646 -34.14221,13.53204 -37.07483,8.19272c-2.93628,-5.33929 8.9021,-17.66397 26.4397,-27.53241c17.54358,-9.86252 34.14258,-13.52612 37.07874,-8.18878z" id="svg_3"/>
      <ellipse cx="1075.8321" cy="372.72799" rx="43.47331" ry="16.02189" id="svg_4"/>
      <ellipse cx="1095.92072" cy="260.69134" rx="21.40665" ry="21.69714" id="svg_5"/>
      <path d="m965.83075,332.3472l109.94,-0.47623c0,0 6.79382,5.70886 -0.47241,14.27307c-7.26782,8.56033 -109.46759,11.41574 -109.46759,11.41574l0,-25.21259z" id="svg_6"/>
      <path d="m1033.0166,327.91888c0,0 9.88037,-1.9761 6.91626,-7.87463c-0.44458,-0.88327 -45.52838,-2.62619 -45.52838,-2.62619l-13.59912,-49.8757c0,0 -6.78784,-5.29977 -8.94763,2.62421c-2.14807,7.87659 13.34619,57.75232 13.34619,57.75232" id="svg_7"/>
     </g>
     <g id="svg_9">
      <path d="m1354.19141,284.32663c1.22925,-6.44193 2.16968,-12.9491 2.16968,-20.90082c0,-24.47153 -6.6355,-44.30914 -14.82056,-44.30914c-8.18665,0 -14.82043,19.83762 -14.82043,44.30914c0,7.57822 0.6582,14.66638 1.78259,20.90082" fill="black" id="svg_10"/>
      <path d="m1384.47852,190.81555c3.04309,26.58194 15.27271,47.01642 27.31885,45.63918c12.05017,-1.37941 19.34753,-24.04871 16.30261,-50.63269c-3.04297,-26.58586 -7.37048,-47.24167 -19.41858,-45.86237c-12.04614,1.37932 -27.24609,24.26999 -24.20288,50.85588z" id="svg_11"/>
      <path d="m1412.84277,142.40207c2.93457,5.33737 -8.90576,17.66595 -26.44348,27.52855c-17.54358,9.86641 -34.14246,13.532 -37.07483,8.19275c-2.93652,-5.33932 8.90198,-17.66406 26.4397,-27.53246c17.54358,-9.86258 34.14233,-13.5262 37.07861,-8.18884z" id="svg_12"/>
      <ellipse cx="1377.43992" cy="226.38067" rx="43.47331" ry="16.02189" id="svg_13"/>
      <ellipse cx="1397.52854" cy="114.34401" rx="21.40665" ry="21.69714" id="svg_14"/>
      <path d="m1267.43848,185.99994l109.93994,-0.47635c0,0 6.79382,5.70892 -0.47217,14.27312c-7.26807,8.56036 -109.46777,11.41574 -109.46777,11.41574l0,-25.21251z" id="svg_15"/>
      <path d="m1334.62451,181.57156c0,0 9.88013,-1.97612 6.91602,-7.87466c-0.44458,-0.88327 -45.52832,-2.62616 -45.52832,-2.62616l-13.59937,-49.87571c0,0 -6.7876,-5.29979 -8.94751,2.62422c-2.14795,7.87655 13.34644,57.75231 13.34644,57.75231" id="svg_16"/>
     </g>
     <g id="svg_17">
      <path d="m1494.93677,458.03934c1.229,-6.44202 2.16956,-12.94916 2.16956,-20.90088c0,-24.4715 -6.63562,-44.30914 -14.82043,-44.30914c-8.18677,0 -14.82031,19.83765 -14.82031,44.30914c0,7.57819 0.65796,14.66638 1.78247,20.90088" fill="black" id="svg_18"/>
      <path d="m1525.22388,364.52814c3.04297,26.58194 15.27295,47.01639 27.31885,45.63913c12.05005,-1.3793 19.34766,-24.04868 16.30249,-50.63263c-3.04297,-26.58594 -7.37061,-47.24161 -19.4187,-45.86237c-12.04602,1.3793 -27.24597,24.26996 -24.20264,50.85587z" id="svg_19"/>
      <path d="m1553.58813,316.11462c2.93445,5.33737 -8.90613,17.66605 -26.4436,27.52856c-17.54346,9.86646 -34.14233,13.53207 -37.07495,8.19278c-2.93628,-5.33936 8.9021,-17.66406 26.43994,-27.5325c17.54333,-9.86249 34.14233,-13.52609 37.07861,-8.18884z" id="svg_20"/>
      <ellipse cx="1518.18518" cy="400.0933" rx="43.47331" ry="16.02189" id="svg_21"/>
      <ellipse cx="1538.2738" cy="288.05664" rx="21.40665" ry="21.69714" id="svg_22"/>
      <path d="m1408.18359,359.71249l109.94019,-0.47623c0,0 6.79382,5.70886 -0.47217,14.27307c-7.26807,8.56027 -109.46802,11.41574 -109.46802,11.41574l0,-25.21259z" id="svg_23"/>
      <path d="m1475.36963,355.28418c0,0 9.88037,-1.97604 6.91626,-7.87463c-0.44458,-0.88327 -45.52832,-2.62613 -45.52832,-2.62613l-13.59924,-49.87576c0,0 -6.78784,-5.2998 -8.94775,2.62424c-2.14783,7.87653 13.34656,57.75229 13.34656,57.75229" id="svg_24"/>
     </g>
     <path stroke="#000000" fill-opacity="0" fill="#000000" stroke-width="15" d="m1646.82861,354.77701c0,-59.48425 -41.10144,-109.34491 -96.42651,-122.81107c-2.35828,-93.25781 -78.62476,-168.15579 -172.44312,-168.15579c-54.95898,0 -103.87988,25.71833 -135.48132,65.74716c-17.72034,-22.89759 -45.45154,-37.65296 -76.64014,-37.65296c-53.51038,0 -96.88965,43.38712 -96.88965,96.89985c0,4.66315 0.34766,9.24463 0.98975,13.73428c-8.13757,-1.46667 -16.5072,-2.27484 -25.06482,-2.27484c-77.57281,-0.00201 -140.45538,62.88855 -140.45538,140.46359c0,77.57861 62.88257,140.46762 140.45343,140.46762l475.79199,-0.01202c69.70581,-0.13293 126.16577,-56.67108 126.16577,-126.40582z" id="svg_4"/>
    </g>
    <g id="svg_31">
     <path transform="rotate(-110.854 771.926 574.245)" stroke="#000000" id="svg_29" d="m802.74915,576.57043l10.62067,-5.78448c-0.20654,-2.16364 -0.58502,-4.22314 -1.10376,-6.28046l-11.82574,-1.66766c-1.00073,-2.55322 -2.3457,-4.89703 -3.93115,-7.06067l4.48193,-11.38989c-1.48273,-1.49042 -3.06805,-2.83917 -4.75739,-4.0816l-10.03271,6.45782c-2.34576,-1.27783 -4.89526,-2.2345 -7.55115,-2.83911l-3.61987,-11.56708c-1.03473,-0.07092 -2.03546,-0.17712 -3.10303,-0.17712s-2.0694,0.1062 -3.10217,0.17712l-3.58783,11.46063c-2.72211,0.6048 -5.30841,1.56134 -7.72266,2.87482l-9.89545,-6.38708c-1.65509,1.24243 -3.27551,2.59119 -4.75781,4.0816l4.37946,11.06866c-1.68939,2.27234 -3.13788,4.75549 -4.20734,7.41742l-11.44617,1.63214c-0.48431,2.02185 -0.89734,4.11682 -1.10394,6.28046l10.27557,5.57184c0.10333,2.94312 0.58527,5.78229 1.4115,8.47986l-7.72107,8.83417c0.8952,1.91553 1.89587,3.7627 3.06879,5.53656l11.3772,-2.52032c1.86151,2.09283 3.99823,3.90454 6.34387,5.43042l-0.41321,11.99304c1.86212,0.88812 3.82666,1.59668 5.82599,2.19904l7.20624,-9.54584c1.27612,0.17944 2.58643,0.28577 3.89459,0.28577c1.44843,0 2.82764,-0.14178 4.20734,-0.32123l7.27563,9.5813c1.99976,-0.56696 3.92932,-1.31091 5.79321,-2.1637l-0.41498,-12.24335c2.24182,-1.49042 4.27533,-3.26434 6.03345,-5.28625l11.72382,2.59113c1.13654,-1.77386 2.17126,-3.62103 3.06952,-5.53656l-8.0014,-9.11761c0.75928,-2.52039 1.1723,-5.21783 1.31006,-7.98376zm-17.68665,13.90784l-5.03296,3.37061l-3.10272,-4.89661c-1.58661,0.64026 -3.34491,1.02997 -5.17432,1.02997c-7.99786,0 -14.47955,-6.70599 -14.47955,-14.90234c0,-8.2312 6.48169,-14.90393 14.47955,-14.90393c8.00153,0 14.4834,6.67273 14.4834,14.90393c0,4.07928 -1.62048,7.80664 -4.24158,10.50183l3.06818,4.89655z" stroke-linecap="null" stroke-linejoin="null" stroke-dasharray="null" stroke-width="0" fill="#000000"/>
     <path transform="rotate(87.2669 849.216 506.488)" stroke="#000000" id="svg_28" d="m896.20667,510.03311l16.19171,-8.81866c-0.31494,-3.29865 -0.89191,-6.43842 -1.6828,-9.57495l-18.02893,-2.54236c-1.52563,-3.89252 -3.57611,-7.46582 -5.99323,-10.76428l6.83295,-17.3645c-2.26044,-2.27216 -4.67737,-4.32843 -7.25287,-6.22253l-15.29541,9.84521c-3.57617,-1.94806 -7.46307,-3.40662 -11.51208,-4.32837l-5.51868,-17.63452c-1.57751,-0.10815 -3.10315,-0.27008 -4.73071,-0.27008s-3.15491,0.16193 -4.72943,0.27008l-5.46979,17.47229c-4.14996,0.922 -8.09296,2.38031 -11.77362,4.38281l-15.08606,-9.73743c-2.52332,1.8941 -4.99371,3.95038 -7.25354,6.22253l6.67676,16.87476c-2.57562,3.46417 -4.78387,7.24988 -6.41437,11.30817l-17.45026,2.48822c-0.73834,3.08246 -1.36804,6.27631 -1.68298,9.57495l15.66565,8.49451c0.15747,4.48697 0.89227,8.81546 2.15186,12.92801l-11.77112,13.46808c1.36481,2.92035 2.89038,5.73645 4.67847,8.4408l17.34515,-3.84235c2.83795,3.19061 6.09546,5.9527 9.67157,8.27893l-0.62994,18.28406c2.83887,1.35394 5.83386,2.4342 8.88196,3.35254l10.98627,-14.55316c1.94556,0.27356 3.94318,0.43567 5.9375,0.43567c2.20825,0 4.31091,-0.21613 6.41431,-0.48975l11.0921,14.60724c3.04865,-0.86432 5.99042,-1.9986 8.83197,-3.29865l-0.63263,-18.66565c3.41779,-2.27228 6.51801,-4.97668 9.1983,-8.05914l17.87354,3.95026c1.73267,-2.70435 3.31018,-5.52045 4.67963,-8.4408l-12.19855,-13.90021c1.15759,-3.84247 1.78723,-7.95483 1.99731,-12.17172zm-26.96423,21.20328l-7.67297,5.13867l-4.73029,-7.46515c-2.41888,0.97607 -5.09943,1.57019 -7.88849,1.57019c-12.19318,0 -22.07483,-10.22357 -22.07483,-22.71933c0,-12.54895 9.88165,-22.72186 22.07483,-22.72186c12.19873,0 22.08063,10.17291 22.08063,22.72186c0,6.21909 -2.47046,11.90158 -6.46643,16.01053l4.67755,7.46509z" stroke-linecap="null" stroke-linejoin="null" stroke-dasharray="null" stroke-width="0" fill="#000000"/>
     <path stroke="#000000" id="svg_30" transform="rotate(-110.854 719.667 619.411)" d="m738.87305,620.85968l6.61792,-3.60437c-0.12872,-1.34821 -0.3645,-2.63153 -0.68781,-3.91351l-7.36871,-1.03906c-0.6236,-1.59094 -1.46167,-3.05145 -2.44958,-4.3996l2.79279,-7.09723c-0.92395,-0.92871 -1.9118,-1.7691 -2.96448,-2.54327l-6.25153,4.02399c-1.46161,-0.79626 -3.05029,-1.3924 -4.7052,-1.7691l-2.25562,-7.20764c-0.64478,-0.04419 -1.26831,-0.11035 -1.93353,-0.11035s-1.28943,0.06616 -1.93304,0.11035l-2.2356,7.1413c-1.69617,0.37689 -3.30774,0.9729 -4.81207,1.79132l-6.16602,-3.97986c-1.03131,0.77417 -2.04102,1.61456 -2.96466,2.54327l2.72894,6.89703c-1.05273,1.41595 -1.95526,2.9632 -2.6217,4.62189l-7.13226,1.01697c-0.30176,1.25989 -0.55914,2.56531 -0.68787,3.91351l6.40283,3.47186c0.06439,1.83392 0.36475,3.60303 0.87958,5.28394l-4.81116,5.5047c0.55786,1.1936 1.18134,2.3446 1.91223,3.44995l7.08923,-1.5705c1.15997,1.30408 2.49139,2.43298 3.953,3.38379l-0.25745,7.47302c1.16028,0.55341 2.38446,0.99493 3.63019,1.3703l4.49036,-5.94818c0.79517,0.11182 1.61163,0.1781 2.42676,0.1781c0.90253,0 1.76196,-0.08838 2.6217,-0.20026l4.53351,5.97034c1.24609,-0.35327 2.44843,-0.81689 3.6098,-1.34827l-0.25854,-7.62897c1.39691,-0.92871 2.66406,-2.03412 3.75958,-3.29395l7.30524,1.61456c0.70819,-1.10535 1.35297,-2.25635 1.91266,-3.44995l-4.98578,-5.68127c0.47314,-1.5705 0.73047,-3.25134 0.81628,-4.97485zm-11.02075,8.66614l-3.13611,2.10028l-1.93335,-3.05109c-0.98865,0.39893 -2.08429,0.64178 -3.22424,0.64178c-4.98352,0 -9.0224,-4.17859 -9.0224,-9.28589c0,-5.12897 4.03888,-9.28687 9.0224,-9.28687c4.9859,0 9.02484,4.1579 9.02484,9.28687c0,2.54187 -1.00977,4.86444 -2.64301,6.54388l1.91187,3.05103z" stroke-linecap="null" stroke-linejoin="null" stroke-dasharray="null" stroke-width="0" fill="#000000"/>
    </g>
   </g>
  </g>
 </g>
</svg>