<?xml version="1.0"?>
<svg width="1920" height="1080" xmlns="http://www.w3.org/2000/svg" xmlns:xlink="http://www.w3.org/1999/xlink">
 <!-- Created with SVG-edit - http://svg-edit.googlecode.com/ -->
 <g>
  <title>Layer 1</title>
  <g id="svg_35">
   <path stroke="#000000" id="svg_4" d="m509.2099,192.85379c-81.63394,0 -147.81024,66.17596 -147.81024,147.81134c0,81.66479 66.1763,147.84085 147.81024,147.84085c81.63409,0 147.81219,-66.17606 147.81219,-147.84085c0,-81.63538 -66.1781,-147.81134 -147.81219,-147.81134zm0,265.10959c-64.68622,0 -117.32977,-52.6127 -117.32977,-117.29825c0,-64.68732 52.64355,-117.29974 117.32977,-117.29974c64.68817,0 117.32928,52.61243 117.32928,117.29974c0,64.71695 -52.64111,117.29825 -117.32928,117.29825zm0,-227.89302c-5.64868,0 -10.18091,4.56245 -10.18091,10.18089l0,93.771l-61.45721,26.88013c-5.15231,2.26614 -7.51221,8.28708 -5.27682,13.40866c1.67429,3.81833 5.39966,6.11551 9.311,6.11551c1.36548,0 2.79321,-0.28006 4.09644,-0.86942l67.41901,-29.48724c0,-0.03122 0.06226,-0.03122 0.12451,-0.06226l0,0c0.18677,-0.06226 0.24719,-0.2171 0.3717,-0.27939c1.11829,-0.52792 2.04797,-1.14835 2.85547,-1.98672c0.37354,-0.34164 0.5603,-0.77612 0.80701,-1.17999c0.49811,-0.65161 1.05652,-1.30316 1.30322,-2.07922c0.24908,-0.58942 0.31134,-1.27225 0.43585,-1.92462c0.12451,-0.65161 0.37164,-1.24094 0.37164,-1.89255l0,-100.44501c0,-5.58734 -4.59265,-10.14981 -10.18091,-10.14981l0,0.00005z" stroke-linecap="null" stroke-linejoin="null" stroke-dasharray="null" stroke-width="0" fill="#000000"/>
   <g id="svg_7">
    <path fill="#000000" d="m983.91248,242.60234l102.18933,0c3.59827,0 6.51233,-2.97673 6.51233,-6.65897c0,-3.68224 -2.91406,-6.65898 -6.51233,-6.65898l-102.18933,0c-3.60095,0 -6.51202,2.97675 -6.51202,6.65898c-0.00287,3.67926 2.91107,6.65897 6.51202,6.65897z" id="svg_1"/>
    <g id="svg_6">
     <path fill="#000000" d="m1086.10181,285.5329l-62.8844,0c-3.60095,0 -6.51202,2.97678 -6.51202,6.659c0,3.68222 2.91107,6.65897 6.51202,6.65897l62.88733,0c3.59827,0 6.51221,-2.97675 6.51221,-6.65897c-0.00281,-3.68222 -2.91394,-6.659 -6.51514,-6.659z" id="svg_2"/>
     <path fill="#000000" d="m1038.94287,341.79932l-55.0304,0c-3.60095,0 -6.51202,2.97971 -6.51202,6.659s2.91107,6.65897 6.51202,6.65897l55.0304,0c3.59802,0 6.51196,-2.97971 6.51196,-6.65897s-2.91394,-6.659 -6.51196,-6.659z" id="svg_3"/>
     <path fill="#000000" d="m1145.80212,461.91684l-19.43701,-42.69839c3.11475,-0.49414 5.54553,-3.12857 5.54553,-6.45654l0,-217.00453c0.00281,-3.68219 -2.91101,-6.65895 -6.51208,-6.65895l-180.78516,0c-3.60101,0 -6.51208,2.97676 -6.51208,6.65895l0,37.51289l-72.10358,26.25485c-3.38269,1.23538 -5.15259,5.04559 -3.95038,8.50455l71.17505,204.43378c0.57935,1.66699 1.78162,3.02432 3.34479,3.78342c0.87915,0.43164 1.83099,0.64597 2.79175,0.64597c0.73651,0 1.47589,-0.13098 2.18622,-0.384l143.29053,-52.17633l24.9248,54.73929c1.46423,3.20596 4.10168,5.68262 7.35034,6.89417c1.44678,0.53882 2.95178,0.8067 4.45972,0.8067c1.88354,0 3.76111,-0.41675 5.50488,-1.25024l12.42139,-5.91479c6.51489,-3.10474 9.3385,-11.0228 6.3053,-17.69073l0,-0.00003zm-194.67676,-259.5005l167.76123,0l0,200.37645l-22.26978,-48.9198c-0.45117,-0.98828 -1.0188,-1.92001 -1.68542,-2.76245l-17.78687,-22.46246c-2.53845,-3.20001 -6.29077,-4.93546 -10.13037,-4.93546c-1.85144,0 -3.7262,0.40195 -5.49023,1.24133c-5.41748,2.58377 -8.42749,8.59683 -7.29517,14.60104l5.35632,28.36823c0.20093,1.07162 0.53564,2.11362 0.97815,3.09579l15.9729,35.08389l-125.41077,0l0,-203.68648l0,-0.00005l0,-0.00002l0,-0.00002l0,-0.00002zm119.9729,156.24626l-4.0813,-21.63202l13.55969,17.12521l-9.47839,4.50681zm-194.59167,-88.82306l61.59473,-22.4238l0,165.34909c0,3.67929 2.91107,6.659 6.51208,6.659l114.86401,0l-116.16821,42.30548l-66.80261,-191.88977zm245.06396,203.61218l-46.45215,-102.01596l12.4303,-5.89691l0.00586,-0.00894l46.44043,102.00702l-12.42444,5.91479z" id="svg_5"/>
    </g>
   </g>
   <g id="svg_1">
    <g filter="url(#svg_13_blur)" id="svg_13">
     <rect stroke="#000000" id="svg_14" ry="40" rx="40" height="239.73356" width="36.97383" y="243.34331" x="1362.19835" stroke-linecap="null" stroke-linejoin="null" stroke-dasharray="null" stroke-width="0" fill="#3f3f3f"/>
     <rect stroke="#000000" id="svg_15" transform="matrix(0.210842 -0.210842 0.210842 0.210842 689.971 631.155)" ry="40" rx="40" height="543.99999" width="124" y="1000.68723" x="2218.47553" stroke-linecap="null" stroke-linejoin="null" stroke-dasharray="null" stroke-width="0" fill="#3f3f3f"/>
     <rect stroke="#000000" id="svg_16" transform="matrix(0.210842 0.210842 -0.210842 0.210842 967.071 214.91)" ry="40" rx="40" height="600.56852" width="124" y="-1193.91745" x="1300.24686" stroke-linecap="null" stroke-linejoin="null" stroke-dasharray="null" stroke-width="0" fill="#3f3f3f"/>
     <path stroke="#000000" id="svg_17" d="m1532.57288,300.9693l7.64722,-28.63037c2.31824,-8.6138 6.08997,-22.74196 8.4104,-31.35789l7.68018,-28.59769c2.28967,-8.65079 -2.85559,-13.79619 -11.50647,-11.50656l-28.59778,7.68016c-8.61597,2.32028 -22.74646,6.09407 -31.35828,8.41008l-28.63037,7.6472c-8.62024,2.32458 -10.52112,9.37167 -4.19275,15.70001l64.84766,64.84763c6.32837,6.32837 13.37549,4.42761 15.7002,-4.19257z" stroke-linecap="null" stroke-linejoin="null" stroke-dasharray="null" stroke-width="0" fill="#3f3f3f"/>
    </g>
    <rect stroke="#005629" ry="40" rx="40" id="svg_5" height="239.73356" width="36.97383" y="233.80168" x="1361.00565" stroke-linecap="null" stroke-linejoin="null" stroke-dasharray="null" stroke-width="9" fill="#00bf5f"/>
    <rect stroke="#005629" transform="matrix(0.210842 -0.210842 0.210842 0.210842 696.534 623.743)" id="svg_6" ry="40" rx="40" height="569.45583" width="124" y="948.95929" x="2199.47554" stroke-linecap="null" stroke-linejoin="null" stroke-dasharray="null" stroke-width="9" fill="#00bf5f"/>
    <rect stroke="#005629" id="svg_7" transform="matrix(0.210842 0.210842 -0.210842 0.210842 961.384 215.518)" ry="40" rx="40" height="628.85276" width="124" y="-1230.05959" x="1288.24686" stroke-linecap="null" stroke-linejoin="null" stroke-dasharray="null" stroke-width="9" fill="#00bf5f"/>
    <path stroke="#005629" id="svg_10" d="m1530.1875,291.4277l7.64734,-28.63031c2.31812,-8.61398 6.08972,-22.7421 8.41028,-31.35802l7.68005,-28.59773c2.28967,-8.65079 -2.85571,-13.79617 -11.50647,-11.50652l-28.5979,7.68004c-8.61597,2.32047 -22.74622,6.09398 -31.35815,8.41022l-28.63025,7.64717c-8.62024,2.32454 -10.52112,9.37172 -4.19275,15.70013l64.84753,64.84758c6.32849,6.32846 13.37561,4.42749 15.70032,-4.19257z" stroke-linecap="null" stroke-linejoin="null" stroke-dasharray="null" stroke-width="9" fill="#00bf5f"/>
    <path stroke="#005629" id="svg_18" d="m1376.76501,358.78165l0,0c1.02295,-3.8176 4.94702,-6.08313 8.76465,-5.06021l0,0c1.83325,0.49124 3.39636,1.69052 4.34534,3.33414c0.94897,1.64365 1.20618,3.59726 0.71497,5.43039l0,0c-1.02307,3.81757 -4.94702,6.08316 -8.76465,5.06024l0,0c-3.81763,-1.02292 -6.08325,-4.94699 -5.0603,-8.76456l0,0zm10.33337,6.08331l0,0c2.0824,-1.68396 2.62988,-4.63226 1.29102,-6.95151c-1.33875,-2.31918 -4.16626,-3.31912 -6.66541,-2.35776l5.37439,9.30927l0,0zm-6.84192,-8.46191c-2.08228,1.68356 -2.62988,4.63254 -1.29089,6.95114c1.33887,2.31921 4.16602,3.31958 6.66541,2.35776l-5.37451,-9.3089l0,0l0,0z" stroke-linecap="null" stroke-linejoin="null" stroke-dasharray="null" stroke-width="5" fill="#005629"/>
    <path stroke="#005629" id="svg_19" d="m1486.49414,255.14246l0,0c-1.02271,-3.81757 1.2428,-7.74167 5.06055,-8.76462l0,0c1.83337,-0.49124 3.78687,-0.23416 5.43042,0.71474c1.64368,0.9489 2.84302,2.5123 3.33423,4.34544l0,0c1.02295,3.81757 -1.24255,7.74164 -5.0603,8.76462l0,0c-3.81775,1.02295 -7.74207,-1.24258 -8.76489,-5.06018l0,0zm11.99109,0.10159l0,0c0.9613,-2.49957 -0.03857,-5.32666 -2.35779,-6.66573c-2.31921,-1.33904 -5.26782,-0.79135 -6.95154,1.29091l9.30933,5.37482l0,0zm-10.15674,-3.9072c-0.96143,2.49905 0.03882,5.32684 2.35779,6.66525c2.31921,1.33908 5.26794,0.79178 6.95154,-1.29092l-9.30933,-5.37433l0,0l0,0z" stroke-linecap="null" stroke-linejoin="null" stroke-dasharray="null" stroke-width="5" fill="#005629"/>
   </g>
   <g id="svg_8">
    <path d="m869.5697,623.19653l-192.85345,0c-10.51093,0 -19.00323,8.87323 -19.00323,19.82855l0,228.0979c0,10.95544 8.4953,19.83154 19.00323,19.83154l192.85345,0c10.50836,0 19.00964,-8.87915 19.00964,-19.83154l0,-228.0979c0,-10.95245 -8.50128,-19.82855 -19.00964,-19.82855zm2.28174,238.77844c0,0 0.52307,4.58459 -1.6228,6.96002c-2.17896,2.41772 -6.21057,2.08826 -6.21057,2.08826l-183.47266,0.09686c0,0 -2.58698,-0.03931 -4.56049,-2.30298c-1.70441,-1.95227 -1.68329,-6.08972 -1.68329,-6.08972l0.06653,-212.84802c0,0 0,-3.15222 1.84644,-4.83563c1.9917,-1.81927 4.8717,-1.97351 4.8717,-1.97351l183.50903,0c0,0 3.47858,-0.09662 5.10455,1.5686c2.2121,2.26355 2.14581,4.64215 2.14581,4.64215l0,212.69397l0.00574,0z" id="svg_9"/>
    <g id="svg_11">
     <path d="m790.44946,596.6438c0,4.20691 -3.78967,7.61292 -8.45898,7.61292l-16.91193,0c-4.6723,0 -8.45905,-3.40601 -8.45905,-7.61292l0,0c0,-4.20068 3.78674,-7.60962 8.45905,-7.60962l16.91193,0c4.66931,0 8.45898,3.40894 8.45898,7.60962l0,0z" id="svg_12"/>
     <path d="m809.76416,613.11462c0,-4.40637 -0.40491,-11.75018 -4.00134,-11.75018l-65.1156,0c-3.36353,0 -4.17047,7.37408 -4.11621,11.73505l73.23315,0.01514z" id="svg_20"/>
     <path d="m825.46143,628.37653c0,-6.29816 -0.57739,-16.79114 -5.71497,-16.79114l-93.02234,0c-4.81128,0 -5.95959,10.54132 -5.88403,16.77008l104.62134,0.02106z" id="svg_21"/>
    </g>
    <rect x="734.44572" y="686.55329" width="107.10257" height="9.52285" id="svg_22"/>
    <path d="m700.75769,720.52252l0,23.79639l23.80249,0l0,-23.79639l-23.80249,0zm3.56622,20.19415l0,-16.65222l16.66412,0l0,16.65222l-16.66412,0z" id="svg_23"/>
    <rect x="734.44572" y="731.777" width="107.10257" height="9.51983" id="svg_24"/>
    <rect x="734.44572" y="775.13602" width="107.10257" height="9.51983" id="svg_25"/>
    <rect x="734.44572" y="817.46448" width="107.10257" height="9.5168" id="svg_26"/>
    <path d="m700.75769,675.29871l0,23.7995l23.80249,0l0,-23.7995l-23.80249,0zm3.56622,20.19409l0,-16.64905l16.66412,0l0,16.64905l-16.66412,0z" id="svg_27"/>
    <path d="m700.75769,763.8844l0,23.79669l23.80249,0l0,-23.79669l-23.80249,0zm3.56622,20.19415l0,-16.65509l16.66412,0l0,16.65509l-16.66412,0z" id="svg_28"/>
    <path d="m700.75769,806.2099l0,23.79657l23.80249,0l0,-23.79657l-23.80249,0zm3.56622,20.19128l0,-16.65228l16.66412,0l0,16.65228l-16.66412,0z" id="svg_29"/>
   </g>
   <g id="Capa_13">
    <g id="svg_30">
     <polygon id="svg_31" points="1337.25 798.964 1337.25 705.69 1219.84 705.69 1219.84 775.597 1102.43 775.597 1102.43 887.852 1454.61 887.852 1454.61 798.964"/>
     <polygon id="svg_32" points="1278.52 590.392 1290.4 627.17 1329.06 627.103 1297.75 649.761 1309.75 686.507 1278.52 663.729 1247.29 686.507 1259.31 649.761 1227.99 627.103 1266.65 627.17"/>
     <polygon id="svg_33" points="1395.92 683.662 1407.8 720.436 1446.46 720.369 1415.15 743.028 1427.15 779.77 1395.92 756.991 1364.7 779.77 1376.7 743.028 1345.39 720.369 1384.05 720.436"/>
     <polygon id="svg_34" points="1161.12 660.299 1172.99 697.076 1211.64 697.009 1180.33 719.672 1192.34 756.407 1161.12 733.632 1129.89 756.407 1141.9 719.672 1110.58 697.009 1149.24 697.076"/>
    </g>
   </g>
  </g>
 </g>
</svg>