<?xml version="1.0"?>
<svg width="1920" height="1080" xmlns="http://www.w3.org/2000/svg" xmlns:xlink="http://www.w3.org/1999/xlink">
 <!-- Created with SVG-edit - http://svg-edit.googlecode.com/ -->
 <g>
  <title>Layer 1</title>
  <text transform="matrix(1 0 0 1 0 0)" fill="#000000" stroke="#428bca" stroke-width="0" stroke-dasharray="null" stroke-linejoin="null" stroke-linecap="null" x="960.00302" y="342.90307" id="svg_1" font-size="196" font-family="Sans-serif" text-anchor="middle" xml:space="preserve">3. machine</text>
  <path fill="black" id="svg_1" d="m1037.34619,775.4986l-323.77057,0l0,-219.07605l323.77057,0l0,219.07605zm13.49182,6.83569l0,0l0,-232.7511c0,-3.79724 -3.01672,-6.84674 -6.7406,-6.84674l-337.26587,0c-3.72388,0.00366 -6.74414,3.05316 -6.74414,6.84674l0,232.7511c0,3.78625 3.02393,6.84302 6.74414,6.84302l128.16296,0l0,41.0802l-53.9635,0c-3.72754,0 -6.74036,3.05682 -6.74036,6.84674c0,3.77881 3.02008,6.84668 6.74036,6.84668l0.0036,0l188.86334,0c3.7276,0 6.74786,-3.06787 6.74786,-6.84668c0,-3.78992 -3.02399,-6.84674 -6.74786,-6.84674l-53.9635,0l0,-41.0802l128.16675,0c3.72742,0 6.73682,-3.06049 6.73682,-6.84302m158.40857,-132.94257l-106.49402,0l0,-21.61768l106.49402,0l0,21.61768zm0,-43.22803l-106.49402,0l0,-21.625l106.49402,0l0,21.625zm-61.63855,130.4209c0,-4.71356 3.76404,-8.51807 8.39343,-8.51807c4.63647,0 8.4043,3.8045 8.4043,8.51807c0,4.70984 -3.76782,8.52539 -8.4043,8.52539c-4.62549,0 -8.39343,-3.81921 -8.39343,-8.52539m2.07813,24.75879c0,-3.54065 2.82581,-6.41052 6.31531,-6.41052c3.49304,0 6.32263,2.86621 6.32263,6.41052c0,3.54797 -2.82959,6.42883 -6.32263,6.42883c-3.4895,-0.00366 -6.31531,-2.88086 -6.31531,-6.42883m70.22644,71.79504l0,-281.02625c0,-5.96704 -4.77222,-10.80884 -10.65869,-10.80884l-106.49023,0c-5.87915,0 -10.64771,4.85278 -10.64771,10.80884l0,281.02252c0,5.97443 4.76855,10.8089 10.64771,10.8089l106.49023,0c5.88269,0.0036 10.65869,-4.83087 10.65869,-10.80518"/>
 </g>
</svg>