<?xml version="1.0"?>
<svg width="1920" height="1080" xmlns="http://www.w3.org/2000/svg" xmlns:xlink="http://www.w3.org/1999/xlink">
 <defs>
  <filter id="svg_18_blur" x="-50%" y="-50%" width="200%" height="200%">
   <feGaussianBlur stdDeviation="7"/>
  </filter>
  <filter id="svg_28_blur" x="-50%" y="-50%" width="200%" height="200%">
   <feGaussianBlur stdDeviation="7"/>
  </filter>
 </defs>
 <g display="inline">
  <title>Layer 1</title>
  <g id="svg_32">
   <g id="svg_27">
    <g id="svg_19">
     <line stroke="#428bca" id="svg_20" y2="685.20282" x2="553.22107" y1="427.06304" x1="553.22107" stroke-linecap="round" stroke-linejoin="round" stroke-dasharray="null" stroke-width="99" fill="none"/>
     <line stroke="#428bca" id="svg_21" y2="559.06209" x2="422.65967" y1="559.06209" x1="680.79941" stroke-linecap="round" stroke-linejoin="round" stroke-dasharray="null" stroke-width="99" fill="none"/>
    </g>
    <g id="svg_11">
     <path d="m960.08295,950.55896c-9.51715,-51.06567 -110.77875,-138.83856 -235.51288,-142.17676c-128.52814,-3.45209 -243.34695,98.07922 -244.23447,147.3728c-0.88733,51.41772 53.03317,59.40143 53.03317,59.40143c3.91772,0 58.08246,-0.08881 124.06085,-0.17743c-25.67542,-20.27979 -42.44519,-51.28589 -42.44519,-86.44739c0,-61.06024 49.66693,-110.68457 110.68774,-110.68457c61.02008,0 110.6264,49.62433 110.6264,110.68457c0,35.03009 -16.67871,65.9256 -42.17035,86.20251c63.80585,-0.08545 114.1767,-0.1745 114.1767,-0.1745c35.40643,-0.02435 60.00995,-20.12671 51.77802,-64.00067z" id="svg_117"/>
     <path d="m789.04816,493.08987c-41.83209,-34.17023 -47.92242,-95.80304 -13.83118,-137.49188c33.96796,-41.61868 95.60059,-47.81287 137.4328,-13.48932c41.68011,34.25549 47.76935,95.75967 13.77124,137.37857c-34.2135,41.64307 -95.84497,47.81262 -137.37286,13.60263z" id="svg_118"/>
     <path d="m1429.21155,904.11725l-221.3136,0l166.62793,-181.9837c0.94812,-0.95197 15.33167,-16.45477 20.59534,-24.74805c20.7478,-33.17242 20.01331,-73.289 2.35657,-105.26776c-0.06152,-0.08893 -0.09192,-0.22028 -0.12268,-0.35162c-25.12439,-47.08447 -78.52502,-125.08292 -172.3197,-164.53839c-92.60254,-38.94406 -144.93164,-25.07822 -173.60571,-13.18011c-42.659,17.71564 -70.04761,46.95276 -87.39941,73.84299c-0.09204,0.1344 -93.82513,164.36002 -93.82513,164.36002l-144.65533,59.35547c-24.84949,10.15082 -36.72253,38.56793 -26.56256,63.35828c7.71155,18.84167 25.85858,30.18903 44.98474,30.18903c6.12042,0 12.39362,-1.17218 18.42255,-3.67212l160.13965,-65.65961c0.7655,-0.3092 1.37732,-0.90582 2.11188,-1.30353c2.87628,-1.30695 5.50775,-2.98682 8.04816,-4.88727c1.3158,-0.9519 2.60138,-1.76886 3.8252,-2.85516c2.47852,-2.25531 4.55939,-4.88745 6.60986,-7.65063c0.67365,-0.95172 1.59137,-1.59125 2.20319,-2.58887l74.17932,-119.13348l0,81.62775l-93.2738,128.84064c-16.71002,23.06769 -11.56787,55.28851 11.5058,71.96356c9.14984,6.61316 19.70752,9.79572 30.20422,9.79572c15.97351,0 31.73401,-7.38452 41.77106,-21.29572l103.09833,-142.37592c6.396,-8.80109 9.79224,-19.39581 9.79224,-30.23175l0,-71.8291c6.64111,3.5376 13.28149,7.25262 19.70862,11.52185c14.29065,9.5108 28.36731,22.5567 40.88379,35.33905l-142.60535,234.99561c-6.70227,10.0163 -21.42151,27.50812 -13.1582,64.31024c5.35449,23.79602 32.68262,44.78259 54.62354,44.78259l347.14954,0c30.57117,0 55.38965,-24.74762 55.38965,-55.4198c0,-30.51947 -24.81848,-55.31018 -55.38965,-55.31018z" id="svg_119" fill="black"/>
     <g id="Layer_2">
      <path d="m811.3266,928.53162c0,-47.30463 -38.34387,-85.71619 -85.65442,-85.71619c-47.37207,0 -85.71667,38.41156 -85.71667,85.71619c0,47.25867 38.3446,85.67322 85.71667,85.67322c47.31055,0 85.65442,-38.41455 85.65442,-85.67322z" id="svg_121"/>
     </g>
    </g>
   </g>
   <g id="svg_31">
    <g id="svg_18" opacity="0.25" filter="url(#svg_18_blur)">
     <path d="m972.8208,965.27423c-9.5174,-51.06555 -110.77875,-138.8385 -235.51294,-142.17657c-128.52771,-3.45227 -243.34634,98.07916 -244.23383,147.37262c-0.88736,51.41748 53.03326,59.40118 53.03326,59.40118c3.91754,0 58.08221,-0.08862 124.06012,-0.17737c-25.67535,-20.27954 -42.44519,-51.28558 -42.44519,-86.4472c0,-61.06018 49.66705,-110.68445 110.68768,-110.68445c61.02014,0 110.62646,49.62427 110.62646,110.68445c0,35.03015 -16.67865,65.92566 -42.17029,86.20233c63.80566,-0.08545 114.17651,-0.17444 114.17651,-0.17444c35.40637,-0.02441 60.01001,-20.12665 51.7782,-64.00055z" id="svg_22"/>
     <path d="m801.78607,507.80542c-41.83215,-34.17017 -47.92261,-95.80304 -13.83142,-137.49188c33.96808,-41.61871 95.60071,-47.8129 137.4328,-13.48932c41.68018,34.25546 47.76959,95.75989 13.77142,137.37857c-34.21368,41.64304 -95.84503,47.81259 -137.37286,13.60263l0.00006,0z" id="svg_23"/>
     <path d="m1441.95044,918.8327l-221.3136,0l166.6283,-181.98389c0.94775,-0.9519 15.33154,-16.45477 20.59497,-24.74799c20.74805,-33.17242 20.01367,-73.28876 2.35645,-105.26746c-0.06128,-0.08893 -0.09204,-0.2204 -0.12256,-0.35175c-25.12427,-47.08441 -78.5249,-125.08289 -172.3197,-164.53824c-92.60242,-38.94418 -144.93164,-25.07834 -173.60559,-13.18027c-42.65979,17.71579 -70.04889,46.95279 -87.40057,73.84302c-0.09204,0.1344 -93.82513,164.35992 -93.82513,164.35992l-144.65527,59.35535c-24.84961,10.15088 -36.72253,38.56787 -26.56256,63.35828c7.71136,18.84174 25.85852,30.18896 44.98468,30.18896c6.12042,0 12.39368,-1.17206 18.42249,-3.67194l160.13977,-65.65979c0.76538,-0.3092 1.37714,-0.9057 2.11176,-1.30341c2.87622,-1.30695 5.50769,-2.98694 8.0481,-4.88733c1.3158,-0.9519 2.60126,-1.76886 3.82507,-2.8551c2.47864,-2.25537 4.55945,-4.88739 6.60999,-7.6507c0.67346,-0.95166 1.59119,-1.59131 2.20319,-2.58887l74.18005,-119.13324l0,81.62744l-93.2746,128.84064c-16.70984,23.06775 -11.56775,55.28864 11.50574,71.96375c9.14984,6.61292 19.70764,9.79553 30.20435,9.79553c15.97363,0 31.73438,-7.3844 41.77148,-21.29572l103.09918,-142.37579c6.39575,-8.80121 9.79211,-19.39575 9.79211,-30.23175l0,-71.82892c6.64124,3.53754 13.28162,7.25244 19.70886,11.52161c14.29053,9.51074 28.36719,22.55658 40.88354,35.33899l-142.6051,234.99579c-6.70251,10.01624 -21.42224,27.508 -13.15857,64.31006c5.35461,23.79614 32.68298,44.78235 54.62378,44.78235l347.14941,0c30.57117,0 55.38989,-24.74731 55.38989,-55.41949c0,-30.51947 -24.8186,-55.31006 -55.38989,-55.31006z" fill="black" id="svg_24"/>
     <g id="svg_25">
      <path d="m824.06439,943.24689c0,-47.30457 -38.34381,-85.71619 -85.65442,-85.71619c-47.37195,0 -85.71667,38.41162 -85.71667,85.71619c0,47.25873 38.34473,85.67316 85.71667,85.67316c47.31061,0 85.65442,-38.41443 85.65442,-85.67316z" id="svg_26"/>
     </g>
    </g>
    <g id="svg_28" filter="url(#svg_28_blur)" opacity="0.25">
     <line stroke="#428bca" y2="691.78718" x2="565.42717" y1="433.6474" x1="565.42717" stroke-linecap="round" stroke-linejoin="round" stroke-dasharray="null" stroke-width="99" fill="none" id="svg_29"/>
     <line stroke="#428bca" y2="565.64645" x2="434.86577" y1="565.64645" x1="693.00551" stroke-linecap="round" stroke-linejoin="round" stroke-dasharray="null" stroke-width="99" fill="none" id="svg_30"/>
    </g>
   </g>
  </g>
  <text xml:space="preserve" text-anchor="middle" font-family="Sans-serif" font-size="196" id="svg_1" y="200" x="960.00223" opacity="0.8" stroke-linecap="null" stroke-linejoin="null" stroke-dasharray="null" stroke-width="0" stroke="#000000" fill="#000000">sapiens save</text>
 </g>
</svg>