<?xml version="1.0"?>
<svg width="1920" height="1080" xmlns="http://www.w3.org/2000/svg" xmlns:xlink="http://www.w3.org/1999/xlink">
 <!-- Created with SVG-edit - http://svg-edit.googlecode.com/ -->
 <g>
  <title>Layer 1</title>
  <g id="svg_25">
   <g id="svg_22">
    <path stroke="#7f7f7f" fill="#7f7f7f" id="svg_17" d="m1013.52448,121.77097c-0.04883,-0.2921 -0.14087,-0.57084 -0.27136,-0.82589c-1.62952,-9.01793 -9.55457,-15.70654 -18.81274,-15.70654c-0.63171,0 -1.26184,0.03116 -1.88904,0.09342c-2.86328,-7.18974 -9.82605,-12.01454 -17.76025,-12.01454c-5.73352,0 -11.00317,2.49989 -14.57947,6.73753c-3.57947,-4.23764 -8.849,-6.73753 -14.58118,-6.73753c-7.92676,0 -14.89111,4.82184 -17.75574,12.00861c-0.60498,-0.0593 -1.21143,-0.08749 -1.81628,-0.08749c-9.67493,0 -17.69482,7.22237 -18.95215,16.55762c-9.13074,1.43381 -16.17517,9.40791 -16.17517,18.88997c0,10.54219 8.57898,19.12125 19.12268,19.12125l100.64014,0c10.54236,0 19.12128,-8.57906 19.12128,-19.12125c0.00293,-9.58287 -7.08148,-17.54365 -16.29071,-18.91516zm5.88037,29.0585c-0.07837,-0.88222 -0.23999,-1.85193 -0.52466,-2.89577c-0.00903,-0.03114 -0.0105,-0.05931 -0.02087,-0.08897c-0.00293,-0.0089 -0.00879,-0.01778 -0.01184,-0.02815c-0.37061,-1.32855 -0.92957,-2.7668 -1.78369,-4.28806c-0.3855,-0.68947 -1.26184,-0.93561 -1.94983,-0.54713s-0.93701,1.26329 -0.54858,1.95126c0.43433,0.77251 0.77246,1.51535 1.05127,2.22707c-1.26624,0.05782 -3.2146,-0.18535 -5.16882,-1.72887c-0.61963,-0.48929 -1.52124,-0.38699 -2.01343,0.23575c-0.48938,0.62424 -0.38403,1.52425 0.23706,2.01505c2.40515,1.89493 4.84265,2.34863 6.61743,2.34863c0.41235,0 0.78589,-0.02521 1.12097,-0.06227c0.18396,1.04382 0.22095,1.9572 0.19128,2.70744c-1.78369,0.88223 -3.7854,1.39081 -5.90564,1.39081l-24.82825,0c-2.87354,-6.03767 1.08081,-10.67117 1.77478,-11.41551c1.88452,-1.28552 3.35388,-2.68968 4.3844,-3.81654c0.56494,2.6778 0.05786,4.87668 0.01477,5.05017c-0.18823,0.76953 0.27893,1.54352 1.04541,1.73776c0.11572,0.02963 0.23425,0.04002 0.34851,0.04002c0.64197,0 1.2262,-0.43443 1.39063,-1.08536c0.01636,-0.06377 1.07056,-4.50304 -0.89551,-9.07281c-0.03857,-0.1364 -0.09351,-0.26689 -0.17188,-0.38551c-0.94897,-2.02689 -2.50293,-4.05229 -5.0354,-5.71442c-0.66284,-0.43741 -1.5509,-0.25056 -1.98682,0.41071c-0.43604,0.66278 -0.25061,1.55241 0.41211,1.98688c1.77637,1.1669 2.95654,2.54878 3.73499,3.95293c-1.26477,1.58949 -4.94482,5.67589 -10.35986,7.08301c-0.76807,0.20163 -1.22766,0.98453 -1.02747,1.7511c0.16748,0.64796 0.75024,1.07349 1.38916,1.07349c0.12024,0 0.24182,-0.01483 0.36194,-0.04597c0.55908,-0.14529 1.09277,-0.31879 1.62061,-0.5071c-0.91479,2.35458 -1.39221,5.45943 -0.10681,8.95717l-5.79736,0c-0.94897,-3.08408 -3.62378,-7.97115 -11.17529,-11.15753c-0.72949,-0.30989 -1.57178,0.03262 -1.88013,0.76361s0.03271,1.57468 0.76501,1.88159c0.83777,0.35289 1.60425,0.73099 2.30872,1.1239c-1.04834,0.6687 -2.5874,1.44565 -4.46606,1.76593c-0.71021,-0.8333 -2.0105,-2.66002 -1.83411,-4.71062c0.1571,-1.82526 1.46643,-3.54669 3.89368,-5.1095c0.66565,-0.42851 0.85693,-1.31667 0.42847,-1.98241c-0.42847,-0.66426 -1.31812,-0.85851 -1.98389,-0.4285c-3.21008,2.06989 -4.95825,4.51935 -5.19702,7.27426c-0.16748,1.93941 0.46411,3.6579 1.20996,4.96861c-1.21729,-0.2061 -2.50732,-0.64052 -3.84766,-1.40414c-0.68652,-0.39143 -1.56433,-0.15419 -1.95569,0.5323c-0.39307,0.68947 -0.1543,1.56429 0.53381,1.95572c2.47168,1.41302 4.81726,1.93051 6.92871,1.93051c0.42407,0 0.83325,-0.02521 1.23499,-0.06375c0.01941,0 0.03564,0.00444 0.05652,0.00444c0.12891,0 0.25647,-0.02373 0.38098,-0.05635c3.30505,-0.42554 5.86719,-2.00464 7.17493,-2.98178c2.47314,1.95572 3.74097,4.05824 4.39331,5.69667l-24.20996,0c-1.24097,-3.0648 -4.7373,-7.9756 -14.58264,-11.71208c-0.74133,-0.28021 -1.56873,0.09195 -1.85046,0.8333c-0.28027,0.73988 0.09192,1.57021 0.83179,1.85045c1.03345,0.39143 1.97949,0.79623 2.86023,1.20694c-1.69629,0.88222 -3.43994,2.42427 -3.77344,5.09613c-0.09802,0.78586 0.45959,1.50497 1.24536,1.60135c0.06091,0.00742 0.1217,0.01187 0.17944,0.01187c0.71326,0 1.32996,-0.53082 1.422,-1.25735c0.31287,-2.50879 3.16846,-3.38063 4.30286,-3.63121c3.44141,2.14848 5.2384,4.33699 6.17102,6.00209l-30.16602,0c-0.0564,-1.76299 0.17798,-4.16501 1.4812,-6.21115c1.34924,-2.12326 3.63269,-3.50961 6.78491,-4.12791c0.7771,-0.15422 1.28406,-0.90594 1.13135,-1.68439s-0.90442,-1.28552 -1.68286,-1.1328c-0.35437,0.06969 -0.69238,0.15569 -1.0304,0.24318c1.06445,-2.1396 1.94666,-5.09764 1.27795,-8.43822c-0.15417,-0.77545 -0.91028,-1.28107 -1.68726,-1.12686c-0.77698,0.15419 -1.28113,0.91037 -1.12549,1.68881c1.02905,5.14508 -2.875,9.38568 -2.92236,9.43459c-0.16907,0.17941 -0.27734,0.39589 -0.33655,0.61684c-1.13879,0.8318 -2.09656,1.82523 -2.84399,3.00697c-1.65759,2.62 -1.97791,5.55431 -1.92004,7.73094l-3.43396,0c-5.40759,0 -10.06628,-3.23087 -12.17615,-7.85696c0.99927,-2.08176 3.26196,-5.05611 8.28101,-6.48547c0.76196,-0.21646 1.20386,-1.01123 0.98743,-1.77037c-0.21643,-0.76361 -1.00964,-1.20399 -1.77185,-0.98749c-4.29688,1.22176 -6.9436,3.40878 -8.5686,5.52611c-0.08167,-0.59308 -0.13794,-1.19655 -0.13794,-1.81039c0,-7.24313 5.87305,-13.22595 13.1073,-13.37569c0.87622,2.0862 2.703,5.37932 5.78406,6.34163c0.14246,0.04298 0.28625,0.06671 0.42847,0.06671c0.61108,0 1.1759,-0.39438 1.36865,-1.00824c0.23584,-0.75769 -0.1853,-1.56284 -0.94153,-1.79857c-2.0166,-0.63014 -3.44434,-3.28125 -4.13672,-5.04868c0.24463,-0.42258 0.39441,-0.90593 0.39441,-1.42787l-0.00159,-0.07562c0,-6.74937 5.02649,-12.33334 11.52832,-13.24223c1.52124,3.37914 4.0625,10.26492 3.74072,18.00179c-0.03247,0.79028 0.58142,1.45753 1.37305,1.49162c0.02087,0 0.04004,0.00298 0.06091,0.00298c0.76514,0 1.39966,-0.60345 1.43225,-1.37598c0.17493,-4.19611 -0.41077,-8.11347 -1.24402,-11.44073c2.31018,-0.34102 6.25122,-1.51088 9.2063,-5.45199c0.47437,-0.6331 0.34692,-1.53165 -0.2876,-2.00761c-0.63171,-0.47594 -1.53174,-0.34693 -2.00757,0.28617c-2.54895,3.3999 -6.01257,4.20207 -7.70142,4.38741c-0.48474,-1.52425 -0.99487,-2.86314 -1.46338,-3.9752c0.62708,0.05931 1.25293,0.15718 1.87109,0.30544c1.5332,0.36623 3.0752,-0.57529 3.4519,-2.10546c1.03198,-4.2065 3.97363,-7.51447 7.76794,-9.11879c1.08972,0.29507 2.29077,0.81551 3.1759,1.73776c1.00989,1.05125 1.44727,2.45391 1.33899,4.28657c-0.04749,0.79029 0.55603,1.46938 1.34778,1.51535c0.0282,0.00148 0.0564,0.00296 0.08606,0.00296c0.75317,0 1.38477,-0.58863 1.42932,-1.35076c0.15576,-2.64371 -0.56641,-4.81441 -2.14551,-6.45432c-0.27283,-0.28469 -0.56628,-0.5323 -0.8689,-0.76658c0.28613,-0.01778 0.57532,-0.03706 0.86597,-0.03706c4.90039,0 9.31152,2.61405 11.68091,6.86207c0.29065,1.98684 1.78674,4.91969 6.16516,6.17999c0.13354,0.03707 0.26685,0.05637 0.40027,0.05637c0.62292,0 1.19666,-0.40925 1.37756,-1.03792c0.2179,-0.76065 -0.21802,-1.55538 -0.9801,-1.77483c-1.32715,-0.38106 -2.22412,-0.92224 -2.83936,-1.49162c0.5752,-0.27132 1.05713,-0.72951 1.35071,-1.32259c2.27454,-4.60833 6.8783,-7.47147 12.01001,-7.47147c3.89807,0 7.45679,1.6666 9.927,4.39479c-0.51001,0.46114 -1.01428,1.0676 -1.40125,1.87123c-1.08838,2.25078 -0.86584,5.15988 0.66113,8.65318c0.23596,0.53824 0.76367,0.8585 1.31677,0.8585c0.19128,0 0.38562,-0.03854 0.57385,-0.12009c0.72656,-0.31877 1.05713,-1.16394 0.73828,-1.88898c-1.14746,-2.62593 -1.39966,-4.77143 -0.72644,-6.20967c0.1543,-0.32324 0.3396,-0.58865 0.5354,-0.80661c0.60181,1.06014 1.07776,2.21224 1.37891,3.44587c0.37512,1.53757 1.92004,2.48059 3.46497,2.10695c1.04541,-0.25353 2.11743,-0.38403 3.18188,-0.38403c2.78906,0 5.40015,0.87627 7.56653,2.36643c-0.03271,0.62274 -0.12305,1.32704 -0.30261,2.06543c-0.92078,0.18239 -3.25439,0.20313 -7.15259,-2.57846c-0.64502,-0.46113 -1.54065,-0.30988 -2.00171,0.3336c-0.46106,0.645 -0.30981,1.54057 0.33508,2.0017c3.23987,2.31008 5.74707,3.05145 7.53076,3.17007c-0.38977,0.56937 -0.85693,1.11946 -1.45154,1.61914c-0.60193,0.51154 -0.67761,1.41748 -0.16602,2.02243c0.28162,0.33512 0.68787,0.5071 1.0957,0.5071c0.32776,0 0.65381,-0.1112 0.92383,-0.33954c1.79553,-1.51682 2.81116,-3.32872 3.38782,-5.06796c0.04175,-0.09341 0.07568,-0.19275 0.09509,-0.29208c0.11414,-0.37663 0.21497,-0.75175 0.29053,-1.11503c1.64294,1.9157 2.76978,4.29695 3.1167,6.94659c0.02527,0.17941 0.06384,0.35439 0.11853,0.52191l0,1.29443c0,1.58354 1.28406,2.86906 2.86914,2.86906c0.11572,0 0.22681,0.01485 0.34241,0.01781c-2.89563,2.79198 -5.23376,5.98873 -6.80396,8.39819c-0.12769,-0.63167 -0.27588,-1.2737 -0.44641,-1.94092c-0.19727,-0.76805 -0.97717,-1.2262 -1.74963,-1.02753c-0.76819,0.20018 -1.22778,0.98305 -1.02588,1.74963c1.25415,4.83072 1.12085,8.69174 -0.38721,11.17085c-1.26624,2.08917 -3.08411,2.54138 -3.18787,2.56364c-0.76807,0.16458 -1.26318,0.91782 -1.10315,1.6918c0.14246,0.6776 0.73694,1.14317 1.40417,1.14317c0.09192,0 0.19275,-0.0089 0.28906,-0.02965c0.1217,-0.02669 3.04272,-0.65686 4.99231,-3.78986c1.14624,-1.84009 1.71704,-4.11902 1.7157,-6.81316c0.81262,-1.47382 4.64685,-8.13571 9.94006,-12.53051c5.44165,1.69921 9.4035,6.78495 9.4035,12.77961c-0.00281,4.0612 -1.82367,7.69238 -4.67963,10.14929z"/>
    <path stroke="#7f7f7f" fill="#7f7f7f" id="svg_18" d="m984.5921,119.61359c-0.01038,0 -0.02234,0 -0.03125,0c-1.48853,0.03262 -2.81128,0.2417 -3.98547,0.58124c0.1897,-2.37681 -0.06677,-5.93091 -2.40356,-9.19588c-0.01038,-1.01565 0.11414,-3.89661 1.68298,-5.86122c0.49512,-0.61831 0.39429,-1.52128 -0.22546,-2.01501c-0.61682,-0.49375 -1.51831,-0.39442 -2.01355,0.22536c-1.21729,1.52869 -1.80151,3.34948 -2.07434,4.89449c-0.58118,-0.46408 -1.21436,-0.91336 -1.92615,-1.33594c-0.68042,-0.40479 -1.56274,-0.18089 -1.96594,0.49968s-0.1825,1.56132 0.49805,1.96609c6.6886,3.9752 5.78564,10.33758 5.36023,12.17617c-5.36609,3.33318 -6.04663,9.79488 -6.05261,9.88384c-0.07556,0.78586 0.50415,1.48274 1.28857,1.55836c0.0459,0.00444 0.0918,0.0074 0.13928,0.0074c0.72803,0 1.35229,-0.55453 1.42798,-1.29591c0.03406,-0.36769 1.00378,-9.01498 10.31519,-9.22105c0.79346,-0.01781 1.422,-0.67466 1.40125,-1.46495c-0.01917,-0.78139 -0.65833,-1.40266 -1.43518,-1.40266z"/>
    <path stroke="#7f7f7f" fill="#7f7f7f" id="svg_19" d="m946.43549,125.59344c-0.78882,-0.04301 -1.46497,0.56788 -1.505,1.35965c-0.12744,2.5162 -0.68359,2.94469 -0.67603,2.94469c-0.46411,0.06526 -1.96606,-1.0972 -3.13306,-2.59476c-1.78662,-5.18658 -5.58093,-7.38844 -5.78992,-7.50557c-0.69104,-0.387 -1.5658,-0.13938 -1.95288,0.55157c-0.38696,0.69096 -0.14087,1.56577 0.55151,1.95275c0.052,0.02966 5.24304,3.02477 5.24304,10.70085c0,0.79178 0.64197,1.43527 1.4353,1.43527c0.79175,0 1.43384,-0.64349 1.43384,-1.43527c0,-0.3351 -0.02686,-0.64497 -0.04163,-0.96228c0.71033,0.43147 1.47827,0.72949 2.24939,0.72949c0.27869,0 0.5575,-0.03854 0.83472,-0.12454c2.46729,-0.75026 2.64954,-4.35774 2.70886,-5.54542c0.04163,-0.79325 -0.56775,-1.46641 -1.35815,-1.50643z"/>
    <path stroke="#7f7f7f" fill="#7f7f7f" id="svg_20" d="m965.4129,123.01497c-1.95422,-0.25503 -3.23669,-2.95657 -3.58521,-4.02709l-0.02222,-4.87817c-0.00293,-0.79029 -0.64502,-1.42786 -1.43372,-1.42786c-0.00146,0 -0.00452,0 -0.00598,0c-0.79187,0.00297 -1.43091,0.64942 -1.42798,1.44121l0.07422,16.49535c0.00293,0.7903 0.64502,1.42787 1.43372,1.42787c0.00159,0 0.00305,0 0.00598,0c0.79175,-0.00299 1.43237,-0.64943 1.42639,-1.4427l-0.0282,-6.30602c0.84082,0.77842 1.89502,1.39522 3.18933,1.56426c0.06091,0.0089 0.12463,0.01186 0.18542,0.01186c0.71021,0 1.32849,-0.52636 1.42188,-1.24994c0.10828,-0.78584 -0.4447,-1.50645 -1.23364,-1.60876z"/>
   </g>
   <g id="svg_24">
    <g id="svg_13">
     <circle stroke="#000000" fill-opacity="0" stroke-width="10" id="svg_10" r="82.76086" cy="162.97823" cx="959.99906" fill="#000000"/>
     <path stroke="#000000" stroke-width="10" fill-opacity="0" id="svg_11" d="m1015.17389,273.32623l-110.34778,0c-50.57605,0 -91.95654,41.3804 -91.95654,91.95636l0,211.49976c0,37.50897 22.78674,69.91443 55.17407,84.17688l0,265.25769c0,40.46112 33.104,73.56573 73.56506,73.56573l36.78259,0c40.46082,0 73.565,-33.10461 73.565,-73.56573l0,-265.25769c32.38721,-14.27161 55.17407,-46.66791 55.17407,-84.17688l0,-211.49976c0,-50.57596 -41.38049,-91.95636 -91.95648,-91.95636z" fill="#000000"/>
    </g>
    <g id="svg_15">
     <path id="svg_14" d="m947.83319,628.07776l-3.34253,-35.34265c0.05115,-0.37225 0.0874,-0.74921 0.0874,-1.13477l0,-2.50995c0,-1.22473 -0.27625,-2.38501 -0.75745,-3.4317c-0.37646,-0.82037 -0.88403,-1.56763 -1.49609,-2.21735c-1.50952,-1.60364 -3.646,-2.61145 -6.01917,-2.61145l-10.77649,0c1.00879,-1.09308 2.11694,-2.20416 3.24695,-3.33423c6.32849,-6.33386 14.99768,-15.00446 6.96985,-26.30255c-5.20618,-7.32269 -13.50415,-11.69214 -22.19995,-11.69214c-12.61133,0 -27.97046,9.61206 -33.26013,36.58636c-2.8302,14.44269 1.2439,31.38989 10.13513,42.16998c5.06091,6.1369 11.0116,9.37903 17.21106,9.37903c3.21179,0 6.39893,-0.88843 9.46997,-2.64081c7.46802,-4.26044 11.4729,-8.3996 12.60376,-13.02954c1.09692,-4.49445 -0.80823,-8.50006 -3.02454,-12.10602l5.74487,0l2.88611,30.54877c-0.00098,0.12701 0.00476,0.24072 0.01428,0.33533c0.00769,0.08069 0.02368,0.18286 0.04578,0.29559c0.12207,0.62036 0.52637,1.65179 1.8053,2.3736c0.83105,0.46899 2.02576,0.80701 3.76392,0.80701c0.40698,0 0.83594,-0.02075 1.27332,-0.06342c1.32446,-0.12592 2.53796,-0.4281 3.51147,-0.87335c0.52649,-0.24139 0.94495,-0.51227 1.28479,-0.79651c0.57288,-0.47925 0.90881,-0.99561 1.09851,-1.47388l-0.27612,-2.93536z" fill="#bfbf00"/>
     <path d="m972.98932,628.07776l3.37415,-35.34265c-0.05164,-0.37225 -0.08826,-0.74921 -0.08826,-1.13477l0,-2.50995c0,-1.22473 0.27893,-2.38501 0.76453,-3.4317c0.38013,-0.82037 0.89258,-1.56763 1.51038,-2.21735c1.5238,-1.60364 3.68066,-2.61145 6.07617,-2.61145l10.87866,0c-1.01819,-1.09308 -2.13684,-2.20416 -3.27759,-3.33423c-6.38843,-6.33386 -15.14001,-15.00446 -7.03589,-26.30243c5.25537,-7.32281 13.6322,-11.69226 22.41028,-11.69226c12.73108,0 28.23566,9.61218 33.5755,36.58636c2.85693,14.44269 -1.25586,31.38989 -10.23108,42.16998c-5.10901,6.1369 -11.11615,9.37903 -17.37445,9.37903c-3.24219,0 -6.45935,-0.88843 -9.55969,-2.64081c-7.53882,-4.26044 -11.58154,-8.3996 -12.72314,-13.02954c-1.10742,-4.49445 0.8158,-8.50006 3.05322,-12.10602l-5.79932,0l-2.9137,30.54877c0.0011,0.12701 -0.00488,0.24072 -0.01428,0.33533c-0.00769,0.08069 -0.02393,0.18286 -0.04614,0.29559c-0.12341,0.62036 -0.53149,1.65179 -1.82251,2.3736c-0.83899,0.46899 -2.04492,0.80701 -3.79968,0.80701c-0.41077,0 -0.84363,-0.02075 -1.28528,-0.06342c-1.33704,-0.12592 -2.56201,-0.4281 -3.54468,-0.87335c-0.53162,-0.24139 -0.9541,-0.51227 -1.297,-0.79651c-0.57849,-0.47925 -0.9176,-0.99561 -1.10901,-1.47388l0.27881,-2.93536z" id="svg_5" fill="#bfbf00"/>
     <path d="m940.52948,502.93564c0.02808,0 0.10486,0 0.22363,0.00534c1.09326,-0.00323 2.08728,0.05725 2.97742,0.13831l1.75684,0.16208l0.6731,1.64865c1.84106,4.7829 9.04944,9.86719 24.29712,9.97095c0.19763,-0.00964 0.30347,0 0.32825,0c24.55969,0.04218 36.61145,-17.86862 40.08398,-27.69705c1.21228,-3.48959 1.72644,-6.63138 1.72644,-9.43716c-0.03345,-11.68451 -8.91455,-18.27499 -18.91687,-18.38843c-0.82751,0 -1.66028,0.05399 -2.4967,0.15125l-1.74792,0.20212l-0.98962,-1.44998c-4.43298,-6.44778 -5.9834,-13.13754 -6.22095,-19.02353c-0.03467,-0.3533 -0.12317,-1.31808 -0.12317,-2.70645c0,-1.45206 0.12744,-3.3967 0.49048,-5.54675c-2.19543,-0.27438 -4.41565,-0.46017 -6.68335,-0.46017c-1.23279,0 -2.44275,0.1026 -3.65601,0.18475c0.28625,4.26108 0.79285,8.78354 0.79736,8.79437l0.01172,0.12534l0.00647,0.09616c0.27551,7.16415 2.70764,13.29968 5.7627,20.28333l0.97571,2.22775l-2.02344,1.35593c-6.8606,4.39838 -6.41223,11.85526 -10.82141,21.15207c-5.21179,9.76563 -17.93018,11.44781 -26.32385,11.57098c-1.90479,-0.04855 -11.05249,1.82263 -16.21667,3.07483c0.65564,2.22781 1.44873,4.38861 2.37476,6.48236c2.26563,-1.0188 3.97144,-1.4628 4.5332,-1.5979c3.2002,-0.99179 6.42639,-1.31912 9.20081,-1.31912l0,0zm47.78479,-70.93246c-0.28638,1.73193 -0.39648,3.32874 -0.39209,4.50745c0,1.3775 0.09607,2.11545 0.09607,2.11545l0.01306,0.11887l0.00549,0.13281c0.19214,4.67816 1.26282,9.67276 4.3053,14.67075c0.44495,-0.02267 0.89124,-0.03464 1.33643,-0.03464c6.31921,0 12.46558,2.20621 17.10266,6.37436c4.63379,4.15955 7.65991,10.36859 7.63513,17.83734c0.00647,3.52539 -0.65344,7.3208 -2.04846,11.35175c-3.9325,11.39063 -17.79736,31.55618 -45.58203,31.59946c-0.07239,-0.00647 -0.07239,0 -0.07239,0l-0.0896,0.00543l-0.1189,0c-15.18921,-0.07574 -24.90088,-4.75281 -28.91675,-11.90714c-0.30469,-0.0108 -0.62024,-0.01834 -0.94971,-0.02051l-0.10791,0c-2.33154,0 -5.0553,0.29282 -7.54346,1.08047l-0.1123,0.03888l-0.17065,0.03986c0,0.01733 -0.71411,0.13611 -2.06897,0.64725c-0.35876,0.13397 -0.75952,0.29929 -1.18408,0.48401c9.28918,16.03732 26.59167,26.85214 46.45703,26.85214c29.66003,0 53.69904,-24.04095 53.69904,-53.69785c0,-25.3765 -17.62677,-46.59003 -41.29291,-52.19617l0,0l0,0l0,0l0,0.00003l0,0l0,0zm-26.55835,50.11752c3.51453,-6.61847 3.26599,-15.38052 10.84082,-21.88132c-2.70105,-6.31708 -5.03687,-12.68494 -5.34363,-20.22073c-0.08313,-0.73682 -0.51208,-4.65863 -0.78333,-8.63342c-25.14612,4.46744 -44.25732,26.38657 -44.25732,52.81415c0,3.25308 0.33691,6.41864 0.89136,9.51291c5.38135,-1.31381 14.0957,-3.17316 17.53357,-3.23477c7.64502,0.12213 18.4707,-2.38974 21.11853,-8.35681z" id="svg_1" fill="black"/>
     <g id="svg_9">
      <path fill="#428bca" d="m957.30206,345.53482l0.02026,0.02032l-0.23218,0.2027l-0.98633,1.04514l-0.10156,-0.08783l-18.43262,16.2363l-11.26245,19.16452l0.91443,25.77353l5.66052,18.58112l-9.90869,20.63092l-8.45374,-3.70764l8.65198,-18.009l-0.58801,-2.82239l-1.6217,0.68466l-9.51245,12.2471l-4.97595,-3.53424l10.48767,-13.49042l4.38367,-1.85382l-3.49377,-8.20148l-1.61279,-17.4166l-7.09106,12.86871l-16.82861,18.39868l-0.11926,13.35077l-6.20361,-0.05853l0.08337,-9.05069l-12.70654,4.96463l-2.34937,-5.48267l14.56262,-5.6922l18.84692,-20.31561l7.87024,-14.51529l-11.91797,-4.65826l-3.41479,1.53622l-3.71667,11.90689l-8.63855,12.42273l-5.16284,-3.28192l8.37268,-12.03302l1.703,-5.65839l-14.8374,6.67877l-2.64014,-5.36102l9.69482,-4.32721l-10.50562,-3.10175l1.8313,-5.65826l17.03369,5.02979l8.39746,-3.74591l-4.32495,-3.92615l-11.27405,-3.14682l1.73914,-5.68539l12.71777,3.55225l8.58655,7.79376l11.83948,4.6763l12.40002,-21.11072l0.97546,-0.8605l-11.15234,-9.6431l-8.30286,-11.27841l5.07043,-3.40805l5.14929,6.99182l2.33582,-8.76459l6.00989,1.46188l-3.45764,12.97232l8.91565,7.64285l14.76306,-13.00394l6.1582,-4.13788c-2.35156,-6.68326 -4.56567,-15.58975 -5.04102,-24.06375c-0.82227,-14.62567 -3.57251,-28.4382 -19.14429,-28.00803c-10.48999,0.29288 -19.12854,8.21503 -24.78467,14.35086c-6.41077,6.9491 -15.00415,14.3847 -19.59705,21.68304c-10.63196,16.8894 -18.17554,32.42288 -24.69458,51.12112c-6.52539,18.71854 -9.76465,40.90381 -12.29431,64.48105c-1.79297,16.74759 -3.05664,37.70743 -0.34229,55.15555c0.91223,5.84302 19.26587,3.14001 25.6405,1.54974c17.82678,-4.43521 31.05566,-11.31445 45.63647,-19.18484c7.33423,-3.9599 14.55798,-8.18121 18.46167,-14.00854c2.13074,-3.16928 3.96228,-6.71481 5.98499,-10.20172c1.98218,-3.4194 4.42175,-6.681 5.98267,-10.19492c3.36768,-7.58884 4.65369,-16.59216 4.95789,-27.66333c0.29041,-10.64322 -0.66223,-21.36984 0.51367,-31.46564c0.5675,-4.86554 1.31531,-9.75574 1.53845,-14.69556c0.14624,-3.2594 -1.03394,-12.34164 -2.10852,-18.72302l-0.05847,0.06302l0,-0.00003z" id="svg_7"/>
      <path d="m1070.27783,432.73041c-2.86292,-27.38177 -7.45154,-47.88885 -13.26758,-64.48782c-6.42432,-18.34232 -16.10107,-34.73175 -26.35681,-51.00403c-4.82715,-7.64514 -11.33917,-13.57379 -17.98199,-20.41248c-5.92407,-6.10663 -11.81909,-13.26288 -23.12,-12.87769c-12.98816,0.43695 -17.12354,15.95688 -18.1936,28.48776l-5.39722,21.47107l6.62476,5.90619l0.06091,-0.04507l12.06677,14.62125l10.49451,-7.40863l7.16992,-8.96503l7.38818,5.39252l-7.96484,9.96747l-12.05786,8.51233l9.13403,19.44843l16.56287,1.70062l22.9151,-9.49445l2.47095,5.43536l-17.07208,7.0752l0.34247,0.12842l6.31396,4.19421l10.375,-1.06998l0.66687,5.88809l-3.27747,0.33566l4.07947,2.71658l-3.54102,4.85873l-10.55566,-7.01218l2.104,6.12234l6.23291,9.8075l-5.29346,3.07697l-6.72156,-10.72202l-4.63348,-13.49722l-17.39636,-1.95068l5.86121,12.48355l14.52649,21.94418l10.88641,7.50766l-4.68982,6.57068l-5.9848,-4.16043l-0.47314,6.71701l-6.18762,-0.39865l0.72974,-10.44727l-4.67615,-7.07294l-12.43628,-16.63727l-2.57251,-5.53668l-2.3313,4.7348l-1.02942,4.90829l4.45325,10.67703l2.01819,9.7984l-6.0863,1.14206l-1.93274,-9.40207l-2.61072,-4.96683l-2.90125,8.08215l1.6355,5.96924l-5.99854,1.50018l-2.1084,-7.70367l3.66943,-10.18823l4.75732,-10.69727l2.40112,-16.8602l-11.40002,-24.12466l-13.36646,-16.00198l-0.17346,0.11493l-0.09705,-0.1329l-0.80408,5.49841c-0.60388,-0.90097 -1.16675,15.35553 -0.0293,25.15857c1.17358,10.03726 0.26123,20.91476 0.50452,31.46783c0.25916,10.98792 1.66931,19.88318 5.04358,27.49219c1.58789,3.59961 3.76843,6.97385 5.70117,10.37289c2.01831,3.52753 3.89685,7.05951 6.05249,10.19949c4.10645,6.00748 10.98108,13.13455 18.11926,17.05624c7.05505,3.8743 14.12354,4.47797 21.17163,7.6676c7.2442,3.27515 14.54474,3.47116 23.67413,5.81827c3.59058,0.92804 7.27783,1.0542 10.07104,3.4104c2.15552,1.81998 14.22498,-0.43024 14.94336,-5.30252c2.57239,-17.40753 1.20264,-36.53836 -0.50244,-52.85794l0.00024,0l0,0z" id="svg_8" fill="#428bca"/>
     </g>
     <g id="svg_4">
      <path fill="#bf2a2a" id="svg_2" d="m969.59015,477.11359c-8.19312,0.45572 -13.59155,-11.2836 -13.59155,-11.2836s-9.46521,-24.40173 -13.53381,-43.46268c-0.30762,-1.44836 -0.23962,-0.81665 -0.41711,-2.68219c-0.17896,-1.86414 5.37183,-4.60696 10.49951,-7.19296c1.45569,-0.73389 0.83435,5.1218 -0.13306,8.85294c0.42163,-0.216 3.31812,-11.19629 3.31812,-11.19629s1.99292,-2.47217 4.14709,-3.86874c0.72034,-0.4675 3.28113,-3.04181 7.73889,-0.13907c-3.62756,-3.00623 -6.12048,-1.87891 -5.7699,-2.21176c2.0741,-1.96912 9.50244,-7.04947 8.25964,-13.95987c-0.41418,6.49612 -4.23267,8.79517 -4.23267,8.79517s-1.08887,-0.43198 0.25891,-3.4397c-2.07263,2.79913 -1.44238,4.20016 -1.64368,4.32886c-3.46338,2.21765 -6.50049,4.12024 -6.54492,3.99893c-0.94385,-2.54617 -4.25037,-5.11441 -4.25037,-5.11441s2.95422,4.95013 0.10339,7.18707c-4.5979,3.60834 -12.88293,4.38504 -12.8501,3.57724c0.20837,-5.13214 1.63318,-9.12366 3.51355,-14.25427c2.82141,-7.69449 8.84851,-14.24103 11.02771,-16.15546c2.17773,-1.9158 5.38367,-3.59048 8.97571,-1.02664c3.58899,2.56534 7.69299,7.18112 7.69299,7.18112c0.54736,-6.57013 -7.69299,-7.18112 -6.66772,-10.51428c1.54004,-9.74503 13.84888,-12.82224 19.23242,-9.74503c5.38513,3.07724 3.84668,8.97568 3.84668,8.97568s2.56384,-1.5386 6.15442,-1.79449c3.59045,-0.25595 22.823,-10.22879 22.823,-10.22879s1.18347,-1.92328 1.01062,-3.79028c-0.17322,-1.8656 2.20276,-2.24429 2.72046,-0.37878c0.51929,1.86554 -1.28406,5.29343 -1.28406,5.29343s1.35962,-1.96466 1.96619,-2.57126c0.60498,-0.6051 1.19531,-0.88025 2.11847,-1.24863c1.55505,-0.6228 3.52258,1.55344 2.07141,2.90118c-1.45007,1.34775 -3.42072,2.28125 -3.42072,2.28125s0.93372,0.62137 1.66022,1.03714c0.72485,0.41418 -1.24432,2.59042 -2.28156,2.0726s-2.39807,-1.13913 -3.0061,-0.83002c-1.56372,0.79449 -3.25183,1.99725 -4.55957,2.69559c-3.84802,2.05194 -3.78882,3.98413 -3.14673,5.84375c0.6405,1.85815 11.12817,11.67563 7.56274,13.3992c-9.40613,4.54926 -14.88293,-4.41165 -23.28174,-4.62619c-4.04333,-0.10355 -7.06873,3.06241 -7.15308,6.01093c-0.10352,3.62903 5.35706,3.4559 5.7699,5.25195c0.41406,1.79749 -4.77722,5.66476 -7.39429,7.46219c-0.09473,0.06512 -1.72644,-0.41418 -1.72644,-0.41418s-0.39795,-0.84631 -1.72791,-0.89801c0.86243,-0.20715 1.24414,0.89801 1.24414,0.89801s-1.29602,1.07104 -3.00623,-0.89801c0.41577,2.48837 4.22668,1.97797 3.83606,2.34927c-3.31665,3.1438 -7.72253,1.43356 -7.72253,1.43356s2.47217,1.58301 4.61292,1.05334c0.3092,-0.07687 -1.50317,1.79605 -0.51941,2.72958c-0.98535,-1.34778 1.41589,-2.85382 1.65271,-2.9278c1.98376,-0.61691 4.28723,-1.57556 6.4679,-3.0491c2.26062,-1.52826 4.82751,-3.87021 6.01233,-5.32147c0.18665,-0.22784 0.04456,1.75015 0.48389,3.17926c0.0874,0.2811 -0.89795,1.51938 -0.82849,2.69556c0.48376,-1.58896 0.98816,-1.73837 1.03564,-1.58896c0.27808,0.86841 1.52087,2.48691 -0.55334,5.59671c3.66309,-3.93976 -0.24255,-8.53485 1.72803,-10.50391c1.03552,-1.03714 0.27661,-2.62604 -0.55334,-2.90115c-0.82996,-0.2782 -5.8689,-2.39529 -6.01086,-4.04337c-0.14514,-1.64804 2.3833,-4.04333 5.07886,-3.62906c2.77393,0.42758 11.09119,4.63068 12.95679,5.28748c1.86694,0.65689 5.1366,0.98236 8.39722,0.41431c3.26074,-0.56668 4.354,-1.44986 5.80383,-1.14063c1.45135,0.31067 2.1778,3.52399 1.76349,4.97528c-0.41553,1.45132 -1.45123,-0.31067 -4.04327,-0.41422c-2.59058,-0.10364 -16.20422,-3.24738 -24.63708,19.00327c-1.88159,4.96497 -4.28271,0.00146 -7.60107,0.41571c-3.31702,0.41278 -4.14697,5.52567 -4.14697,5.52567s-0.85938,6.55093 -3.00623,14.75586c-0.08728,0.33582 -1.3064,1.26633 -3.73108,3.0062c-0.4082,0.29144 -1.34778,0.72641 -4.87024,0.41275c2.3833,1.34918 3.62756,0.72638 3.62756,0.72638s-4.35254,3.00623 -4.45764,4.35394c3.00635,-3.11124 9.46997,-6.60419 9.01868,-6.11597c-2.59045,2.79907 -5.42517,11.47 -10.96106,16.46167c-0.4054,0.36389 -3.34351,1.4631 -3.58899,1.92328c-0.22058,0.41418 2.8374,-0.81079 2.63037,-0.4187c-0.91882,1.74423 -8.8457,5.80679 -8.8457,5.80679s10.78076,-3.45602 14.91418,-9.91516c0.17615,-0.27518 0.43811,5.49457 0.64063,5.22232c0.1051,-0.14053 0.28552,-1.96024 0.38464,-3.33313c0.02966,-0.41574 1.54016,0.64209 1.54016,0.64209s-1.48987,-1.8981 -1.46765,-2.18665c0.08594,-1.13321 0.1731,-2.04898 0.26782,-2.17621c1.73376,-2.39081 3.53735,-7.76993 5.25635,-8.18866s6.00659,2.53128 6.39404,6.10709c0.02808,0.25888 -0.56946,1.97501 -0.56946,1.97501s0.70129,-0.80481 0.72339,-0.60953c0.11401,0.95126 0.89221,3.59058 0.93494,3.51215c0.05493,-0.09912 -0.75732,-4.89246 -0.89648,-7.87796c-0.01038,-0.24112 8.71399,0.83005 8.71399,0.83005l-3.52405,-1.34634l1.45129,-1.867l-2.69543,1.55637c0,0 -4.45752,-0.93353 -5.8053,-1.76346c-1.3479,-0.83002 -3.23401,-2.90125 -2.79761,-4.14532c0.72473,-2.07413 3.40857,-15.79593 5.52112,-17.4707c2.11267,-1.67322 4.6217,2.31244 6.81287,0.95435c6.41028,-3.97525 8.47107,-15.71008 18.65845,-19.21198c6.73743,-2.31378 9.22589,-0.55325 10.15924,1.10522c0.93201,1.65982 3.3125,4.61285 5.59668,5.18384c1.65991,0.41434 2.48853,-0.20709 3.9397,-1.44983c1.45142,-1.24411 3.21204,2.79761 2.27979,3.62766c-0.60645,0.54001 -1.14355,1.23233 -2.38342,1.45129c-0.66711,0.11829 -3.00598,-0.93353 -3.00598,-0.93353s3.93835,3.83469 4.04175,5.8038c0.10352,1.97055 -2.90283,2.17917 -3.83472,1.45129c-0.93347,-0.72488 -1.86108,-3.9249 -4.66309,-5.74606c-2.80078,-1.8197 -7.1546,-2.75476 -11.71564,0.01038c-0.36841,0.22336 7.04797,-1.5209 5.8822,2.29755c-1.01331,3.31537 -4.21936,23.47406 -8.71082,22.50653c-4.27258,-0.9202 -10.88,-3.71338 -11.26746,-6.42078c-0.23389,-1.63181 -0.10339,-6.1174 8.03333,-7.20477c3.02246,-0.12134 5.51086,0.84616 5.51086,0.84616s-2.21021,-2.76349 -8.22266,-1.86548c-10.08972,1.93362 -11.23181,10.56454 -1.8833,14.06491c4.88794,1.82855 6.15881,2.67334 6.65149,4.52554c0.49121,1.85083 0.2085,3.93677 -1.97205,7.39865c-2.1792,3.46185 -11.28223,13.3371 -11.28223,13.3371s-12.60156,14.23364 -28.7334,15.13306z"/>
      <path fill="#bf2a2a" id="svg_3" d="m993.98737,358.57581c-0.46289,1.38919 -1.58728,4.68094 -2.35669,7.62201c-0.16565,0.63467 -0.58582,0.69385 -1.00452,0.55777c-2.25159,-6.2403 -7.26245,-20.20013 -8.22119,-23.49933c-1.2428,-4.28436 -6.21948,-0.82993 -5.8053,1.65851c0.07397,0.44382 1.23083,3.33017 1.85535,5.04926c0.08264,0.22784 2.54163,1.85373 2.60217,2.03271c0.2605,0.77231 -7.08337,-3.76511 -7.91345,-4.04178s-1.89209,1.74573 -1.51941,2.76358c0.23669,0.65247 8.46387,4.73117 8.70654,5.39114c1.89966,5.15726 2.07263,4.97528 2.07263,4.97528c7.04797,1.17468 8.39563,9.05261 8.39563,9.05261l0.92334,-0.3432l3.42944,-1.10663c0,0 2.84033,-6.10266 3.53125,-8.72864c0.69373,-2.62598 -4.00476,-3.4559 -4.6958,-1.38324l0,-0.00003l0,-0.00003z"/>
     </g>
     <path opacity="0.95" id="svg_6" d="m949.35236,482.90948c0,0 -2.82129,5.45151 -3.4259,13.48288c-0.49243,6.56534 1.2843,22.44083 2.50476,27.55539c1.45264,6.07294 4.28516,7.51648 9.72363,7.64001c5.43665,0.11969 17.32825,-6.76013 20.46777,-8.44507c2.8811,-1.5426 17.93274,-10.9743 35.30408,-29.87503c1.05762,-1.15112 7.38904,-9.72742 0.26392,-11.86526c-4.495,-1.34979 -53.32874,-4.1691 -58.77832,-3.7966c-5.45154,0.37262 -28.45764,-0.41934 -32.56152,-1.0596c-3.13,-0.48676 -28.15247,-4.76083 -49.16309,5.64993c-21.01062,10.40704 -24.64636,24.81097 -24.64636,40.00668c0,11.25513 5.29053,18.31104 10.11877,33.86261c4.46692,14.38708 9.27808,25.00372 11.22144,28.94629c0.6571,1.32922 4.83386,5.05475 8.83264,3.16394c4.00049,-1.88898 29.71765,-32.23578 38.75977,-38.46417c9.04614,-6.22473 26.64197,-10.29095 26.81421,-17.82227c0.17041,-7.52966 -1.09888,-39.21671 -5.00781,-41.28543c-3.90918,-2.06866 -1.68677,-6.15741 -0.84448,-6.44943c3.27075,-1.1344 11.04736,-2.11368 10.4165,-1.24487z" fill="#964a03"/>
    </g>
   </g>
  </g>
 </g>
</svg>