<?xml version="1.0"?>
<svg width="1920" height="1080" xmlns="http://www.w3.org/2000/svg" xmlns:xlink="http://www.w3.org/1999/xlink">
 <!-- Created with SVG-edit - http://svg-edit.googlecode.com/ -->
 <defs>
  <filter height="200%" width="200%" y="-50%" x="-50%" id="svg_14_blur">
   <feGaussianBlur stdDeviation="5"/>
  </filter>
 </defs>
 <g display="inline">
  <title>vitruvian</title>
  <g id="svg_1">
   <g filter="url(#svg_14_blur)" id="svg_14">
    <rect id="svg_7" fill="none" stroke-width="11" stroke-dasharray="null" stroke-linejoin="null" stroke-linecap="null" x="648.69453" y="413.37325" width="624.9169" height="619.1549" stroke="#000000"/>
    <path id="svg_8" d="m960.81244,414.57806c-17.85968,0.28754 -27.40631,19.13251 -28.01123,30.28986c-1.72467,16.07404 2.05078,29.06293 8.25018,36.77216c0.27887,18.61432 1.33966,17.08405 -10.73706,20.34479c-18.44501,7.14471 -12.89386,-3.44299 -29.6098,-4.01501c-9.64282,-6.22888 -32.19104,-3.80798 -34.78467,-1.76749c-16.58014,-11.78909 -23.91919,-9.23703 -34.88403,-12.89932c-17.18976,1.06549 -15.83667,-7.35089 -25.48401,-13.77615c-14.64087,-4.06851 -27.34369,-15.67966 -49.5799,-14.1694c-17.13721,-3.27377 -7.00989,-4.37338 -19.35406,-6.36441c-9.41541,-6.42099 -10.62701,-3.08594 -14.24805,-6.16489c-4.98309,-0.40704 -1.03516,-13.14645 -11.75958,-15.10205c-8.07568,-4.18167 -4.52222,-8.73047 -11.78601,-9.53378c-3.44849,1.49341 -9.48999,-2.2258 -13.27875,-0.02573c0.86426,5.86688 -9.90063,-4.4787 -15.36102,-2.76346c-0.25555,6.71786 5.94495,7.82413 7.41504,7.2757c3.95648,4.44009 5.19812,4.93079 8.45526,5.30597c2.11078,2.29385 -0.66144,2.22321 -1.2818,3.64914c-7.53479,-0.77441 -9.46069,-6.65182 -12.88531,-4.34378c-1.71234,3.94348 2.12299,6.76099 7.72742,8.81732c6.70447,5.35645 12.50653,7.75183 10.17084,7.70755c1.8963,2.25668 -15.8028,-8.31491 -15.67792,-3.67679c1.3819,7.15247 10.37329,5.47046 24.47845,15.76334c4.79572,6.12814 13.3894,8.45297 17.60248,7.49655c3.40448,3.91571 16.92572,10.15555 25.55896,12.91226c12.56183,5.48019 17.1192,15.35928 35.5708,19.1702c16.3299,3.27661 20.64453,10.26184 30.17834,7.42139c6.07648,2.13336 16.40179,9.21255 32.05084,10.67801c10.17578,5.29089 8.63086,7.37384 16.4256,9.24512c2.9231,5.69672 13.98279,6.31226 17.80652,7.12543c10.31909,3.9801 13.46228,21.94568 14.43121,24.38147c5.99731,7.99097 5.18604,10.11218 6.39056,16.6062c12.12646,12.65021 4.66211,26.50653 21.10974,56.70221c-3.0368,9.69189 -9.97833,25.6933 -4.6358,34.46997c-5.10724,5.77502 -6.92743,16.91669 -8.79028,25.10791c-6.1059,29.04108 -22.91406,33.80609 -30.18201,67.63171c-7.30719,14.64185 -9.58539,24.49103 -10.39746,41.22705c-1.46655,9.17731 -17.10773,16.70465 -19.92932,28.44751c-2.92639,3.09924 -29.12494,30.87555 -33.00616,41.24316c-3.38855,7.71576 -9.70007,18.05981 -10.21088,30.67084c-13.448,31.73145 -7.44501,37.16028 -14.13977,52.72229c-2.27283,5.36084 -4.70923,3.30823 -5.80505,12.13831c-1.90466,-1.37134 -8.25238,5.10345 -7.00525,4.7323c-2.05267,1.67145 -11.28223,-5.38605 -14.54993,5.46167c1.16461,7.39624 38.74756,28.74976 39.64923,17.88068c2.94489,-8.1203 -3.13348,-6.35138 1.22595,-17.28198c3.88812,-2.289 5.64221,-9.4209 6.02228,-16.48773c-0.66779,-15.17664 18.16211,-30.59637 19.26611,-38.67377c5.47662,-10.04156 23.737,-25.93713 24.78601,-42.96399c4.00745,-9.53064 3.85022,-11.0788 12.38702,-24.87976c1.29645,-3.69336 12.94458,-7.55475 20.18915,-21.1048c4.09766,-8.80432 12.92938,-8.88275 21.7962,-34.76074c3.78351,-11.73486 21.36005,-16.95172 33.49969,-35.71924c6.40356,-15.51819 18.31952,-23.02643 18.20148,-36.04578c8.12665,-0.39301 9.77832,0.33575 12.94635,-0.24548c-0.60394,8.69061 5.80896,17.64197 6.32758,26.4657c10.23053,32.3642 16.50415,33.15796 20.0401,39.5459c15.29443,18.04822 15.71411,15.97778 26.29407,37.08624c5.18604,20.70428 13.55396,22.30884 13.76001,32.48425c6.46765,13.02374 6.45532,24.61505 12.25623,38.35059c10.3584,19.70746 14.90076,17.98669 18.22046,20.72998c5.56677,31.28406 31.71643,32.56097 39.80554,63.25134c-1.89392,7.95648 5.49219,17.76855 8.30896,18.41376c20.53149,-2.59143 13.09387,-14.87671 21.42285,-12.67706c9.87695,1.44159 13.80139,0.96503 18.28027,-5.5282c13.22791,-8.27362 27.37073,-12.15131 12.9917,-20.1936c-13.20068,0.25165 -13.07434,2.40503 -20.53113,5.27283c-9.36621,-2.42432 -8.26599,0.66034 -17.39233,-2.5733c-0.57764,-4.78131 -9.23193,-7.82599 -14.18982,-19.90662c-14.07312,-34.06116 -9.77429,-47.69373 -43.38062,-89.12555c-5.7323,-6.45886 -1.04492,-13.06262 -5.5708,-21.3681c-0.51453,-15.758 -7.52332,-12.64581 -8.87451,-21.7251c-5.75183,-11.93146 0.99023,-13.10986 -3.29224,-31.61011c-11.99854,-23.95715 -4.58813,-29.41321 -21.41516,-48.448c-4.06226,-11.48297 -2.43604,-8.02277 -9.51135,-19.78851c-0.89563,-21.24628 -2.57703,-22.4953 -12.33197,-46.84119c4.03082,-9.66449 5.38617,-11.60126 1.41418,-19.28577c-2.87585,-3.2843 1.02167,-8.38373 -3.53564,-16.04462c5.52362,-8.00269 6.1994,-16.55927 8.34442,-28.18018c1.35925,-6.43121 6.70227,-9.7981 7.57837,-28.62805c6.83582,-11.66821 8.63123,-15.03491 10.5874,-17.69067c0.98975,-23.84302 24.69177,-26.52246 34.82776,-29.45441c10.48962,-2.09552 32.35242,-17.96713 47.27344,-21.85217c21.52502,1.14328 18.19739,-6.15573 34.88647,-9.49167c14.77161,-5.23071 20.44495,-13.78323 31.84998,-19.23233c9.79395,-4.93445 19.82312,-7.66592 25.92432,-12.8093c8.94177,-1.23596 11.83301,0.46091 19.78174,-9.04114c3.66016,-2.70807 7.56311,-1.06583 11.80103,-6.26825c9.10901,-3.94519 14.46729,-9.39185 7.83777,-11.50677c-0.7594,0.7399 -2.20605,4.54871 -9.1825,5.36316c-2.54529,2.60742 -5.53015,4.30881 -5.78833,0.18195c0.21338,-2.86969 8.33911,-3.08167 14.97205,-9.17285c0.97595,-1.37671 10.25073,-1.88489 5.39099,-6.9628c-2.66553,-1.7532 -11.92957,3.91556 -16.53076,4.26584c-0.35828,-2.16418 2.84607,-3.67542 7.82996,-6.1171c-1.43774,0.44778 17.11218,-6.29196 7.70862,-8.40674c-2.93103,-0.70731 -3.48047,1.88577 -8.90234,0.68118c-11.31482,2.30493 -16.76355,0.39264 -24.62061,10.21463c-19.17224,4.81937 -13.93542,11.26208 -20.32324,14.98135c-8.76074,3.5882 -17.62,5.89932 -24.8761,11.12137c-8.12427,1.86929 -20.99866,3.8465 -32.1676,7.26477c-15.2981,6.57391 -27.52832,10.42358 -39.86401,23.30978c-24.48755,2.14798 -34.521,11.8382 -44.26404,15.03378c-8.39148,-6.63989 -33.81042,-3.82379 -39.6167,5.07117c-10.30841,0.51434 -15.935,7.23874 -17.84399,7.73645c-2.82855,-2.71118 0.11017,-2.13492 -8.03784,-3.85062c-12.65424,-7.13687 -12.01379,-5.0943 -10.61139,-22.47159c8.67059,-11.9953 10.10852,-21.987 7.70807,-38.29755c0.11011,-8.76672 -10.6936,-28.41037 -26.9859,-28.90851l0,0l0,0l0,-0.00006l0,0l0,-0.00006l0,0l0.00006,0l0,0l0,0l-0.00006,0z" fill="none" stroke-width="11" stroke="#000000"/>
    <path id="svg_11" d="m961.02063,414.57806c-17.85962,0.28754 -27.40625,19.13251 -28.01129,30.28986c-1.72461,16.07404 2.05469,29.06293 8.25024,36.77216c0.2829,18.61432 1.34357,17.08405 -10.73315,20.34479c-19.70612,4.63037 -16.19745,7.40005 -21.44073,10.59973c-8.38525,-2.14313 -17.57654,-0.19385 -20.17035,1.84668c-2.59399,-1.41705 -4.27545,-1.2226 -8.79736,-0.95624c-12.47552,1.69403 -17.87958,5.84937 -25.95544,10.26715c-14.32654,-2.49701 -23.10077,-3.73657 -45.17932,2.64514c-9.43756,-4.53088 -18.3252,-8.61664 -35.69806,-4.95007c-12.24408,-3.12091 -25.39868,-3.40027 -38.76282,1.37817c-4.98309,-0.40704 -8.26355,-2.61761 -21.81696,-0.95898c-11.69012,-2.45306 -9.70813,-9.20172 -24.8291,-10.47656c-2.97711,-0.7067 -5.40417,-1.44025 -8.72156,-2.22595c1.02136,0.20935 -2.82898,-1.02142 -5.14655,-0.40625c-4.12506,-0.28357 -20.9267,-0.59363 -22.27539,1.8728c-0.75079,4.56592 8.05804,3.39594 9.92651,2.95953c4.83649,1.60596 5.69183,1.61542 8.06665,0.41913c5.55237,2.08215 6.10907,1.00183 9.71674,2.16431c3.92242,0.37634 8.69531,0.0094 12.78149,1.16205c-4.505,-0.27063 -6.84253,-1.45154 -10.72559,-1.05444c-2.91351,0.21411 -7.39886,0.43457 -10.25378,1.23755c-2.10388,0.94287 -4.82367,0.87103 -9.84125,0.67804c-5.12262,1.74475 -13.51221,1.35187 -13.1543,3.87915c0.74213,3.76288 6.98425,3.75427 10.86932,2.88129c3.9809,0.83795 6.15503,1.25684 10.29309,-0.15717c5.31665,1.32672 0.68121,-0.14844 6.12872,1.78088c-2.78503,1.17859 -6.90576,1.46655 -11.34088,1.41437c-1.65863,0.64581 -13.19159,-0.25348 -14.7981,3.50946c1.78131,4.54816 8.66943,1.2135 13.67175,2.40979c7.84003,-0.0177 10.65094,-0.66357 14.56238,0.41882c-1.7287,3.0647 -17.4433,1.59778 -18.28119,4.81927c0.58923,2.69781 6.07605,0.10486 9.94263,1.53217c3.99738,-0.72052 8.12903,-0.17017 12.37207,0.14417c4.87152,1.41394 7.62781,1.66925 10.88556,2.34692c9.8573,3.37555 17.25647,0.02283 20.07214,-1.66614c3.2475,2.97278 11.26855,1.51257 20.05884,2.85498c13.19049,2.65149 13.81915,5.14502 33.68506,7.07001c8.1582,0.29071 12.47308,0.04718 19.96375,-0.90747c7.49091,0.71893 11.37347,-0.05896 16.02228,-1.89368c14.26135,-3.82373 9.73047,1.87396 24.59686,-1.28345c7.3233,1.29645 14.14008,-1.54517 18.90668,3.51099c16.76233,3.19403 25.56244,2.77368 38.47443,1.75226c8.82599,6.89081 9.27191,11.84088 10.47638,18.33496c12.12665,12.65015 4.66229,26.50647 21.1087,56.70209c-3.03687,9.69202 -9.97717,25.69336 -4.63464,34.47003c-5.10718,5.77502 -6.92737,16.91675 -8.79028,25.10797c-6.10596,24.32623 0.02936,22.96289 -0.95264,39.97394c-1.96393,37.74261 -0.47113,66.44928 9.40271,105.97137c-0.83801,9.96307 -1.55029,11.0473 -3.58612,22.79022c-1.82629,11.11407 0.41846,11.23181 -2.20544,22.69965c-6.6886,26.73041 -11.74316,41.63177 1.26068,71.05743c3.09027,20.0636 10.27185,31.21307 19.02094,44.60583c1.85828,9.75476 -2.88745,8.94159 0.64819,18.83002c-5.2525,0.44385 -6.35657,7.59406 -2.39636,11.22821c-1.01373,4.81262 3.32745,9.20081 6.79645,8.41504c22.4209,1.54395 39.39258,2.43579 36.77222,-1.62244c-1.34753,-5.2251 1.56757,-7.38202 -9.362,-12.78778c-2.20789,-4.78125 -5.55505,-8.46631 -5.43726,-12.35565c2.42395,-8.70984 -6.50189,-12.08051 -8.16766,-18.99103c-3.1311,-7.35052 -2.83258,-13.86816 -2.30609,-26.40057c-1.45361,-7.79041 -3.99548,-11.73877 -2.89154,-18.71606c2.96228,-10.9845 2.36505,-26.25128 -4.28613,-45.00659c-1.96429,-19.11688 7.30725,-23.65045 7.98706,-40.75195c2.86786,-1.49286 3.67316,-4.56897 2.9032,-9.3186c1.89752,-4.87549 3.18616,-9.82562 3.25287,-16.37469c-1.2453,-12.04919 -3.15466,-21.03796 0.9704,-32.10492c3.41797,-13.47522 9.04767,-20.03992 9.55847,-49.55988c-0.71899,16.50037 -0.93512,16.58673 -3.35522,32.66278c-2.49847,36.92139 7.07556,24.51483 0.23975,64.21771c4.29401,26.37689 -4.24298,28.39221 -8.12048,72.91559c1.8858,22.23627 9.90021,25.90558 10.60748,29.96387c-2.60486,6.45483 -0.49908,28.16058 7.11859,44.86517c10.2066,26.81293 -2.67944,21.2265 0.9231,33.34247c8.7453,11.39307 16.23712,2.2511 22.8374,3.19409c28.41974,-0.91553 30.77313,5.36633 42.16608,0.91528c3.51233,1.19421 4.94629,0.98999 7.8927,0.31812c12.3988,0.79761 12.85071,-0.36926 14.6853,-4.84778c1.33569,-10.81567 -9.19299,-1.80725 -14.30029,-4.8205c-15.24329,-1.47723 -19.83179,-3.56732 -26.34546,-9.34235c-3.70862,-2.89551 -8.73737,-1.22583 -16.60651,-10.11621c-8.90625,-18.76721 -7.34656,-35.01221 -5.54718,-59.35022c-0.24359,-33.11841 -5.53162,-40.46503 -3.15076,-52.66736c3.53967,-23.11627 12.31232,-21.39148 7.47217,-41.01117c-0.35736,-9.94348 4.8913,-13.43213 4.16833,-18.42535c4.62012,-8.94562 5.23297,-17.1958 8.96521,-27.68121c4.03101,-22.85693 3.42578,-41.67126 4.0426,-52.69116c-0.29077,-19.02637 -3.37866,-23.42242 -4.01117,-31.88873c-0.73865,-11.81732 5.43732,-24.85272 -0.70325,-55.32721c4.03094,-9.66449 5.38629,-11.60132 1.41449,-19.28577c-2.87592,-3.28436 1.02136,-8.38373 -3.53601,-16.04456c5.5238,-8.00269 6.19946,-16.55933 8.34448,-28.18024c1.3595,-6.43121 6.70239,-9.7981 7.57837,-28.62805c6.52161,-10.56805 9.41699,-17.70636 21.90222,-21.46222c19.5332,2.71472 22.02002,2.07831 32.15613,-0.85364c6.875,-1.30981 13.96619,-0.68127 20.08716,0.14813c8.01038,-0.27112 11.9115,-1.1272 18.38586,-0.22009c6.75745,2.62671 14.63025,2.55988 29.64941,3.71106c14.98401,-0.84863 28.15686,-5.30878 36.297,-7.62354c8.45837,-1.84338 23.50903,-0.12769 29.67688,-3.55859c12.25732,3.98096 16.84216,1.6496 22.00049,-0.23572c17.10535,-2.77594 31.97913,-0.55042 30.48633,-4.79297c2.43579,-2.54065 -18.70044,-0.05261 -20.16565,-2.72412c-0.95471,-1.95135 6.89465,-3.05139 12.1394,-3.0675c6.18774,-1.43085 13.54211,1.05096 13.31824,-4.26569c-1.44189,-2.17419 -19.172,0.10449 -26.55774,-2.30499c0.14148,-1.2309 10.39917,-1.01477 16.66138,-1.0835c6.1051,-1.32635 15.29431,1.62054 14.71667,-3.57861c0.05115,-3.58807 -21.0575,-1.33569 -26.61267,-4.13806c12.72888,1.49292 20.58606,3.35229 19.80042,-1.78082c0.52649,-1.75485 -7.88086,-2.1478 -13.14514,-4.13843c-8.01453,-0.05225 -8.5918,1.80716 -19.59229,-0.47144c-19.64331,1.67633 -10.47766,7.01929 -23.78015,10.42432c-13.63245,-0.18347 -12.74841,3.22778 -22.36169,1.6925c-25.56372,1.0835 -11.09851,-4.79651 -42.53955,-1.0639c-18.28381,-0.96918 -22.97083,2.40942 -33.10657,5.08093c-20.24438,-9.16675 -32.32117,-1.04779 -40.33557,-2.25232c-6.19128,-8.05414 -30.19556,-14.50964 -44.95935,-9.85773c-14.23743,-2.78583 -14.20605,-1.40454 -22.08691,0.50757c-2.82861,-2.71118 -5.23291,-7.00638 -13.38098,-8.72202c-12.65417,-7.13681 -12.01392,-5.09433 -10.61133,-22.47153c8.67053,-11.9953 10.10846,-21.98709 7.70813,-38.29758c0.10999,-8.76682 -10.69391,-28.41043 -26.98596,-28.90863l0,0l0,0l0,0.00003l0,0.00006l0,0l0,0l0,0l0,0z" fill="none" stroke-width="11" stroke="#000000"/>
    <circle id="svg_12" fill="none" stroke-width="11" cx="962.51506" cy="657.82695" r="375.46259" stroke="#000000"/>
    <line id="svg_13" fill="none" stroke-width="11" stroke-dasharray="null" stroke-linejoin="null" stroke-linecap="null" x1="1209.40608" y1="518.92293" x2="1209.40608" y2="541.57488" stroke="#000000"/>
   </g>
   <rect fill="none" stroke-width="25" stroke-dasharray="null" stroke-linejoin="null" stroke-linecap="null" x="643.66435" y="409.87025" width="624.9169" height="619.1549" id="svg_3" stroke="#428bca"/>
   <path id="svg_18" d="m955.78229,411.07507c-17.85968,0.2876 -27.40625,19.13245 -28.01123,30.28986c-1.72467,16.07404 2.05066,29.06293 8.25012,36.77216c0.27893,18.61432 1.33966,17.08411 -10.73706,20.34485c-18.44495,7.14465 -12.89374,-3.44305 -29.60974,-4.01501c-9.64288,-6.22894 -32.19098,-3.80801 -34.78473,-1.76752c-16.58002,-11.78912 -23.91913,-9.23706 -34.88397,-12.89935c-17.18982,1.06549 -15.83679,-7.35092 -25.48395,-13.77612c-14.64093,-4.06857 -27.34387,-15.67966 -49.5799,-14.16943c-17.13721,-3.27377 -7.00995,-4.37341 -19.35413,-6.36441c-9.41534,-6.42096 -10.62708,-3.08594 -14.24811,-6.16489c-4.98309,-0.40698 -1.0351,-13.14642 -11.75958,-15.10208c-8.07568,-4.18164 -4.52216,-8.73047 -11.78589,-9.53375c-3.44855,1.49341 -9.48999,-2.22586 -13.27893,-0.02573c0.86438,5.86688 -9.90051,-4.47876 -15.3609,-2.76346c-0.25555,6.71786 5.94501,7.82413 7.41492,7.2757c3.95648,4.44009 5.19818,4.93079 8.45544,5.30597c2.11066,2.29379 -0.66156,2.22321 -1.28198,3.64911c-7.53473,-0.77438 -9.46057,-6.65189 -12.88519,-4.34375c-1.71234,3.94348 2.12292,6.76099 7.72742,8.81726c6.70441,5.35651 12.50665,7.75192 10.17072,7.70764c1.89655,2.25659 -15.80267,-8.315 -15.67792,-3.67688c1.38202,7.15253 10.37341,5.47049 24.47852,15.76337c4.79572,6.12817 13.3894,8.453 17.60248,7.49658c3.40454,3.91571 16.92584,10.15552 25.5589,12.91232c12.56183,5.48019 17.11926,15.35919 35.57086,19.1702c16.32983,3.27649 20.64459,10.26175 30.17834,7.42123c6.07648,2.13333 16.40179,9.21268 32.0509,10.6781c10.17572,5.29089 8.6308,7.37384 16.42554,9.24512c2.92322,5.69666 13.98279,6.31226 17.80652,7.12543c10.31909,3.9801 13.4624,21.94562 14.43115,24.38147c5.99731,7.99091 5.18597,10.11218 6.39056,16.6062c12.12659,12.65021 4.66211,26.50659 21.10986,56.70221c-3.03693,9.69189 -9.97839,25.6933 -4.63586,34.47003c-5.10724,5.77509 -6.92737,16.91669 -8.79022,25.10785c-6.10602,29.04108 -22.91406,33.80615 -30.18207,67.63171c-7.30713,14.64197 -9.58533,24.49097 -10.39752,41.22711c-1.46649,9.17725 -17.10754,16.70459 -19.9292,28.44745c-2.92645,3.0993 -29.12506,30.87549 -33.00629,41.24316c-3.38843,7.7157 -9.70001,18.05975 -10.21088,30.67084c-13.44788,31.73138 -7.44495,37.16022 -14.13971,52.72235c-2.27277,5.36078 -4.70929,3.30811 -5.80493,12.13818c-1.90479,-1.37128 -8.25256,5.10352 -7.00525,4.7323c-2.0528,1.67151 -11.28235,-5.38599 -14.55005,5.46161c1.16467,7.3963 38.7475,28.74982 39.64923,17.8808c2.94495,-8.1203 -3.13348,-6.35138 1.22595,-17.28204c3.88824,-2.28912 5.64227,-9.4209 6.02234,-16.48773c-0.66779,-15.17664 18.16205,-30.5965 19.26605,-38.67377c5.47662,-10.04156 23.737,-25.93719 24.78601,-42.96387c4.00739,-9.53082 3.85022,-11.07892 12.38702,-24.87994c1.29639,-3.69324 12.94458,-7.55469 20.18915,-21.10468c4.09772,-8.80432 12.92938,-8.88281 21.79626,-34.76086c3.78345,-11.7348 21.35999,-16.95166 33.49963,-35.71912c6.4035,-15.51825 18.31958,-23.02643 18.2016,-36.04584c8.12653,-0.39301 9.7782,0.33588 12.94617,-0.24542c-0.60382,8.69055 5.8089,17.64191 6.32764,26.4657c10.23059,32.3642 16.50427,33.15784 20.04016,39.54584c15.29437,18.04822 15.71405,15.97784 26.29407,37.0863c5.18604,20.70416 13.55396,22.30872 13.76001,32.48419c6.46753,13.0238 6.45532,24.61505 12.25623,38.35065c10.35828,19.70734 14.90076,17.98669 18.22046,20.72992c5.56677,31.28394 31.71655,32.56091 39.80554,63.25128c-1.8938,7.9566 5.49219,17.76862 8.30908,18.41388c20.53137,-2.59155 13.09375,-14.87677 21.42249,-12.67712c9.87695,1.44147 13.80164,0.96497 18.28052,-5.52826c13.22778,-8.27368 27.37073,-12.15118 12.9917,-20.1936c-13.20068,0.25165 -13.07446,2.40509 -20.53125,5.27277c-9.36597,-2.42419 -8.26587,0.66046 -17.39221,-2.57324c-0.57776,-4.78131 -9.23206,-7.82605 -14.18994,-19.90662c-14.07312,-34.0611 -9.77417,-47.69373 -43.38062,-89.12561c-5.73218,-6.4588 -1.04468,-13.0625 -5.57068,-21.36804c-0.5144,-15.758 -7.52319,-12.64581 -8.87463,-21.7251c-5.75171,-11.9314 0.99023,-13.1098 -3.29224,-31.61011c-11.99854,-23.95715 -4.58801,-29.41315 -21.41492,-48.448c-4.0625,-11.48297 -2.43616,-8.02264 -9.51147,-19.78851c-0.89563,-21.24628 -2.57715,-22.4953 -12.33197,-46.84113c4.03064,-9.66449 5.38617,-11.60126 1.41425,-19.28577c-2.87585,-3.2843 1.02155,-8.38367 -3.53577,-16.04456c5.52374,-8.00275 6.19928,-16.55927 8.34442,-28.18018c1.35931,-6.43121 6.70233,-9.7981 7.57831,-28.62811c6.83582,-11.66815 8.63135,-15.03491 10.5874,-17.69061c0.98987,-23.84308 24.69177,-26.52246 34.82776,-29.45447c10.48975,-2.09546 32.35242,-17.9671 47.27356,-21.85217c21.52502,1.14331 18.19727,-6.1557 34.88647,-9.49164c14.77161,-5.23065 20.44495,-13.78326 31.84985,-19.23239c9.79395,-4.93442 19.82312,-7.66583 25.92432,-12.8093c8.94177,-1.23596 11.83301,0.461 19.78186,-9.0412c3.66003,-2.70807 7.56323,-1.06573 11.8009,-6.26819c9.10901,-3.94519 14.46741,-9.39178 7.83789,-11.50677c-0.75952,0.73993 -2.20618,4.54871 -9.18262,5.36313c-2.54517,2.60745 -5.53015,4.30878 -5.78833,0.18192c0.2135,-2.8696 8.33911,-3.08157 14.97217,-9.17279c0.97571,-1.37665 10.25061,-1.88489 5.39099,-6.96277c-2.66565,-1.7532 -11.92957,3.91553 -16.53088,4.26578c-0.35803,-2.16412 2.84619,-3.67529 7.82983,-6.117c-1.43762,0.44778 17.11255,-6.29193 7.70874,-8.40674c-2.93115,-0.70731 -3.48035,1.88577 -8.90234,0.68118c-11.31482,2.30493 -16.76343,0.39264 -24.62048,10.21463c-19.17224,4.8194 -13.93555,11.26202 -20.32336,14.98132c-8.76086,3.5882 -17.61987,5.89941 -24.8761,11.1214c-8.12439,1.86926 -20.99854,3.84647 -32.1676,7.26477c-15.2981,6.57394 -27.52832,10.42368 -39.86389,23.30984c-24.48755,2.14801 -34.521,11.83813 -44.26416,15.03375c-8.39148,-6.63989 -33.8103,-3.82385 -39.6167,5.0712c-10.30847,0.51437 -15.93475,7.23877 -17.84393,7.73639c-2.82861,-2.71115 0.11023,-2.13492 -8.0379,-3.85052c-12.65411,-7.13684 -12.01379,-5.0943 -10.61127,-22.47165c8.67041,-11.99527 10.10834,-21.98691 7.70807,-38.29752c0.10999,-8.76685 -10.69385,-28.41046 -26.98602,-28.90857l0,0l0,-0.00003l0,0l0,0l0,-0.00003l0,0l0.00012,0l0,0l0,0l0,-0.00003z" fill="none" stroke-width="25" stroke="#428bca"/>
   <path id="svg_9" d="m955.99036,411.07507c-17.8595,0.2876 -27.40613,19.13245 -28.01111,30.28986c-1.72473,16.07404 2.05463,29.06293 8.25018,36.77216c0.28284,18.61432 1.34351,17.08411 -10.73303,20.34485c-19.70624,4.63028 -16.19763,7.40002 -21.44086,10.59964c-8.38531,-2.14307 -17.5766,-0.19382 -20.17035,1.84677c-2.59399,-1.41711 -4.27545,-1.22263 -8.7973,-0.95624c-12.47552,1.69397 -17.8797,5.84937 -25.95544,10.26709c-14.32666,-2.49707 -23.10083,-3.73657 -45.17944,2.64514c-9.4375,-4.53088 -18.3252,-8.61664 -35.69812,-4.95007c-12.24402,-3.12091 -25.39868,-3.40027 -38.76276,1.37817c-4.98315,-0.40704 -8.26349,-2.61768 -21.81702,-0.95898c-11.69006,-2.45306 -9.70801,-9.20172 -24.82898,-10.47656c-2.97711,-0.70673 -5.4043,-1.44025 -8.72156,-2.22595c1.02142,0.20941 -2.8291,-1.02142 -5.14661,-0.40628c-4.12506,-0.28354 -20.92676,-0.5936 -22.27545,1.87286c-0.75073,4.56583 8.05817,3.39594 9.92651,2.95944c4.83655,1.60602 5.69183,1.61542 8.06677,0.41919c5.55237,2.08221 6.10901,1.00183 9.71674,2.16425c3.9223,0.3764 8.69525,0.00946 12.78143,1.16217c-4.50507,-0.27075 -6.84259,-1.45166 -10.72559,-1.0545c-2.91351,0.21411 -7.39886,0.43457 -10.25378,1.23755c-2.10388,0.94281 -4.82367,0.87103 -9.84131,0.6781c-5.12262,1.74469 -13.51215,1.35181 -13.15424,3.87909c0.74213,3.76288 6.98431,3.75427 10.86932,2.88123c3.98096,0.83801 6.15503,1.2569 10.29303,-0.15704c5.31665,1.32672 0.68121,-0.1485 6.12872,1.78082c-2.78497,1.17859 -6.90576,1.46655 -11.34082,1.41431c-1.65863,0.64587 -13.19159,-0.25342 -14.79803,3.50952c1.78131,4.54816 8.66931,1.2135 13.67175,2.40973c7.8399,-0.01758 10.65094,-0.66351 14.56219,0.41888c-1.72858,3.0647 -17.44318,1.59772 -18.28119,4.81927c0.58936,2.69775 6.07611,0.10492 9.94263,1.5321c3.99744,-0.72052 8.12927,-0.17004 12.37213,0.14423c4.87152,1.41394 7.62781,1.66925 10.8855,2.34698c9.85742,3.37549 17.25653,0.02277 20.0722,-1.6662c3.2475,2.97284 11.26849,1.51251 20.0589,2.85498c13.19049,2.65143 13.81909,5.14496 33.68506,7.06995c8.1582,0.29077 12.47302,0.04718 19.96381,-0.90753c7.49078,0.71899 11.37335,-0.05884 16.02222,-1.89355c14.26135,-3.82373 9.73053,1.8739 24.59686,-1.28345c7.32336,1.29639 14.13989,-1.5451 18.90668,3.51099c16.76233,3.19403 25.56262,2.77368 38.47443,1.75214c8.82599,6.89087 9.27197,11.84094 10.4765,18.33508c12.12659,12.65021 4.66211,26.50653 21.10864,56.70209c-3.03699,9.69196 -9.97729,25.69336 -4.63458,34.47003c-5.10724,5.77515 -6.92743,16.91681 -8.79041,25.10791c-6.10596,24.32635 0.02948,22.96301 -0.95276,39.974c-1.96393,37.74255 -0.47101,66.44922 9.40283,105.97137c-0.83795,9.96307 -1.55029,11.04724 -3.586,22.79016c-1.8266,11.11407 0.41833,11.23187 -2.20563,22.69965c-6.68854,26.73047 -11.74304,41.63184 1.26062,71.0575c3.09039,20.0636 10.27197,31.21307 19.02094,44.60583c1.85834,9.75476 -2.88745,8.94159 0.64838,18.83008c-5.25262,0.44385 -6.35663,7.59406 -2.39636,11.22815c-1.01367,4.81256 3.32739,9.20074 6.79645,8.41498c22.42072,1.54395 39.39246,2.43579 36.77216,-1.62244c-1.34753,-5.2251 1.56738,-7.38196 -9.362,-12.78772c-2.20782,-4.78125 -5.55505,-8.46637 -5.43719,-12.35565c2.42395,-8.70984 -6.50201,-12.08057 -8.16772,-18.99109c-3.13098,-7.35046 -2.83252,-13.8681 -2.30603,-26.40051c-1.45361,-7.79047 -3.99542,-11.73871 -2.89154,-18.716c2.96228,-10.98456 2.36505,-26.25122 -4.28613,-45.00659c-1.96429,-19.11688 7.30725,-23.65045 7.98694,-40.75195c2.86792,-1.49292 3.67328,-4.56897 2.9032,-9.3186c1.89764,-4.87555 3.18628,-9.82556 3.25299,-16.37476c-1.24536,-12.04913 -3.15479,-21.03784 0.97034,-32.10486c3.41797,-13.47534 9.04767,-20.03992 9.55835,-49.55988c-0.71893,16.50037 -0.93488,16.58673 -3.3551,32.66272c-2.49854,36.92145 7.0755,24.51483 0.23975,64.21777c4.29401,26.37683 -4.24292,28.39215 -8.12054,72.91565c1.8858,22.23602 9.90021,25.90552 10.60742,29.96375c-2.6048,6.4549 -0.49902,28.16058 7.11865,44.86517c10.2066,26.81299 -2.67932,21.22656 0.92322,33.34247c8.74518,11.39301 16.23724,2.25104 22.83734,3.19403c28.4198,-0.91553 30.77307,5.36633 42.16614,0.91528c3.51233,1.19421 4.94604,0.98999 7.8927,0.31824c12.3988,0.79761 12.85071,-0.36938 14.6853,-4.8479c1.33569,-10.81549 -9.19312,-1.80719 -14.30029,-4.82043c-15.24316,-1.47717 -19.83179,-3.56726 -26.34564,-9.34229c-3.70856,-2.89551 -8.73718,-1.22577 -16.60632,-10.11633c-8.90619,-18.76715 -7.34656,-35.01208 -5.54724,-59.3501c-0.24353,-33.11847 -5.53149,-40.46515 -3.15082,-52.66742c3.53973,-23.11621 12.31244,-21.39148 7.47229,-41.01117c-0.35736,-9.94354 4.89111,-13.43213 4.16827,-18.42548c4.62012,-8.9455 5.23309,-17.19568 8.96515,-27.68109c4.03094,-22.85699 3.4259,-41.67126 4.0426,-52.6911c-0.29059,-19.02643 -3.3786,-23.42261 -4.01117,-31.88873c-0.73853,-11.81738 5.43732,-24.85272 -0.70319,-55.32727c4.03082,-9.66449 5.38623,-11.60132 1.41431,-19.28577c-2.87579,-3.28424 1.02148,-8.38373 -3.53571,-16.04462c5.52368,-8.00269 6.1994,-16.55933 8.34442,-28.18018c1.35925,-6.43121 6.70227,-9.79816 7.57837,-28.62805c6.52161,-10.56799 9.41699,-17.70642 21.90222,-21.46228c19.53333,2.71472 22.02002,2.07837 32.15601,-0.85358c6.87512,-1.30981 13.96619,-0.68127 20.08716,0.14801c8.01038,-0.27106 11.91174,-1.12714 18.38599,-0.21997c6.7572,2.62671 14.63037,2.55988 29.64954,3.711c14.98389,-0.84857 28.15649,-5.30878 36.29675,-7.62354c8.45837,-1.84338 23.50903,-0.12775 29.677,-3.55859c12.25757,3.98096 16.84204,1.64966 22.00037,-0.23572c17.10547,-2.77594 31.97937,-0.55042 30.48633,-4.79291c2.43579,-2.54071 -18.7002,-0.05267 -20.16553,-2.72418c-0.95483,-1.95142 6.89465,-3.05139 12.13928,-3.06744c6.18774,-1.43085 13.54211,1.0509 13.31824,-4.26575c-1.44177,-2.17413 -19.17188,0.10443 -26.55762,-2.30493c0.14124,-1.2309 10.39905,-1.01477 16.66125,-1.08356c6.10522,-1.32629 15.29431,1.62061 14.7168,-3.57861c0.05115,-3.58798 -21.05762,-1.33569 -26.61279,-4.13803c12.729,1.49295 20.5863,3.35233 19.80054,-1.78082c0.52637,-1.75485 -7.88086,-2.14777 -13.14526,-4.13843c-8.0144,-0.05222 -8.59192,1.80719 -19.59216,-0.47137c-19.64331,1.67627 -10.47778,7.01932 -23.78027,10.42435c-13.63232,-0.18347 -12.74841,3.22772 -22.36169,1.69238c-25.56372,1.08356 -11.09839,-4.79645 -42.53955,-1.06384c-18.28381,-0.96918 -22.9707,2.40936 -33.10657,5.08093c-20.24438,-9.16678 -32.32117,-1.04779 -40.33545,-2.25232c-6.19153,-8.05411 -30.19556,-14.50961 -44.95947,-9.85779c-14.23737,-2.78577 -14.20593,-1.40448 -22.08679,0.5076c-2.82861,-2.71118 -5.23297,-7.00638 -13.38098,-8.72205c-12.6543,-7.13672 -12.01373,-5.09424 -10.61133,-22.47147c8.67047,-11.99533 10.10846,-21.98709 7.70813,-38.29761c0.10999,-8.76685 -10.69391,-28.41043 -26.98602,-28.90851l0,0l0,0l0,0l0,0l0,0l0,0.00003l0,0.00003l0,-0.00003l-0.00006,-0.00003z" fill="none" stroke-width="25" stroke="#428bca"/>
   <circle fill="none" stroke-width="25" cx="957.48488" cy="654.32394" r="375.46255" id="svg_2" stroke="#428bca"/>
   <circle fill="#428bca" stroke-width="25" stroke-dasharray="null" stroke-linejoin="null" stroke-linecap="null" cx="955.86088" cy="654.49407" r="11.1119" id="svg_5" stroke="#428bca"/>
   <line stroke-width="2" fill="none" stroke-dasharray="null" stroke-linejoin="null" stroke-linecap="null" x1="912.64574" y1="512.74844" x2="994.51937" y2="512.74844" id="svg_10" stroke="#428bca"/>
   <line stroke-width="25" fill="none" stroke-dasharray="null" stroke-linejoin="null" stroke-linecap="null" x1="876.81647" y1="509.60552" x2="876.81647" y2="549.04946" id="svg_21" stroke="#428bca"/>
   <line stroke-width="2" fill="none" stroke-dasharray="null" stroke-linejoin="null" stroke-linecap="null" x1="708.5132" y1="518.71999" x2="708.1989" y2="538.83466" id="svg_26" stroke="#428bca"/>
   <line stroke-width="25" fill="none" stroke-dasharray="null" stroke-linejoin="null" stroke-linecap="null" x1="1031.6052" y1="507.56263" x2="1030.81947" y2="549.67773" id="svg_27" stroke="#428bca"/>
   <line fill="none" stroke-width="2" stroke-dasharray="null" stroke-linejoin="null" stroke-linecap="null" x1="902.54911" y1="488.31225" x2="1009.21208" y2="488.31225" id="svg_28" stroke="#428bca"/>
   <line fill="none" stroke-width="2" stroke-dasharray="null" stroke-linejoin="null" stroke-linecap="null" x1="903.21699" y1="425.84675" x2="1008.50581" y2="425.84675" id="svg_39" stroke="#428bca"/>
   <path fill="none" stroke-width="2" stroke-dasharray="null" stroke-linejoin="null" stroke-linecap="null" d="m955.61646,411.19101l0,617.7377" id="svg_29" stroke="#428bca"/>
   <line fill="none" stroke-width="25" stroke-dasharray="null" stroke-linejoin="null" stroke-linecap="null" x1="954.68227" y1="410.52502" x2="955.66443" y2="410.91789" id="svg_30" stroke="#428bca"/>
   <line fill="none" stroke-width="2" stroke-dasharray="null" stroke-linejoin="null" stroke-linecap="null" x1="1108.44955" y1="520.60574" x2="1108.44955" y2="544.65727" id="svg_31" stroke="#428bca"/>
   <line fill="none" stroke-width="2" stroke-dasharray="null" stroke-linejoin="null" stroke-linecap="null" x1="799.57926" y1="520.84146" x2="799.57926" y2="544.40628" id="svg_32" stroke="#428bca"/>
   <line fill="none" stroke-width="25" stroke-dasharray="null" stroke-linejoin="null" stroke-linecap="null" x1="797.61493" y1="529.09162" x2="798.55781" y2="529.40591" id="svg_33" stroke="#428bca"/>
   <line fill="none" stroke-width="2" stroke-dasharray="null" stroke-linejoin="null" stroke-linecap="null" x1="889.46672" y1="565.1828" x2="1019.63592" y2="563.61134" id="svg_35" stroke="#428bca"/>
   <line fill="none" stroke-width="2" stroke-dasharray="null" stroke-linejoin="null" stroke-linecap="null" x1="896.66924" y1="718.13815" x2="1004.44515" y2="717.48338" id="svg_36" stroke="#428bca"/>
   <line fill="none" stroke-width="2" stroke-dasharray="null" stroke-linejoin="null" stroke-linecap="null" x1="900.18631" y1="874.16159" x2="932.06449" y2="874.16159" id="svg_37" stroke="#428bca"/>
   <line fill="none" stroke-width="2" stroke-dasharray="null" stroke-linejoin="null" stroke-linecap="null" x1="1204.37591" y1="515.41992" x2="1204.37591" y2="538.07187" id="svg_34" stroke="#428bca"/>
   <line fill="none" stroke-width="2" stroke-dasharray="null" stroke-linejoin="null" stroke-linecap="null" x1="949.91177" y1="873.9371" x2="986.16758" y2="874.61058" id="svg_38" stroke="#428bca"/>
  </g>
  <text style="cursor: move;" fill="#000000" stroke-width="0" stroke-dasharray="null" stroke-linejoin="null" stroke-linecap="null" opacity="0.8" x="956.10065" y="171.42857" id="svg_4" font-size="162" font-family="Sans-serif" text-anchor="middle" xml:space="preserve" transform="matrix(1.00743 0 0 1 -3.20359 0)" stroke="#000000">vitruvian man</text>
 </g>
</svg>