<?xml version="1.0"?>
<svg width="1920" height="1080" xmlns="http://www.w3.org/2000/svg" xmlns:xlink="http://www.w3.org/1999/xlink">
 <!-- Created with SVG-edit - http://svg-edit.googlecode.com/ -->
 <g>
  <title>Layer 1</title>
  <path fill="#000000" id="path1372" d="m191.10817,801.52032c-10.47694,-2.87665 -20.68999,-12.58423 -25.15756,-23.91229c-2.99481,-7.59375 -13.8165,-45.69128 -51.74754,-182.17529l-5.68779,-20.46564l25.6648,-0.15021c14.11563,-0.08252 25.84544,0.04718 26.06622,0.28821c0.22078,0.24109 9.82948,37.435 21.35268,82.65332l20.95123,82.21576l9.95862,-38.1131c23.64882,-90.50696 27.66559,-105.10223 30.65019,-111.37115c4.02193,-8.44757 11.05103,-14.48395 19.39749,-16.6579c4.39777,-1.14539 14.53223,-1.15765 18.88931,-0.02277c9.19806,2.39569 16.38727,9.02765 20.34525,18.76801c2.41357,5.93982 7.60779,25.06195 27.00565,99.41962c6.53461,25.04907 12.06921,45.99677 12.29916,46.55029c0.26022,0.62653 8.35989,-30.10596 21.46048,-81.42786l21.04245,-82.43335l26.06882,-0.00354c20.60486,-0.00287 26.01651,0.14746 25.81946,0.71692c-0.13702,0.39636 -5.68814,20.30725 -12.33551,44.24634c-31.7673,114.40326 -42.82614,152.82227 -45.94055,159.59979c-5.29022,11.51227 -14.18024,19.5119 -24.74042,22.26251c-4.41119,1.14893 -14.00223,1.15961 -18.37573,0.02045c-6.09061,-1.58643 -9.57452,-3.68341 -14.7999,-8.90833c-4.08124,-4.08081 -5.38391,-5.86047 -7.61337,-10.40009c-3.64471,-7.42175 -7.1579,-19.52649 -29.53229,-101.7533c-5.263,-19.3418 -9.71432,-35.55603 -9.89185,-36.03162c-0.17749,-0.47565 -5.60806,18.43671 -12.06799,42.02728c-14.19814,51.84937 -21.67729,78.63477 -24.00142,85.95703c-5.02361,15.82727 -14.15775,25.95996 -26.20073,29.06506c-4.34291,1.11969 -14.85892,1.13965 -18.87918,0.03583l0.00003,0l-0.00002,0zm270.03072,-79.54517l0,-78.69305l24.50146,0l24.50153,0l0,78.69305l0,78.69305l-24.50153,0l-24.50146,0l0,-78.69305zm98.58243,0l0,-78.69305l24.50146,0l24.50153,0l0,78.69305l0,78.69305l-24.50153,0l-24.50146,0l0,-78.69305zm67.45123,70.91022l0,-7.78278l-2.88257,0c-2.69025,0 -2.88251,-0.09613 -2.88251,-1.44128l0,-1.44128l7.49457,0l7.49469,0l0,1.44128c0,1.34515 -0.19226,1.44128 -2.88257,1.44128l-2.88257,0l0,7.78278l0,7.78284l-1.72955,0l-1.72949,0l0,-7.78284zm10.37714,-1.44122l0,-9.22412l2.56952,0l2.56952,0l1.75427,5.68488c0.9649,3.12665 1.75421,6.03223 1.75421,6.45679c0,1.79987 1.12634,-0.67938 2.83136,-6.23248l1.81433,-5.90918l2.57751,0l2.57739,0l0,9.22412l0,9.22406l-1.72943,0l-1.72955,0l-0.04547,-6.48572c-0.04932,-7.01172 -0.02075,-7.02814 -2.56232,1.47449c-1.51654,5.07343 -1.51923,5.07745 -3.32886,4.90027c-1.77527,-0.17377 -1.8457,-0.29718 -3.55811,-6.23059l-1.74707,-6.05328l-0.16364,6.19739l-0.16364,6.19745l-1.71008,0l-1.70996,0l0,-9.22406zm-158.82733,-175.31732c-11.10416,-2.24982 -20.29895,-11.75598 -22.18469,-22.93622c-2.29745,-13.62054 6.7851,-27.32172 20.47534,-30.88757c6.98663,-1.8197 15.93594,-0.87463 22.31204,2.35632c3.81863,1.93512 9.62091,7.48846 11.57495,11.07855c6.7106,12.32971 2.73532,28.41595 -8.86136,35.85736c-6.42996,4.12604 -16.07019,5.99963 -23.31628,4.53156zm98.58246,0c-14.37988,-2.91351 -24.55811,-17.24347 -22.23578,-31.30573c1.78137,-10.78662 9.96844,-19.76813 20.52643,-22.51807c6.98022,-1.81812 15.93616,-0.87451 22.29803,2.34924c3.83234,1.94196 9.24011,7.10333 11.40283,10.8833c6.9458,12.13989 2.99243,28.57275 -8.67511,36.05969c-6.42999,4.12604 -16.07043,5.99963 -23.31641,4.53156z"/>
  <path fill="#000000" id="path1363"/>
  <g id="svg_3">
   <rect x="1151.19621" y="-162.76844" transform="matrix(4.15432 2.39857 -2.39857 4.15432 -4371.82 -1340.48)" width="28.663" height="4.914" id="svg_1" fill="black"/>
   <path d="m1029.82288,872.87433c34.42932,-32.45758 56.20325,-78.11658 56.20325,-129.03339c0,-62.78009 -32.9469,-119.36206 -84.2088,-151.1618l57.40216,-99.40518l-9.02332,-5.22885l14.19958,-24.5853l-37.11523,-21.43365l-14.20001,24.56613l-9.52234,-5.4783l-141.15527,244.52725l12.35242,7.13336l-17.50433,30.30841l30.96985,17.86938l17.5097,-30.27478l12.31909,7.12372l59.34979,-102.83136c36.43939,23.18451 59.74866,63.82581 59.74866,108.86615c0,71.16541 -57.90161,129.03326 -129.07166,129.03326c-47.62122,0 -104.02148,0 -104.02148,0l0,48.86841l292.78394,0l0,-48.86346c0,0 -43.33301,0 -67.01599,0z" id="svg_2" fill="black"/>
  </g>
  <rect fill="#00ff00" stroke-width="17" stroke-dasharray="null" stroke-linejoin="null" stroke-linecap="null" x="1240.86953" y="536.95749" width="569.56525" height="289.84993" id="svg_4" rx="17" ry="17" stroke="#000000"/>
  <text fill="#000000" stroke-width="0" stroke-dasharray="null" stroke-linejoin="null" stroke-linecap="null" x="382.25818" y="274.34786" id="svg_5" font-size="76" font-family="Sans-serif" text-anchor="middle" xml:space="preserve">Wii :)</text>
  <text fill="#000000" stroke-width="0" stroke-dasharray="null" stroke-linejoin="null" stroke-linecap="null" x="943.04344" y="206.95656" id="svg_6" font-size="76" font-family="Sans-serif" text-anchor="middle" xml:space="preserve">Microscope</text>
  <text fill="#000000" stroke-width="0" stroke-dasharray="null" stroke-linejoin="null" stroke-linecap="null" x="1525.65044" y="274.34786" id="svg_7" font-size="76" font-family="Sans-serif" text-anchor="middle" xml:space="preserve">Green Screen</text>
  <path fill="black" id="svg_8" d="m1642.52173,638.05646l0,116.86951l-43.82605,-29.21735l0,-58.43475l43.82605,-29.21741zm-116.86963,14.6087c8.07495,0 14.60876,-6.53424 14.60876,-14.6087l0,-14.6087c0,-8.07489 -6.53418,-14.6087 -14.60876,-14.6087l-73.04346,0c-8.07495,0 -14.60864,6.53412 -14.60864,14.6087l0,14.6087c0,8.07501 6.53418,14.6087 14.60864,14.6087l73.04346,0zm-116.86951,0l14.60864,-14.6087l0,-14.6087l-14.60864,-14.6087l0,43.82611zm175.30444,0l0,87.65216c0,8.07501 -6.5343,14.60864 -14.60876,14.60864l-102.26086,0c-8.07507,0 -14.60876,-6.53412 -14.60876,-14.60864l0,-73.04346l73.04346,0c16.10669,0 29.21741,-13.1109 29.21741,-29.21741l14.60876,0c8.07495,0 14.60876,6.53412 14.60876,14.6087zm-14.60876,80.34784c0,-4.03754 -3.26685,-7.30438 -7.30432,-7.30438l-58.43494,0c-4.03735,0 -7.3042,3.26685 -7.3042,7.30438s3.26685,7.30432 7.3042,7.30432l58.43494,0c4.03748,0 7.30432,-3.26691 7.30432,-7.30432z"/>
 </g>
</svg>