<?xml version="1.0"?>
<svg width="1920" height="1080" xmlns="http://www.w3.org/2000/svg" xmlns:xlink="http://www.w3.org/1999/xlink">
 <metadata id="metadata21">image/svg+xml</metadata>
 <g>
  <title>Layer 1</title>
  <text xml:space="preserve" text-anchor="middle" font-family="Sans-serif" font-size="101" id="svg_5" y="162.9355" x="960.00157" stroke-linecap="null" stroke-linejoin="null" stroke-dasharray="null" stroke-width="0" fill="#000000">art hobbyists</text>
  <text id="svg_13" xml:space="preserve" text-anchor="middle" font-family="Sans-serif" font-size="101" y="283.84617" x="960.00021" stroke-linecap="null" stroke-linejoin="null" stroke-dasharray="null" stroke-width="0" fill="#000000">junkyard DIY builders ...</text>
  <line stroke="#000000" id="svg_37" y2="765.00001" x2="1145.67804" y1="607" x1="979.67804" fill-opacity="0" stroke-linecap="round" stroke-linejoin="null" stroke-dasharray="null" stroke-width="11" fill="none"/>
  <circle stroke="#000000" fill-opacity="0" id="svg_18" r="112.81332" cy="452.60873" cx="978.59104" stroke-linecap="null" stroke-linejoin="null" stroke-dasharray="null" stroke-width="17" fill="#000000"/>
  <line id="svg_22" y2="999" x2="895.17804" y1="820" x1="978.17804" fill-opacity="0" stroke-linecap="null" stroke-linejoin="null" stroke-dasharray="null" stroke-width="11" stroke="#000000" fill="none"/>
  <line id="svg_20" y2="821.58002" x2="978.59104" y1="567.00004" x1="978.59104" fill-opacity="0" stroke-linecap="null" stroke-linejoin="null" stroke-dasharray="null" stroke-width="11" stroke="#000000" fill="none"/>
  <line transform="rotate(133.24 1015.18 911)" id="svg_24" y2="1000.5" x2="973.67804" y1="821.5" x1="1056.67804" fill-opacity="0" stroke-linecap="null" stroke-linejoin="null" stroke-dasharray="null" stroke-width="11" stroke="#000000" fill="none"/>
  <g id="svg_35">
   <rect stroke="#000000" ry="4" rx="4" transform="rotate(64.8407 1214.99 626.21)" id="svg_27" height="2.04714" width="42" y="625.1868" x="1193.99454" stroke-linecap="null" stroke-linejoin="null" stroke-dasharray="null" stroke-width="11" fill="#ffffff"/>
   <rect id="svg_28" stroke="#000000" ry="4" rx="4" transform="rotate(64.8407 1199.42 635.239)" height="2.04714" width="42" y="634.21533" x="1178.41758" stroke-linecap="null" stroke-linejoin="null" stroke-dasharray="null" stroke-width="11" fill="#ffffff"/>
   <g id="svg_34">
    <rect stroke="#000000" transform="rotate(-21.5159 1027.21 703.172)" ry="16" rx="16" id="svg_26" height="48" width="426.2774" y="679.17248" x="814.06951" stroke-linecap="null" stroke-linejoin="null" stroke-dasharray="null" stroke-width="11" fill="#ffffff"/>
    <path stroke="#000000" transform="rotate(-19.835 778.008 782.814)" id="svg_25" d="m844.00818,723.44714c0,16.388 -29.552,29.67902 -66,29.67902m66,-29.67902l0,0c0,16.388 -29.552,29.67902 -66,29.67902c-36.448,0 -66,-13.29102 -66,-29.67902m0,0l0,0c0,-16.40601 29.552,-29.69702 66,-29.69702c36.448,0 66,13.29102 66,29.69702l0,118.73499c0,16.38898 -29.552,29.69598 -66,29.69598c-36.448,0 -66,-13.30701 -66,-29.69598l0,-118.73499z" stroke-linecap="null" stroke-linejoin="null" stroke-dasharray="null" stroke-width="11" fill="#ffffff"/>
    <rect stroke="#000000" id="svg_29" ry="4" rx="4" transform="rotate(70.0956 781.197 801.509)" height="12.21187" width="42" y="795.40288" x="760.19676" stroke-linecap="null" stroke-linejoin="null" stroke-dasharray="null" stroke-width="11" fill="#000000"/>
    <line id="svg_31" y2="619.73913" x2="1209.41718" y1="786.73913" x1="787.41718" stroke-linecap="null" stroke-linejoin="null" stroke-dasharray="null" stroke="#000000" fill="none"/>
    <line stroke-width="2" stroke="#000000" id="svg_32" y2="626.73912" x2="1212.41717" y1="794.73913" x1="790.41718" stroke-linecap="null" stroke-linejoin="null" stroke-dasharray="null" fill="none"/>
    <line stroke="#000000" id="svg_33" y2="630.73914" x2="1223.41716" y1="801.73913" x1="792.41718" stroke-linecap="null" stroke-linejoin="null" stroke-dasharray="null" stroke-width="3" fill="none"/>
   </g>
  </g>
  <text transform="rotate(-19.4538 755.678 724.961)" xml:space="preserve" text-anchor="middle" font-family="Sans-serif" font-size="52" id="svg_36" y="743" x="755.67804" stroke-linecap="null" stroke-linejoin="null" stroke-dasharray="null" stroke-width="0" stroke="#000000" fill="#000000">can</text>
  <line stroke="#000000" transform="rotate(2.89858 1171.68 715)" id="svg_38" y2="664" x2="1196.67804" y1="766" x1="1146.67804" fill-opacity="0" stroke-linecap="round" stroke-linejoin="null" stroke-dasharray="null" stroke-width="11" fill="none"/>
  <rect stroke="#000000" transform="rotate(66.9296 1214.3 628.95)" ry="4" rx="4" id="svg_40" height="7" width="41.32792" y="625.4499" x="1193.63167" fill-opacity="0" stroke-linecap="round" stroke-linejoin="null" stroke-dasharray="null" stroke-width="11" fill="none"/>
  <line id="svg_41" y2="717" x2="818.67804" y1="608" x1="975.67804" fill-opacity="0" stroke-linecap="round" stroke-linejoin="null" stroke-dasharray="null" stroke-width="11" stroke="#000000" fill="none"/>
 </g>
</svg>